<?xml version="1.0" encoding="utf-8"?>
<COLLADA xmlns="http://www.collada.org/2005/11/COLLADASchema" version="1.4.1">
  <asset>
    <contributor>
      <author>Blender User</author>
      <authoring_tool>Blender 2.66.0 r54697</authoring_tool>
    </contributor>
    <created>2013-07-16T22:42:52</created>
    <modified>2013-07-16T22:42:52</modified>
    <unit name="meter" meter="1"/>
    <up_axis>Z_UP</up_axis>
  </asset>
  <library_images/>
  <library_effects>
    <effect id="grass_field-effect">
      <profile_COMMON>
        <technique sid="common">
          <lambert>
            <emission>
              <color sid="emission">0 0 0 1</color>
            </emission>
            <ambient>
              <color sid="ambient">0 0 0 1</color>
            </ambient>
            <diffuse>
              <color sid="diffuse">0.8 0.8 0.8 1</color>
            </diffuse>
            <transparency>
              <float sid="transparency">0</float>
            </transparency>
            <index_of_refraction>
              <float sid="index_of_refraction">1</float>
            </index_of_refraction>
          </lambert>
        </technique>
        <extra>
          <technique profile="GOOGLEEARTH">
            <double_sided>1</double_sided>
          </technique>
        </extra>
      </profile_COMMON>
      <extra><technique profile="MAX3D"><double_sided>1</double_sided></technique></extra>
    </effect>
  </library_effects>
  <library_materials>
    <material id="grass_field-material" name="grass_field">
      <instance_effect url="#grass_field-effect"/>
    </material>
  </library_materials>
  <library_geometries>
    <geometry id="grass_field_large150-mesh" name="grass_field_large150">
      <mesh>
        <source id="grass_field_large150-mesh-positions">
          <float_array id="grass_field_large150-mesh-positions-array" count="78">-0.3802164 -0.2237229 1.443798 -0.2341611 -0.319639 -0.1869016 0.06481456 0.1356258 1.443798 -0.1331138 0.1525517 -0.1869016 -0.1056694 -0.0637238 1.698684 -0.2760148 0.071213 -0.3293905 -0.6966202 -0.4597652 1.698684 -0.4532988 -0.5025752 -0.3293905 -0.3106294 0.3616207 1.74973 -0.4709659 0.2149316 -0.2783446 -0.01372528 -0.2848463 1.74973 0.0672779 -0.05144429 -0.2783446 0.6785126 -0.3951821 1.652855 0.5311072 -0.2355041 -0.3752199 0.03338193 -0.6949785 1.652855 0.2671442 -0.7749355 -0.3752199 0.4818997 -0.8359339 1.379231 0.6533365 -0.7023871 -0.6488435 0.2370598 -0.1680083 1.379231 0.137849 -0.3942716 -0.6488435 0.05343341 0.4743903 0.8427411 0.6285229 -0.3669891 0.9089236 -0.3184509 0.2035646 -0.1465238 0.4437761 -0.4609284 -0.1481566 -0.2906946 -0.01425504 0.9758172 0.2072467 -0.8533185 0.6724392</float_array>
          <technique_common>
            <accessor source="#grass_field_large150-mesh-positions-array" count="26" stride="3">
              <param name="X" type="float"/>
              <param name="Y" type="float"/>
              <param name="Z" type="float"/>
            </accessor>
          </technique_common>
        </source>
        <source id="grass_field_large150-mesh-normals">
          <float_array id="grass_field_large150-mesh-normals-array" count="48">0.6260101 -0.7752743 -0.08402979 0.9730178 -0.2082226 0.0993967 -0.5547481 0.827764 -0.08402973 -0.9507035 0.29374 0.09939682 -0.9055275 -0.4158833 -0.08402973 -0.4413554 -0.8918104 0.09939682 -0.4199347 0.9036558 -0.08402967 -0.8937778 0.4373574 0.0993967 0.9355857 0.3429554 -0.08402961 0.5105133 0.8541057 0.09939664 -0.7202979 -0.619953 0.3111362 -0.7639088 -0.4889981 0.4210333 0.03299045 -0.09833061 0.9945982 -0.09723192 -0.1139561 0.9887081 0.7614063 0.5888241 0.2711265 0.8690756 0.4891812 0.07342749</float_array>
          <technique_common>
            <accessor source="#grass_field_large150-mesh-normals-array" count="16" stride="3">
              <param name="X" type="float"/>
              <param name="Y" type="float"/>
              <param name="Z" type="float"/>
            </accessor>
          </technique_common>
        </source>
        <source id="grass_field_large150-mesh-map-0">
          <float_array id="grass_field_large150-mesh-map-0-array" count="84">0.249278 0.9999999 0 0.9999999 0.2058582 0.2533754 0 0.9999999 0 0.2536642 0.2058582 0.2533754 0.249278 0.9999999 0 0.9999999 0.2058582 0.2533754 0 0.9999999 0 0.2536642 0.2058582 0.2533754 0.249278 0.9999999 0 0.9999999 0.2058582 0.2533754 0 0.9999999 0 0.2536642 0.2058582 0.2533754 0.249278 0.9999999 0 0.9999999 0.2058582 0.2533754 0 0.9999999 0 0.2536642 0.2058582 0.2533754 0.249278 0.9999999 0 0.9999999 0.2058582 0.2533754 0 0.9999999 0 0.2536642 0.2058582 0.2533754 0.9999999 0.4999738 0.5014777 0.5022407 0.4993782 0 0.9999999 0 0.9999999 0.4999738 0.4993782 0 0.9999999 0.4999738 0.4993782 0 0.5014777 0.5022407 0.9999999 0 0.4993782 0 0.9999999 0.4999738</float_array>
          <technique_common>
            <accessor source="#grass_field_large150-mesh-map-0-array" count="42" stride="2">
              <param name="S" type="float"/>
              <param name="T" type="float"/>
            </accessor>
          </technique_common>
        </source>
        <source id="grass_field_large150-mesh-colors">
          <float_array id="grass_field_large150-mesh-colors-array" count="126">1 0.5882353 1 1 0.6941177 0.9647059 0 0 0 1 0.6941177 0.9647059 0 0 0 0 0 0 1 0.5882353 1 1 0.6941177 0.9647059 0 0 0 1 0.6941177 0.9647059 0 0 0 0 0 0 1 0.5882353 1 1 0.6941177 0.9647059 0 0 0 1 0.6941177 0.9647059 0 0 0 0 0 0 1 0.5882353 1 1 0.6941177 0.9647059 0 0 0 1 0.6941177 0.9647059 0 0 0 0 0 0 1 0.5882353 1 1 0.6941177 0.9647059 0 0 0 1 0.6941177 0.9647059 0 0 0 0 0 0 0.5725491 0.4666666 0.4901961 0.9137255 0.2470588 0.1215686 0 0 0 0 0 0 0.5725491 0.4666666 0.4901961 0 0 0 0.5725491 0.4666666 0.4901961 0 0 0 0.9137255 0.2470588 0.1215686 0 0 0 0 0 0 0.5725491 0.4666666 0.4901961</float_array>
          <technique_common>
            <accessor source="#grass_field_large150-mesh-colors-array" count="42" stride="3">
              <param name="R" type="float"/>
              <param name="G" type="float"/>
              <param name="B" type="float"/>
            </accessor>
          </technique_common>
        </source>
        <vertices id="grass_field_large150-mesh-vertices">
          <input semantic="POSITION" source="#grass_field_large150-mesh-positions"/>
        </vertices>
        <polylist material="grass_field-material" count="14">
          <input semantic="VERTEX" source="#grass_field_large150-mesh-vertices" offset="0"/>
          <input semantic="NORMAL" source="#grass_field_large150-mesh-normals" offset="1"/>
          <input semantic="TEXCOORD" source="#grass_field_large150-mesh-map-0" offset="2" set="0"/>
          <input semantic="COLOR" source="#grass_field_large150-mesh-colors" offset="3"/>
          <vcount>3 3 3 3 3 3 3 3 3 3 3 3 3 3 </vcount>
          <p>2 0 0 0 0 0 1 1 3 0 2 2 0 1 3 3 1 1 4 4 3 1 5 5 6 2 6 6 4 2 7 7 7 2 8 8 4 3 9 9 5 3 10 10 7 3 11 11 10 4 12 12 8 4 13 13 11 4 14 14 8 5 15 15 9 5 16 16 11 5 17 17 14 6 18 18 12 6 19 19 15 6 20 20 12 7 21 21 13 7 22 22 15 7 23 23 18 8 24 24 16 8 25 25 19 8 26 26 16 9 27 27 17 9 28 28 19 9 29 29 21 10 30 30 20 11 31 31 22 12 32 32 23 13 33 33 21 10 34 34 22 12 35 35 25 14 36 36 22 12 37 37 24 15 38 38 23 13 39 39 22 12 40 40 25 14 41 41</p>
        </polylist>
      </mesh>
      <extra><technique profile="MAYA"><double_sided>1</double_sided></technique></extra>
    </geometry>
    <geometry id="grass_field_large300-mesh" name="grass_field_large300">
      <mesh>
        <source id="grass_field_large300-mesh-positions">
          <float_array id="grass_field_large300-mesh-positions-array" count="192">-0.3802164 -0.2237229 1.443798 -0.2341611 -0.319639 -0.1869016 0.06481456 0.1356258 1.443798 -0.1331138 0.1525517 -0.1869016 -0.9802413 -0.7090891 0.08967465 0.01068758 -0.692215 0.1386579 -0.9719011 0.2782863 0.03247338 -0.00947833 0.2700518 0.2884515 -0.02709126 1.110775 0.08489537 -0.4400811 0.2269901 0.2665191 0.8467891 0.6576262 -0.0112313 0.4438224 -0.1683399 0.3724972 0.9353609 -0.0733478 0.1505548 -0.0136249 0.2161989 0.2513331 0.6308937 -0.9826031 -0.005762279 -0.3016501 -0.7136972 0.2539109 0.06818723 0.1121621 -0.07056522 0.228162 0.6121404 -0.07056522 0.228162 0.1121621 0.9301701 0.06818723 0.6121404 0.9270301 -0.1680176 0.5665281 -0.07056522 0.2849507 0.301217 -0.07056522 -0.2029571 0.4104154 0.9301701 0.3198903 0.4573296 0.9270301 -0.4833609 -0.1714191 -0.2599824 -0.7829537 -0.6024811 -0.2599824 -0.636299 -0.124495 0.7407529 -0.6300157 -0.6494055 0.737613 -0.3908215 -0.6750836 -0.2599824 -0.7460438 -0.2885766 -0.2599824 -0.3116275 -0.5360863 0.7407529 -0.8252378 -0.4275739 0.737613 -0.1056694 -0.0637238 1.698684 -0.2760148 0.071213 -0.3293905 -0.6966202 -0.4597652 1.698684 -0.4532988 -0.5025752 -0.3293905 -0.3106294 0.3616207 1.74973 -0.4709659 0.2149316 -0.2783446 -0.01372528 -0.2848463 1.74973 0.0672779 -0.05144429 -0.2783446 0.6785126 -0.3951821 1.652855 0.5311072 -0.2355041 -0.3752199 0.03338193 -0.6949785 1.652855 0.2671442 -0.7749355 -0.3752199 0.4818997 -0.8359339 1.379231 0.6533365 -0.7023871 -0.6488435 0.2370598 -0.1680083 1.379231 0.137849 -0.3942716 -0.6488435 0.3750501 0.317909 1.281869 0.2168686 0.293479 -0.2118549 0.2930207 -0.1995828 1.281869 0.4379888 -0.08960461 -0.2118549 -0.7423799 -0.04165434 0.8830071 0.1325221 0.4810252 0.9491896 -0.49475 -0.4293707 -0.1062578 0.2150135 0.2908907 -0.1078906 -0.2756426 -0.4149568 1.016083 0.5922401 0.0308597 0.7127053 0.05343341 0.4743903 0.8427411 0.6285229 -0.3669891 0.9089236 -0.3184509 0.2035646 -0.1465238 0.4437761 -0.4609284 -0.1481566 -0.2906946 -0.01425504 0.9758172 0.2072467 -0.8533185 0.6724392</float_array>
          <technique_common>
            <accessor source="#grass_field_large300-mesh-positions-array" count="64" stride="3">
              <param name="X" type="float"/>
              <param name="Y" type="float"/>
              <param name="Z" type="float"/>
            </accessor>
          </technique_common>
        </source>
        <source id="grass_field_large300-mesh-normals">
          <float_array id="grass_field_large300-mesh-normals-array" count="156">0.6260101 -0.7752743 -0.08402979 0.9730178 -0.2082226 0.0993967 -0.1526231 -0.04904323 0.9870601 -0.2561113 0.05804616 0.9648732 -0.1543626 -0.04730367 0.986877 -0.04614394 -0.1545763 0.986877 0.1182592 0.2590716 0.9585559 0.2571489 0.3011261 0.9182409 0.1205786 0.2598041 0.9580676 -0.02258366 0.2113712 0.9771416 0.1481978 -0.1280251 0.9806208 0.1988281 -0.2303231 0.9525743 0.1500595 -0.1317789 0.9798273 0.09726244 -0.02734458 0.9948729 -0.9900815 -0.1254006 0.0628376 -0.941496 0.3012482 -0.1509751 -0.990051 0.1256447 -0.06295967 -0.9418317 -0.3003937 0.1505478 0.09384441 0.9935911 0.0628376 0.499588 0.8529618 -0.1509751 0.338847 0.9387189 -0.06295967 -0.08743548 0.9847102 0.1505478 0.9833369 -0.1705069 0.0628376 0.8117313 -0.5641652 -0.1509751 0.9096347 -0.410535 -0.06295967 0.988525 0.01092559 0.1505478 -0.3811457 -0.9223609 0.0628376 -0.727836 -0.6689047 -0.1509751 -0.599292 -0.7980285 -0.06295967 -0.2052064 -0.96704 0.1505478 -0.5547481 0.827764 -0.08402973 -0.9507035 0.29374 0.09939682 -0.9055275 -0.4158833 -0.08402973 -0.4413554 -0.8918104 0.09939682 -0.4199347 0.9036558 -0.08402967 -0.8937778 0.4373574 0.0993967 0.9355857 0.3429554 -0.08402961 0.5105133 0.8541057 0.09939664 -0.9841756 0.1560049 -0.08402949 -0.8617886 -0.497434 0.09939676 0.5748466 -0.7567675 0.3111362 0.4414808 -0.7923216 0.4210333 0.1001617 0.02694779 0.9945982 0.1078219 -0.1040071 0.9887081 -0.5412458 0.7959228 0.2711265 -0.435255 0.8973052 0.07342749 -0.7202979 -0.619953 0.3111362 -0.7639088 -0.4889981 0.4210333 0.03299045 -0.09833061 0.9945982 -0.09723192 -0.1139561 0.9887081 0.7614063 0.5888241 0.2711265 0.8690756 0.4891812 0.07342749</float_array>
          <technique_common>
            <accessor source="#grass_field_large300-mesh-normals-array" count="52" stride="3">
              <param name="X" type="float"/>
              <param name="Y" type="float"/>
              <param name="Z" type="float"/>
            </accessor>
          </technique_common>
        </source>
        <source id="grass_field_large300-mesh-map-0">
          <float_array id="grass_field_large300-mesh-map-0-array" count="204">0.249278 0.9999999 0 0.9999999 0.2058582 0.2533754 0 0.9999999 0 0.2536642 0.2058582 0.2533754 0.9999999 1 0.5048137 1 0.5066213 0.5081842 0.9999999 0.5158023 0.9999999 1 0.5066213 0.5081842 0.9999999 1 0.5048137 1 0.5066213 0.5081842 0.9999999 0.5158023 0.9999999 1 0.5066213 0.5081842 0.9999999 1 0.5048137 1 0.5066213 0.5081842 0.9999999 0.5158023 0.9999999 1 0.5066213 0.5081842 0.4988797 0.249864 0 0.2499891 0 0 0.5003676 0 0.4988797 0.249864 0 0 0.4988797 0.249864 0 0.2499891 0 0 0.5003676 0 0.4988797 0.249864 0 0 0.4988797 0.249864 0 0.2499891 0 0 0.5003676 0 0.4988797 0.249864 0 0 0.4988797 0.249864 0 0.2499891 0 0 0.5003676 0 0.4988797 0.249864 0 0 0.249278 0.9999999 0 0.9999999 0.2058582 0.2533754 0 0.9999999 0 0.2536642 0.2058582 0.2533754 0.249278 0.9999999 0 0.9999999 0.2058582 0.2533754 0 0.9999999 0 0.2536642 0.2058582 0.2533754 0.249278 0.9999999 0 0.9999999 0.2058582 0.2533754 0 0.9999999 0 0.2536642 0.2058582 0.2533754 0.249278 0.9999999 0 0.9999999 0.2058582 0.2533754 0 0.9999999 0 0.2536642 0.2058582 0.2533754 0.249278 0.9999999 0 0.9999999 0.2058582 0.2533754 0 0.9999999 0 0.2536642 0.2058582 0.2533754 0.9999999 0.4999738 0.5014777 0.5022407 0.4993782 0 0.9999999 0 0.9999999 0.4999738 0.4993782 0 0.9999999 0.4999738 0.4993782 0 0.5014777 0.5022407 0.9999999 0 0.4993782 0 0.9999999 0.4999738 0.9999999 0.4999738 0.5014777 0.5022407 0.4993782 0 0.9999999 0 0.9999999 0.4999738 0.4993782 0 0.9999999 0.4999738 0.4993782 0 0.5014777 0.5022407 0.9999999 0 0.4993782 0 0.9999999 0.4999738</float_array>
          <technique_common>
            <accessor source="#grass_field_large300-mesh-map-0-array" count="102" stride="2">
              <param name="S" type="float"/>
              <param name="T" type="float"/>
            </accessor>
          </technique_common>
        </source>
        <source id="grass_field_large300-mesh-colors">
          <float_array id="grass_field_large300-mesh-colors-array" count="306">1 0.5882353 1 1 0.6941177 0.9647059 0 0 0 1 0.6941177 0.9647059 0 0 0 0 0 0 0.2470588 0.08235293 0.2666667 0.427451 0 0 0.4313725 0.9019608 0.6509804 0.3568627 0.3882353 0.1411765 0.2470588 0.08235293 0.2666667 0.4313725 0.9019608 0.6509804 0.2470588 0.08235293 0.2666667 0.427451 0 0 0.4313725 0.9019608 0.6509804 0.3568627 0.3882353 0.1411765 0.2470588 0.08235293 0.2666667 0.4313725 0.9019608 0.6509804 0.2470588 0.08235293 0.2666667 0.427451 0 0 0.4313725 0.9019608 0.6509804 0.3568627 0.3882353 0.1411765 0.2470588 0.08235293 0.2666667 0.4313725 0.9019608 0.6509804 1 0.3098039 0.5490196 0 0 0 0 0 0 1 0 0 1 0.3098039 0.5490196 0 0 0 1 0.3098039 0.5490196 0 0 0 0 0 0 1 0 0 1 0.3098039 0.5490196 0 0 0 1 0.3098039 0.5490196 0 0 0 0 0 0 1 0 0 1 0.3098039 0.5490196 0 0 0 1 0.3098039 0.5490196 0 0 0 0 0 0 1 0 0 1 0.3098039 0.5490196 0 0 0 1 0.5882353 1 1 0.6941177 0.9647059 0 0 0 1 0.6941177 0.9647059 0 0 0 0 0 0 1 0.5882353 1 1 0.6941177 0.9647059 0 0 0 1 0.6941177 0.9647059 0 0 0 0 0 0 1 0.5882353 1 1 0.6941177 0.9647059 0 0 0 1 0.6941177 0.9647059 0 0 0 0 0 0 1 0.5882353 1 1 0.6941177 0.9647059 0 0 0 1 0.6941177 0.9647059 0 0 0 0 0 0 1 0.5882353 1 1 0.6941177 0.9647059 0 0 0 1 0.6941177 0.9647059 0 0 0 0 0 0 0.5725491 0.4666666 0.4901961 0.9137255 0.2470588 0.1215686 0 0 0 0 0 0 0.5725491 0.4666666 0.4901961 0 0 0 0.5725491 0.4666666 0.4901961 0 0 0 0.9137255 0.2470588 0.1215686 0 0 0 0 0 0 0.5725491 0.4666666 0.4901961 0.5725491 0.4666666 0.4901961 0.9137255 0.2470588 0.1215686 0 0 0 0 0 0 0.5725491 0.4666666 0.4901961 0 0 0 0.5725491 0.4666666 0.4901961 0 0 0 0.9137255 0.2470588 0.1215686 0 0 0 0 0 0 0.5725491 0.4666666 0.4901961</float_array>
          <technique_common>
            <accessor source="#grass_field_large300-mesh-colors-array" count="102" stride="3">
              <param name="R" type="float"/>
              <param name="G" type="float"/>
              <param name="B" type="float"/>
            </accessor>
          </technique_common>
        </source>
        <vertices id="grass_field_large300-mesh-vertices">
          <input semantic="POSITION" source="#grass_field_large300-mesh-positions"/>
        </vertices>
        <polylist material="grass_field-material" count="34">
          <input semantic="VERTEX" source="#grass_field_large300-mesh-vertices" offset="0"/>
          <input semantic="NORMAL" source="#grass_field_large300-mesh-normals" offset="1"/>
          <input semantic="TEXCOORD" source="#grass_field_large300-mesh-map-0" offset="2" set="0"/>
          <input semantic="COLOR" source="#grass_field_large300-mesh-colors" offset="3"/>
          <vcount>3 3 3 3 3 3 3 3 3 3 3 3 3 3 3 3 3 3 3 3 3 3 3 3 3 3 3 3 3 3 3 3 3 3 </vcount>
          <p>2 0 0 0 0 0 1 1 3 0 2 2 0 1 3 3 1 1 4 4 3 1 5 5 7 2 6 6 6 3 7 7 4 4 8 8 5 5 9 9 7 2 10 10 4 4 11 11 11 6 12 12 10 7 13 13 8 8 14 14 9 9 15 15 11 6 16 16 8 8 17 17 15 10 18 18 14 11 19 19 12 12 20 20 13 13 21 21 15 10 22 22 12 12 23 23 19 14 24 24 17 15 25 25 16 16 26 26 18 17 27 27 19 14 28 28 16 16 29 29 23 18 30 30 21 19 31 31 20 20 32 32 22 21 33 33 23 18 34 34 20 20 35 35 27 22 36 36 25 23 37 37 24 24 38 38 26 25 39 39 27 22 40 40 24 24 41 41 31 26 42 42 29 27 43 43 28 28 44 44 30 29 45 45 31 26 46 46 28 28 47 47 34 30 48 48 32 30 49 49 35 30 50 50 32 31 51 51 33 31 52 52 35 31 53 53 38 32 54 54 36 32 55 55 39 32 56 56 36 33 57 57 37 33 58 58 39 33 59 59 42 34 60 60 40 34 61 61 43 34 62 62 40 35 63 63 41 35 64 64 43 35 65 65 46 36 66 66 44 36 67 67 47 36 68 68 44 37 69 69 45 37 70 70 47 37 71 71 50 38 72 72 48 38 73 73 51 38 74 74 48 39 75 75 49 39 76 76 51 39 77 77 53 40 78 78 52 41 79 79 54 42 80 80 55 43 81 81 53 40 82 82 54 42 83 83 57 44 84 84 54 42 85 85 56 45 86 86 55 43 87 87 54 42 88 88 57 44 89 89 59 46 90 90 58 47 91 91 60 48 92 92 61 49 93 93 59 46 94 94 60 48 95 95 63 50 96 96 60 48 97 97 62 51 98 98 61 49 99 99 60 48 100 100 63 50 101 101</p>
        </polylist>
      </mesh>
      <extra><technique profile="MAYA"><double_sided>1</double_sided></technique></extra>
    </geometry>
    <geometry id="Untitled-mesh" name="Untitled">
      <mesh>
        <source id="Untitled-mesh-positions">
          <float_array id="Untitled-mesh-positions-array" count="24">-7.760349 -7.760349 -7.020276 -7.760349 7.760349 -7.020276 7.760349 7.760349 -7.020276 7.760349 -7.760349 -7.020276 -7.760349 -7.760349 7.020276 -7.760349 7.760349 7.020276 7.760349 7.760349 7.020276 7.760349 -7.760349 7.020276</float_array>
          <technique_common>
            <accessor source="#Untitled-mesh-positions-array" count="8" stride="3">
              <param name="X" type="float"/>
              <param name="Y" type="float"/>
              <param name="Z" type="float"/>
            </accessor>
          </technique_common>
        </source>
        <source id="Untitled-mesh-normals">
          <float_array id="Untitled-mesh-normals-array" count="18">-1 0 0 0 1 0 1 0 0 0 -1 0 0 0 -1 0 0 1</float_array>
          <technique_common>
            <accessor source="#Untitled-mesh-normals-array" count="6" stride="3">
              <param name="X" type="float"/>
              <param name="Y" type="float"/>
              <param name="Z" type="float"/>
            </accessor>
          </technique_common>
        </source>
        <vertices id="Untitled-mesh-vertices">
          <input semantic="POSITION" source="#Untitled-mesh-positions"/>
        </vertices>
        <polylist count="6">
          <input semantic="VERTEX" source="#Untitled-mesh-vertices" offset="0"/>
          <input semantic="NORMAL" source="#Untitled-mesh-normals" offset="1"/>
          <vcount>4 4 4 4 4 4 </vcount>
          <p>1 0 0 0 4 0 5 0 5 1 6 1 2 1 1 1 6 2 7 2 3 2 2 2 0 3 3 3 7 3 4 3 0 4 1 4 2 4 3 4 7 5 6 5 5 5 4 5</p>
        </polylist>
      </mesh>
      <extra><technique profile="MAYA"><double_sided>1</double_sided></technique></extra>
    </geometry>
  </library_geometries>
  <library_controllers/>
  <library_visual_scenes>
    <visual_scene id="Scene" name="Scene">
      <node id="base00" name="base00" type="NODE">
        <matrix sid="transform">1 0 0 0 0 1 0 0 0 0 1 0 0 0 0 1</matrix>
        <node id="bb__autobillboard25" name="bb__autobillboard25" type="NODE">
          <matrix sid="transform">1 0 0 0 0 1 0 0 0 0 1 0 0 0 0 1</matrix>
        </node>
        <node id="detail150" name="detail150" type="NODE">
          <matrix sid="transform">1 0 0 0 0 1 0 0 0 0 1 0 0 0 0 1</matrix>
        </node>
        <node id="detail300" name="detail300" type="NODE">
          <matrix sid="transform">1 0 0 0 0 1 0 0 0 0 1 0 0 0 0 1</matrix>
        </node>
        <node id="start00" name="start00" type="NODE">
          <matrix sid="transform">1 0 0 0 0 1 0 0 0 0 1 0 0 0 0 1</matrix>
          <node id="grass_field_large150" name="grass_field_large150" type="NODE">
            <matrix sid="transform">1 0 0 0 0 1 0 0 0 0 1 0 0 0 0 1</matrix>
            <instance_geometry url="#grass_field_large150-mesh">
              <bind_material>
                <technique_common>
                  <instance_material symbol="grass_field-material" target="#grass_field-material">
                    <bind_vertex_input semantic="UVMap" input_semantic="TEXCOORD" input_set="0"/>
                  </instance_material>
                </technique_common>
              </bind_material>
            </instance_geometry>
          </node>
          <node id="grass_field_large300" name="grass_field_large300" type="NODE">
            <matrix sid="transform">1 0 0 0 0 1 0 0 0 0 1 0 0 0 0 1</matrix>
            <instance_geometry url="#grass_field_large300-mesh">
              <bind_material>
                <technique_common>
                  <instance_material symbol="grass_field-material" target="#grass_field-material">
                    <bind_vertex_input semantic="UVMap" input_semantic="TEXCOORD" input_set="0"/>
                  </instance_material>
                </technique_common>
              </bind_material>
            </instance_geometry>
          </node>
        </node>
      </node>
      <node id="bounds" name="bounds" type="NODE">
        <matrix sid="transform">1 0 0 0 0 1 0 0 0 0 1 0 0 0 0 1</matrix>
        <node id="Untitled" name="Untitled" type="NODE">
          <matrix sid="transform">0.2315188 0 0 -0.02734702 0 0.2315188 0 0.1298983 0 0 0.0824323 0.3965317 0 0 0 1</matrix>
          <instance_geometry url="#Untitled-mesh"/>
        </node>
      </node>
    </visual_scene>
  </library_visual_scenes>
  <scene>
    <instance_visual_scene url="#Scene"/>
  </scene>
</COLLADA>