<?xml version="1.0" encoding="utf-8"?>
<COLLADA xmlns="http://www.collada.org/2005/11/COLLADASchema" version="1.4.1" xmlns:xsi="http://www.w3.org/2001/XMLSchema-instance">
  <asset>
    <contributor>
      <author>Blender User</author>
      <authoring_tool>Blender 2.79.0 commit date:2018-03-22, commit time:14:10, hash:f4dc9f9d68b</authoring_tool>
    </contributor>
    <created>2018-06-19T15:22:02</created>
    <modified>2018-06-19T15:22:02</modified>
    <unit name="meter" meter="1"/>
    <up_axis>Z_UP</up_axis>
  </asset>
  <library_images>
    <image id="busstop_d_dds" name="busstop_d_dds">
      <init_from>busstop_d.dds</init_from>
    </image>
    <image id="busstop_n_png" name="busstop_n_png">
      <init_from>busstop_n.png</init_from>
    </image>
    <image id="busstop_s_dds" name="busstop_s_dds">
      <init_from>busstop_s.dds</init_from>
    </image>
    <image id="tro_vines_2d_d_dds" name="tro_vines_2d_d_dds">
        <init_from>levels/jurassic_beam_park/art/shapes/trees/vines_tropical/tro_vines_2d_d.dds</init_from>
    </image>
  </library_images>
  <library_effects>
    <effect id="busstop-effect">
      <profile_COMMON>
        <newparam sid="busstop_d_dds-surface">
          <surface type="2D">
            <init_from>busstop_d_dds</init_from>
          </surface>
        </newparam>
        <newparam sid="busstop_d_dds-sampler">
          <sampler2D>
            <source>busstop_d_dds-surface</source>
          </sampler2D>
        </newparam>
        <newparam sid="busstop_s_dds-surface">
          <surface type="2D">
            <init_from>busstop_s_dds</init_from>
          </surface>
        </newparam>
        <newparam sid="busstop_s_dds-sampler">
          <sampler2D>
            <source>busstop_s_dds-surface</source>
          </sampler2D>
        </newparam>
        <newparam sid="busstop_n_png-surface">
          <surface type="2D">
            <init_from>busstop_n_png</init_from>
          </surface>
        </newparam>
        <newparam sid="busstop_n_png-sampler">
          <sampler2D>
            <source>busstop_n_png-surface</source>
          </sampler2D>
        </newparam>
        <technique sid="common">
          <phong>
            <emission>
              <color sid="emission">0 0 0 1</color>
            </emission>
            <ambient>
              <color sid="ambient">0 0 0 1</color>
            </ambient>
            <diffuse>
              <texture texture="busstop_d_dds-sampler"/>
            </diffuse>
            <specular>
              <texture texture="busstop_s_dds-sampler"/>
            </specular>
            <shininess>
              <float sid="shininess">50</float>
            </shininess>
            <transparent opaque="A_ONE">
              <texture texture="busstop_d_dds-sampler"/>
            </transparent>
            <index_of_refraction>
              <float sid="index_of_refraction">1</float>
            </index_of_refraction>
          </phong>
          <extra>
            <technique profile="FCOLLADA">
              <bump>
                <texture texture="busstop_n_png-sampler"/>
              </bump>
            </technique>
          </extra>
        </technique>
      </profile_COMMON>
    </effect>
    <effect id="tro_vines_2d-effect">
      <profile_COMMON>
        <newparam sid="tro_vines_2d_d_dds-surface">
          <surface type="2D">
            <init_from>tro_vines_2d_d_dds</init_from>
          </surface>
        </newparam>
        <newparam sid="tro_vines_2d_d_dds-sampler">
          <sampler2D>
            <source>tro_vines_2d_d_dds-surface</source>
          </sampler2D>
        </newparam>
        <technique sid="common">
          <lambert>
            <emission>
              <color sid="emission">0 0 0 1</color>
            </emission>
            <ambient>
              <color sid="ambient">0 0 0 1</color>
            </ambient>
            <diffuse>
              <texture texture="tro_vines_2d_d_dds-sampler"/>
            </diffuse>
            <transparent opaque="A_ONE">
              <texture texture="tro_vines_2d_d_dds-sampler"/>
            </transparent>
            <index_of_refraction>
              <float sid="index_of_refraction">1</float>
            </index_of_refraction>
          </lambert>
        </technique>
      </profile_COMMON>
    </effect>
  </library_effects>
  <library_materials>
    <material id="busstop-material" name="busstop">
      <instance_effect url="#busstop-effect"/>
    </material>
    <material id="tro_vines_2d-material" name="tro_vines_2d">
      <instance_effect url="#tro_vines_2d-effect"/>
    </material>
  </library_materials>
  <library_geometries>
    <geometry id="Circle_007-mesh" name="Circle.007">
      <mesh>
        <source id="Circle_007-mesh-positions">
          <float_array id="Circle_007-mesh-positions-array" count="504">0 0.07917976 0.3443799 -0.05598843 0.05598831 0.3443799 -0.07917964 0 0.3443799 -0.05598843 -0.05598831 0.3443799 0 -0.07917976 0.3443799 0.05598843 -0.05598831 0.3443799 0.07917964 0 0.3443799 0.05598843 0.05598831 0.3443799 0 0.07917976 -0.3443785 -0.05598843 0.05598831 -0.3443785 -0.07917964 0 -0.3443785 -0.05598843 -0.05598831 -0.3443785 0 -0.07917976 -0.3443785 0.05598843 -0.05598831 -0.3443785 0.07917964 0 -0.3443785 0.05598843 0.05598831 -0.3443785 0 0.04606628 2.577618 -0.03257358 0.03257369 2.577618 -0.04606592 0 2.577618 -0.03257358 -0.03257369 2.577618 0 -0.04606533 2.577618 0.03257358 -0.03257369 2.577618 0.03257358 0.03257369 2.577618 0.04606592 0 2.577618 -1.03712e-4 0.0463438 3.60136 -0.03267717 0.03285121 3.60136 -0.04616951 2.77519e-4 3.60136 -0.03267717 -0.03229618 3.60136 -1.03712e-4 -0.04578781 3.60136 0.03246998 -0.03229618 3.60136 0.03246998 0.03285121 3.60136 0.04596233 2.77519e-4 3.60136 0.0479176 -0.01733654 2.966179 0.08981841 -0.01733654 2.924278 0.4412698 -0.01733654 2.924278 0.4831707 -0.01733654 2.966179 0.08981841 -0.01733654 3.590246 0.0479176 -0.01733654 3.548346 0.4831707 -0.01733654 3.548346 0.4412698 -0.01733654 3.590246 0.03257358 0.03257369 0.3677244 0.04606592 0 0.3677244 0.03257358 -0.03257369 0.3677244 0 -0.04606533 0.3677244 -0.03257358 -0.03257369 0.3677244 -0.04606592 0 0.3677244 -0.03257358 0.03257369 0.3677244 0 0.04606628 0.3677244 0.0479176 -0.001714706 2.966179 0.08981841 -0.001714706 2.924278 0.4412698 -0.001714706 2.924278 0.4831707 -0.001714706 2.966179 0.08981841 -0.001714706 3.590246 0.0479176 -0.001714706 3.548346 0.4831707 -0.001714706 3.548346 0.4412698 -0.001714706 3.590246 -1.03712e-4 0.0463438 3.60136 -0.03267717 0.03285121 3.60136 -0.04616951 2.77519e-4 3.60136 -0.03267717 -0.03229618 3.60136 -1.03712e-4 -0.04578781 3.60136 0.03246998 -0.03229618 3.60136 0.03246998 0.03285121 3.60136 0.04596233 2.77519e-4 3.60136 0.1659024 0.06148785 0.958753 0.1912798 0.06148785 0.9799544 -0.1821816 0.06148785 0.9799544 -0.1568043 0.06148785 0.958753 0.1912798 0.06148785 1.719914 0.1659024 0.06148785 1.741116 -0.1568043 0.06148785 1.741116 -0.1821816 0.06148785 1.719914 0.1659024 0.03976261 1.741116 0.1912798 0.03976261 1.719914 0.1912798 0.03976261 0.9799544 0.1659024 0.03976261 0.958753 -0.1568043 0.03976261 0.958753 -0.1821816 0.03976261 0.9799544 -0.1821816 0.03976261 1.719914 -0.1568043 0.03976261 1.741116 -0.2771052 0.5120111 0.03223532 -0.5503858 0.1312355 0.1744602 -0.1953402 -0.2562337 2.090656 -0.05458849 0.1908259 1.948432 1.90806e-6 0.3808646 2.53577 -0.2182816 -0.05760049 2.53577 -0.108858 0.01944494 3.5516 0.104622 0.0861907 3.5516 0.1098313 0.02370214 3.627318 -0.1036487 -0.04304361 3.627318 -0.1005617 -0.1062388 3.563812 0.1129182 -0.03949308 3.563812 0.2412405 -0.03234148 1.999999 0.08111679 -0.6110864 -8.34465e-7 -0.6467621 -0.7112107 -8.34465e-7 -0.2439865 -0.09908723 1.999999 0.06543928 0.1929783 1.866578 -0.2677268 0.04502058 -8.34465e-7 -0.07037311 0.2177748 1.903296 -0.4064977 0.07894468 -8.34465e-7 0.1289973 0.04429864 2.93465 -0.006815016 0.06909513 2.971369 0.1530932 0.008123874 3.610617 0.01032638 0.0109744 3.614815 0.1553454 -0.02617883 3.611594 0.01257866 -0.02332925 3.615792 0.04400151 -0.0691989 3.438277 -0.09876519 -0.06634742 3.442475 -0.1199409 -0.1079602 1.132558 -0.275454 0.3279281 0.9903335 0.1636812 -0.1539578 0.999999 -0.3215456 -0.2207036 0.999999 -0.2771052 0.6070396 -1.598894 -0.5503858 0.17319 -1.456669 0.08111679 -0.6726 -1.63113 -0.6467621 -0.7866801 -1.63113 -0.2771052 0.5120111 0.03223532 -0.5503858 0.1312355 0.1744602 -0.1953402 -0.2562337 2.090656 -0.05458849 0.1908259 1.948432 1.90806e-6 0.3808646 2.53577 -0.2182816 -0.05760049 2.53577 -0.108858 0.01944494 3.5516 0.104622 0.0861907 3.5516 0.1098313 0.02370214 3.627318 -0.1036487 -0.04304361 3.627318 -0.1005617 -0.1062388 3.563812 0.1129182 -0.03949308 3.563812 0.2412405 -0.03234148 1.999999 0.08111679 -0.6110864 -8.34465e-7 -0.6467621 -0.7112107 -8.34465e-7 -0.2439865 -0.09908723 1.999999 0.06543928 0.1929783 1.866578 -0.2677268 0.04502058 -8.34465e-7 -0.07037311 0.2177748 1.903296 -0.4064977 0.07894468 -8.34465e-7 0.1289973 0.04429864 2.93465 -0.006815016 0.06909513 2.971369 0.1530932 0.008123874 3.610617 0.01032638 0.0109744 3.614815 0.1553454 -0.02617883 3.611594 0.01257866 -0.02332925 3.615792 0.04400151 -0.0691989 3.438277 -0.09876519 -0.06634742 3.442475 -0.1199409 -0.1079602 1.132558 -0.275454 0.3279281 0.9903335 0.1636812 -0.1539578 0.999999 -0.3215456 -0.2207036 0.999999 -0.2771052 0.6070396 -1.598894 -0.5503858 0.17319 -1.456669 0.08111679 -0.6726 -1.63113 -0.6467621 -0.7866801 -1.63113 -0.05598843 0.05598831 0.3443799 0 0.07917976 0.3443799 -0.07917964 0 0.3443799 -0.05598843 -0.05598831 0.3443799 0 -0.07917976 0.3443799 0.05598843 -0.05598831 0.3443799 0.07917964 0 0.3443799 0.05598843 0.05598831 0.3443799 0 0.04606628 0.3677244 0.03257358 0.03257369 0.3677244 0.04606592 0 0.3677244 0.03257358 -0.03257369 0.3677244 0 -0.04606533 0.3677244 -0.03257358 -0.03257369 0.3677244 -0.04606592 0 0.3677244 -0.03257358 0.03257369 0.3677244</float_array>
          <technique_common>
            <accessor source="#Circle_007-mesh-positions-array" count="168" stride="3">
              <param name="X" type="float"/>
              <param name="Y" type="float"/>
              <param name="Z" type="float"/>
            </accessor>
          </technique_common>
        </source>
        <source id="Circle_007-mesh-normals">
          <float_array id="Circle_007-mesh-normals-array" count="420">-0.5762039 0 0.8173061 -0.4074341 -0.4074341 0.8173096 0 0.5762039 0.8173061 -0.4074341 0.4074341 0.8173096 0.4074341 0.4074341 0.8173096 0.5762039 0 0.8173061 0.4074341 -0.4074341 0.8173096 0 -0.5761691 0.8173306 0.7071068 -0.7071068 0 1 0 0 -0.7071068 -0.7071068 0 0 -1 0 -0.7071068 0.7071068 0 -1 0 0 0.7071068 0.7071068 0 0 1 0 0.7070915 -0.707122 1.22075e-4 0 -1 2.44156e-4 0 -1 1.22074e-4 -1 -3.05185e-5 -3.05185e-5 -0.7071526 -0.707061 9.15566e-5 -1 6.10389e-5 -9.15583e-5 0 1 -1.22074e-4 -0.7070915 0.707122 -2.44151e-4 0 1 -2.44148e-4 0.707061 0.7071526 -9.15566e-5 0.7071373 0.7070763 -3.05195e-5 1 -3.05185e-5 3.05185e-5 0.707122 -0.7070915 2.44151e-4 -0.7070763 -0.7071373 3.05195e-5 -0.707122 0.7070915 -1.22075e-4 1 6.1037e-5 9.15555e-5 0 0 -1 0 1 0 0 0 1 0 -1 0 -0.707108 0 0.7071056 0.7071079 0 0.7071057 0.7071039 0 -0.7071098 -0.707104 0 -0.7071096 -1.80687e-7 0 -1 0 -1 -2.72244e-7 0 0 1 0.6411401 0 -0.767424 0.6411439 0 0.7674207 -0.6411445 0 0.7674202 -0.6411415 0 -0.7674228 -1.197e-7 1 0 -0.9545774 -0.1088007 0.2773884 -0.8538156 0.5071133 0.1176224 -0.9654558 -0.1627303 0.2035044 -0.8974817 0.4404854 0.02234011 -0.96946 0.2421971 -0.0385757 -0.9576544 0.2681091 -0.1049547 -0.3883647 0.8589497 0.3337342 -0.2831286 0.905572 0.3158759 -0.04730433 0.1513434 0.9873487 0.02053904 -0.06576764 0.9976236 0.2742422 -0.8772027 0.3940896 0.262434 -0.8998564 0.3484063 0.1308643 -0.9514213 0.278697 0.1325131 -0.9635434 0.2324321 0.131966 -0.9595003 0.2488859 0.1438363 -0.9884512 0.04770123 0.1360863 -0.9894411 0.04986876 0.1864125 0.9822975 0.01849472 0.2323452 0.9661875 -0.1117931 0.2359707 0.9652768 -0.1120647 0.2021302 0.9753096 0.08896416 0.1792371 0.983805 -0.001373291 0.1883948 0.9786278 0.08243227 0.05020385 0.6683371 0.7421627 0.008301198 -0.6731614 0.739449 0.01599222 -0.4853528 0.8741722 -0.01202452 -0.9686467 0.248151 0.1362982 -0.9697137 0.2026773 0.1496959 -0.9877793 0.04339808 -0.8052917 0.5903112 0.0551185 -0.8361021 0.5478184 0.0287795 0.8538156 -0.5071133 -0.1176224 0.9545774 0.1088007 -0.2773884 0.9654558 0.1627303 -0.2035044 0.8974817 -0.4404854 -0.02234011 0.96946 -0.2421971 0.0385757 0.89201 -0.4440518 -0.08447664 0.3883647 -0.8589497 -0.3337342 0.2831286 -0.905572 -0.3158759 0.04730433 -0.1513434 -0.9873487 -0.02053904 0.06576764 -0.9976236 -0.2742422 0.8772027 -0.3940896 -0.262434 0.8998564 -0.3484063 -0.1325131 0.9635434 -0.2324321 -0.1308643 0.9514213 -0.278697 -0.131966 0.9595003 -0.2488859 -0.1438363 0.9884512 -0.04770123 -0.1360863 0.9894411 -0.04986876 -0.1864125 -0.9822975 -0.01849472 -0.2323452 -0.9661875 0.1117931 -0.1792371 -0.983805 0.001373291 -0.2021302 -0.9753096 -0.08896416 -0.05020385 -0.6683371 -0.7421627 -0.1883948 -0.9786278 -0.08243227 -0.008301198 0.6731614 -0.739449 -0.03491443 -0.7030192 -0.7103134 0.01202452 0.9686467 -0.248151 -0.01599222 0.4853528 -0.8741722 0.9576544 -0.2681091 0.1049547 -0.1496959 0.9877793 -0.04339808 -0.1362982 0.9697137 -0.2026773 0.8361021 -0.5478184 -0.0287795 0.8052917 -0.5903112 -0.0551185 0 1 0 0 -1 0 0 -1 0 -0.707104 0 0.7071096 0.7071039 0 0.7071098 0.7071119 0 -0.7071017 -0.707112 0 -0.7071016 5.31358e-7 0 -1 0 -1 9.4098e-7 0 -1 0 0 -1 -5.44482e-7 0 -1 -2.35242e-7 0 -1 0 0.6411413 0 -0.7674229 0.6411444 0 0.7674204 -0.6411447 0 0.7674201 -0.6411412 0 -0.7674231 0 1 5.44488e-7 -1.19701e-7 1 0 -1.197e-7 1 0 0 1 -1.08896e-6 -1.19699e-7 1 4.70485e-7 -0.89201 0.4440518 0.08447664 0.03491443 0.7030192 0.7103134 0.1546683 -0.9869109 0.04565584 -0.8410295 0.5400754 0.03143519 -0.2359707 -0.9652768 0.1120647 -0.1546683 0.9869109 -0.04565584 0.8410295 -0.5400754 -0.03143519</float_array>
          <technique_common>
            <accessor source="#Circle_007-mesh-normals-array" count="140" stride="3">
              <param name="X" type="float"/>
              <param name="Y" type="float"/>
              <param name="Z" type="float"/>
            </accessor>
          </technique_common>
        </source>
        <source id="Circle_007-mesh-map-0">
          <float_array id="Circle_007-mesh-map-0-array" count="1140">0.005320787 0.2944229 0.02706438 0.276682 0.02706438 0.2944229 0.1449723 0.2944229 0.167387 0.276682 0.167387 0.2944229 0.1449723 0.2944229 0.1218575 0.276682 0.1449723 0.276682 0.09830611 0.2944229 0.0745263 0.276682 0.09830611 0.276682 0.02706438 0.2944229 0.05049628 0.276682 0.05049628 0.2944229 0.1882759 0.2944229 0.167387 0.276682 0.1882759 0.276682 0.09830611 0.2944229 0.1218575 0.276682 0.1218575 0.2944229 0.0745263 0.2944229 0.05049628 0.276682 0.0745263 0.276682 0.0745263 0.276682 0.09830611 0.003557562 0.09830611 0.276682 0.02706438 0.276682 0.05049628 0.003557562 0.05049628 0.276682 0.167387 0.276682 0.1882759 0.003557562 0.1882759 0.276682 0.09830611 0.276682 0.1218575 0.003557562 0.1218575 0.276682 0.05049628 0.276682 0.0745263 0.003557562 0.0745263 0.276682 0.005320787 0.276682 0.02706438 0.003557562 0.02706438 0.276682 0.1449723 0.276682 0.167387 0.003557562 0.167387 0.276682 0.1218575 0.276682 0.1449723 0.003557562 0.1449723 0.276682 0.6793347 0.5717841 0.3294987 0.5597358 0.6793347 0.5597358 0.6793349 0.5356394 0.3294987 0.5476868 0.3294987 0.5356379 0.6793348 0.6079287 0.3294989 0.6199806 0.3294989 0.6079316 0.6793348 0.6079287 0.3294988 0.5958826 0.6793347 0.5958804 0.6793347 0.5838322 0.3294987 0.5717847 0.6793347 0.5717841 0.6793348 0.5476876 0.3294987 0.5597358 0.3294987 0.5476868 0.6793349 0.6199769 0.3294991 0.6320294 0.3294989 0.6199806 0.6793347 0.5958804 0.3294988 0.5838337 0.6793347 0.5838322 0.04449355 0.5424217 0.04171329 0.6049882 0.04171252 0.5424217 0.7762638 0.5324202 0.761974 0.5467099 0.7619742 0.6665667 0.04449439 0.6155371 0.04171377 0.719174 0.04171341 0.6155371 0.04449468 0.7297228 0.04171252 0.7922862 0.04171377 0.7297227 0.9890923 0.54671 0.9890923 0.6665668 0.9748027 0.6808565 0.0444898 0.417681 0.041709 0.4282305 0.04170864 0.4176811 0.04171377 0.7297227 0.04449474 0.719174 0.04449468 0.7297228 0.04449433 0.6049881 0.04171341 0.6155371 0.04171329 0.6049882 0.04171252 0.5424217 0.04449331 0.5318724 0.04449355 0.5424217 0.04449009 0.4282305 0.04171222 0.5318725 0.041709 0.4282305 0.06827443 0.3023869 0.05626344 0.9905053 0.05626344 0.3023279 0.04425245 0.302269 0.0322414 0.9903874 0.0322414 0.30221 0.02023041 0.302151 0.00821942 0.9902696 0.00821942 0.3020921 0.1043075 0.3025638 0.09229648 0.9906823 0.09229648 0.3025048 0.08028548 0.3024459 0.06827443 0.9905642 0.06827443 0.3023869 0.05626344 0.3023279 0.04425245 0.9904464 0.04425245 0.302269 0.0322414 0.30221 0.02023041 0.9903284 0.02023041 0.302151 0.09229648 0.3025048 0.08028548 0.9906233 0.08028548 0.3024459 0.06559729 0.6620488 0.05078566 0.6620488 0.06559699 0.6262907 0.2196839 0.9723237 0.2689 0.9843593 0.2196839 0.9843593 0.2743739 0.972323 0.4094574 0.9843563 0.2743739 0.9843593 0.8663466 0.1061611 0.8707448 0.101763 0.9266731 0.1017628 0.4696236 0.9723172 0.604713 0.9843471 0.4696236 0.9843541 0.4149311 0.9723198 0.4641494 0.9843545 0.4149313 0.9843561 0.6101873 0.9843462 0.604713 0.9723101 0.6101868 0.9723097 0.4696236 0.9723172 0.4641494 0.9843545 0.4641494 0.9723175 0.4149311 0.9723198 0.4094574 0.9843563 0.4094572 0.9723201 0.2743739 0.9843593 0.2689 0.972323 0.2743739 0.972323 0.887607 0.9458603 0.887607 0.7014191 0.990677 0.9458602 0.6122226 -2.205542 0.8570715 -2.684817 0.8570715 -2.205542 0.8570715 -1.449398 0.6122226 -1.726266 0.8570715 -1.726266 0.6122226 -0.8940166 0.8570715 -1.449398 0.8570715 -0.8940167 0.6122226 -0.844584 0.8570715 -0.8940167 0.8570715 -0.8445841 0.6122226 -0.7996601 0.8570715 -0.8445841 0.8570715 -0.7996602 0.8570715 0.5000001 0.6122225 0.9999 0.6122226 0.5 0.6122226 9.998e-5 0.8570715 -0.7996602 0.8570715 9.998e-5 0.9284858 9.998e-5 0.9999001 0.9999001 0.9284858 0.9999001 0.9284858 9.998e-5 0.9999001 -0.5435433 0.9999001 9.998e-5 0.9284858 -0.5435433 0.9999001 -0.8752767 0.9999001 -0.5435433 0.9999001 -0.8752767 0.9284858 -0.8925231 0.9999001 -0.892523 0.9284858 -0.8925231 0.9999001 -0.9852558 0.9999001 -0.892523 0.6122226 -1.726266 0.8570715 -2.205542 0.8570715 -1.726266 0.8570715 9.998e-5 0.6122226 0.5 0.6122226 9.998e-5 0.8570715 0.9999001 0.6122225 1.56172 0.6122225 0.9999 0.6122226 -2.684817 0.8570715 -3.435372 0.8570715 -2.684817 0.8570715 -2.684817 0.6122226 -2.205542 0.8570715 -2.205542 0.8570715 -1.449398 0.6122226 -1.726266 0.6122226 -1.449398 0.8570715 -1.449398 0.6122226 -0.8940166 0.8570715 -0.8940167 0.8570715 -0.8940167 0.6122226 -0.844584 0.8570715 -0.8445841 0.8570715 -0.8445841 0.6122226 -0.7996601 0.8570715 -0.7996602 0.6122225 0.9999 0.8570715 0.5000001 0.6122226 0.5 0.8570715 -0.7996602 0.6122226 9.998e-5 0.8570715 9.998e-5 0.9284858 9.998e-5 0.9999001 0.9999001 0.9999001 9.998e-5 0.9999001 -0.5435433 0.9284858 9.998e-5 0.9999001 9.998e-5 0.9999001 -0.8752767 0.9284858 -0.5435433 0.9999001 -0.5435433 0.9999001 -0.8752767 0.9284858 -0.8925231 0.9284858 -0.8752768 0.9999001 -0.9852558 0.9284858 -0.8925231 0.9999001 -0.892523 0.8570715 -2.205542 0.6122226 -1.726266 0.8570715 -1.726266 0.6122226 0.5 0.8570715 9.998e-5 0.6122226 9.998e-5 0.6122225 1.56172 0.8570715 0.9999001 0.6122225 0.9999 0.8570715 -3.435372 0.6122226 -2.684817 0.8570715 -2.684817 0.005320787 0.2944229 0.005320787 0.276682 0.02706438 0.276682 0.1449723 0.2944229 0.1449723 0.276682 0.167387 0.276682 0.1449723 0.2944229 0.1218575 0.2944229 0.1218575 0.276682 0.09830611 0.2944229 0.0745263 0.2944229 0.0745263 0.276682 0.02706438 0.2944229 0.02706438 0.276682 0.05049628 0.276682 0.1882759 0.2944229 0.167387 0.2944229 0.167387 0.276682 0.09830611 0.2944229 0.09830611 0.276682 0.1218575 0.276682 0.0745263 0.2944229 0.05049628 0.2944229 0.05049628 0.276682 0.0745263 0.276682 0.0745263 0.003557562 0.09830611 0.003557562 0.02706438 0.276682 0.02706438 0.003557562 0.05049628 0.003557562 0.167387 0.276682 0.167387 0.003557562 0.1882759 0.003557562 0.09830611 0.276682 0.09830611 0.003557562 0.1218575 0.003557562 0.05049628 0.276682 0.05049628 0.003557562 0.0745263 0.003557562 0.005320787 0.276682 0.005320787 0.003557562 0.02706438 0.003557562 0.1449723 0.276682 0.1449723 0.003557562 0.167387 0.003557562 0.1218575 0.276682 0.1218575 0.003557562 0.1449723 0.003557562 0.6793347 0.5717841 0.3294987 0.5717847 0.3294987 0.5597358 0.6793349 0.5356394 0.6793348 0.5476876 0.3294987 0.5476868 0.6793348 0.6079287 0.6793349 0.6199769 0.3294989 0.6199806 0.6793348 0.6079287 0.3294989 0.6079316 0.3294988 0.5958826 0.6793347 0.5838322 0.3294988 0.5838337 0.3294987 0.5717847 0.6793348 0.5476876 0.6793347 0.5597358 0.3294987 0.5597358 0.6793349 0.6199769 0.6793349 0.6320251 0.3294991 0.6320294 0.6793347 0.5958804 0.3294988 0.5958826 0.3294988 0.5838337 0.04449355 0.5424217 0.04449433 0.6049881 0.04171329 0.6049882 0.7619742 0.6665667 0.7762638 0.6808564 0.7762638 0.5324202 0.7762638 0.6808564 0.9748027 0.6808565 0.7762638 0.5324202 0.9748027 0.6808565 0.9890923 0.6665668 0.9890923 0.54671 0.9890923 0.54671 0.9748027 0.5324203 0.9748027 0.6808565 0.9748027 0.5324203 0.7762638 0.5324202 0.9748027 0.6808565 0.04449439 0.6155371 0.04449474 0.719174 0.04171377 0.719174 0.04449468 0.7297228 0.04449343 0.7922862 0.04171252 0.7922862 0.9748027 0.6808565 0.7762638 0.6808564 0.7762638 0.5324202 0.7762638 0.6808564 0.7619742 0.6665667 0.7762638 0.5324202 0.7619742 0.6665667 0.761974 0.5467099 0.7762638 0.5324202 0.7762638 0.5324202 0.9748027 0.5324203 0.9748027 0.6808565 0.9748027 0.5324203 0.9890923 0.54671 0.9748027 0.6808565 0.0444898 0.417681 0.04449009 0.4282305 0.041709 0.4282305 0.04171377 0.7297227 0.04171377 0.719174 0.04449474 0.719174 0.04449433 0.6049881 0.04449439 0.6155371 0.04171341 0.6155371 0.04171252 0.5424217 0.04171222 0.5318725 0.04449331 0.5318724 0.04449009 0.4282305 0.04449331 0.5318724 0.04171222 0.5318725 0.06827443 0.3023869 0.06827443 0.9905642 0.05626344 0.9905053 0.04425245 0.302269 0.04425245 0.9904464 0.0322414 0.9903874 0.02023041 0.302151 0.02023041 0.9903284 0.00821942 0.9902696 0.1043075 0.3025638 0.1043075 0.9907413 0.09229648 0.9906823 0.08028548 0.3024459 0.08028548 0.9906233 0.06827443 0.9905642 0.05626344 0.3023279 0.05626344 0.9905053 0.04425245 0.9904464 0.0322414 0.30221 0.0322414 0.9903874 0.02023041 0.9903284 0.09229648 0.3025048 0.09229648 0.9906823 0.08028548 0.9906233 0.05078566 0.6620488 0.04031234 0.6515755 0.06559699 0.6262907 0.04031234 0.6515755 0.04031229 0.6367639 0.06559699 0.6262907 0.04031229 0.6367639 0.05078566 0.6262904 0.06559699 0.6262907 0.06559699 0.6262907 0.07607054 0.6367637 0.07607054 0.6515753 0.07607054 0.6515753 0.06559729 0.6620488 0.06559699 0.6262907 0.2196839 0.9723237 0.2689 0.972323 0.2689 0.9843593 0.2743739 0.972323 0.4094572 0.9723201 0.4094574 0.9843563 0.9266731 0.1017628 0.9310714 0.1061611 0.8663466 0.1061611 0.9310714 0.1061611 0.9310714 0.2596628 0.8663466 0.1061611 0.9310714 0.2596628 0.9266732 0.2640609 0.8707448 0.2640609 0.8707448 0.2640609 0.8663466 0.2596628 0.9310714 0.2596628 0.8663466 0.2596628 0.8663466 0.1061611 0.9310714 0.2596628 0.4696236 0.9723172 0.604713 0.9723101 0.604713 0.9843471 0.4149311 0.9723198 0.4641494 0.9723175 0.4641494 0.9843545 0.6101873 0.9843462 0.604713 0.9843471 0.604713 0.9723101 0.4696236 0.9723172 0.4696236 0.9843541 0.4641494 0.9843545 0.4149311 0.9723198 0.4149313 0.9843561 0.4094574 0.9843563 0.2743739 0.9843593 0.2689 0.9843593 0.2689 0.972323 0.887607 0.7014191 0.894611 0.6944152 0.9836733 0.6944153 0.9836733 0.6944153 0.9906771 0.7014191 0.887607 0.7014191 0.9906771 0.7014191 0.990677 0.9458602 0.887607 0.7014191 0.990677 0.9458602 0.9836732 0.9528639 0.894611 0.952864 0.894611 0.952864 0.887607 0.9458603 0.990677 0.9458602 0.6122226 -2.205542 0.6122226 -2.684817 0.8570715 -2.684817 0.8570715 -1.449398 0.6122226 -1.449398 0.6122226 -1.726266 0.6122226 -0.8940166 0.6122226 -1.449398 0.8570715 -1.449398 0.6122226 -0.844584 0.6122226 -0.8940166 0.8570715 -0.8940167 0.6122226 -0.7996601 0.6122226 -0.844584 0.8570715 -0.8445841 0.8570715 0.5000001 0.8570715 0.9999001 0.6122225 0.9999 0.6122226 9.998e-5 0.6122226 -0.7996601 0.8570715 -0.7996602 0.9284858 9.998e-5 0.9999001 9.998e-5 0.9999001 0.9999001 0.9284858 9.998e-5 0.9284858 -0.5435433 0.9999001 -0.5435433 0.9284858 -0.5435433 0.9284858 -0.8752768 0.9999001 -0.8752767 0.9999001 -0.8752767 0.9284858 -0.8752768 0.9284858 -0.8925231 0.9284858 -0.8925231 0.9284858 -0.985256 0.9999001 -0.9852558 0.6122226 -1.726266 0.6122226 -2.205542 0.8570715 -2.205542 0.8570715 9.998e-5 0.8570715 0.5000001 0.6122226 0.5 0.8570715 0.9999001 0.8634194 1.570633 0.6122225 1.56172 0.6122226 -2.684817 0.6122226 -3.401988 0.8570715 -3.435372 0.8570715 -2.684817 0.6122226 -2.684817 0.6122226 -2.205542 0.8570715 -1.449398 0.8570715 -1.726266 0.6122226 -1.726266 0.8570715 -1.449398 0.6122226 -1.449398 0.6122226 -0.8940166 0.8570715 -0.8940167 0.6122226 -0.8940166 0.6122226 -0.844584 0.8570715 -0.8445841 0.6122226 -0.844584 0.6122226 -0.7996601 0.6122225 0.9999 0.8570715 0.9999001 0.8570715 0.5000001 0.8570715 -0.7996602 0.6122226 -0.7996601 0.6122226 9.998e-5 0.9284858 9.998e-5 0.9284858 0.9999001 0.9999001 0.9999001 0.9999001 -0.5435433 0.9284858 -0.5435433 0.9284858 9.998e-5 0.9999001 -0.8752767 0.9284858 -0.8752768 0.9284858 -0.5435433 0.9999001 -0.8752767 0.9999001 -0.892523 0.9284858 -0.8925231 0.9999001 -0.9852558 0.9284858 -0.985256 0.9284858 -0.8925231 0.8570715 -2.205542 0.6122226 -2.205542 0.6122226 -1.726266 0.6122226 0.5 0.8570715 0.5000001 0.8570715 9.998e-5 0.6122225 1.56172 0.8634194 1.570633 0.8570715 0.9999001 0.8570715 -3.435372 0.6122226 -3.401988 0.6122226 -2.684817</float_array>
          <technique_common>
            <accessor source="#Circle_007-mesh-map-0-array" count="570" stride="2">
              <param name="S" type="float"/>
              <param name="T" type="float"/>
            </accessor>
          </technique_common>
        </source>
        <source id="Circle_007-mesh-colors-Col" name="Col">
          <float_array id="Circle_007-mesh-colors-Col-array" count="1710">1 1 1 1 1 1 1 1 1 1 1 1 1 1 1 1 1 1 1 1 1 1 1 1 1 1 1 1 1 1 1 1 1 1 1 1 1 1 1 1 1 1 1 1 1 1 1 1 1 1 1 1 1 1 1 1 1 1 1 1 1 1 1 1 1 1 1 1 1 1 1 1 1 1 1 1 1 1 1 1 1 1 1 1 1 1 1 1 1 1 1 1 1 1 1 1 1 1 1 1 1 1 1 1 1 1 1 1 1 1 1 1 1 1 1 1 1 1 1 1 1 1 1 1 1 1 1 1 1 1 1 1 1 1 1 1 1 1 1 1 1 1 1 1 1 1 1 1 1 1 1 1 1 1 1 1 1 1 1 1 1 1 1 1 1 1 1 1 1 1 1 1 1 1 1 1 1 1 1 1 1 1 1 1 1 1 1 1 1 1 1 1 1 1 1 1 1 1 1 1 1 1 1 1 1 1 1 1 1 1 1 1 1 1 1 1 1 1 1 1 1 1 1 1 1 1 1 1 1 1 1 1 1 1 1 1 1 1 1 1 1 1 1 1 1 1 1 1 1 1 1 1 1 1 1 1 1 1 1 1 1 1 1 1 1 1 1 1 1 1 1 1 1 1 1 1 1 1 1 1 1 1 1 1 1 1 1 1 1 1 1 1 1 1 1 1 1 1 1 1 1 1 1 1 1 1 1 1 1 1 1 1 1 1 1 1 1 1 1 1 1 1 1 1 1 1 1 1 1 1 1 1 1 1 1 1 1 1 1 1 1 1 1 1 1 1 1 1 1 1 1 1 1 1 1 1 1 1 1 1 1 1 1 1 1 1 1 1 1 1 1 1 1 1 1 1 1 1 1 1 1 1 1 1 1 1 1 1 1 1 1 1 1 1 1 1 1 1 1 1 1 1 1 1 1 1 1 1 1 1 1 1 1 1 1 1 1 1 1 1 1 1 1 1 1 1 1 1 1 1 1 1 1 1 1 1 1 1 1 1 1 1 1 1 1 1 1 1 1 1 1 1 1 1 1 1 1 1 1 1 1 1 1 1 1 1 1 1 1 1 1 1 1 1 1 1 1 0 0 0 0 0 0 0 0 0 0 0 0 0 0 0 0 0 0 0 0 0 0 0 0 0 0 0 0 0 0 0 0 0 0 0 0 0 0 0 0 0 0 0 0 0 0 0 0 0 0 0 0 0 0 0 0 0 0 0 0 0 0 0 0 0 0 0 0 0 0 0 0 0 0 0 0 0 0 0 0 0 0 0 0 0 0 0 0 0 0 0 0 0 0 0 0 0 0 0 0 0 0 0 0 0 0 0 0 0 0 0 0 0 0 0 0 0 0 0 0 0 0 0 0 0 0 0 0 0 0 0 0 0 0 0 0 0 0 0 0 0 0 0 0 0 0 0 0 0 0 0 0 0 0 0 0 0 0 0 0 0 0 0 0 0 0 0 0 0 0 0 0 0 0 0 0 0 0 0 0 0 0 0 0 0 0 0 0 0 0 0 0 0 0 0 0 0 0 0 0 0 0 0 0 0 0 0 0 0 0 0 0 0 0 0 0 0 0 0 0 0 0 0 0 0 0 0 0 0 0 0 0 0 0 0 0 0 0 0 0 0 0 0 0 0 0 0 0 0 0 0 0 0 0 0 0 0 0 0 0 0 0 0 0 0 0 0 0 0 0 0 0 0 0 0 0 0 0 0 0 0 0 0 0 0 0 0 0 1 1 1 1 1 1 1 1 1 1 1 1 1 1 1 1 1 1 1 1 1 1 1 1 1 1 1 1 1 1 1 1 1 1 1 1 1 1 1 1 1 1 1 1 1 1 1 1 1 1 1 1 1 1 1 1 1 1 1 1 1 1 1 1 1 1 1 1 1 1 1 1 1 1 1 1 1 1 1 1 1 1 1 1 1 1 1 1 1 1 1 1 1 1 1 1 1 1 1 1 1 1 1 1 1 1 1 1 1 1 1 1 1 1 1 1 1 1 1 1 1 1 1 1 1 1 1 1 1 1 1 1 1 1 1 1 1 1 1 1 1 1 1 1 1 1 1 1 1 1 1 1 1 1 1 1 1 1 1 1 1 1 1 1 1 1 1 1 1 1 1 1 1 1 1 1 1 1 1 1 1 1 1 1 1 1 1 1 1 1 1 1 1 1 1 1 1 1 1 1 1 1 1 1 1 1 1 1 1 1 1 1 1 1 1 1 1 1 1 1 1 1 1 1 1 1 1 1 1 1 1 1 1 1 1 1 1 1 1 1 1 1 1 1 1 1 1 1 1 1 1 1 1 1 1 1 1 1 1 1 1 1 1 1 1 1 1 1 1 1 1 1 1 1 1 1 1 1 1 1 1 1 1 1 1 1 1 1 1 1 1 1 1 1 1 1 1 1 1 1 1 1 1 1 1 1 1 1 1 1 1 1 1 1 1 1 1 1 1 1 1 1 1 1 1 1 1 1 1 1 1 1 1 1 1 1 1 1 1 1 1 1 1 1 1 1 1 1 1 1 1 1 1 1 1 1 1 1 1 1 1 1 1 1 1 1 1 1 1 1 1 1 1 1 1 1 1 1 1 1 1 1 1 1 1 1 1 1 1 1 1 1 1 1 1 1 1 1 1 1 1 1 1 1 1 1 1 1 1 1 1 1 1 1 1 1 1 1 1 1 1 1 1 1 1 1 1 1 1 1 1 1 1 1 1 1 1 1 1 1 1 1 1 1 1 1 1 1 1 1 1 1 1 1 1 1 1 1 1 1 1 1 1 1 1 1 1 1 1 1 1 1 1 1 1 1 1 1 1 1 1 1 1 1 1 1 1 1 1 1 1 1 1 1 1 1 1 1 1 1 1 1 1 1 1 1 1 1 1 1 1 1 1 1 1 1 1 1 1 1 1 1 1 1 1 1 1 1 1 1 1 1 1 1 1 1 1 1 1 1 1 1 1 1 1 1 1 1 1 1 1 1 1 1 1 1 1 1 1 1 1 1 1 1 1 1 1 1 1 1 1 1 1 1 1 1 1 1 1 1 1 1 1 1 1 1 1 1 1 1 1 1 1 1 1 1 1 1 1 1 1 1 1 1 1 1 1 1 1 1 1 1 1 1 1 1 1 1 1 1 1 1 1 1 1 1 1 1 1 1 1 1 1 1 1 1 1 1 1 1 1 1 1 1 1 1 1 1 1 1 1 1 1 1 1 1 1 0 0 0 0 0 0 0 0 0 0 0 0 0 0 0 0 0 0 0 0 0 0 0 0 0 0 0 0 0 0 0 0 0 0 0 0 0 0 0 0 0 0 0 0 0 0 0 0 0 0 0 0 0 0 0 0 0 0 0 0 0 0 0 0 0 0 0 0 0 0 0 0 0 0 0 0 0 0 0 0 0 0 0 0 0 0 0 0 0 0 0 0 0 0 0 0 0 0 0 0 0 0 0 0 0 0 0 0 0 0 0 0 0 0 0 0 0 0 0 0 0 0 0 0 0 0 0 0 0 0 0 0 0 0 0 0 0 0 0 0 0 0 0 0 0 0 0 0 0 0 0 0 0 0 0 0 0 0 0 0 0 0 0 0 0 0 0 0 0 0 0 0 0 0 0 0 0 0 0 0 0 0 0 0 0 0 0 0 0 0 0 0 0 0 0 0 0 0 0 0 0 0 0 0 0 0 0 0 0 0 0 0 0 0 0 0 0 0 0 0 0 0 0 0 0 0 0 0 0 0 0 0 0 0 0 0 0 0 0 0 0 0 0 0 0 0 0 0 0 0 0 0 0 0 0 0 0 0 0 0 0 0 0 0 0 0 0 0 0 0 0 0 0 0 0 0 0 0 0 0 0 0 0 0 0 0 0 0</float_array>
          <technique_common>
            <accessor source="#Circle_007-mesh-colors-Col-array" count="570" stride="3">
              <param name="R" type="float"/>
              <param name="G" type="float"/>
              <param name="B" type="float"/>
            </accessor>
          </technique_common>
        </source>
        <vertices id="Circle_007-mesh-vertices">
          <input semantic="POSITION" source="#Circle_007-mesh-positions"/>
        </vertices>
        <triangles material="busstop-material" count="126">
          <input semantic="VERTEX" source="#Circle_007-mesh-vertices" offset="0"/>
          <input semantic="NORMAL" source="#Circle_007-mesh-normals" offset="1"/>
          <input semantic="TEXCOORD" source="#Circle_007-mesh-map-0" offset="2" set="0"/>
          <input semantic="COLOR" source="#Circle_007-mesh-colors-Col" offset="3" set="0"/>
          <p>166 0 0 0 155 1 1 1 165 1 2 2 160 2 3 3 152 3 4 4 167 3 5 5 160 2 6 6 159 4 7 7 153 2 8 8 162 5 9 9 157 6 10 10 158 5 11 11 165 1 12 12 156 7 13 13 164 7 14 14 166 0 15 15 152 3 16 16 154 0 17 17 162 5 18 18 159 4 19 19 161 4 20 20 163 6 21 21 156 7 22 22 157 6 23 23 5 8 24 24 14 9 25 25 6 9 26 26 3 10 27 27 12 11 28 28 4 11 29 29 1 12 30 30 10 13 31 31 2 13 32 32 6 9 33 33 15 14 34 34 7 14 35 35 4 11 36 36 13 8 37 37 5 8 38 38 2 13 39 39 11 10 40 40 3 10 41 41 0 15 42 42 9 12 43 43 1 12 44 44 7 14 45 45 8 15 46 46 0 15 47 47 21 16 48 48 28 17 49 49 20 18 50 50 18 19 51 51 27 20 52 52 26 21 53 53 16 22 54 54 25 23 55 55 24 24 56 56 16 22 57 57 30 25 58 58 22 26 59 59 23 27 60 60 29 28 61 61 21 16 62 62 19 29 63 63 28 17 64 64 27 20 65 65 17 30 66 66 26 21 67 67 25 23 68 68 22 26 69 69 31 31 70 70 23 27 71 71 49 32 72 72 34 32 73 73 33 32 74 74 51 33 75 75 50 33 76 76 49 33 77 77 51 9 78 78 38 9 79 79 35 9 80 80 55 34 81 81 36 34 82 82 39 34 83 83 39 35 84 84 36 35 85 85 37 35 86 86 52 36 87 87 37 36 88 88 36 36 89 89 39 37 90 90 54 37 91 91 55 37 92 92 50 38 93 93 35 38 94 94 34 38 95 95 33 39 96 96 48 39 97 97 49 39 98 98 53 13 99 99 32 13 100 100 37 13 101 101 42 8 102 102 20 18 103 103 43 11 104 104 44 10 105 105 18 19 106 106 45 13 107 107 46 12 108 108 16 22 109 109 47 15 110 110 47 15 111 111 22 26 112 112 40 14 113 113 41 9 114 114 21 16 115 115 42 8 116 116 43 11 117 117 19 29 118 118 44 10 119 119 45 13 120 120 17 30 121 121 46 12 122 122 40 14 123 123 23 27 124 124 41 9 125 125 62 34 126 126 56 34 127 127 60 34 128 128 75 40 129 129 67 40 130 130 64 40 131 131 77 13 132 132 71 13 133 133 66 13 134 134 77 41 135 135 76 41 136 136 75 41 137 137 73 9 138 138 65 9 139 139 68 9 140 140 79 42 141 141 69 42 142 142 70 42 143 143 64 43 144 144 74 43 145 145 75 43 146 146 73 44 147 147 69 44 148 148 72 44 149 149 79 45 150 150 71 45 151 151 78 45 152 152 66 46 153 153 76 46 154 154 77 46 155 155 68 47 156 156 65 47 157 157 71 47 158 158 166 0 255 255 154 0 256 256 155 1 257 257 160 2 258 258 153 2 259 259 152 3 260 260 160 2 261 261 161 4 262 262 159 4 263 263 162 5 264 264 163 6 265 265 157 6 266 266 165 1 267 267 155 1 268 268 156 7 269 269 166 0 270 270 167 3 271 271 152 3 272 272 162 5 273 273 158 5 274 274 159 4 275 275 163 6 276 276 164 7 277 277 156 7 278 278 5 8 279 279 13 8 280 280 14 9 281 281 3 10 282 282 11 10 283 283 12 11 284 284 1 12 285 285 9 12 286 286 10 13 287 287 6 9 288 288 14 9 289 289 15 14 290 290 4 11 291 291 12 11 292 292 13 8 293 293 2 13 294 294 10 13 295 295 11 10 296 296 0 15 297 297 8 15 298 298 9 12 299 299 7 14 300 300 15 14 301 301 8 15 302 302 21 16 303 303 29 28 304 304 28 17 305 305 18 19 306 306 19 29 307 307 27 20 308 308 16 22 309 309 17 30 310 310 25 23 311 311 16 22 312 312 24 24 313 313 30 25 314 314 23 27 315 315 31 31 316 316 29 28 317 317 19 29 318 318 20 18 319 319 28 17 320 320 17 30 321 321 18 19 322 322 26 21 323 323 22 26 324 324 30 25 325 325 31 31 326 326 49 32 327 327 50 32 328 328 34 32 329 329 49 111 330 330 48 111 331 331 51 111 332 332 48 15 333 333 53 15 334 334 51 15 335 335 53 15 336 336 52 15 337 337 55 15 338 338 55 15 339 339 54 15 340 340 53 15 341 341 54 15 342 342 51 15 343 343 53 15 344 344 51 9 345 345 54 9 346 346 38 9 347 347 55 34 348 348 52 34 349 349 36 34 350 350 37 11 351 351 32 11 352 352 35 11 353 353 32 112 354 354 33 112 355 355 35 112 356 356 33 113 357 357 34 113 358 358 35 113 359 359 35 11 360 360 38 11 361 361 37 11 362 362 38 112 363 363 39 112 364 364 37 112 365 365 52 114 366 366 53 114 367 367 37 114 368 368 39 115 369 369 38 115 370 370 54 115 371 371 50 116 372 372 51 116 373 373 35 116 374 374 33 117 375 375 32 117 376 376 48 117 377 377 53 13 378 378 48 13 379 379 32 13 380 380 42 8 381 381 21 16 382 382 20 18 383 383 44 10 384 384 19 29 385 385 18 19 386 386 46 12 387 387 17 30 388 388 16 22 389 389 47 15 390 390 16 22 391 391 22 26 392 392 41 9 393 393 23 27 394 394 21 16 395 395 43 11 396 396 20 18 397 397 19 29 398 398 45 13 399 399 18 19 400 400 17 30 401 401 40 14 402 402 22 26 403 403 23 27 404 404 56 34 405 405 57 34 406 406 60 34 407 407 57 34 408 408 58 34 409 409 60 34 410 410 58 34 411 411 59 34 412 412 60 34 413 413 60 34 414 414 61 34 415 415 63 34 416 416 63 34 417 417 62 34 418 418 60 34 419 419 75 118 420 420 76 118 421 421 67 118 422 422 77 13 423 423 78 13 424 424 71 13 425 425 75 119 426 426 74 119 427 427 77 119 428 428 74 120 429 429 73 120 430 430 77 120 431 431 73 121 432 432 72 121 433 433 79 121 434 434 79 122 435 435 78 122 436 436 73 122 437 437 78 123 438 438 77 123 439 439 73 123 440 440 73 9 441 441 74 9 442 442 65 9 443 443 79 34 444 444 72 34 445 445 69 34 446 446 64 124 447 447 65 124 448 448 74 124 449 449 73 125 450 450 68 125 451 451 69 125 452 452 79 126 453 453 70 126 454 454 71 126 455 455 66 127 456 456 67 127 457 457 76 127 458 458 65 128 459 459 64 128 460 460 67 128 461 461 67 129 462 462 66 129 463 463 65 129 464 464 66 130 465 465 71 130 466 466 65 130 467 467 71 131 468 468 70 131 469 469 69 131 470 470 69 132 471 471 68 132 472 472 71 132 473 473</p>
        </triangles>
        <triangles material="tro_vines_2d-material" count="64">
          <input semantic="VERTEX" source="#Circle_007-mesh-vertices" offset="0"/>
          <input semantic="NORMAL" source="#Circle_007-mesh-normals" offset="1"/>
          <input semantic="TEXCOORD" source="#Circle_007-mesh-map-0" offset="2" set="0"/>
          <input semantic="COLOR" source="#Circle_007-mesh-colors-Col" offset="3" set="0"/>
          <p>109 48 159 159 81 49 160 160 108 50 161 161 85 51 162 162 83 52 163 163 82 53 164 164 87 54 165 165 85 51 166 166 86 55 167 167 88 56 168 168 86 55 169 169 89 57 170 170 91 58 171 171 89 57 172 172 90 59 173 173 111 60 174 174 93 61 175 175 110 62 176 176 92 63 177 177 90 59 178 178 95 64 179 179 98 65 180 180 97 66 181 181 99 67 182 182 98 65 183 183 100 68 184 184 96 69 185 185 101 70 186 186 102 71 187 187 100 68 188 188 102 71 189 189 105 72 190 190 104 73 191 191 105 72 192 192 106 74 193 193 104 73 194 194 83 52 195 195 108 50 196 196 82 53 197 197 95 64 198 198 110 62 199 199 92 63 200 200 94 75 201 201 114 76 202 202 93 61 203 203 80 77 204 204 113 78 205 205 81 49 206 206 117 79 207 207 145 80 208 208 144 81 209 209 121 82 210 210 119 83 211 211 120 84 212 212 121 82 213 213 123 85 214 214 122 86 215 215 122 86 216 216 124 87 217 217 125 88 218 218 125 88 219 219 127 89 220 220 126 90 221 221 129 91 222 222 147 92 223 223 146 93 224 224 126 90 225 225 128 94 226 226 131 95 227 227 134 96 228 228 133 97 229 229 132 98 230 230 136 99 231 231 134 96 232 232 132 98 233 233 138 100 234 234 137 101 235 235 136 99 236 236 138 100 237 237 141 102 238 238 139 103 239 239 142 104 240 240 141 102 241 241 140 105 242 242 144 81 243 243 119 83 244 244 118 106 245 245 146 93 246 246 131 95 247 247 128 94 248 248 150 107 249 249 130 108 250 250 129 91 251 251 149 109 252 252 116 110 253 253 117 79 254 254 109 48 474 474 80 77 475 475 81 49 476 476 85 51 477 477 84 133 478 478 83 52 479 479 87 54 480 480 84 133 481 481 85 51 482 482 88 56 483 483 87 54 484 484 86 55 485 485 91 58 486 486 88 56 487 487 89 57 488 488 111 60 489 489 94 75 490 490 93 61 491 491 92 63 492 492 91 58 493 493 90 59 494 494 98 65 495 495 96 69 496 496 97 66 497 497 98 65 498 498 101 70 499 499 100 68 500 500 101 70 501 501 103 134 502 502 102 71 503 503 102 71 504 504 103 134 505 505 105 72 506 506 105 72 507 507 107 74 508 508 106 74 509 509 83 52 510 510 109 48 511 511 108 50 512 512 95 64 513 513 111 60 514 514 110 62 515 515 94 75 516 516 115 135 517 517 114 76 518 518 80 77 519 519 112 136 520 520 113 78 521 521 117 79 522 522 116 110 523 523 145 80 524 524 121 82 525 525 118 106 526 526 119 83 527 527 121 82 528 528 120 84 529 529 123 85 530 530 122 86 531 531 123 85 532 532 124 87 533 533 125 88 534 534 124 87 535 535 127 89 536 536 129 91 537 537 130 108 538 538 147 92 539 539 126 90 540 540 127 89 541 541 128 94 542 542 134 96 543 543 135 137 544 544 133 97 545 545 136 99 546 546 137 101 547 547 134 96 548 548 138 100 549 549 139 103 550 550 137 101 551 551 138 100 552 552 140 105 553 553 141 102 554 554 142 104 555 555 143 104 556 556 141 102 557 557 144 81 558 558 145 80 559 559 119 83 560 560 146 93 561 561 147 92 562 562 131 95 563 563 150 107 564 564 151 138 565 565 130 108 566 566 149 109 567 567 148 139 568 568 116 110 569 569</p>
        </triangles>
      </mesh>
    </geometry>
    <geometry id="Circle_014-mesh" name="Circle.014">
      <mesh>
        <source id="Circle_014-mesh-positions">
          <float_array id="Circle_014-mesh-positions-array" count="138">0.1843253 0.05614072 1.73279 -0.1752271 0.05855464 1.73279 0.1843253 0.05855464 0.9670754 -0.1752272 0.05614072 0.9670754 -0.02980458 0.05818164 0.3577612 -0.05281257 -0.03524076 0.3618824 0.05701732 -0.04553055 0.3572415 -0.02510148 0.07887369 -0.3443785 -0.07887357 -0.0251016 -0.3443785 0.07691532 -0.04505598 -0.3443785 -0.01977735 0.04439675 3.65136 -0.04427766 -0.01954662 3.65136 0.04829919 -0.01729059 3.65136 0.04934394 0.03510713 0.3610262 0.06188452 -0.009525597 2.988245 0.4692037 -0.009525597 2.988245 0.0479176 -0.001714706 3.598345 0.4692037 -0.009525597 3.626279 0.06188452 -0.009525597 2.988245 0.4692037 -0.009525597 2.988245 0.0479176 -0.001714706 3.598345 0.4692037 -0.009525597 3.626279 -0.2771052 0.5120105 0.03223717 -0.5503858 0.1312351 0.174462 -0.1150296 0.01944398 3.571038 0.07372879 0.08618974 3.571038 -0.09617286 -0.1062393 3.58325 0.09258562 -0.03949356 3.58325 0.08111679 -0.6110863 1.01328e-6 -0.6467621 -0.7112107 1.01328e-6 -0.1199409 -0.1079602 1.13256 -0.275454 0.327928 0.9903355 0.1636812 -0.1539587 1.000001 -0.3215456 -0.2207045 1.000001 -0.2771052 0.5120105 0.03223717 -0.5503858 0.1312351 0.174462 -0.1150296 0.01944398 3.571038 0.07372879 0.08618974 3.571038 -0.09617286 -0.1062393 3.58325 0.09258562 -0.03949356 3.58325 0.08111679 -0.6110863 1.01328e-6 -0.6467621 -0.7112107 1.01328e-6 -0.1199409 -0.1079602 1.13256 -0.275454 0.327928 0.9903355 0.1636812 -0.1539587 1.000001 -0.3215456 -0.2207045 1.000001</float_array>
          <technique_common>
            <accessor source="#Circle_014-mesh-positions-array" count="46" stride="3">
              <param name="X" type="float"/>
              <param name="Y" type="float"/>
              <param name="Z" type="float"/>
            </accessor>
          </technique_common>
        </source>
        <source id="Circle_014-mesh-normals">
          <float_array id="Circle_014-mesh-normals-array" count="120">-0.00671339 -0.9999726 0.00315237 0.00671339 0.9999725 0.00315237 0.006713569 -0.9999726 -0.00315237 -0.006713509 0.9999725 -0.00315237 0.9362705 -0.350575 0.0222485 -0.8101032 -0.5860918 0.01513755 0.7021012 -0.7119896 0.01117008 -0.2356997 0.9717618 0.01117002 0.770582 0.6371515 0.01553428 -0.4978594 0.8668363 0.02703994 -0.1213739 0.9922631 -0.02612423 0.8679637 -0.4937078 -0.05377465 -0.8873441 -0.4610832 0.004791498 0 0.9999182 -0.01280158 0 -0.9999182 0.01280158 0.3113516 -0.9490395 0.04882985 0.1383136 -0.9666391 0.2155886 0.3329334 -0.9415769 0.05087542 -0.9607432 -0.1226565 0.2488532 -0.8749579 0.4465584 0.1871749 -0.9510028 -0.2461358 0.187112 -0.4446285 0.8949946 -0.03592061 -0.3329612 0.9416912 -0.04852503 0.1320576 -0.9601725 0.2462309 0.1246402 -0.9062359 0.4039821 -0.3113516 0.9490395 -0.04882985 -0.1383136 0.9666391 -0.2155886 -0.1320576 0.9601725 -0.2462309 0.8749579 -0.4465584 -0.1871749 0.9607432 0.1226565 -0.2488532 0.9510028 0.2461358 -0.187112 0.4446285 -0.8949946 0.03592061 -0.1246402 0.9062359 -0.4039821 -0.8177154 -0.5756023 0.004852592 0.01853746 0.9998283 0 -0.01853746 -0.9998283 0 -0.7853155 0.6077253 0.1181086 -0.3329334 0.9415769 -0.05087542 0.7853155 -0.6077253 -0.1181086 0.3329612 -0.9416912 0.04852503</float_array>
          <technique_common>
            <accessor source="#Circle_014-mesh-normals-array" count="40" stride="3">
              <param name="X" type="float"/>
              <param name="Y" type="float"/>
              <param name="Z" type="float"/>
            </accessor>
          </technique_common>
        </source>
        <source id="Circle_014-mesh-map-0">
          <float_array id="Circle_014-mesh-map-0-array" count="228">0.868667 0.2619832 0.8676825 0.1048253 0.9297356 0.2609986 0.9885497 0.9479874 0.8913022 0.9495553 0.8897344 0.6992918 0.928751 0.1038407 0.9297356 0.2609986 0.8676825 0.1048253 0.8897344 0.6992918 0.9869821 0.6977241 0.9885497 0.9479874 0.07505929 0.9905975 0.04247897 0.3022603 0.06827443 0.3023869 0.1043075 0.9907413 0.08491843 0.3024687 0.1043075 0.3025638 0.1138693 0.286478 0.1535932 0.003557562 0.156345 0.2849793 0.04247897 0.3022603 0.01468169 0.9903011 0.01285231 0.3021148 0.08164381 0.003557562 0.1138693 0.286478 0.077735 0.2789863 0.08491843 0.3024687 0.07505929 0.9905975 0.06827443 0.3023869 0.156345 0.2849793 0.1882759 0.003557562 0.1882759 0.2873581 0.9869012 0.6788342 0.7660144 0.5333663 0.7660186 0.6788342 0.7660144 0.5333663 0.9869012 0.6788342 0.7660186 0.6788342 0.01368361 0.003557562 0.077735 0.2789863 0.02187597 0.2873581 0.8570715 -0.7996602 0.6122226 0.5 0.6122226 -0.7996601 0.6122226 -2.205542 0.8570715 -2.684817 0.8570715 -2.205542 0.6122226 -0.8940166 0.8570715 -2.205542 0.8570715 -0.8940167 0.8570715 0.5000001 0.6122225 0.9999 0.6122226 0.5 0.8570715 -0.7996602 0.6122226 0.5 0.8570715 0.5000001 0.8570715 -2.684817 0.6122226 -2.205542 0.8570715 -2.205542 0.6122226 -0.8940166 0.8570715 -2.205542 0.6122226 -2.205542 0.6122225 0.9999 0.8570715 0.5000001 0.6122226 0.5 0.07505929 0.9905975 0.03869342 0.9904191 0.04247897 0.3022603 0.1043075 0.9907413 0.07505929 0.9905975 0.08491843 0.3024687 0.04247897 0.3022603 0.03869342 0.9904191 0.01468169 0.9903011 0.08164381 0.003557562 0.1535932 0.003557562 0.1138693 0.286478 0.156345 0.2849793 0.1535932 0.003557562 0.1882759 0.003557562 0.9869012 0.6788342 0.9869012 0.5333663 0.7660144 0.5333663 0.7660144 0.5333663 0.9869012 0.5333663 0.9869012 0.6788342 0.01368361 0.003557562 0.08164381 0.003557562 0.077735 0.2789863 0.8570715 -0.7996602 0.8570715 0.5000001 0.6122226 0.5 0.6122226 -2.205542 0.6122226 -2.684817 0.8570715 -2.684817 0.6122226 -0.8940166 0.6122226 -2.205542 0.8570715 -2.205542 0.8570715 0.5000001 0.8570715 0.9999001 0.6122225 0.9999 0.8570715 -0.7996602 0.6122226 -0.7996601 0.6122226 0.5 0.8570715 -2.684817 0.6122226 -2.684817 0.6122226 -2.205542 0.6122226 -0.8940166 0.8570715 -0.8940167 0.8570715 -2.205542 0.6122225 0.9999 0.8570715 0.9999001 0.8570715 0.5000001</float_array>
          <technique_common>
            <accessor source="#Circle_014-mesh-map-0-array" count="114" stride="2">
              <param name="S" type="float"/>
              <param name="T" type="float"/>
            </accessor>
          </technique_common>
        </source>
        <source id="Circle_014-mesh-colors-Col" name="Col">
          <float_array id="Circle_014-mesh-colors-Col-array" count="342">1 1 1 1 1 1 1 1 1 1 1 1 1 1 1 1 1 1 1 1 1 1 1 1 1 1 1 1 1 1 1 1 1 1 1 1 1 1 1 1 1 1 1 1 1 1 1 1 1 1 1 1 1 1 1 1 1 1 1 1 1 1 1 1 1 1 1 1 1 1 1 1 1 1 1 1 1 1 1 1 1 1 1 1 1 1 1 1 1 1 1 1 1 1 1 1 1 1 1 1 1 1 1 1 1 1 1 1 1 1 1 1 1 1 1 1 1 1 1 1 1 1 1 1 1 1 0 0 0 0 0 0 0 0 0 0 0 0 0 0 0 0 0 0 0 0 0 0 0 0 0 0 0 0 0 0 0 0 0 0 0 0 0 0 0 0 0 0 0 0 0 0 0 0 0 0 0 0 0 0 0 0 0 0 0 0 0 0 0 0 0 0 0 0 0 0 0 0 1 1 1 1 1 1 1 1 1 1 1 1 1 1 1 1 1 1 1 1 1 1 1 1 1 1 1 1 1 1 1 1 1 1 1 1 1 1 1 1 1 1 1 1 1 1 1 1 1 1 1 1 1 1 1 1 1 1 1 1 1 1 1 1 1 1 1 1 1 1 1 1 0 0 0 0 0 0 0 0 0 0 0 0 0 0 0 0 0 0 0 0 0 0 0 0 0 0 0 0 0 0 0 0 0 0 0 0 0 0 0 0 0 0 0 0 0 0 0 0 0 0 0 0 0 0 0 0 0 0 0 0 0 0 0 0 0 0 0 0 0 0 0 0</float_array>
          <technique_common>
            <accessor source="#Circle_014-mesh-colors-Col-array" count="114" stride="3">
              <param name="R" type="float"/>
              <param name="G" type="float"/>
              <param name="B" type="float"/>
            </accessor>
          </technique_common>
        </source>
        <vertices id="Circle_014-mesh-vertices">
          <input semantic="POSITION" source="#Circle_014-mesh-positions"/>
        </vertices>
        <triangles material="busstop-material" count="22">
          <input semantic="VERTEX" source="#Circle_014-mesh-vertices" offset="0"/>
          <input semantic="NORMAL" source="#Circle_014-mesh-normals" offset="1"/>
          <input semantic="TEXCOORD" source="#Circle_014-mesh-map-0" offset="2" set="0"/>
          <input semantic="COLOR" source="#Circle_014-mesh-colors-Col" offset="3" set="0"/>
          <p>1 0 0 0 3 0 1 1 0 0 2 2 1 1 3 3 0 1 4 4 2 1 5 5 2 2 6 6 0 2 7 7 3 2 8 8 2 3 9 9 3 3 10 10 1 3 11 11 12 4 12 12 5 5 13 13 6 6 14 14 10 7 15 15 13 8 16 16 4 9 17 17 13 8 18 18 7 10 19 19 4 9 20 20 5 5 21 21 10 7 22 22 4 9 23 23 9 11 24 24 13 8 25 25 6 6 26 26 13 8 27 27 12 4 28 28 6 6 29 29 4 9 30 30 8 12 31 31 5 5 32 32 16 13 33 33 15 13 34 34 14 13 35 35 19 14 36 36 20 14 37 37 18 14 38 38 8 12 39 39 6 6 40 40 5 5 41 41 12 4 66 66 11 33 67 67 5 5 68 68 10 7 69 69 12 4 70 70 13 8 71 71 5 5 72 72 11 33 73 73 10 7 74 74 9 11 75 75 7 10 76 76 13 8 77 77 4 9 78 78 7 10 79 79 8 12 80 80 16 34 81 81 17 34 82 82 15 34 83 83 19 35 84 84 21 35 85 85 20 35 86 86 8 12 87 87 9 11 88 88 6 6 89 89</p>
        </triangles>
        <triangles material="tro_vines_2d-material" count="16">
          <input semantic="VERTEX" source="#Circle_014-mesh-vertices" offset="0"/>
          <input semantic="NORMAL" source="#Circle_014-mesh-normals" offset="1"/>
          <input semantic="TEXCOORD" source="#Circle_014-mesh-map-0" offset="2" set="0"/>
          <input semantic="COLOR" source="#Circle_014-mesh-colors-Col" offset="3" set="0"/>
          <p>26 15 42 42 32 16 43 43 27 17 44 44 31 18 45 45 23 19 46 46 30 20 47 47 25 21 48 48 30 20 49 49 24 22 50 50 33 23 51 51 28 24 52 52 32 16 53 53 38 25 54 54 44 26 55 55 45 27 56 56 35 28 57 57 43 29 58 58 42 30 59 59 37 31 60 60 42 30 61 61 43 29 62 62 40 32 63 63 45 27 64 64 44 26 65 65 26 15 90 90 33 23 91 91 32 16 92 92 31 18 93 93 22 36 94 94 23 19 95 95 25 21 96 96 31 18 97 97 30 20 98 98 33 23 99 99 29 24 100 100 28 24 101 101 38 25 102 102 39 37 103 103 44 26 104 104 35 28 105 105 34 38 106 106 43 29 107 107 37 31 108 108 36 39 109 109 42 30 110 110 40 32 111 111 41 32 112 112 45 27 113 113</p>
        </triangles>
      </mesh>
    </geometry>
    <geometry id="Circle_019-mesh" name="Circle.019">
      <mesh>
        <source id="Circle_019-mesh-positions">
          <float_array id="Circle_019-mesh-positions-array" count="30">0 0.3976266 -0.3443785 -0.3781654 0.1228734 -0.3443785 -0.233719 -0.3216867 -0.3443785 0.2337191 -0.3216867 -0.3443785 0.3781654 0.1228734 -0.3443785 0 0.3976266 3.630198 -0.3781654 0.1228734 3.630198 -0.233719 -0.3216867 3.630198 0.2337191 -0.3216867 3.630198 0.3781654 0.1228734 3.630198</float_array>
          <technique_common>
            <accessor source="#Circle_019-mesh-positions-array" count="10" stride="3">
              <param name="X" type="float"/>
              <param name="Y" type="float"/>
              <param name="Z" type="float"/>
            </accessor>
          </technique_common>
        </source>
        <source id="Circle_019-mesh-normals">
          <float_array id="Circle_019-mesh-normals-array" count="30">-0.9510565 -0.3090171 0 0.5877853 0.8090171 0 0 -1 0 -0.5877853 0.809017 0 0.9510567 -0.3090168 0 1.72098e-6 0 1 -0.5877853 0.809017 0 0.9510565 -0.309017 0 -1.14732e-6 0 1 0 0 1</float_array>
          <technique_common>
            <accessor source="#Circle_019-mesh-normals-array" count="10" stride="3">
              <param name="X" type="float"/>
              <param name="Y" type="float"/>
              <param name="Z" type="float"/>
            </accessor>
          </technique_common>
        </source>
        <source id="Circle_019-mesh-map-0">
          <float_array id="Circle_019-mesh-map-0-array" count="78">0 0 0 0 0 0 0 0 0 0 0 0 0 0 0 0 0 0 0 0 0 0 0 0 0 0 0 0 0 0 0 0 0 0 0 0 0 0 0 0 0 0 0 0 0 0 0 0 0 0 0 0 0 0 0 0 0 0 0 0 0 0 0 0 0 0 0 0 0 0 0 0 0 0 0 0 0 0</float_array>
          <technique_common>
            <accessor source="#Circle_019-mesh-map-0-array" count="39" stride="2">
              <param name="S" type="float"/>
              <param name="T" type="float"/>
            </accessor>
          </technique_common>
        </source>
        <vertices id="Circle_019-mesh-vertices">
          <input semantic="POSITION" source="#Circle_019-mesh-positions"/>
        </vertices>
        <triangles count="13">
          <input semantic="VERTEX" source="#Circle_019-mesh-vertices" offset="0"/>
          <input semantic="NORMAL" source="#Circle_019-mesh-normals" offset="1"/>
          <input semantic="TEXCOORD" source="#Circle_019-mesh-map-0" offset="2" set="0"/>
          <p>7 0 0 1 0 1 2 0 2 5 1 3 4 1 4 0 1 5 8 2 6 2 2 7 3 2 8 6 3 9 0 3 10 1 3 11 9 4 12 3 4 13 4 4 14 8 5 15 9 5 16 5 5 17 7 0 18 6 0 19 1 0 20 5 1 21 9 1 22 4 1 23 8 2 24 7 2 25 2 2 26 6 6 27 5 6 28 0 6 29 9 7 30 8 7 31 3 7 32 5 8 33 6 8 34 7 8 35 7 9 36 8 9 37 5 9 38</p>
        </triangles>
      </mesh>
    </geometry>
  </library_geometries>
  <library_controllers/>
  <library_visual_scenes>
    <visual_scene id="Scene" name="Scene">
      <node id="base00" name="base00" type="NODE">
        <matrix sid="transform">7.54979e-8 -1 0 0 1 7.54979e-8 0 0 0 0 1 0 0 0 0 1</matrix>
        <node id="start01" name="start01" type="NODE">
          <matrix sid="transform">1 0 0 0 0 1 0 0 0 0 1 0 0 0 0 1</matrix>
          <node id="bussign_a200" name="bussign_a200" type="NODE">
            <matrix sid="transform">7.54979e-8 1 0 0 -1 7.54979e-8 0 0 0 0 1 0 0 0 0 1</matrix>
            <instance_geometry url="#Circle_007-mesh" name="bussign_a200">
              <bind_material>
                <technique_common>
                  <instance_material symbol="busstop-material" target="#busstop-material"/>
                  <instance_material symbol="tro_vines_2d-material" target="#tro_vines_2d-material"/>
                </technique_common>
              </bind_material>
            </instance_geometry>
          </node>
          <node id="bussign_a30" name="bussign_a30" type="NODE">
            <matrix sid="transform">7.54979e-8 1 0 0 -1 7.54979e-8 0 0 0 0 1 0 0 0 0 1</matrix>
            <instance_geometry url="#Circle_014-mesh" name="bussign_a30">
              <bind_material>
                <technique_common>
                  <instance_material symbol="busstop-material" target="#busstop-material"/>
                  <instance_material symbol="tro_vines_2d-material" target="#tro_vines_2d-material"/>
                </technique_common>
              </bind_material>
            </instance_geometry>
          </node>
          <node id="Colmesh-1" name="Colmesh-1" type="NODE">
            <matrix sid="transform">7.54979e-8 1 0 0 -1 7.54979e-8 0 0 0 0 1 0 0 0 0 1</matrix>
            <instance_geometry url="#Circle_019-mesh" name="Colmesh-1"/>
          </node>
        </node>
        <node id="nulldetail7" name="nulldetail7" type="NODE">
          <matrix sid="transform">1 0 0 0 0 1 0 -1.50996e-7 0 0 1 3 0 0 0 1</matrix>
        </node>
        <node id="collision-1" name="collision-1" type="NODE">
          <matrix sid="transform">1 0 0 0 0 1 0 0 0 0 1 0 0 0 0 1</matrix>
        </node>
      </node>
    </visual_scene>
  </library_visual_scenes>
  <scene>
    <instance_visual_scene url="#Scene"/>
  </scene>
</COLLADA>