<?xml version="1.0" encoding="utf-8"?>
<COLLADA xmlns="http://www.collada.org/2005/11/COLLADASchema" version="1.4.1">
  <asset>
    <contributor>
      <author>Blender User</author>
      <authoring_tool>Blender 2.75.0 commit date:2015-07-07, commit time:14:56, hash:c27589e</authoring_tool>
    </contributor>
    <created>2018-10-16T22:49:49</created>
    <modified>2018-10-16T22:49:49</modified>
    <unit name="meter" meter="1"/>
    <up_axis>Z_UP</up_axis>
  </asset>
  <library_images/>
  <library_effects>
    <effect id="ind_bld__2__concrete-effect">
      <profile_COMMON>
        <technique sid="common">
          <phong>
            <emission>
              <color sid="emission">0 0 0 1</color>
            </emission>
            <ambient>
              <color sid="ambient">0 0 0 1</color>
            </ambient>
            <diffuse>
              <color sid="diffuse">0.64 0.64 0.64 1</color>
            </diffuse>
            <specular>
              <color sid="specular">0.5 0.5 0.5 1</color>
            </specular>
            <shininess>
              <float sid="shininess">50</float>
            </shininess>
            <index_of_refraction>
              <float sid="index_of_refraction">1</float>
            </index_of_refraction>
          </phong>
        </technique>
      </profile_COMMON>
    </effect>
    <effect id="ind_concreteleak-effect">
      <profile_COMMON>
        <technique sid="common">
          <phong>
            <emission>
              <color sid="emission">0 0 0 1</color>
            </emission>
            <ambient>
              <color sid="ambient">0 0 0 1</color>
            </ambient>
            <diffuse>
              <color sid="diffuse">0.64 0.64 0.64 1</color>
            </diffuse>
            <specular>
              <color sid="specular">0.5 0.5 0.5 1</color>
            </specular>
            <shininess>
              <float sid="shininess">50</float>
            </shininess>
            <index_of_refraction>
              <float sid="index_of_refraction">1</float>
            </index_of_refraction>
          </phong>
        </technique>
      </profile_COMMON>
    </effect>
    <effect id="eca_bld_metalbeams-effect">
      <profile_COMMON>
        <technique sid="common">
          <phong>
            <emission>
              <color sid="emission">0 0 0 1</color>
            </emission>
            <ambient>
              <color sid="ambient">0 0 0 1</color>
            </ambient>
            <diffuse>
              <color sid="diffuse">0.64 0.64 0.64 1</color>
            </diffuse>
            <specular>
              <color sid="specular">0.5 0.5 0.5 1</color>
            </specular>
            <shininess>
              <float sid="shininess">50</float>
            </shininess>
            <index_of_refraction>
              <float sid="index_of_refraction">1</float>
            </index_of_refraction>
          </phong>
        </technique>
      </profile_COMMON>
    </effect>
    <effect id="ind_metalplates-effect">
      <profile_COMMON>
        <technique sid="common">
          <phong>
            <emission>
              <color sid="emission">0 0 0 1</color>
            </emission>
            <ambient>
              <color sid="ambient">0 0 0 1</color>
            </ambient>
            <diffuse>
              <color sid="diffuse">0.64 0.64 0.64 1</color>
            </diffuse>
            <specular>
              <color sid="specular">0.5 0.5 0.5 1</color>
            </specular>
            <shininess>
              <float sid="shininess">50</float>
            </shininess>
            <index_of_refraction>
              <float sid="index_of_refraction">1</float>
            </index_of_refraction>
          </phong>
        </technique>
      </profile_COMMON>
    </effect>
  </library_effects>
  <library_materials>
    <material id="ind_bld__2__concrete-material" name="ind_bld__2__concrete">
      <instance_effect url="#ind_bld__2__concrete-effect"/>
    </material>
    <material id="ind_concreteleak-material" name="ind_concreteleak">
      <instance_effect url="#ind_concreteleak-effect"/>
    </material>
    <material id="eca_bld_metalbeams-material" name="eca_bld_metalbeams">
      <instance_effect url="#eca_bld_metalbeams-effect"/>
    </material>
    <material id="ind_metalplates-material" name="ind_metalplates">
      <instance_effect url="#ind_metalplates-effect"/>
    </material>
  </library_materials>
  <library_geometries>
    <geometry id="Cube_006-mesh" name="Cube.006">
      <mesh>
        <source id="Cube_006-mesh-positions">
          <float_array id="Cube_006-mesh-positions-array" count="768">-0.03535532 0 5 0 0 5.035356 -0.03535532 8 5 0 8 5.035356 0 0 4.964644 0.03535532 0 5 0 8 4.964644 0.03535532 8 5 -0.03535532 0 3 0 0 3.035356 -0.03535532 8 3 0 8 3.035356 0 0 2.964644 0.03535532 0 3 0 8 2.964644 0.03535532 8 3 -0.03535532 0 4 0 0 4.035356 -0.03535532 8 4 0 8 4.035356 0 0 3.964644 0.03535532 0 4 0 8 3.964644 0.03535532 8 4 -0.03535532 0 4.5 0 0 4.535356 -0.03535532 8 4.5 0 8 4.535356 0 0 4.464644 0.03535532 0 4.5 0 8 4.464644 0.03535532 8 4.5 -0.03535532 0 3.5 0 0 3.535356 -0.03535532 8 3.5 0 8 3.535356 0 0 3.464644 0.03535532 0 3.5 0 8 3.464644 0.03535532 8 3.5 -0.03535532 0 2.5 0 0 2.535355 -0.03535532 8 2.5 0 8 2.535355 0 0 2.464645 0.03535532 0 2.5 0 8 2.464645 0.03535532 8 2.5 -0.03535532 0 2 0 0 2.035355 -0.03535532 8 2 0 8 2.035355 0 0 1.964645 0.03535532 0 2 0 8 1.964645 0.03535532 8 2 -0.25 -0.125 1.25 -0.125 -0.125 5.25 -0.25 0.125 1.25 -0.125 0.125 5.25 0.25 -0.125 1.25 0.125 -0.125 5.25 0.25 0.125 1.25 0.125 0.125 5.25 -0.25 7.875 1.25 -0.125 7.875 5.25 -0.25 8.125 1.25 -0.125 8.125 5.25 0.25 7.875 1.25 0.125 7.875 5.25 0.25 8.125 1.25 0.125 8.125 5.25 -1 0 -3 -1 8 -3 1 0 -3 1 8 -3 -0.8 0 0.75 -1 0 0.55 -1 8 0.55 -0.8 8 0.75 1 0 0.55 0.8 0 0.75 0.8 8 0.75 1 8 0.55 -0.5 0 0.75 -0.5 0 1.25 -0.5 8 0.75 -0.5 8 1.25 0.5 0 0.75 0.5 0 1.25 0.5 8 0.75 0.5 8 1.25 0 4 1.951083 -0.03535532 4 1.915727 0.03535532 4 1.915727 0 4 1.880372 0 1.833482 2.289106 -0.03535532 1.833482 2.253751 0.03535532 1.833482 2.253751 0 1.833482 2.218395 0 7.011316 4.372673 -0.03535532 7.011316 4.337317 0.03535532 7.011316 4.337317 0 7.011316 4.301962 -0.0100581 7.441605 3.354287 -0.08076882 7.441605 3.354287 -0.04863411 7.466046 3.328739 -0.04082095 7.417165 3.379834 0 0.3078524 4.020637 -0.03535532 0.3040412 3.985487 0.03535532 0.3040412 3.985487 0 0.3002301 3.950338 0 7.59575 3.032495 -0.03535532 7.59575 2.997139 0.03535532 7.59575 2.997139 0 7.59575 2.961783 0 0.4023341 5.032394 -0.03535532 0.3949921 4.99781 0.03535532 0.3949921 4.99781 0 0.38765 4.963225 0 5.430631 2.274682 0 5.430631 2.203972 -0.03535532 5.430631 2.239327 0.03535532 5.430631 2.239327 -0.03535532 3.617211 2.183261 0.03535532 3.617211 2.183261 0 3.617212 2.218616 0 3.617212 2.147905 0 7.336358 4.031286 0 7.347743 3.961498 -0.03535532 7.342051 3.996392 0.03535532 7.342051 3.996392 0.04732894 0.7099364 3.233787 0.04732894 0.7515888 3.290928 0.08268427 0.7307627 3.262358 0.01197355 0.7307627 3.262358 0 0.7012763 3.863938 0.03535532 0.7192711 3.894372 -0.03535532 0.7192711 3.894372 0 0.7372663 3.924806 -0.09541088 0.385484 4.454807 -0.02470016 0.385484 4.454807 -0.06207841 0.3917341 4.489606 -0.05919516 0.3792341 4.420009 0.001196503 0.8380743 4.24997 -5.14388e-4 0.8762564 4.309486 0.03570169 0.8571652 4.279728 -0.03500896 0.8571652 4.279728 0.02260255 1.07348 4.013413 0.02260255 1.12348 4.063414 0.05795788 1.09848 4.038414 -0.01275277 1.09848 4.038414 0 0.933978 3.595302 0.03535532 0.9605858 3.618584 -0.03535532 0.9605858 3.618584 0 0.9871939 3.641866 -0.003300726 7.718541 3.503069 -0.007007539 7.731977 3.433646 -0.04143422 7.725259 3.468358 0.02927637 7.725259 3.468358 -0.01612299 0.4483895 3.468189 0.0545876 0.4483895 3.468189 0.01800543 0.4593413 3.501806 0.02046924 0.4374378 3.434573 -0.06085437 7.326694 3.101481 -0.1315651 7.326694 3.101481 -0.09738564 7.361027 3.09304 -0.09502619 7.29236 3.109921 -0.1058666 7.303711 2.6878 -0.1765773 7.303711 2.6878 -0.141222 7.339012 2.685838 -0.141222 7.26841 2.68976 0 6.715596 3.823605 0 6.74271 3.758299 -0.03535532 6.729153 3.790952 0.03535532 6.729153 3.790952 0 5.977907 3.454857 0 6.00953 3.391611 -0.03535532 5.993718 3.423234 0.03535532 5.993718 3.423234 -0.03535532 0.3686401 2.965248 0.03535532 0.3686401 2.965248 0 0.3782785 2.999264 0 0.3590018 2.931231 -0.03535532 1.2019 2.751828 0.03535532 1.2019 2.751828 0 1.227393 2.776325 0 1.176407 2.72733 -0.09133452 1.719003 2.232535 -0.02062386 1.719003 2.232535 -0.05674558 1.750742 2.248114 -0.05455803 1.687265 2.216955 -0.1154435 2.098212 1.836223 -0.0447328 2.098212 1.836223 -0.08064758 2.12611 1.857942 -0.07908576 2.070313 1.814504 -0.1374831 2.902593 1.427191 -0.0667724 2.902593 1.427191 -0.1023073 2.915411 1.460141 -0.1018638 2.889776 1.394241 -0.1503742 4.488375 1.277806 -0.07966345 4.488375 1.277806 -0.1150188 4.486118 1.313089 -0.1150188 4.490631 1.242522 -0.1469818 5.304248 1.461665 -0.07627111 5.304248 1.461665 -0.1117244 5.286632 1.492319 -0.1114933 5.321864 1.43101 -0.1336519 6.223542 1.749906 -0.06294113 6.223542 1.749906 -0.09880185 6.192883 1.767513 -0.09772366 6.2542 1.732298 -0.1211667 6.556786 2.153058 -0.05045592 6.556786 2.153058 -0.08632242 6.522555 2.161904 -0.08478611 6.591016 2.144211 -0.1000901 6.78198 2.67058 -0.02937942 6.78198 2.67058 -0.06434506 6.754935 2.693353 -0.06465309 6.809024 2.647808 -0.0643205 7.216147 2.910424 0.006390094 7.216147 2.910424 -0.02692627 7.202918 2.943211 -0.02980774 7.229377 2.877637 0 7.662513 5.034536 0 7.676242 4.965171 -0.03535532 7.669377 4.999854 0.03535532 7.669377 4.999854 0 7.306859 4.888738 0 7.333795 4.823359 -0.03535532 7.320326 4.856049 0.03535532 7.320326 4.856049 0 0.873624 4.821495 -0.03535532 0.8493422 4.795797 0.03535532 0.8493422 4.795797 0 0.8250598 4.770099 0 1.097688 4.390209 -0.03535532 1.066247 4.374039 0.03535532 1.066247 4.374039 0 1.034806 4.357869 -1 8 -3 -1 8 -3 -1 0 -3 -1 0 -3 1 8 -3 1 8 -3 1 0 -3 1 0 -3 -1 0 0.55 -0.8 0 0.75 -0.8 8 0.75 -1 8 0.55 1 8 0.55 0.8 8 0.75 0.8 0 0.75 1 0 0.55</float_array>
          <technique_common>
            <accessor source="#Cube_006-mesh-positions-array" count="256" stride="3">
              <param name="X" type="float"/>
              <param name="Y" type="float"/>
              <param name="Z" type="float"/>
            </accessor>
          </technique_common>
        </source>
        <source id="Cube_006-mesh-normals">
          <float_array id="Cube_006-mesh-normals-array" count="696">0 -6.32417e-4 0.9999998 -0.9999996 -9.34529e-4 -2.71659e-4 -0.9962199 -0.01696181 0.0851956 0.9999975 8.74862e-4 0.002073168 0 -0.00366187 -0.9999934 0 -0.2091932 -0.9778743 0 -0.001625955 -0.9999988 1.9929e-7 0.1943746 -0.9809274 0.9962199 -0.01696181 0.08519577 0.9999996 -9.3453e-4 -2.71659e-4 0.2979138 -0.09463596 0.9498903 0 -0.007077157 0.999975 -0.999995 -2.2548e-5 0.003186106 0.9991092 0.004477918 0.04196321 0 -0.09267258 -0.9956967 0 -0.164623 -0.9863566 -0.9999949 2.25495e-5 -0.003185987 0 0.007077157 -0.999975 0.999995 -2.25478e-5 0.003186047 0 -0.005514621 0.9999848 -0.9999973 -3.25569e-4 0.002324521 -0.9974687 -0.01185768 0.070113 0.9997695 0.001058638 0.02144432 0 -0.04759871 -0.9988666 3.36893e-7 -0.1304253 -0.9914582 0 0.004824161 -0.9999884 -8.82127e-7 0.1639286 -0.9864723 0.9974687 -0.01185774 0.07011193 0.9999973 -3.25565e-4 0.002324461 1.49011e-7 -0.1623613 0.9867315 0 -0.1623612 0.9867314 -0.9972559 -0.01201981 0.07304888 0.9964762 0.03987056 0.07379347 0.9861716 0.1590847 0.04645335 0.07425808 -0.1050465 -0.991691 -0.9972556 0.01202046 -0.07305437 0 0.1623612 -0.9867314 0.997256 -0.01201975 0.07304883 0.05487746 -0.2510798 0.9664096 0.004845142 -0.1140191 0.9934667 -0.9983821 0.01294493 0.0553683 0.9986 -0.04124617 0.03312116 -0.02193766 -0.06754505 -0.997475 0.008559763 -0.3484282 -0.9372964 0.01173293 0.1161388 -0.9931638 0.01536053 0.2474401 -0.9687815 0.9985675 -0.02258414 0.04850769 5.13429e-7 -0.067025 0.9977513 0 -0.1009359 0.994893 -0.998957 -0.004609048 0.04542994 0.9997721 -0.003668844 -0.02103406 0.9981718 0.008045434 0.05990356 0 -0.1331117 -0.9911011 -0.9998739 0.002088308 -0.01574236 0 0.1009358 -0.994893 0.998957 -0.004609048 0.04542988 0 0 1 0 -0.0210635 0.9997782 -0.9999551 -1.99762e-4 0.009481608 0.9999551 0 -0.009481608 0.9999551 1.99761e-4 0.009481608 0 -0.0210635 -0.9997782 -0.9999551 0 -0.009481489 0 0.0210635 -0.9997782 0.9999551 -1.99761e-4 0.009481608 -0.9995121 0 0.03123474 0 1 0 0.9995121 0 0.03123474 0 -1 0 0 0 1 0.009973287 0 0.9999504 -0.01327306 0 0.9999119 -0.009973287 0 0.9999504 0.9999841 0 0.005648195 1 0 0 -0.9999841 0 0.005648195 -1 0 0 0 0 -1 0 1 -1.59492e-6 0 1 1.99228e-6 0 1 7.94728e-7 -0.999912 1.41965e-4 0.01327288 0.01327306 0 0.9999119 0.999912 -1.41965e-4 0.01327288 0 0 -1 -0.9999551 1.9976e-4 0.009481608 0 0.08827513 0.9960962 -0.9997721 -0.003668844 -0.02103406 0 -0.08462768 -0.9964126 0.9998747 -1.36258e-4 -0.01583892 -0.9981718 0.008045434 0.05990374 0.9972555 0.01202046 -0.0730549 -1.72564e-7 0.1623609 -0.9867315 0.06683683 -0.693977 0.7168883 0.002097547 -0.9701312 0.2425717 0.9871755 -0.1007173 -0.1238575 -0.9934859 0.04522019 0.1045991 -0.04083293 0.6934863 -0.7193118 0.9816709 -0.1888398 -0.02572679 0.9992987 0.006634235 0.03685331 -2.23466e-7 0.130796 0.9914093 0 0.04768675 0.9988624 -0.9997695 0.001058638 0.02144438 -0.9992988 0.006634175 0.03685259 1.2966e-6 0.5085383 0.8610395 -0.990183 0.07084858 0.120491 -0.9994004 0.004041373 0.03438717 -0.9884364 0.004028141 0.1515831 0.01472902 -0.4578296 -0.8889179 0.9994004 0.004041254 0.03438639 0.9978487 -0.04775065 0.04492074 0.339147 0.05596858 -0.9390671 7.9075e-7 0.1755605 0.9844686 0.01984053 0.5241949 0.8513672 0.9957857 0.02053153 0.08938431 3.28635e-7 0.2110503 0.9774752 0 0.005690395 0.9999838 -0.9999975 8.74861e-4 0.002073287 -0.9957855 0.02053153 0.08938479 0 -0.1944646 0.9809096 -1.77089e-6 -0.3807907 0.9246613 0.9998739 0.002088367 -0.01574337 -4.63104e-7 0.06494355 -0.997889 -4.22734e-7 0.004364192 0.9999905 -0.9998747 -1.36274e-4 -0.01583915 0 -0.004228293 -0.9999911 0.9884619 -0.005120337 0.1513834 0.9966333 -0.06675887 0.04759627 0.03604423 0.5859704 0.8095304 0.03548467 -0.5950847 -0.8028792 -0.9922631 0.09646284 0.07816082 -0.997003 0.06165009 -0.04673659 0.9902346 -0.01982951 0.1379944 -7.41395e-4 0.5382829 0.842764 -0.08446675 0.2280777 0.9699722 0.06414616 0.1247165 0.9901167 -0.9872198 -0.1490222 0.05647605 -0.9995125 -0.005650818 0.03070831 -0.05352455 -0.2390825 -0.969523 -0.02262234 0.3399085 0.9401865 7.4644e-7 -0.5090264 -0.8607509 0.9901832 0.07084763 0.1204905 0.02798044 -0.542833 -0.8393744 -0.9919107 0.1250619 0.02174228 -0.9979821 0.04431623 -0.04547464 0.99784 -0.04665952 0.04624289 0.02928429 0.7052994 0.7083045 0.02876609 -0.7098366 -0.7037788 1.07329e-6 0.7523097 0.6588097 -0.9999968 -0.002340078 9.81781e-4 5.37837e-7 -0.7558515 -0.6547431 0.9999968 -0.002340435 9.81431e-4 0.9964213 -0.08344691 0.01346296 -0.9628009 -0.04345506 0.2666947 -0.9852272 -0.06007611 0.1603695 -0.0359075 0.9727823 -0.2289222 -0.01832455 0.07168602 0.9972589 -0.9984269 0.04765182 0.029549 0.9942951 -0.005366921 -0.1065288 -0.04798328 0.9976486 -0.04893732 -0.9941504 0.005987524 0.1078393 -0.04852586 -0.9969628 0.06091499 0.9995052 -0.01191639 0.02911084 -0.9995052 -0.01191663 0.02911144 1.1737e-6 -0.3833968 0.9235837 2.03489e-7 -0.1635757 0.9865308 8.85564e-7 0.3837388 -0.9234418 -1 5.60523e-5 1.60993e-6 -1.12692e-6 -0.4472107 0.8944287 1.07332e-6 0.4473091 -0.8943796 1 5.51669e-5 3.46135e-6 2.23637e-7 0.09395474 0.9955766 -0.9991092 0.004477918 0.04196321 0.9930754 0.06027829 0.1008356 -0.008855581 0.7166277 0.6973997 -0.9981227 -0.04364144 0.04297178 0.003330588 -0.7154976 -0.6986074 0.9981966 0.04901665 -0.03465461 -0.9963017 -0.06196564 -0.05952602 0.004999041 -0.6121137 -0.790754 -0.008627653 0.5764251 0.8171045 0.9959089 -4.7357e-5 -0.0903635 -0.006190598 0.2682459 0.9633306 -0.9962416 -0.03298234 -0.08009338 0.9963534 -7.63961e-4 -0.08531934 -4.7534e-4 -0.285196 -0.9584692 -0.9975318 0.002640485 -0.070167 -0.002478301 0.06382983 -0.9979577 -0.003031909 -0.06339454 0.9979839 0.9974925 0.006695568 -0.07045632 -0.0014382 0.2649396 -0.964264 0.999788 -0.006129205 -0.01965993 -0.002483248 -0.2510375 0.9679743 -0.9998093 0.01128721 -0.01593774 -0.006280779 -0.4966079 0.8679523 0.9864708 0.01260322 -0.1634523 -0.9879646 0.04664903 -0.1474784 0.00150907 0.6006431 -0.7995159 -0.997287 0.06848603 -0.02698886 0.006897211 0.8625587 -0.50591 0.9970304 0.02623355 -0.07240349 -0.006314098 -0.8410677 0.5408931 -7.23656e-4 -0.7431447 0.6691305 -0.9875078 -0.06830811 0.1419946 0.988572 -0.1388094 0.05880147 -0.00976938 0.7356173 -0.677327 0.9965734 -0.08158427 0.01362615 0.3506191 -0.4000889 0.8467556 -0.9951522 0.02801257 0.09427374 0.3195981 0.3539069 -0.8789806 -0.7143797 0.2071922 -0.6683809 0.7143767 -0.2071931 0.6683839 0.7026965 0.111543 -0.7026919 -0.9999996 9.21176e-4 -5.12689e-5 0.9999996 9.20399e-4 -4.91753e-5 2.14828e-7 0.382606 -0.9239116 -1.54348e-6 0.6862455 0.7273701 -0.9888758 0.1017524 0.1084946 -9.85056e-7 -0.6868389 -0.7268097 0.9888757 0.1017529 0.1084957 0 -0.8912651 -0.4534828 0.9999976 -0.001789212 0.001361012 -1.23426e-6 0.8891608 0.4575949 -0.9999974 -0.001790285 0.001360595 0 1 -5.96046e-6 0 0.0210635 0.9997782 0 0.1331118 0.991101 -0.7026957 -0.1115428 0.7026926 -0.6906025 0.2147993 -0.6906009 -0.6775038 -0.1142833 0.7265866 0.6906027 -0.2147994 0.6906006 0.6775072 0.1142829 -0.7265834</float_array>
          <technique_common>
            <accessor source="#Cube_006-mesh-normals-array" count="232" stride="3">
              <param name="X" type="float"/>
              <param name="Y" type="float"/>
              <param name="Z" type="float"/>
            </accessor>
          </technique_common>
        </source>
        <source id="Cube_006-mesh-map-0">
          <float_array id="Cube_006-mesh-map-0-array" count="2244">0.7088518 0.3007758 0.7088839 0.3083214 0.6910173 0.3083214 0.2766327 0.3234124 0.2766007 0.3158669 0.2979458 0.3158669 0.7088839 0.3083214 0.708916 0.3158669 0.6910493 0.3158669 0.6909531 0.2932303 0.7088198 0.2932303 0.7088518 0.3007758 0.6870064 0.3007758 0.7088518 0.3007758 0.7088839 0.3083214 0.2766327 0.3234124 0.2766007 0.3158669 0.2965218 0.315867 0.6870384 0.3083214 0.7088839 0.3083214 0.708916 0.3158669 0.7088198 0.2932303 0.7088518 0.3007758 0.6870064 0.3007758 0.7088518 0.3007758 0.7088839 0.3083214 0.6733287 0.3083214 0.2766327 0.3234124 0.2766007 0.3158669 0.2930309 0.315867 0.7088839 0.3083214 0.708916 0.3158669 0.6733608 0.3158669 0.6732646 0.2932303 0.7088198 0.2932303 0.7088518 0.3007758 0.6554239 0.3007758 0.7088518 0.3007758 0.7088839 0.3083214 0.3123675 0.3234124 0.2766327 0.3234124 0.2766007 0.3158669 0.655456 0.3083214 0.7088839 0.3083214 0.708916 0.3158669 0.7088198 0.2932303 0.7088518 0.3007758 0.6554239 0.3007758 0.694005 0.3007758 0.7088518 0.3007758 0.7088839 0.3083214 0.2766327 0.3234124 0.2766007 0.3158669 0.3008314 0.3158669 0.7088839 0.3083214 0.708916 0.3158669 0.6940692 0.3158669 0.7088198 0.2932303 0.7088518 0.3007758 0.694005 0.3007758 0.5700046 0.3007759 0.7088518 0.3007758 0.7088839 0.3083214 0.3757131 0.3234124 0.2766327 0.3234124 0.2766007 0.3158669 0.5700367 0.3083214 0.7088839 0.3083214 0.708916 0.3158669 0.7088198 0.2932303 0.7088518 0.3007758 0.5700046 0.3007759 0.4926941 0.3007758 0.7088518 0.3007758 0.7088839 0.3083214 0.4927904 0.3234124 0.2766327 0.3234124 0.2766007 0.3158669 0.4927262 0.3083214 0.7088839 0.3083214 0.708916 0.3158669 0.7088198 0.2932303 0.7088518 0.3007758 0.4926941 0.3007758 1.874383 0.7530398 -1.143048 0.7530381 -1.143048 0.5018048 3.503168 -0.06887817 1.4301e-4 0.02842825 1.43037e-4 -0.3607972 2.125617 0.501805 5.143048 0.5018042 5.143048 0.7530375 3.503168 -0.06887817 1.4301e-4 0.02842825 1.43037e-4 -0.3607972 2.125617 0.7530398 1.874383 0.7530398 1.874383 0.501805 1.874383 0.7530398 -1.143048 0.7530381 -1.143048 0.5018048 3.503168 -0.06887817 1.4301e-4 0.02842825 1.43037e-4 -0.3607972 2.125617 0.501805 5.143048 0.5018042 5.143048 0.7530375 3.503168 -0.06887817 1.4301e-4 0.02842825 1.43037e-4 -0.3607972 2.125617 0.7530398 1.874383 0.7530398 1.874383 0.501805 2.5 1.045711 2.5 0.7707108 0.4999999 0.7707075 0.4999995 1.116418 0.4999995 2.066418 2.499999 2.066418 2.5 0.7 2.5 -0.25 0.5 -0.25 0.3125 2.5 0.6875 2.5 0.6875 0.5 0.3125 0.7 0.6375 0.75 0.6875 0.7 2.5 0.7707108 2.5 0.7 0.5 0.7 0.4999995 1.045707 0.4999995 1.116418 2.499999 1.116418 0.6875 0.7 0.3625 0.75 0.3125 0.7 2.5 0 2.5 -0.25 0.5 -0.25 0.625 0 0.625 -0.25 0.375 -0.25 -1.5 0 -1.5 -0.25 0.5 -0.25 0.375 0 0.375 -0.25 0.625 -0.25 0.625 2.5 0.375 2.5 0.375 0.5 0.2765045 0.2932303 0.4926621 0.2932303 0.4926941 0.3007758 0.4927262 0.3083214 0.4927583 0.3158669 0.2766007 0.3158669 0.4927904 0.3234124 0.4927583 0.3158669 0.708916 0.3158669 0.4926941 0.3007758 0.4927262 0.3083214 0.2765686 0.3083214 0.2765045 0.2932303 0.3755847 0.2932303 0.3756169 0.3007759 0.3756489 0.3083214 0.3756809 0.3158669 0.2766007 0.3158669 0.4721047 0.3234124 0.3757131 0.3234124 0.3756809 0.3158669 0.3756169 0.3007759 0.3756489 0.3083214 0.2765686 0.3083214 0.6555201 0.3234124 0.655488 0.3158669 0.708916 0.3158669 0.694005 0.3007758 0.694005 0.3007758 0.693973 0.2932303 0.6940371 0.3083214 0.6940692 0.3158669 0.6940692 0.3158669 0.694005 0.3007758 0.694005 0.3007758 0.693973 0.2932303 0.6940692 0.3158669 0.6941012 0.3234124 0.6941012 0.3234124 0.2929347 0.2932303 0.2929667 0.3007759 0.2765365 0.3007758 0.2765686 0.3083214 0.2929988 0.3083214 0.2930309 0.315867 0.2929667 0.3007759 0.2929667 0.3007759 0.2929988 0.3083214 0.2765365 0.3007758 0.2929667 0.3007759 0.2929988 0.3083214 0.2964897 0.3083214 0.2964897 0.3083214 0.2965218 0.315867 0.2965539 0.3234124 0.2965218 0.315867 0.2965218 0.315867 0.6871026 0.3234124 0.6870705 0.315867 0.708916 0.3158669 0.2964577 0.3007758 0.2964577 0.3007758 0.2964897 0.3083214 0.2978496 0.2932303 0.2978817 0.3007759 0.2765365 0.3007758 0.2765686 0.3083214 0.2979137 0.3083214 0.2979458 0.3158669 0.6909531 0.2932303 0.6909852 0.3007759 0.6909852 0.3007759 0.2765365 0.3007758 0.2978817 0.3007759 0.2979137 0.3083214 0.5701008 0.3234124 0.5700687 0.3158669 0.708916 0.3158669 0.5699726 0.2932303 0.5700046 0.3007759 0.4720085 0.3007759 0.4720406 0.3083214 0.5700367 0.3083214 0.5700687 0.3158669 0.4720085 0.3007759 0.5700046 0.3007759 0.5700367 0.3083214 0.4720085 0.3007759 0.4720406 0.3083214 0.3756489 0.3083214 0.4720406 0.3083214 0.4720726 0.3158669 0.3756809 0.3158669 0.3755847 0.2932303 0.4719765 0.2932303 0.4720085 0.3007759 0.4721047 0.3234124 0.4720726 0.3158669 0.5700687 0.3158669 0.708948 0.3234124 0.6733928 0.3234124 0.6733608 0.3158669 0.3007351 0.2932303 0.3007351 0.2932303 0.3007673 0.3007759 0.3008314 0.3158669 0.3008314 0.3158669 0.3008635 0.3234124 0.3008314 0.3158669 0.3007993 0.3083214 0.3007993 0.3083214 0.3122392 0.2932303 0.3122392 0.2932303 0.3122713 0.3007758 0.3122392 0.2932303 0.3122713 0.3007758 0.2765365 0.3007758 0.2765686 0.3083214 0.3123034 0.3083214 0.3123354 0.3158669 0.3007993 0.3083214 0.3007673 0.3007759 0.3007673 0.3007759 0.2929988 0.3083214 0.2929988 0.3083214 0.2930309 0.315867 0.293063 0.3234124 0.2930309 0.315867 0.2930309 0.315867 0.2929667 0.3007759 0.2929347 0.2932303 0.2929347 0.2932303 0.3122713 0.3007758 0.3123034 0.3083214 0.2765686 0.3083214 0.3123675 0.3234124 0.3123354 0.3158669 0.3123354 0.3158669 0.3122713 0.3007758 0.3122713 0.3007758 0.3123034 0.3083214 0.3123354 0.3158669 0.3123034 0.3083214 0.3123034 0.3083214 0.3123354 0.3158669 0.3123034 0.3083214 0.3123034 0.3083214 0.3122392 0.2932303 0.3122392 0.2932303 0.3122713 0.3007758 0.3123354 0.3158669 0.3123354 0.3158669 0.3123675 0.3234124 0.3123034 0.3083214 0.3122713 0.3007758 0.3122713 0.3007758 0.2929988 0.3083214 0.2929667 0.3007759 0.2929667 0.3007759 0.2930309 0.315867 0.2929988 0.3083214 0.2929988 0.3083214 0.2930309 0.315867 0.2930309 0.315867 0.293063 0.3234124 0.2929347 0.2932303 0.2929347 0.2932303 0.2929667 0.3007759 0.6941012 0.3234124 0.6940692 0.3158669 0.708916 0.3158669 0.6940371 0.3083214 0.6940371 0.3083214 0.694005 0.3007758 0.6940692 0.3158669 0.6941012 0.3234124 0.6941012 0.3234124 0.6940371 0.3083214 0.6940692 0.3158669 0.6940692 0.3158669 0.2765365 0.3007758 0.3007673 0.3007759 0.3007993 0.3083214 0.2765686 0.3083214 0.3007993 0.3083214 0.3008314 0.3158669 0.3007351 0.2932303 0.3007673 0.3007759 0.2765365 0.3007758 0.6940371 0.3083214 0.6940371 0.3083214 0.694005 0.3007758 0.6940692 0.3158669 0.6941012 0.3234124 0.6941012 0.3234124 0.6940371 0.3083214 0.6940692 0.3158669 0.6940692 0.3158669 0.6940371 0.3083214 0.6940371 0.3083214 0.694005 0.3007758 0.694005 0.3007758 0.694005 0.3007758 0.693973 0.2932303 0.6733608 0.3158669 0.6733928 0.3234124 0.6733928 0.3234124 0.6733287 0.3083214 0.6733287 0.3083214 0.6732966 0.3007758 0.6732646 0.2932303 0.6732966 0.3007758 0.6732966 0.3007758 0.6733608 0.3158669 0.6733608 0.3158669 0.6733287 0.3083214 0.6733287 0.3083214 0.6733287 0.3083214 0.6732966 0.3007758 0.6732646 0.2932303 0.6732966 0.3007758 0.6732966 0.3007758 0.6733608 0.3158669 0.6733608 0.3158669 0.6733287 0.3083214 0.6733608 0.3158669 0.6733928 0.3234124 0.6733928 0.3234124 0.2765365 0.3007758 0.2964577 0.3007758 0.2964897 0.3083214 0.2765686 0.3083214 0.2964897 0.3083214 0.2965218 0.315867 0.2964255 0.2932303 0.2964577 0.3007758 0.2765365 0.3007758 0.2964577 0.3007758 0.2964255 0.2932303 0.2964255 0.2932303 0.2964577 0.3007758 0.2964577 0.3007758 0.2964897 0.3083214 0.2965539 0.3234124 0.2965218 0.315867 0.2965218 0.315867 0.2964897 0.3083214 0.2964897 0.3083214 0.2965218 0.315867 0.2964577 0.3007758 0.2964255 0.2932303 0.2964255 0.2932303 0.2964897 0.3083214 0.2964897 0.3083214 0.2965218 0.315867 0.2965539 0.3234124 0.2965218 0.315867 0.2965218 0.315867 0.2964577 0.3007758 0.2964577 0.3007758 0.2964897 0.3083214 0.2964577 0.3007758 0.2964255 0.2932303 0.2964255 0.2932303 0.2964577 0.3007758 0.2964577 0.3007758 0.2964897 0.3083214 0.2964577 0.3007758 0.2964255 0.2932303 0.2964255 0.2932303 0.2964897 0.3083214 0.2964897 0.3083214 0.2965218 0.315867 0.2965539 0.3234124 0.2965218 0.315867 0.2965218 0.315867 0.2964897 0.3083214 0.2964897 0.3083214 0.2965218 0.315867 0.2965539 0.3234124 0.2965218 0.315867 0.2965218 0.315867 0.2964577 0.3007758 0.2964577 0.3007758 0.2964897 0.3083214 0.2964577 0.3007758 0.2964255 0.2932303 0.2964255 0.2932303 0.2965218 0.315867 0.2965218 0.315867 0.2965539 0.3234124 0.2964897 0.3083214 0.2964577 0.3007758 0.2964577 0.3007758 0.2964255 0.2932303 0.2964255 0.2932303 0.2964577 0.3007758 0.2965218 0.315867 0.2964897 0.3083214 0.2964897 0.3083214 0.2964897 0.3083214 0.2964577 0.3007758 0.2964577 0.3007758 0.2964255 0.2932303 0.2964255 0.2932303 0.2964577 0.3007758 0.2965218 0.315867 0.2964897 0.3083214 0.2964897 0.3083214 0.2965218 0.315867 0.2965218 0.315867 0.2965539 0.3234124 0.2965218 0.315867 0.2964897 0.3083214 0.2964897 0.3083214 0.2965218 0.315867 0.2965218 0.315867 0.2965539 0.3234124 0.2964897 0.3083214 0.2964577 0.3007758 0.2964577 0.3007758 0.2964255 0.2932303 0.2964255 0.2932303 0.2964577 0.3007758 0.2964577 0.3007758 0.2964577 0.3007758 0.2964897 0.3083214 0.2964577 0.3007758 0.2964255 0.2932303 0.2964255 0.2932303 0.2964897 0.3083214 0.2964897 0.3083214 0.2965218 0.315867 0.2965539 0.3234124 0.2965218 0.315867 0.2965218 0.315867 0.2964255 0.2932303 0.2964255 0.2932303 0.2964577 0.3007758 0.2965218 0.315867 0.2964897 0.3083214 0.2964897 0.3083214 0.2965218 0.315867 0.2965218 0.315867 0.2965539 0.3234124 0.2964897 0.3083214 0.2964577 0.3007758 0.2964577 0.3007758 0 0 0.2964255 0.2932303 0 0 0 0 0.6871026 0.3234124 0 0 0.2964897 0.3083214 0.2964577 0.3007758 0.6870705 0.315867 0 0 0.2964897 0.3083214 0.2965218 0.315867 0.6870384 0.3083214 0 0 0.2964577 0.3007758 0.708948 0.3234124 0.6910813 0.3234124 0.6910493 0.3158669 0.6910173 0.3083214 0.6910173 0.3083214 0.6909852 0.3007759 0.6910493 0.3158669 0.6910813 0.3234124 0.6910813 0.3234124 0.6910493 0.3158669 0.6910493 0.3158669 0.6910173 0.3083214 0.2978817 0.3007759 0.2978817 0.3007759 0.2979137 0.3083214 0.2979137 0.3083214 0.2979137 0.3083214 0.2979458 0.3158669 0.2979779 0.3234124 0.2979458 0.3158669 0.2979458 0.3158669 0.2978817 0.3007759 0.2978496 0.2932303 0.2978496 0.2932303 0.2979458 0.3158669 0.2979458 0.3158669 0.2979779 0.3234124 0.2978496 0.2932303 0.2978496 0.2932303 0.2978817 0.3007759 0.2979137 0.3083214 0.2978817 0.3007759 0.2978817 0.3007759 0.2979458 0.3158669 0.2979137 0.3083214 0.2979137 0.3083214 0.6909852 0.3007759 0.7088518 0.3007758 0.6910173 0.3083214 0.2979779 0.3234124 0.2766327 0.3234124 0.2979458 0.3158669 0.6910173 0.3083214 0.7088839 0.3083214 0.6910493 0.3158669 0.6909852 0.3007759 0.6909531 0.2932303 0.7088518 0.3007758 0.6870384 0.3083214 0.6870064 0.3007758 0.7088839 0.3083214 0.2965539 0.3234124 0.2766327 0.3234124 0.2965218 0.315867 0.6870705 0.315867 0.6870384 0.3083214 0.708916 0.3158669 0.6869744 0.2932303 0.7088198 0.2932303 0.6870064 0.3007758 0.6732966 0.3007758 0.7088518 0.3007758 0.6733287 0.3083214 0.293063 0.3234124 0.2766327 0.3234124 0.2930309 0.315867 0.6733287 0.3083214 0.7088839 0.3083214 0.6733608 0.3158669 0.6732966 0.3007758 0.6732646 0.2932303 0.7088518 0.3007758 0.655456 0.3083214 0.6554239 0.3007758 0.7088839 0.3083214 0.3123354 0.3158669 0.3123675 0.3234124 0.2766007 0.3158669 0.655488 0.3158669 0.655456 0.3083214 0.708916 0.3158669 0.6553919 0.2932303 0.7088198 0.2932303 0.6554239 0.3007758 0.6940371 0.3083214 0.694005 0.3007758 0.7088839 0.3083214 0.3008635 0.3234124 0.2766327 0.3234124 0.3008314 0.3158669 0.6940371 0.3083214 0.7088839 0.3083214 0.6940692 0.3158669 0.693973 0.2932303 0.7088198 0.2932303 0.694005 0.3007758 0.5700367 0.3083214 0.5700046 0.3007759 0.7088839 0.3083214 0.3756809 0.3158669 0.3757131 0.3234124 0.2766007 0.3158669 0.5700687 0.3158669 0.5700367 0.3083214 0.708916 0.3158669 0.5699726 0.2932303 0.7088198 0.2932303 0.5700046 0.3007759 0.4927262 0.3083214 0.4926941 0.3007758 0.7088839 0.3083214 0.4927583 0.3158669 0.4927904 0.3234124 0.2766007 0.3158669 0.4927583 0.3158669 0.4927262 0.3083214 0.708916 0.3158669 0.4926621 0.2932303 0.7088198 0.2932303 0.4926941 0.3007758 1.874383 0.501805 1.874383 0.7530398 -1.143048 0.5018048 3.503168 -0.263491 3.503168 -0.06887817 1.43037e-4 -0.3607972 2.125617 0.7530398 2.125617 0.501805 5.143048 0.7530375 3.503168 -0.263491 3.503168 -0.06887817 1.43037e-4 -0.3607972 2.125617 0.501805 2.125617 0.7530398 1.874383 0.501805 1.874383 0.501805 1.874383 0.7530398 -1.143048 0.5018048 3.503168 -0.263491 3.503168 -0.06887817 1.43037e-4 -0.3607972 2.125617 0.7530398 2.125617 0.501805 5.143048 0.7530375 3.503168 -0.263491 3.503168 -0.06887817 1.43037e-4 -0.3607972 2.125617 0.501805 2.125617 0.7530398 1.874383 0.501805 0.4999995 1.045707 2.5 1.045711 0.4999999 0.7707075 2.499999 1.116418 0.4999995 1.116418 2.499999 2.066418 0.5 0.7 2.5 0.7 0.5 -0.25 0.3125 0.5 0.3125 2.5 0.6875 0.5 0.6875 -0.25 0.3125 -0.25 0.3125 0.7 0.3125 0.7 0.6875 0.7 0.6875 -0.25 0.3125 0.7 0.3625 0.75 0.6375 0.75 0.4999999 0.7707075 2.5 0.7707108 0.5 0.7 2.5 1.045711 0.4999995 1.045707 2.499999 1.116418 0.3125 -0.25 0.6875 -0.25 0.6875 0.7 0.6875 0.7 0.3125 0.7 0.3125 -0.25 0.6875 0.7 0.6375001 0.75 0.3625 0.75 0.5 0 2.5 0 0.5 -0.25 0.375 0 0.625 0 0.375 -0.25 0.5 0 -1.5 0 0.5 -0.25 0.625 0 0.375 0 0.625 -0.25 0.625 0.5 0.625 2.5 0.375 0.5 0.2765365 0.3007758 0.2765045 0.2932303 0.4926941 0.3007758 0.2765686 0.3083214 0.4927262 0.3083214 0.2766007 0.3158669 0.708948 0.3234124 0.4927904 0.3234124 0.708916 0.3158669 0.2765365 0.3007758 0.4926941 0.3007758 0.2765686 0.3083214 0.2765365 0.3007758 0.2765045 0.2932303 0.3756169 0.3007759 0.2765686 0.3083214 0.3756489 0.3083214 0.2766007 0.3158669 0.4720726 0.3158669 0.4721047 0.3234124 0.3756809 0.3158669 0.2765365 0.3007758 0.3756169 0.3007759 0.2765686 0.3083214 0.708948 0.3234124 0.6555201 0.3234124 0.708916 0.3158669 0.693973 0.2932303 0.694005 0.3007758 0.693973 0.2932303 0.6940371 0.3083214 0.6940371 0.3083214 0.6940692 0.3158669 0.693973 0.2932303 0.694005 0.3007758 0.693973 0.2932303 0.6940692 0.3158669 0.6940692 0.3158669 0.6941012 0.3234124 0.2765045 0.2932303 0.2929347 0.2932303 0.2765365 0.3007758 0.2766007 0.3158669 0.2765686 0.3083214 0.2930309 0.315867 0.2929988 0.3083214 0.2929667 0.3007759 0.2929988 0.3083214 0.2765686 0.3083214 0.2765365 0.3007758 0.2929988 0.3083214 0.2965218 0.315867 0.2964897 0.3083214 0.2965218 0.315867 0.2965539 0.3234124 0.2965539 0.3234124 0.2965218 0.315867 0.708948 0.3234124 0.6871026 0.3234124 0.708916 0.3158669 0.2964897 0.3083214 0.2964577 0.3007758 0.2964897 0.3083214 0.2765045 0.2932303 0.2978496 0.2932303 0.2765365 0.3007758 0.2766007 0.3158669 0.2765686 0.3083214 0.2979458 0.3158669 0.6909531 0.2932303 0.6909531 0.2932303 0.6909852 0.3007759 0.2765686 0.3083214 0.2765365 0.3007758 0.2979137 0.3083214 0.708948 0.3234124 0.5701008 0.3234124 0.708916 0.3158669 0.4719765 0.2932303 0.5699726 0.2932303 0.4720085 0.3007759 0.4720726 0.3158669 0.4720406 0.3083214 0.5700687 0.3158669 0.4720406 0.3083214 0.4720085 0.3007759 0.5700367 0.3083214 0.3756169 0.3007759 0.4720085 0.3007759 0.3756489 0.3083214 0.3756489 0.3083214 0.4720406 0.3083214 0.3756809 0.3158669 0.3756169 0.3007759 0.3755847 0.2932303 0.4720085 0.3007759 0.5701008 0.3234124 0.4721047 0.3234124 0.5700687 0.3158669 0.708916 0.3158669 0.708948 0.3234124 0.6733608 0.3158669 0.3007673 0.3007759 0.3007351 0.2932303 0.3007673 0.3007759 0.3008635 0.3234124 0.3008314 0.3158669 0.3008635 0.3234124 0.3008314 0.3158669 0.3008314 0.3158669 0.3007993 0.3083214 0.3122713 0.3007758 0.3122392 0.2932303 0.3122713 0.3007758 0.2765045 0.2932303 0.3122392 0.2932303 0.2765365 0.3007758 0.2766007 0.3158669 0.2765686 0.3083214 0.3123354 0.3158669 0.3007993 0.3083214 0.3007993 0.3083214 0.3007673 0.3007759 0.2930309 0.315867 0.2929988 0.3083214 0.2930309 0.315867 0.293063 0.3234124 0.293063 0.3234124 0.2930309 0.315867 0.2929667 0.3007759 0.2929667 0.3007759 0.2929347 0.2932303 0.2765365 0.3007758 0.3122713 0.3007758 0.2765686 0.3083214 0.3123675 0.3234124 0.3123675 0.3234124 0.3123354 0.3158669 0.3123034 0.3083214 0.3122713 0.3007758 0.3123034 0.3083214 0.3123354 0.3158669 0.3123354 0.3158669 0.3123034 0.3083214 0.3123354 0.3158669 0.3123354 0.3158669 0.3123034 0.3083214 0.3122713 0.3007758 0.3122392 0.2932303 0.3122713 0.3007758 0.3123675 0.3234124 0.3123354 0.3158669 0.3123675 0.3234124 0.3123034 0.3083214 0.3123034 0.3083214 0.3122713 0.3007758 0.2929988 0.3083214 0.2929988 0.3083214 0.2929667 0.3007759 0.2930309 0.315867 0.2930309 0.315867 0.2929988 0.3083214 0.293063 0.3234124 0.2930309 0.315867 0.293063 0.3234124 0.2929667 0.3007759 0.2929347 0.2932303 0.2929667 0.3007759 0.708948 0.3234124 0.6941012 0.3234124 0.708916 0.3158669 0.694005 0.3007758 0.6940371 0.3083214 0.694005 0.3007758 0.6940692 0.3158669 0.6940692 0.3158669 0.6941012 0.3234124 0.6940371 0.3083214 0.6940371 0.3083214 0.6940692 0.3158669 0.2765686 0.3083214 0.2765365 0.3007758 0.3007993 0.3083214 0.2766007 0.3158669 0.2765686 0.3083214 0.3008314 0.3158669 0.2765045 0.2932303 0.3007351 0.2932303 0.2765365 0.3007758 0.694005 0.3007758 0.6940371 0.3083214 0.694005 0.3007758 0.6940692 0.3158669 0.6940692 0.3158669 0.6941012 0.3234124 0.6940371 0.3083214 0.6940371 0.3083214 0.6940692 0.3158669 0.694005 0.3007758 0.6940371 0.3083214 0.694005 0.3007758 0.693973 0.2932303 0.694005 0.3007758 0.693973 0.2932303 0.6733608 0.3158669 0.6733608 0.3158669 0.6733928 0.3234124 0.6732966 0.3007758 0.6733287 0.3083214 0.6732966 0.3007758 0.6732646 0.2932303 0.6732646 0.2932303 0.6732966 0.3007758 0.6733287 0.3083214 0.6733608 0.3158669 0.6733287 0.3083214 0.6732966 0.3007758 0.6733287 0.3083214 0.6732966 0.3007758 0.6732646 0.2932303 0.6732646 0.2932303 0.6732966 0.3007758 0.6733287 0.3083214 0.6733608 0.3158669 0.6733287 0.3083214 0.6733608 0.3158669 0.6733608 0.3158669 0.6733928 0.3234124 0.2765686 0.3083214 0.2765365 0.3007758 0.2964897 0.3083214 0.2766007 0.3158669 0.2765686 0.3083214 0.2965218 0.315867 0.2765045 0.2932303 0.2964255 0.2932303 0.2765365 0.3007758 0.2964577 0.3007758 0.2964577 0.3007758 0.2964255 0.2932303 0.2964897 0.3083214 0.2964577 0.3007758 0.2964897 0.3083214 0.2965539 0.3234124 0.2965539 0.3234124 0.2965218 0.315867 0.2965218 0.315867 0.2964897 0.3083214 0.2965218 0.315867 0.2964577 0.3007758 0.2964577 0.3007758 0.2964255 0.2932303 0.2965218 0.315867 0.2964897 0.3083214 0.2965218 0.315867 0.2965539 0.3234124 0.2965539 0.3234124 0.2965218 0.315867 0.2964897 0.3083214 0.2964577 0.3007758 0.2964897 0.3083214 0.2964577 0.3007758 0.2964577 0.3007758 0.2964255 0.2932303 0.2964897 0.3083214 0.2964577 0.3007758 0.2964897 0.3083214 0.2964577 0.3007758 0.2964577 0.3007758 0.2964255 0.2932303 0.2965218 0.315867 0.2964897 0.3083214 0.2965218 0.315867 0.2965539 0.3234124 0.2965539 0.3234124 0.2965218 0.315867 0.2965218 0.315867 0.2964897 0.3083214 0.2965218 0.315867 0.2965539 0.3234124 0.2965539 0.3234124 0.2965218 0.315867 0.2964897 0.3083214 0.2964577 0.3007758 0.2964897 0.3083214 0.2964577 0.3007758 0.2964577 0.3007758 0.2964255 0.2932303 0.2965539 0.3234124 0.2965218 0.315867 0.2965539 0.3234124 0.2964897 0.3083214 0.2964897 0.3083214 0.2964577 0.3007758 0.2964577 0.3007758 0.2964255 0.2932303 0.2964577 0.3007758 0.2965218 0.315867 0.2965218 0.315867 0.2964897 0.3083214 0.2964897 0.3083214 0.2964897 0.3083214 0.2964577 0.3007758 0.2964577 0.3007758 0.2964255 0.2932303 0.2964577 0.3007758 0.2965218 0.315867 0.2965218 0.315867 0.2964897 0.3083214 0.2965539 0.3234124 0.2965218 0.315867 0.2965539 0.3234124 0.2965218 0.315867 0.2965218 0.315867 0.2964897 0.3083214 0.2965539 0.3234124 0.2965218 0.315867 0.2965539 0.3234124 0.2964897 0.3083214 0.2964897 0.3083214 0.2964577 0.3007758 0.2964577 0.3007758 0.2964255 0.2932303 0.2964577 0.3007758 0.2964897 0.3083214 0.2964577 0.3007758 0.2964897 0.3083214 0.2964577 0.3007758 0.2964577 0.3007758 0.2964255 0.2932303 0.2965218 0.315867 0.2964897 0.3083214 0.2965218 0.315867 0.2965539 0.3234124 0.2965539 0.3234124 0.2965218 0.315867 0.2964577 0.3007758 0.2964255 0.2932303 0.2964577 0.3007758 0.2965218 0.315867 0.2965218 0.315867 0.2964897 0.3083214 0.2965539 0.3234124 0.2965218 0.315867 0.2965539 0.3234124 0.2964897 0.3083214 0.2964897 0.3083214 0.2964577 0.3007758 0.6870064 0.3007758 0 0 0 0 0.2965218 0.315867 0 0 0 0 0 0 0.6870384 0.3083214 0.6870705 0.315867 0.6870705 0.315867 0.2965218 0.315867 0.2964897 0.3083214 0.6870705 0.315867 0.2964577 0.3007758 0 0 0.6870705 0.315867 0 0 0.2965218 0.315867 0 0 0.6870384 0.3083214 0.2964577 0.3007758 0.708916 0.3158669 0.708948 0.3234124 0.6910493 0.3158669 0.6909852 0.3007759 0.6910173 0.3083214 0.6909852 0.3007759 0.6910493 0.3158669 0.6910493 0.3158669 0.6910813 0.3234124 0.6910173 0.3083214 0.6910493 0.3158669 0.6910173 0.3083214 0.2979137 0.3083214 0.2978817 0.3007759 0.2979137 0.3083214 0.2979458 0.3158669 0.2979137 0.3083214 0.2979458 0.3158669 0.2979779 0.3234124 0.2979779 0.3234124 0.2979458 0.3158669 0.2978817 0.3007759 0.2978817 0.3007759 0.2978496 0.2932303 0.2979779 0.3234124 0.2979458 0.3158669 0.2979779 0.3234124 0.2978817 0.3007759 0.2978496 0.2932303 0.2978817 0.3007759 0.2979137 0.3083214 0.2979137 0.3083214 0.2978817 0.3007759 0.2979458 0.3158669 0.2979458 0.3158669 0.2979137 0.3083214</float_array>
          <technique_common>
            <accessor source="#Cube_006-mesh-map-0-array" count="1122" stride="2">
              <param name="S" type="float"/>
              <param name="T" type="float"/>
            </accessor>
          </technique_common>
        </source>
        <source id="Cube_006-mesh-colors-Col" name="Col">
          <float_array id="Cube_006-mesh-colors-Col-array" count="3366">0.8 0.8 0.8 0.8 0.8 0.8 0.8 0.8 0.8 0.8 0.8 0.8 0.8 0.8 0.8 0.8235294 0.8235294 0.8235294 0.8 0.8 0.8 0.8 0.8 0.8 0.8 0.8 0.8 0.8 0.8 0.8 0.8 0.8 0.8 0.8 0.8 0.8 0.827451 0.827451 0.827451 0.8 0.8 0.8 0.8 0.8 0.8 0.8 0.8 0.8 0.8 0.8 0.8 0.8 0.8 0.8 0.827451 0.827451 0.827451 0.8 0.8 0.8 0.8 0.8 0.8 0.8 0.8 0.8 0.8 0.8 0.8 0.827451 0.827451 0.827451 0.8 0.8 0.8 0.8 0.8 0.8 0.8235294 0.8235294 0.8235294 0.8 0.8 0.8 0.8 0.8 0.8 0.8196079 0.8196079 0.8196079 0.8 0.8 0.8 0.8 0.8 0.8 0.8235294 0.8235294 0.8235294 0.8235294 0.8235294 0.8235294 0.8 0.8 0.8 0.8 0.8 0.8 0.8588235 0.8588235 0.8588235 0.8 0.8 0.8 0.8 0.8 0.8 0.8235294 0.8235294 0.8235294 0.8 0.8 0.8 0.8 0.8 0.8 0.8588235 0.8588235 0.8588235 0.8 0.8 0.8 0.8 0.8 0.8 0.8 0.8 0.8 0.8 0.8 0.8 0.8588235 0.8588235 0.8588235 0.8117647 0.8117647 0.8117647 0.8 0.8 0.8 0.8 0.8 0.8 0.8 0.8 0.8 0.8 0.8 0.8 0.8196079 0.8196079 0.8196079 0.8 0.8 0.8 0.8 0.8 0.8 0.8117647 0.8117647 0.8117647 0.8 0.8 0.8 0.8 0.8 0.8 0.8117647 0.8117647 0.8117647 0.8470588 0.8470588 0.8470588 0.8 0.8 0.8 0.8 0.8 0.8 0.9176471 0.9176471 0.9176471 0.8 0.8 0.8 0.8 0.8 0.8 0.8470588 0.8470588 0.8470588 0.8 0.8 0.8 0.8 0.8 0.8 0.8 0.8 0.8 0.8 0.8 0.8 0.8470588 0.8470588 0.8470588 1 1 1 0.8 0.8 0.8 0.8 0.8 0.8 1 1 1 0.8 0.8 0.8 0.8 0.8 0.8 1 1 1 0.8 0.8 0.8 0.8 0.8 0.8 0.8 0.8 0.8 0.8 0.8 0.8 1 1 1 1 1 1 1 1 1 1 1 1 1 1 1 1 1 1 1 1 1 1 1 1 1 1 1 1 1 1 1 1 1 1 1 1 1 1 1 1 1 1 1 1 1 1 1 1 1 1 1 1 1 1 1 1 1 1 1 1 1 1 1 1 1 1 1 1 1 1 1 1 1 1 1 1 1 1 1 1 1 1 1 1 1 1 1 1 1 1 1 1 1 1 1 1 1 1 1 1 1 1 1 1 1 1 1 1 1 1 1 1 1 1 1 1 1 1 1 1 1 1 1 1 1 1 1 1 1 1 1 1 1 1 1 1 1 1 1 1 1 1 1 1 1 1 1 1 1 1 1 1 1 1 1 1 1 1 1 1 1 1 1 1 1 1 1 1 0.5019608 0.5019608 0.5019608 0.5019608 0.5019608 0.5019608 1 1 1 0.5019608 0.5019608 0.5019608 0.5019608 0.5019608 0.5019608 1 1 1 0.5019608 0.5019608 0.5019608 0.5019608 0.5019608 0.5019608 1 1 1 0.5019608 0.5019608 0.5019608 0.5019608 0.5019608 0.5019608 1 1 1 1 1 1 1 1 1 0.8 0.8 0.8 1 1 1 1 1 1 1 1 1 1 1 1 0.8 0.8 0.8 1 1 1 1 1 1 0.8 0.8 0.8 1 1 1 1 1 1 0.8 0.8 0.8 0.8 0.8 0.8 0.9176471 0.9176471 0.9176471 0.9176471 0.9176471 0.9176471 0.9176471 0.9176471 0.9176471 0.9176471 0.9176471 0.9176471 0.8 0.8 0.8 0.882353 0.882353 0.882353 0.9176471 0.9176471 0.9176471 0.9176471 0.9176471 0.9176471 0.9176471 0.9176471 0.9176471 0.9176471 0.9176471 0.9176471 0.8 0.8 0.8 0.8588235 0.8588235 0.8588235 0.8588235 0.8588235 0.8588235 0.8 0.8 0.8 0.8117647 0.8117647 0.8117647 0.8117647 0.8117647 0.8117647 0.8117647 0.8117647 0.8117647 0.8117647 0.8117647 0.8117647 0.8117647 0.8117647 0.8117647 0.8117647 0.8117647 0.8117647 0.8117647 0.8117647 0.8117647 0.8117647 0.8117647 0.8117647 0.8117647 0.8117647 0.8117647 0.8117647 0.8117647 0.8117647 0.8117647 0.8117647 0.8117647 0.8117647 0.8117647 0.8117647 0.8196079 0.8196079 0.8196079 0.8196079 0.8196079 0.8196079 0.8 0.8 0.8 0.8 0.8 0.8 0.8196079 0.8196079 0.8196079 0.8196079 0.8196079 0.8196079 0.8196079 0.8196079 0.8196079 0.8196079 0.8196079 0.8196079 0.8196079 0.8196079 0.8196079 0.8 0.8 0.8 0.8196079 0.8196079 0.8196079 0.8196079 0.8196079 0.8196079 0.8 0.8 0.8 0.8 0.8 0.8 0.8 0.8 0.8 0.8 0.8 0.8 0.8 0.8 0.8 0.8 0.8 0.8 0.827451 0.827451 0.827451 0.827451 0.827451 0.827451 0.8 0.8 0.8 0.8 0.8 0.8 0.8 0.8 0.8 0.8 0.8 0.8 0.8235294 0.8235294 0.8235294 0.8235294 0.8235294 0.8235294 0.8 0.8 0.8 0.8 0.8 0.8 0.8235294 0.8235294 0.8235294 0.8235294 0.8235294 0.8235294 0.8 0.8 0.8 0.8 0.8 0.8 0.8 0.8 0.8 0.8 0.8 0.8 0.8235294 0.8235294 0.8235294 0.8235294 0.8235294 0.8235294 0.8470588 0.8470588 0.8470588 0.8470588 0.8470588 0.8470588 0.8 0.8 0.8 0.8470588 0.8470588 0.8470588 0.8470588 0.8470588 0.8470588 0.882353 0.882353 0.882353 0.882353 0.882353 0.882353 0.8470588 0.8470588 0.8470588 0.8470588 0.8470588 0.8470588 0.882353 0.882353 0.882353 0.8470588 0.8470588 0.8470588 0.8470588 0.8470588 0.8470588 0.882353 0.882353 0.882353 0.882353 0.882353 0.882353 0.9176471 0.9176471 0.9176471 0.882353 0.882353 0.882353 0.882353 0.882353 0.882353 0.9176471 0.9176471 0.9176471 0.9176471 0.9176471 0.9176471 0.882353 0.882353 0.882353 0.882353 0.882353 0.882353 0.882353 0.882353 0.882353 0.882353 0.882353 0.882353 0.8470588 0.8470588 0.8470588 0.8 0.8 0.8 0.8235294 0.8235294 0.8235294 0.8235294 0.8235294 0.8235294 0.8196079 0.8196079 0.8196079 0.8196079 0.8196079 0.8196079 0.8196079 0.8196079 0.8196079 0.8196079 0.8196079 0.8196079 0.8196079 0.8196079 0.8196079 0.8196079 0.8196079 0.8196079 0.8196079 0.8196079 0.8196079 0.8196079 0.8196079 0.8196079 0.8196079 0.8196079 0.8196079 0.8235294 0.8235294 0.8235294 0.8235294 0.8235294 0.8235294 0.8235294 0.8235294 0.8235294 0.8235294 0.8235294 0.8235294 0.8235294 0.8235294 0.8235294 0.8 0.8 0.8 0.8 0.8 0.8 0.8235294 0.8235294 0.8235294 0.8235294 0.8235294 0.8235294 0.8196079 0.8196079 0.8196079 0.8196079 0.8196079 0.8196079 0.8196079 0.8196079 0.8196079 0.8196079 0.8196079 0.8196079 0.8196079 0.8196079 0.8196079 0.8196079 0.8196079 0.8196079 0.8196079 0.8196079 0.8196079 0.8196079 0.8196079 0.8196079 0.8196079 0.8196079 0.8196079 0.8196079 0.8196079 0.8196079 0.8196079 0.8196079 0.8196079 0.8196079 0.8196079 0.8196079 0.8235294 0.8235294 0.8235294 0.8235294 0.8235294 0.8235294 0.8 0.8 0.8 0.8235294 0.8235294 0.8235294 0.8235294 0.8235294 0.8235294 0.8235294 0.8235294 0.8235294 0.8235294 0.8235294 0.8235294 0.8235294 0.8235294 0.8235294 0.8235294 0.8235294 0.8235294 0.8235294 0.8235294 0.8235294 0.8235294 0.8235294 0.8235294 0.8235294 0.8235294 0.8235294 0.8235294 0.8235294 0.8235294 0.8235294 0.8235294 0.8235294 0.8235294 0.8235294 0.8235294 0.8235294 0.8235294 0.8235294 0.8235294 0.8235294 0.8235294 0.8235294 0.8235294 0.8235294 0.8235294 0.8235294 0.8235294 0.8235294 0.8235294 0.8235294 0.8235294 0.8235294 0.8235294 0.8235294 0.8235294 0.8235294 0.8235294 0.8235294 0.8235294 0.8235294 0.8235294 0.8235294 0.8196079 0.8196079 0.8196079 0.8196079 0.8196079 0.8196079 0.8196079 0.8196079 0.8196079 0.8196079 0.8196079 0.8196079 0.8196079 0.8196079 0.8196079 0.8196079 0.8196079 0.8196079 0.8196079 0.8196079 0.8196079 0.8196079 0.8196079 0.8196079 0.8196079 0.8196079 0.8196079 0.8196079 0.8196079 0.8196079 0.8196079 0.8196079 0.8196079 0.8196079 0.8196079 0.8196079 0.8117647 0.8117647 0.8117647 0.8117647 0.8117647 0.8117647 0.8 0.8 0.8 0.8117647 0.8117647 0.8117647 0.8117647 0.8117647 0.8117647 0.8117647 0.8117647 0.8117647 0.8117647 0.8117647 0.8117647 0.8117647 0.8117647 0.8117647 0.8117647 0.8117647 0.8117647 0.8117647 0.8117647 0.8117647 0.8117647 0.8117647 0.8117647 0.8117647 0.8117647 0.8117647 0.8 0.8 0.8 0.8196079 0.8196079 0.8196079 0.8196079 0.8196079 0.8196079 0.8 0.8 0.8 0.8196079 0.8196079 0.8196079 0.8196079 0.8196079 0.8196079 0.8196079 0.8196079 0.8196079 0.8196079 0.8196079 0.8196079 0.8 0.8 0.8 0.8117647 0.8117647 0.8117647 0.8117647 0.8117647 0.8117647 0.8117647 0.8117647 0.8117647 0.8117647 0.8117647 0.8117647 0.8117647 0.8117647 0.8117647 0.8117647 0.8117647 0.8117647 0.8117647 0.8117647 0.8117647 0.8117647 0.8117647 0.8117647 0.8117647 0.8117647 0.8117647 0.8117647 0.8117647 0.8117647 0.8117647 0.8117647 0.8117647 0.8117647 0.8117647 0.8117647 0.8117647 0.8117647 0.8117647 0.8117647 0.8117647 0.8117647 0.8117647 0.8117647 0.8117647 0.8235294 0.8235294 0.8235294 0.8235294 0.8235294 0.8235294 0.8235294 0.8235294 0.8235294 0.8235294 0.8235294 0.8235294 0.8235294 0.8235294 0.8235294 0.8196079 0.8196079 0.8196079 0.8235294 0.8235294 0.8235294 0.8196079 0.8196079 0.8196079 0.8196079 0.8196079 0.8196079 0.8235294 0.8235294 0.8235294 0.8235294 0.8235294 0.8235294 0.8235294 0.8235294 0.8235294 0.8235294 0.8235294 0.8235294 0.8235294 0.8235294 0.8235294 0.8196079 0.8196079 0.8196079 0.8235294 0.8235294 0.8235294 0.8196079 0.8196079 0.8196079 0.8196079 0.8196079 0.8196079 0.8235294 0.8235294 0.8235294 0.8235294 0.8235294 0.8235294 0.8235294 0.8235294 0.8235294 0.8235294 0.8235294 0.8235294 0.8235294 0.8235294 0.8235294 0.8235294 0.8235294 0.8235294 0.8 0.8 0.8 0.8 0.8 0.8 0.8 0.8 0.8 0.8 0.8 0.8 0.8 0.8 0.8 0.8 0.8 0.8 0.8 0.8 0.8 0.8 0.8 0.8 0.8 0.8 0.8 0.8 0.8 0.8 0.8 0.8 0.8 0.8 0.8 0.8 0.8 0.8 0.8 0.8 0.8 0.8 0.8 0.8 0.8 0.8 0.8 0.8 0.8 0.8 0.8 0.8 0.8 0.8 0.8 0.8 0.8 0.8 0.8 0.8 0.8 0.8 0.8 0.8 0.8 0.8 0.8 0.8 0.8 0.8 0.8 0.8 0.8 0.8 0.8 0.8 0.8 0.8 0.8 0.8 0.8 0.8 0.8 0.8 0.8 0.8 0.8 0.8 0.8 0.8 0.8 0.8 0.8 0.8 0.8 0.8 0.8 0.8 0.8 0.8 0.8 0.8 0.8 0.8 0.8 0.8 0.8 0.8 0.8 0.8 0.8 0.8 0.8 0.8 0.8 0.8 0.8 0.8 0.8 0.8 0.8 0.8 0.8 0.8 0.8 0.8 0.8 0.8 0.8 0.8 0.8 0.8 0.8 0.8 0.8 0.8 0.8 0.8 0.8 0.8 0.8 0.8 0.8 0.8 0.8 0.8 0.8 0.8 0.8 0.8 0.8 0.8 0.8 0.8 0.8 0.8 0.8 0.8 0.8 0.8 0.8 0.8 0.8 0.8 0.8 0.8 0.8 0.8 0.8 0.8 0.8 0.8 0.8 0.8 0.8 0.8 0.8 0.8 0.8 0.8 0.8 0.8 0.8 0.8 0.8 0.8 0.8 0.8 0.8 0.8 0.8 0.8 0.8 0.8 0.8 0.8 0.8 0.8 0.8 0.8 0.8 0.8 0.8 0.8 0.8 0.8 0.8 0.8 0.8 0.8 0.8 0.8 0.8 0.8 0.8 0.8 0.8 0.8 0.8 0.8 0.8 0.8 0.8 0.8 0.8 0.8 0.8 0.8 0.8 0.8 0.8 0.8 0.8 0.8 0.8 0.8 0.8 0.8 0.8 0.8 0.8 0.8 0.8 0.8 0.8 0.8 0.8 0.8 0.8 0.8 0.8 0.8 0.8 0.8 0.8 0.8 0.8 0.8 0.8 0.8 0.8 0.8 0.8 0.8 0.8 0.8 0.8 0.8 0.8 0.8 0.8 0.8 0.8 0.8 0.8 0.8 0.8 0.8 0.8 0.8 0.8 0.8 0.8 0.8 0.8 0.8 0.8 0.8 0.8 0.8 0.8 0.8 0.8 0.8 0.8 0.8 0.8 0.8 0.8 0.8 0.8 0.8 0.8 0.8 0.8 0.8 0.8 0.8 0.8 0.8 0.8 0.8 0.8 0.8 0.8 0.8 0.8 0.8 0.8 0.8 0.8 0.8 0.8 0.8 0.8 0.8 0.8 0.8 0.8 0.8 0.8 0.8 0.8 0.8 0.8 0.8 0.8 0.8 0.8 0.8 0.8 0.8 0.8 0.8 0.8 0.8 0.8 0.8 0.8 0.8 0.8 0.8 0.8 0.8 0.8 0.8 0.8 0.8 0.8 0.8 1 1 1 0.8 0.8 0.8 1 1 1 1 1 1 0.827451 0.827451 0.827451 1 1 1 0.8 0.8 0.8 0.8 0.8 0.8 0.827451 0.827451 0.827451 1 1 1 0.8 0.8 0.8 0.8 0.8 0.8 0.827451 0.827451 0.827451 1 1 1 0.8 0.8 0.8 0.8 0.8 0.8 0.8 0.8 0.8 0.8 0.8 0.8 0.8 0.8 0.8 0.8 0.8 0.8 0.8 0.8 0.8 0.8 0.8 0.8 0.8 0.8 0.8 0.8 0.8 0.8 0.8 0.8 0.8 0.8 0.8 0.8 0.8 0.8 0.8 0.8235294 0.8235294 0.8235294 0.8235294 0.8235294 0.8235294 0.8235294 0.8235294 0.8235294 0.8235294 0.8235294 0.8235294 0.8235294 0.8235294 0.8235294 0.8235294 0.8235294 0.8235294 0.8235294 0.8235294 0.8235294 0.8235294 0.8235294 0.8235294 0.8235294 0.8235294 0.8235294 0.8235294 0.8235294 0.8235294 0.8235294 0.8235294 0.8235294 0.8235294 0.8235294 0.8235294 0.8235294 0.8235294 0.8235294 0.8235294 0.8235294 0.8235294 0.8235294 0.8235294 0.8235294 0.8235294 0.8235294 0.8235294 0.8235294 0.8235294 0.8235294 0.8235294 0.8235294 0.8235294 0.8235294 0.8235294 0.8235294 0.8235294 0.8235294 0.8235294 0.8235294 0.8235294 0.8235294 0.8235294 0.8235294 0.8235294 0.8235294 0.8235294 0.8235294 0.8235294 0.8235294 0.8235294 0.8 0.8 0.8 0.8 0.8 0.8 0.8 0.8 0.8 0.8235294 0.8235294 0.8235294 0.8 0.8 0.8 0.8235294 0.8235294 0.8235294 0.8 0.8 0.8 0.8 0.8 0.8 0.8 0.8 0.8 0.8 0.8 0.8 0.8 0.8 0.8 0.8 0.8 0.8 0.827451 0.827451 0.827451 0.827451 0.827451 0.827451 0.8 0.8 0.8 0.8 0.8 0.8 0.8 0.8 0.8 0.8 0.8 0.8 0.827451 0.827451 0.827451 0.827451 0.827451 0.827451 0.8 0.8 0.8 0.827451 0.827451 0.827451 0.8 0.8 0.8 0.827451 0.827451 0.827451 0.8196079 0.8196079 0.8196079 0.8 0.8 0.8 0.8235294 0.8235294 0.8235294 0.8196079 0.8196079 0.8196079 0.8 0.8 0.8 0.8196079 0.8196079 0.8196079 0.8235294 0.8235294 0.8235294 0.8 0.8 0.8 0.8235294 0.8235294 0.8235294 0.8196079 0.8196079 0.8196079 0.8235294 0.8235294 0.8235294 0.8 0.8 0.8 0.8588235 0.8588235 0.8588235 0.8588235 0.8588235 0.8588235 0.8 0.8 0.8 0.8235294 0.8235294 0.8235294 0.8235294 0.8235294 0.8235294 0.8 0.8 0.8 0.8588235 0.8588235 0.8588235 0.8588235 0.8588235 0.8588235 0.8 0.8 0.8 0.8588235 0.8588235 0.8588235 0.8 0.8 0.8 0.8588235 0.8588235 0.8588235 0.8117647 0.8117647 0.8117647 0.8117647 0.8117647 0.8117647 0.8 0.8 0.8 0.8196079 0.8196079 0.8196079 0.8 0.8 0.8 0.8196079 0.8196079 0.8196079 0.8117647 0.8117647 0.8117647 0.8 0.8 0.8 0.8117647 0.8117647 0.8117647 0.8117647 0.8117647 0.8117647 0.8 0.8 0.8 0.8117647 0.8117647 0.8117647 0.8470588 0.8470588 0.8470588 0.8470588 0.8470588 0.8470588 0.8 0.8 0.8 0.9176471 0.9176471 0.9176471 0.9176471 0.9176471 0.9176471 0.8 0.8 0.8 0.8470588 0.8470588 0.8470588 0.8470588 0.8470588 0.8470588 0.8 0.8 0.8 0.8470588 0.8470588 0.8470588 0.8 0.8 0.8 0.8470588 0.8470588 0.8470588 1 1 1 1 1 1 0.8 0.8 0.8 1 1 1 1 1 1 0.8 0.8 0.8 1 1 1 1 1 1 0.8 0.8 0.8 1 1 1 0.8 0.8 0.8 1 1 1 1 1 1 1 1 1 1 1 1 1 1 1 1 1 1 1 1 1 1 1 1 1 1 1 1 1 1 1 1 1 1 1 1 1 1 1 1 1 1 1 1 1 1 1 1 1 1 1 1 1 1 1 1 1 1 1 1 1 1 1 1 1 1 1 1 1 1 1 1 1 1 1 1 1 1 1 1 1 1 1 1 1 1 1 1 1 1 1 1 1 1 1 1 1 1 1 1 1 1 1 1 1 1 1 1 1 1 1 1 1 1 1 1 1 1 1 1 1 1 1 1 1 1 1 1 1 1 1 1 1 1 1 1 1 1 1 1 1 1 1 1 1 1 1 1 1 1 1 1 1 1 1 1 1 1 1 1 1 1 1 1 1 1 1 1 1 1 1 1 1 1 1 1 1 1 1 1 1 1 1 1 1 1 1 1 1 1 1 1 1 1 1 1 1 1 1 1 1 1 1 1 1 1 1 0.5019608 0.5019608 0.5019608 1 1 1 1 1 1 0.5019608 0.5019608 0.5019608 1 1 1 1 1 1 0.5019608 0.5019608 0.5019608 1 1 1 1 1 1 0.5019608 0.5019608 0.5019608 1 1 1 1 1 1 1 1 1 0.8 0.8 0.8 0.8 0.8 0.8 1 1 1 0.8 0.8 0.8 1 1 1 0.8 0.8 0.8 0.8 0.8 0.8 1 1 1 0.8 0.8 0.8 0.8 0.8 0.8 1 1 1 0.8 0.8 0.8 0.8 0.8 0.8 0.8 0.8 0.8 0.9176471 0.9176471 0.9176471 0.8 0.8 0.8 0.9176471 0.9176471 0.9176471 0.8 0.8 0.8 0.882353 0.882353 0.882353 0.882353 0.882353 0.882353 0.9176471 0.9176471 0.9176471 0.8 0.8 0.8 0.9176471 0.9176471 0.9176471 0.8 0.8 0.8 0.8 0.8 0.8 0.8588235 0.8588235 0.8588235 0.8 0.8 0.8 0.8117647 0.8117647 0.8117647 0.8117647 0.8117647 0.8117647 0.8117647 0.8117647 0.8117647 0.8117647 0.8117647 0.8117647 0.8117647 0.8117647 0.8117647 0.8117647 0.8117647 0.8117647 0.8117647 0.8117647 0.8117647 0.8117647 0.8117647 0.8117647 0.8117647 0.8117647 0.8117647 0.8117647 0.8117647 0.8117647 0.8117647 0.8117647 0.8117647 0.8117647 0.8117647 0.8117647 0.8 0.8 0.8 0.8196079 0.8196079 0.8196079 0.8 0.8 0.8 0.8 0.8 0.8 0.8 0.8 0.8 0.8196079 0.8196079 0.8196079 0.8196079 0.8196079 0.8196079 0.8196079 0.8196079 0.8196079 0.8196079 0.8196079 0.8196079 0.8 0.8 0.8 0.8 0.8 0.8 0.8196079 0.8196079 0.8196079 0.8 0.8 0.8 0.8 0.8 0.8 0.8 0.8 0.8 0.8 0.8 0.8 0.8 0.8 0.8 0.8 0.8 0.8 0.8 0.8 0.8 0.827451 0.827451 0.827451 0.8 0.8 0.8 0.8 0.8 0.8 0.8 0.8 0.8 0.8 0.8 0.8 0.8 0.8 0.8 0.8235294 0.8235294 0.8235294 0.8 0.8 0.8 0.8 0.8 0.8 0.8 0.8 0.8 0.8235294 0.8235294 0.8235294 0.8 0.8 0.8 0.8 0.8 0.8 0.8 0.8 0.8 0.8 0.8 0.8 0.8 0.8 0.8 0.8235294 0.8235294 0.8235294 0.8 0.8 0.8 0.8470588 0.8470588 0.8470588 0.8 0.8 0.8 0.882353 0.882353 0.882353 0.8470588 0.8470588 0.8470588 0.882353 0.882353 0.882353 0.882353 0.882353 0.882353 0.882353 0.882353 0.882353 0.8470588 0.8470588 0.8470588 0.882353 0.882353 0.882353 0.882353 0.882353 0.882353 0.8470588 0.8470588 0.8470588 0.9176471 0.9176471 0.9176471 0.882353 0.882353 0.882353 0.9176471 0.9176471 0.9176471 0.9176471 0.9176471 0.9176471 0.882353 0.882353 0.882353 0.9176471 0.9176471 0.9176471 0.9176471 0.9176471 0.9176471 0.9176471 0.9176471 0.9176471 0.882353 0.882353 0.882353 0.8470588 0.8470588 0.8470588 0.882353 0.882353 0.882353 0.8470588 0.8470588 0.8470588 0.8 0.8 0.8 0.8 0.8 0.8 0.8235294 0.8235294 0.8235294 0.8196079 0.8196079 0.8196079 0.8196079 0.8196079 0.8196079 0.8196079 0.8196079 0.8196079 0.8196079 0.8196079 0.8196079 0.8196079 0.8196079 0.8196079 0.8196079 0.8196079 0.8196079 0.8196079 0.8196079 0.8196079 0.8196079 0.8196079 0.8196079 0.8196079 0.8196079 0.8196079 0.8235294 0.8235294 0.8235294 0.8235294 0.8235294 0.8235294 0.8235294 0.8235294 0.8235294 0.8 0.8 0.8 0.8235294 0.8235294 0.8235294 0.8 0.8 0.8 0.8 0.8 0.8 0.8 0.8 0.8 0.8235294 0.8235294 0.8235294 0.8196079 0.8196079 0.8196079 0.8196079 0.8196079 0.8196079 0.8196079 0.8196079 0.8196079 0.8196079 0.8196079 0.8196079 0.8196079 0.8196079 0.8196079 0.8196079 0.8196079 0.8196079 0.8196079 0.8196079 0.8196079 0.8196079 0.8196079 0.8196079 0.8196079 0.8196079 0.8196079 0.8196079 0.8196079 0.8196079 0.8196079 0.8196079 0.8196079 0.8196079 0.8196079 0.8196079 0.8 0.8 0.8 0.8235294 0.8235294 0.8235294 0.8 0.8 0.8 0.8235294 0.8235294 0.8235294 0.8235294 0.8235294 0.8235294 0.8235294 0.8235294 0.8235294 0.8235294 0.8235294 0.8235294 0.8235294 0.8235294 0.8235294 0.8235294 0.8235294 0.8235294 0.8235294 0.8235294 0.8235294 0.8235294 0.8235294 0.8235294 0.8235294 0.8235294 0.8235294 0.8235294 0.8235294 0.8235294 0.8235294 0.8235294 0.8235294 0.8235294 0.8235294 0.8235294 0.8235294 0.8235294 0.8235294 0.8235294 0.8235294 0.8235294 0.8235294 0.8235294 0.8235294 0.8235294 0.8235294 0.8235294 0.8235294 0.8235294 0.8235294 0.8235294 0.8235294 0.8235294 0.8235294 0.8235294 0.8235294 0.8235294 0.8235294 0.8235294 0.8235294 0.8235294 0.8235294 0.8196079 0.8196079 0.8196079 0.8196079 0.8196079 0.8196079 0.8196079 0.8196079 0.8196079 0.8196079 0.8196079 0.8196079 0.8196079 0.8196079 0.8196079 0.8196079 0.8196079 0.8196079 0.8196079 0.8196079 0.8196079 0.8196079 0.8196079 0.8196079 0.8196079 0.8196079 0.8196079 0.8196079 0.8196079 0.8196079 0.8196079 0.8196079 0.8196079 0.8196079 0.8196079 0.8196079 0.8 0.8 0.8 0.8117647 0.8117647 0.8117647 0.8 0.8 0.8 0.8117647 0.8117647 0.8117647 0.8117647 0.8117647 0.8117647 0.8117647 0.8117647 0.8117647 0.8117647 0.8117647 0.8117647 0.8117647 0.8117647 0.8117647 0.8117647 0.8117647 0.8117647 0.8117647 0.8117647 0.8117647 0.8117647 0.8117647 0.8117647 0.8117647 0.8117647 0.8117647 0.8 0.8 0.8 0.8 0.8 0.8 0.8196079 0.8196079 0.8196079 0.8 0.8 0.8 0.8 0.8 0.8 0.8196079 0.8196079 0.8196079 0.8 0.8 0.8 0.8196079 0.8196079 0.8196079 0.8 0.8 0.8 0.8117647 0.8117647 0.8117647 0.8117647 0.8117647 0.8117647 0.8117647 0.8117647 0.8117647 0.8117647 0.8117647 0.8117647 0.8117647 0.8117647 0.8117647 0.8117647 0.8117647 0.8117647 0.8117647 0.8117647 0.8117647 0.8117647 0.8117647 0.8117647 0.8117647 0.8117647 0.8117647 0.8117647 0.8117647 0.8117647 0.8117647 0.8117647 0.8117647 0.8117647 0.8117647 0.8117647 0.8117647 0.8117647 0.8117647 0.8117647 0.8117647 0.8117647 0.8117647 0.8117647 0.8117647 0.8235294 0.8235294 0.8235294 0.8235294 0.8235294 0.8235294 0.8235294 0.8235294 0.8235294 0.8196079 0.8196079 0.8196079 0.8235294 0.8235294 0.8235294 0.8196079 0.8196079 0.8196079 0.8235294 0.8235294 0.8235294 0.8235294 0.8235294 0.8235294 0.8196079 0.8196079 0.8196079 0.8235294 0.8235294 0.8235294 0.8235294 0.8235294 0.8235294 0.8235294 0.8235294 0.8235294 0.8196079 0.8196079 0.8196079 0.8235294 0.8235294 0.8235294 0.8196079 0.8196079 0.8196079 0.8235294 0.8235294 0.8235294 0.8235294 0.8235294 0.8235294 0.8196079 0.8196079 0.8196079 0.8235294 0.8235294 0.8235294 0.8235294 0.8235294 0.8235294 0.8235294 0.8235294 0.8235294 0.8235294 0.8235294 0.8235294 0.8235294 0.8235294 0.8235294 0.8235294 0.8235294 0.8235294 0.8 0.8 0.8 0.8 0.8 0.8 0.8 0.8 0.8 0.8 0.8 0.8 0.8 0.8 0.8 0.8 0.8 0.8 0.8 0.8 0.8 0.8 0.8 0.8 0.8 0.8 0.8 0.8 0.8 0.8 0.8 0.8 0.8 0.8 0.8 0.8 0.8 0.8 0.8 0.8 0.8 0.8 0.8 0.8 0.8 0.8 0.8 0.8 0.8 0.8 0.8 0.8 0.8 0.8 0.8 0.8 0.8 0.8 0.8 0.8 0.8 0.8 0.8 0.8 0.8 0.8 0.8 0.8 0.8 0.8 0.8 0.8 0.8 0.8 0.8 0.8 0.8 0.8 0.8 0.8 0.8 0.8 0.8 0.8 0.8 0.8 0.8 0.8 0.8 0.8 0.8 0.8 0.8 0.8 0.8 0.8 0.8 0.8 0.8 0.8 0.8 0.8 0.8 0.8 0.8 0.8 0.8 0.8 0.8 0.8 0.8 0.8 0.8 0.8 0.8 0.8 0.8 0.8 0.8 0.8 0.8 0.8 0.8 0.8 0.8 0.8 0.8 0.8 0.8 0.8 0.8 0.8 0.8 0.8 0.8 0.8 0.8 0.8 0.8 0.8 0.8 0.8 0.8 0.8 0.8 0.8 0.8 0.8 0.8 0.8 0.8 0.8 0.8 0.8 0.8 0.8 0.8 0.8 0.8 0.8 0.8 0.8 0.8 0.8 0.8 0.8 0.8 0.8 0.8 0.8 0.8 0.8 0.8 0.8 0.8 0.8 0.8 0.8 0.8 0.8 0.8 0.8 0.8 0.8 0.8 0.8 0.8 0.8 0.8 0.8 0.8 0.8 0.8 0.8 0.8 0.8 0.8 0.8 0.8 0.8 0.8 0.8 0.8 0.8 0.8 0.8 0.8 0.8 0.8 0.8 0.8 0.8 0.8 0.8 0.8 0.8 0.8 0.8 0.8 0.8 0.8 0.8 0.8 0.8 0.8 0.8 0.8 0.8 0.8 0.8 0.8 0.8 0.8 0.8 0.8 0.8 0.8 0.8 0.8 0.8 0.8 0.8 0.8 0.8 0.8 0.8 0.8 0.8 0.8 0.8 0.8 0.8 0.8 0.8 0.8 0.8 0.8 0.8 0.8 0.8 0.8 0.8 0.8 0.8 0.8 0.8 0.8 0.8 0.8 0.8 0.8 0.8 0.8 0.8 0.8 0.8 0.8 0.8 0.8 0.8 0.8 0.8 0.8 0.8 0.8 0.8 0.8 0.8 0.8 0.8 0.8 0.8 0.8 0.8 0.8 0.8 0.8 0.8 0.8 0.8 0.8 0.8 0.8 0.8 0.8 0.8 0.8 0.8 0.8 0.8 0.8 0.8 0.8 0.8 0.8 0.8 0.8 0.8 0.8 0.8 0.8 0.8 0.8 0.8 0.8 0.8 0.8 0.8 0.8 0.8 0.8 0.8 0.8 0.8 0.8 0.8 0.8 0.8 0.8 0.8 0.8 0.8 0.8 0.8 0.8 0.8 0.8 0.8 0.8 0.8 0.8 0.8 0.8 0.8 0.8 0.8 0.8 0.8 0.8 0.8 0.827451 0.827451 0.827451 1 1 1 1 1 1 0.8 0.8 0.8 1 1 1 1 1 1 1 1 1 0.827451 0.827451 0.827451 0.827451 0.827451 0.827451 0.827451 0.827451 0.827451 0.8 0.8 0.8 0.8 0.8 0.8 0.827451 0.827451 0.827451 0.8 0.8 0.8 1 1 1 0.827451 0.827451 0.827451 1 1 1 0.8 0.8 0.8 1 1 1 0.827451 0.827451 0.827451 0.8 0.8 0.8 0.8 0.8 0.8 0.8 0.8 0.8 0.8 0.8 0.8 0.8 0.8 0.8 0.8 0.8 0.8 0.8 0.8 0.8 0.8 0.8 0.8 0.8 0.8 0.8 0.8 0.8 0.8 0.8 0.8 0.8 0.8 0.8 0.8 0.8 0.8 0.8 0.8235294 0.8235294 0.8235294 0.8235294 0.8235294 0.8235294 0.8235294 0.8235294 0.8235294 0.8235294 0.8235294 0.8235294 0.8235294 0.8235294 0.8235294 0.8235294 0.8235294 0.8235294 0.8235294 0.8235294 0.8235294 0.8235294 0.8235294 0.8235294 0.8235294 0.8235294 0.8235294 0.8235294 0.8235294 0.8235294 0.8235294 0.8235294 0.8235294 0.8235294 0.8235294 0.8235294 0.8235294 0.8235294 0.8235294 0.8235294 0.8235294 0.8235294 0.8235294 0.8235294 0.8235294 0.8235294 0.8235294 0.8235294 0.8235294 0.8235294 0.8235294 0.8235294 0.8235294 0.8235294 0.8235294 0.8235294 0.8235294 0.8235294 0.8235294 0.8235294 0.8235294 0.8235294 0.8235294 0.8235294 0.8235294 0.8235294 0.8235294 0.8235294 0.8235294 0.8235294 0.8235294 0.8235294</float_array>
          <technique_common>
            <accessor source="#Cube_006-mesh-colors-Col-array" count="1122" stride="3">
              <param name="R" type="float"/>
              <param name="G" type="float"/>
              <param name="B" type="float"/>
            </accessor>
          </technique_common>
        </source>
        <vertices id="Cube_006-mesh-vertices">
          <input semantic="POSITION" source="#Cube_006-mesh-positions"/>
        </vertices>
        <polylist material="ind_bld__2__concrete-material" count="42">
          <input semantic="VERTEX" source="#Cube_006-mesh-vertices" offset="0"/>
          <input semantic="NORMAL" source="#Cube_006-mesh-normals" offset="1"/>
          <input semantic="TEXCOORD" source="#Cube_006-mesh-map-0" offset="2" set="0"/>
          <input semantic="COLOR" source="#Cube_006-mesh-colors-Col" offset="3" set="0"/>
          <vcount>3 3 3 3 3 3 3 3 3 3 3 3 3 3 3 3 3 3 3 3 3 3 3 3 3 3 3 3 3 3 3 3 3 3 3 3 3 3 3 3 3 3 </vcount>
          <p>82 70 114 114 250 71 115 115 249 72 116 116 255 73 117 117 246 74 118 118 245 74 119 119 78 75 120 120 240 76 121 121 242 76 122 122 241 77 123 123 244 77 124 124 247 77 125 125 251 78 126 126 253 79 127 127 252 80 128 128 250 71 129 129 78 75 130 130 248 81 131 131 254 82 132 132 255 73 133 133 83 83 134 134 80 68 135 135 76 68 136 136 77 68 137 137 87 76 138 138 86 76 139 139 84 76 140 140 91 66 141 141 90 66 142 142 86 66 143 143 89 74 144 144 88 74 145 145 90 74 146 146 85 68 147 147 84 68 148 148 88 68 149 149 91 69 150 150 87 69 151 151 85 69 152 152 112 10 501 501 222 207 502 502 221 206 503 503 115 111 504 504 114 110 505 505 221 206 506 506 223 210 507 507 220 210 508 508 113 210 509 509 113 211 510 510 220 211 511 511 223 211 512 512 113 212 513 513 112 212 514 514 222 212 515 515 254 82 666 666 82 70 667 667 249 72 668 668 83 83 669 669 255 73 670 670 245 74 671 671 248 81 672 672 78 75 673 673 242 76 674 674 243 77 675 675 241 77 676 676 247 77 677 677 75 66 678 678 73 66 679 679 251 78 680 680 251 78 681 681 252 80 682 682 75 66 683 683 251 78 684 684 79 224 685 685 253 79 686 686 249 72 687 687 250 71 688 688 248 81 689 689 82 70 690 690 254 82 691 691 83 83 692 692 72 68 693 693 74 68 694 694 80 68 695 695 80 68 696 696 77 68 697 697 72 68 698 698 80 68 699 699 81 68 700 700 76 68 701 701 85 76 702 702 87 76 703 703 84 76 704 704 87 66 705 705 91 66 706 706 86 66 707 707 91 74 708 708 89 74 709 709 90 74 710 710 89 68 711 711 85 68 712 712 88 68 713 713 89 69 714 714 91 69 715 715 85 69 716 716 114 110 1065 1065 112 10 1066 1066 221 206 1067 1067 223 209 1068 1068 115 111 1069 1069 221 206 1070 1070 222 227 1071 1071 112 227 1072 1072 113 227 1073 1073 113 228 1074 1074 115 228 1075 1075 223 228 1076 1076 113 229 1077 1077 220 229 1078 1078 222 229 1079 1079 115 230 1080 1080 113 230 1081 1081 223 230 1082 1082 220 231 1083 1083 113 231 1084 1084 222 231 1085 1085</p>
        </polylist>
        <polylist material="eca_bld_metalbeams-material" count="20">
          <input semantic="VERTEX" source="#Cube_006-mesh-vertices" offset="0"/>
          <input semantic="NORMAL" source="#Cube_006-mesh-normals" offset="1"/>
          <input semantic="TEXCOORD" source="#Cube_006-mesh-map-0" offset="2" set="0"/>
          <input semantic="COLOR" source="#Cube_006-mesh-colors-Col" offset="3" set="0"/>
          <vcount>3 3 3 3 3 3 3 3 3 3 3 3 3 3 3 3 3 3 3 3 </vcount>
          <p>59 65 84 84 58 65 85 85 56 65 86 86 63 66 87 87 62 66 88 88 58 66 89 89 61 67 90 90 60 67 91 91 62 67 92 92 57 68 93 93 56 68 94 94 60 68 95 95 63 69 96 96 59 69 97 97 57 69 98 98 67 65 99 99 66 65 100 100 64 65 101 101 71 66 102 102 70 66 103 103 66 66 104 104 69 67 105 105 68 67 106 106 70 67 107 107 65 68 108 108 64 68 109 109 68 68 110 110 71 69 111 111 67 69 112 112 65 69 113 113 57 65 636 636 59 65 637 637 56 65 638 638 59 66 639 639 63 66 640 640 58 66 641 641 63 67 642 642 61 67 643 643 62 67 644 644 61 68 645 645 57 68 646 646 60 68 647 647 61 69 648 648 63 69 649 649 57 69 650 650 65 65 651 651 67 65 652 652 64 65 653 653 67 66 654 654 71 66 655 655 66 66 656 656 71 67 657 657 69 67 658 658 70 67 659 659 69 68 660 660 65 68 661 661 68 68 662 662 69 69 663 663 71 69 664 664 65 69 665 665</p>
        </polylist>
        <polylist material="ind_metalplates-material" count="312">
          <input semantic="VERTEX" source="#Cube_006-mesh-vertices" offset="0"/>
          <input semantic="NORMAL" source="#Cube_006-mesh-normals" offset="1"/>
          <input semantic="TEXCOORD" source="#Cube_006-mesh-map-0" offset="2" set="0"/>
          <input semantic="COLOR" source="#Cube_006-mesh-colors-Col" offset="3" set="0"/>
          <vcount>3 3 3 3 3 3 3 3 3 3 3 3 3 3 3 3 3 3 3 3 3 3 3 3 3 3 3 3 3 3 3 3 3 3 3 3 3 3 3 3 3 3 3 3 3 3 3 3 3 3 3 3 3 3 3 3 3 3 3 3 3 3 3 3 3 3 3 3 3 3 3 3 3 3 3 3 3 3 3 3 3 3 3 3 3 3 3 3 3 3 3 3 3 3 3 3 3 3 3 3 3 3 3 3 3 3 3 3 3 3 3 3 3 3 3 3 3 3 3 3 3 3 3 3 3 3 3 3 3 3 3 3 3 3 3 3 3 3 3 3 3 3 3 3 3 3 3 3 3 3 3 3 3 3 3 3 3 3 3 3 3 3 3 3 3 3 3 3 3 3 3 3 3 3 3 3 3 3 3 3 3 3 3 3 3 3 3 3 3 3 3 3 3 3 3 3 3 3 3 3 3 3 3 3 3 3 3 3 3 3 3 3 3 3 3 3 3 3 3 3 3 3 3 3 3 3 3 3 3 3 3 3 3 3 3 3 3 3 3 3 3 3 3 3 3 3 3 3 3 3 3 3 3 3 3 3 3 3 3 3 3 3 3 3 3 3 3 3 3 3 3 3 3 3 3 3 3 3 3 3 3 3 3 3 3 3 3 3 3 3 3 3 3 3 3 3 3 3 3 3 3 3 3 3 3 3 3 3 3 3 3 3 </vcount>
          <p>3 0 0 0 2 1 1 1 226 2 2 2 5 3 3 3 4 4 4 4 119 5 5 5 2 1 6 6 6 6 7 7 225 7 8 8 227 8 9 9 7 9 10 10 3 0 11 11 112 10 12 12 11 11 13 13 10 12 14 14 13 13 15 15 12 14 16 16 183 15 17 17 113 16 18 18 10 12 19 19 14 17 20 20 15 18 21 21 11 11 22 22 112 10 23 23 19 19 24 24 18 20 25 25 130 21 26 26 21 22 27 27 20 23 28 28 111 24 29 29 18 20 30 30 22 25 31 31 129 26 32 32 131 27 33 33 23 28 34 34 19 19 35 35 100 29 36 36 27 30 37 37 26 31 38 38 141 32 39 39 29 33 40 40 28 34 41 41 101 35 42 42 26 31 43 43 30 36 44 44 31 37 45 45 27 30 46 46 100 29 47 47 156 38 48 48 35 39 49 49 34 40 50 50 37 41 51 51 36 42 52 52 163 43 53 53 34 40 54 54 38 44 55 55 157 45 56 56 39 46 57 57 35 39 58 58 156 38 59 59 120 47 60 60 43 48 61 61 42 49 62 62 98 50 63 63 45 51 64 64 44 52 65 65 122 53 66 66 42 49 67 67 46 54 68 68 47 55 69 69 43 48 70 70 120 47 71 71 92 56 72 72 51 57 73 73 50 58 74 74 94 59 75 75 53 60 76 76 52 61 77 77 93 62 78 78 50 58 79 79 54 63 80 80 55 64 81 81 51 57 82 82 92 56 83 83 53 60 153 153 94 59 154 154 92 56 155 155 93 62 156 156 95 84 157 157 52 61 158 158 94 59 159 159 95 84 160 160 54 63 161 161 92 56 162 162 93 62 163 163 48 85 164 164 45 51 165 165 98 50 166 166 96 86 167 167 97 87 168 168 99 88 169 169 44 52 170 170 125 89 171 171 98 50 172 172 99 88 173 173 96 86 174 174 97 87 175 175 40 90 176 176 102 91 177 177 103 92 178 178 30 36 179 179 107 93 180 180 167 94 181 181 164 95 182 182 158 96 183 183 157 45 184 184 106 97 185 185 156 38 186 186 107 93 187 187 104 98 188 188 106 97 189 189 104 98 190 190 164 95 191 191 110 99 192 192 108 100 193 193 17 101 194 194 16 102 195 195 109 103 196 196 111 24 197 197 108 100 198 198 139 104 199 199 138 105 200 200 17 101 201 201 108 100 202 202 109 103 203 203 180 106 204 204 184 107 205 205 187 108 206 206 181 109 207 207 183 15 208 208 187 108 209 209 114 110 210 210 115 111 211 211 14 17 212 212 182 112 213 213 186 113 214 214 184 107 215 215 118 114 216 216 116 115 217 217 1 116 218 218 0 117 219 219 117 118 220 220 119 5 221 221 227 8 222 222 224 119 223 223 228 120 224 224 1 116 225 225 116 115 226 226 117 118 227 227 123 121 228 228 121 122 229 229 46 54 230 230 123 121 231 231 120 47 232 232 126 123 233 233 124 124 234 234 122 53 235 235 121 122 236 236 126 123 237 237 120 47 238 238 122 53 239 239 126 123 240 240 124 124 241 241 97 87 242 242 124 124 243 243 127 125 244 244 99 88 245 245 98 50 246 246 125 89 247 247 126 123 248 248 125 89 249 249 127 125 250 250 121 122 251 251 23 28 252 252 131 27 253 253 129 26 254 254 161 126 255 255 134 127 256 256 133 128 257 257 163 43 258 258 132 129 259 259 134 127 260 260 163 43 261 261 160 130 262 262 135 131 263 263 141 32 264 264 146 132 265 265 145 133 266 266 141 32 267 267 142 134 268 268 25 135 269 269 24 136 270 270 140 137 271 271 143 138 272 272 160 130 273 273 162 139 274 274 133 128 275 275 109 103 276 276 138 105 277 277 136 140 278 278 110 99 279 279 111 24 280 280 136 140 281 281 108 100 282 282 110 99 283 283 137 141 284 284 142 134 285 285 140 137 286 286 24 136 287 287 141 32 288 288 143 138 289 289 144 142 290 290 142 134 291 291 145 133 292 292 147 143 293 293 143 138 294 294 140 137 295 295 147 143 296 296 144 142 297 297 147 143 298 298 151 144 299 299 146 132 300 300 150 145 301 301 149 146 302 302 144 142 303 303 148 147 304 304 150 145 305 305 147 143 306 306 145 133 307 307 149 146 308 308 138 105 309 309 139 104 310 310 155 148 311 311 136 140 312 312 138 105 313 313 154 149 314 314 136 140 315 315 152 150 316 316 153 151 317 317 137 141 318 318 153 151 319 319 155 148 320 320 159 152 321 321 157 45 322 322 38 44 323 323 105 153 324 324 165 154 325 325 167 94 326 326 157 45 327 327 159 152 328 328 104 98 329 329 105 153 330 330 106 97 331 331 166 155 332 332 33 156 333 333 162 139 334 334 160 130 335 335 32 157 336 336 160 130 337 337 163 43 338 338 161 126 339 339 162 139 340 340 33 156 341 341 158 96 342 342 105 153 343 343 107 93 344 344 166 155 345 345 164 95 346 346 168 158 347 347 165 154 348 348 166 155 349 349 170 159 350 350 165 154 351 351 169 160 352 352 171 161 353 353 167 94 354 354 171 161 355 355 168 158 356 356 129 26 357 357 131 27 358 358 175 162 359 359 130 21 360 360 174 163 361 361 172 164 362 362 131 27 363 363 128 165 364 364 172 164 365 365 129 26 366 366 173 166 367 367 174 163 368 368 174 163 369 369 178 167 370 370 176 168 371 371 175 162 372 372 172 164 373 373 176 168 374 374 173 166 375 375 177 169 376 376 178 167 377 377 173 166 378 378 175 162 379 379 179 170 380 380 9 171 381 381 182 112 382 382 180 106 383 383 8 172 384 384 180 106 385 385 183 15 386 386 181 109 387 387 182 112 388 388 9 171 389 389 182 112 390 390 181 109 391 391 185 173 392 392 186 113 393 393 190 174 394 394 188 175 395 395 185 173 396 396 187 108 397 397 191 176 398 398 184 107 399 399 188 175 400 400 191 176 401 401 186 113 402 402 185 173 403 403 189 177 404 404 188 175 405 405 192 178 406 406 195 179 407 407 189 177 408 408 191 176 409 409 195 179 410 410 190 174 411 411 194 180 412 412 192 178 413 413 190 174 414 414 189 177 415 415 193 181 416 416 194 180 417 417 198 182 418 418 196 183 419 419 194 180 420 420 193 181 421 421 197 184 422 422 192 178 423 423 196 183 424 424 199 185 425 425 193 181 426 426 195 179 427 427 199 185 428 428 196 183 429 429 200 186 430 430 203 187 431 431 197 184 432 432 199 185 433 433 203 187 434 434 198 182 435 435 202 188 436 436 200 186 437 437 198 182 438 438 197 184 439 439 201 189 440 440 203 187 441 441 207 190 442 442 205 191 443 443 200 186 444 444 202 188 445 445 206 192 446 446 201 189 447 447 205 191 448 448 206 192 449 449 203 187 450 450 200 186 451 451 204 193 452 452 204 193 453 453 206 192 454 454 210 194 455 455 205 191 456 456 209 195 457 457 210 194 458 458 207 190 459 459 204 193 460 460 208 196 461 461 207 190 462 462 211 197 463 463 209 195 464 464 211 197 465 465 208 196 466 466 212 198 467 467 211 197 468 468 215 199 469 469 213 200 470 470 208 196 471 471 210 194 472 472 214 201 473 473 209 195 474 474 213 200 475 475 214 201 476 476 214 201 477 477 218 202 478 478 216 203 479 479 214 201 480 480 213 200 481 481 217 204 482 482 212 198 483 483 216 203 484 484 219 205 485 485 213 200 486 486 215 199 487 487 219 205 488 488 217 204 489 489 221 206 490 490 222 207 491 491 219 205 492 492 216 203 493 493 220 208 494 494 219 205 495 495 223 209 496 496 221 206 497 497 216 203 498 498 218 202 499 499 222 207 500 500 7 9 516 516 227 8 517 517 225 7 518 518 226 2 519 519 230 213 520 520 228 120 521 521 225 7 522 522 227 8 523 523 231 214 524 524 225 7 525 525 229 215 526 526 230 213 527 527 116 115 528 528 232 216 529 529 233 217 530 530 117 118 531 531 233 217 532 532 235 218 533 533 118 114 534 534 119 5 535 535 235 218 536 536 116 115 537 537 118 114 538 538 234 219 539 539 235 218 540 540 239 220 541 541 238 221 542 542 234 219 543 543 238 221 544 544 236 222 545 545 233 217 546 546 232 216 547 547 236 222 548 548 235 218 549 549 233 217 550 550 237 223 551 551 224 119 552 552 3 0 553 553 226 2 554 554 118 114 555 555 5 3 556 556 119 5 557 557 226 2 558 558 2 1 559 559 225 7 560 560 224 119 561 561 227 8 562 562 3 0 563 563 113 16 564 564 112 10 565 565 10 12 566 566 181 109 567 567 13 13 568 568 183 15 569 569 115 111 570 570 113 16 571 571 14 17 572 572 114 110 573 573 15 18 574 574 112 10 575 575 128 165 576 576 19 19 577 577 130 21 578 578 110 99 579 579 21 22 580 580 111 24 581 581 130 21 582 582 18 20 583 583 129 26 584 584 128 165 585 585 131 27 586 586 19 19 587 587 101 35 588 588 100 29 589 589 26 31 590 590 143 138 591 591 141 32 592 592 28 34 593 593 103 92 594 594 101 35 595 595 30 36 596 596 102 91 597 597 31 37 598 598 100 29 599 599 158 96 600 600 156 38 601 601 34 40 602 602 161 126 603 603 37 41 604 604 163 43 605 605 158 96 606 606 34 40 607 607 157 45 608 608 159 152 609 609 39 46 610 610 156 38 611 611 122 53 612 612 120 47 613 613 42 49 614 614 99 88 615 615 98 50 616 616 44 52 617 617 121 122 618 618 122 53 619 619 46 54 620 620 123 121 621 621 47 55 622 622 120 47 623 623 93 62 624 624 92 56 625 625 50 58 626 626 95 84 627 627 94 59 628 628 52 61 629 629 95 84 630 630 93 62 631 631 54 63 632 632 94 59 633 633 55 64 634 634 92 56 635 635 49 225 717 717 53 60 718 718 92 56 719 719 48 85 720 720 93 62 721 721 52 61 722 722 55 64 723 723 94 59 724 724 54 63 725 725 49 225 726 726 92 56 727 727 48 85 728 728 41 226 729 729 45 51 730 730 96 86 731 731 40 90 732 732 97 87 733 733 44 52 734 734 127 125 735 735 125 89 736 736 99 88 737 737 41 226 738 738 96 86 739 739 40 90 740 740 31 37 741 741 102 91 742 742 30 36 743 743 104 98 744 744 107 93 745 745 164 95 746 746 105 153 747 747 158 96 748 748 106 97 749 749 159 152 750 750 156 38 751 751 104 98 752 752 166 155 753 753 106 97 754 754 164 95 755 755 21 22 756 756 110 99 757 757 17 101 758 758 20 23 759 759 16 102 760 760 111 24 761 761 109 103 762 762 108 100 763 763 138 105 764 764 16 102 765 765 17 101 766 766 109 103 767 767 183 15 768 768 180 106 769 769 187 108 770 770 185 173 771 771 181 109 772 772 187 108 773 773 15 18 774 774 114 110 775 775 14 17 776 776 180 106 777 777 182 112 778 778 184 107 779 779 5 3 780 780 118 114 781 781 1 116 782 782 4 4 783 783 0 117 784 784 119 5 785 785 231 214 786 786 227 8 787 787 228 120 788 788 0 117 789 789 1 116 790 790 117 118 791 791 47 55 792 792 123 121 793 793 46 54 794 794 125 89 795 795 123 121 796 796 126 123 797 797 127 125 798 798 124 124 799 799 121 122 800 800 124 124 801 801 126 123 802 802 122 53 803 803 96 86 804 804 126 123 805 805 97 87 806 806 97 87 807 807 124 124 808 808 99 88 809 809 96 86 810 810 98 50 811 811 126 123 812 812 123 121 813 813 125 89 814 814 121 122 815 815 22 25 816 816 23 28 817 817 129 26 818 818 162 139 819 819 161 126 820 820 133 128 821 821 161 126 822 822 163 43 823 823 134 127 824 824 132 129 825 825 163 43 826 826 135 131 827 827 142 134 828 828 141 32 829 829 145 133 830 830 29 33 831 831 141 32 832 832 25 135 833 833 28 34 834 834 24 136 835 835 143 138 836 836 135 131 837 837 160 130 838 838 133 128 839 839 111 24 840 840 109 103 841 841 136 140 842 842 137 141 843 843 110 99 844 844 136 140 845 845 139 104 846 846 108 100 847 847 137 141 848 848 25 135 849 849 142 134 850 850 24 136 851 851 146 132 852 852 141 32 853 853 144 142 854 854 140 137 855 855 142 134 856 856 147 143 857 857 144 142 858 858 143 138 859 859 147 143 860 860 148 147 861 861 144 142 862 862 151 144 863 863 145 133 864 864 146 132 865 865 149 146 866 866 146 132 867 867 144 142 868 868 150 145 869 869 151 144 870 870 147 143 871 871 149 146 872 872 154 149 873 873 138 105 874 874 155 148 875 875 152 150 876 876 136 140 877 877 154 149 878 878 137 141 879 879 136 140 880 880 153 151 881 881 139 104 882 882 137 141 883 883 155 148 884 884 39 46 885 885 159 152 886 886 38 44 887 887 107 93 888 888 105 153 889 889 167 94 890 890 106 97 891 891 157 45 892 892 104 98 893 893 165 154 894 894 105 153 895 895 166 155 896 896 32 157 897 897 33 156 898 898 160 130 899 899 36 42 900 900 32 157 901 901 163 43 902 902 37 41 903 903 161 126 904 904 33 156 905 905 156 38 906 906 158 96 907 907 107 93 908 908 170 159 909 909 166 155 910 910 168 158 911 911 169 160 912 912 165 154 913 913 170 159 914 914 167 94 915 915 165 154 916 916 171 161 917 917 164 95 918 918 167 94 919 919 168 158 920 920 173 166 921 921 129 26 922 922 175 162 923 923 128 165 924 924 130 21 925 925 172 164 926 926 175 162 927 927 131 27 928 928 172 164 929 929 130 21 930 930 129 26 931 931 174 163 932 932 172 164 933 933 174 163 934 934 176 168 935 935 179 170 936 936 175 162 937 937 176 168 938 938 174 163 939 939 173 166 940 940 178 167 941 941 177 169 942 942 173 166 943 943 179 170 944 944 8 172 945 945 9 171 946 946 180 106 947 947 12 14 948 948 8 172 949 949 183 15 950 950 13 13 951 951 181 109 952 952 9 171 953 953 186 113 954 954 182 112 955 955 185 173 956 956 184 107 957 957 186 113 958 958 188 175 959 959 189 177 960 960 185 173 961 961 191 176 962 962 187 108 963 963 184 107 964 964 191 176 965 965 190 174 966 966 186 113 967 967 189 177 968 968 191 176 969 969 188 175 970 970 195 179 971 971 193 181 972 972 189 177 973 973 195 179 974 974 188 175 975 975 190 174 976 976 192 178 977 977 194 180 978 978 190 174 979 979 193 181 980 980 192 178 981 981 194 180 982 982 196 183 983 983 198 182 984 984 194 180 985 985 197 184 986 986 195 179 987 987 192 178 988 988 199 185 989 989 197 184 990 990 193 181 991 991 199 185 992 992 199 185 993 993 196 183 994 994 203 187 995 995 201 189 996 996 197 184 997 997 203 187 998 998 196 183 999 999 198 182 1000 1000 200 186 1001 1001 202 188 1002 1002 198 182 1003 1003 201 189 1004 1004 201 189 1005 1005 203 187 1006 1006 205 191 1007 1007 204 193 1008 1008 200 186 1009 1009 206 192 1010 1010 202 188 1011 1011 201 189 1012 1012 206 192 1013 1013 207 190 1014 1014 203 187 1015 1015 204 193 1016 1016 208 196 1017 1017 204 193 1018 1018 210 194 1019 1019 206 192 1020 1020 205 191 1021 1021 210 194 1022 1022 211 197 1023 1023 207 190 1024 1024 208 196 1025 1025 205 191 1026 1026 207 190 1027 1027 209 195 1028 1028 215 199 1029 1029 211 197 1030 1030 212 198 1031 1031 209 195 1032 1032 211 197 1033 1033 213 200 1034 1034 212 198 1035 1035 208 196 1036 1036 214 201 1037 1037 210 194 1038 1038 209 195 1039 1039 214 201 1040 1040 212 198 1041 1041 214 201 1042 1042 216 203 1043 1043 218 202 1044 1044 214 201 1045 1045 217 204 1046 1046 215 199 1047 1047 212 198 1048 1048 219 205 1049 1049 217 204 1050 1050 213 200 1051 1051 219 205 1052 1052 218 202 1053 1053 217 204 1054 1054 222 207 1055 1055 223 209 1056 1056 219 205 1057 1057 220 208 1058 1058 217 204 1059 1059 219 205 1060 1060 221 206 1061 1061 220 208 1062 1062 216 203 1063 1063 222 207 1064 1064 6 6 1086 1086 7 9 1087 1087 225 7 1088 1088 224 119 1089 1089 226 2 1090 1090 228 120 1091 1091 229 215 1092 1092 225 7 1093 1093 231 214 1094 1094 226 2 1095 1095 225 7 1096 1096 230 213 1097 1097 117 118 1098 1098 116 115 1099 1099 233 217 1100 1100 119 5 1101 1101 117 118 1102 1102 235 218 1103 1103 234 219 1104 1104 118 114 1105 1105 235 218 1106 1106 232 216 1107 1107 116 115 1108 1108 234 219 1109 1109 234 219 1110 1110 235 218 1111 1111 238 221 1112 1112 232 216 1113 1113 234 219 1114 1114 236 222 1115 1115 237 223 1116 1116 233 217 1117 1117 236 222 1118 1118 239 220 1119 1119 235 218 1120 1120 237 223 1121 1121</p>
        </polylist>
      </mesh>
    </geometry>
    <geometry id="Cube_016-mesh" name="Cube.016">
      <mesh>
        <source id="Cube_016-mesh-positions">
          <float_array id="Cube_016-mesh-positions-array" count="90">-0.25 -0.125 1.25 -0.25 0.125 1.25 0.25 -0.125 1.25 0 -0.125 5.25 0.25 0.125 1.25 0 0.125 5.25 -0.25 7.875 1.25 -0.25 8.125 1.25 0.25 7.875 1.25 0 7.875 5.25 0.25 8.125 1.25 0 8.125 5.25 -1 0 -3 -1 8 -3 1 0 -3 1 8 -3 -0.75 0 0.75 -0.75 8 0.75 0.75 0 0.75 -0.5 0 1.25 -0.5 8 1.25 0.5 0 1.25 0.75 8 0.75 0.5 8 1.25 -1 8 -3 -1 0 -3 1 8 -3 1 0 -3 -0.75 0 0.75 0.75 0 0.75</float_array>
          <technique_common>
            <accessor source="#Cube_016-mesh-positions-array" count="30" stride="3">
              <param name="X" type="float"/>
              <param name="Y" type="float"/>
              <param name="Z" type="float"/>
            </accessor>
          </technique_common>
        </source>
        <source id="Cube_016-mesh-normals">
          <float_array id="Cube_016-mesh-normals-array" count="39">0.9980526 0 0.06237828 0 0 1 -0.8944273 0 0.4472137 -0.9573214 -0.2335529 -0.1702612 -0.9977852 0 0.06651902 0 -1 0 -0.9980526 0 0.06237828 0 1 0 0.8944273 0 0.4472137 0.9573214 0.2335529 -0.1702612 0.9977852 0 0.06651902 -0.9573192 0.2335866 -0.1702277 0.9573192 -0.2335866 -0.1702277</float_array>
          <technique_common>
            <accessor source="#Cube_016-mesh-normals-array" count="13" stride="3">
              <param name="X" type="float"/>
              <param name="Y" type="float"/>
              <param name="Z" type="float"/>
            </accessor>
          </technique_common>
        </source>
        <source id="Cube_016-mesh-map-0">
          <float_array id="Cube_016-mesh-map-0-array" count="180">2.125617 0.501805 5.143048 0.5018042 5.143048 0.7530375 2.125617 0.501805 5.143048 0.5018042 5.143048 0.7530375 0.625 2.5 0.375 2.5 0.375 0.5 2.5 0 2.5 -0.25 0.5 -0.25 2.5 0.7707108 2.5 -0.25 0.5 -0.25 0.3625 0.75 0.3125 -0.25 0.6875 -0.25 1.874383 0.7530398 -1.143048 0.7530381 -1.143048 0.5018048 3.503168 -0.06887817 1.4301e-4 0.02842825 1.43037e-4 -0.3607972 3.503168 -0.06887817 1.4301e-4 0.02842825 1.43037e-4 -0.3607972 1.874383 0.7530398 -1.143048 0.7530381 -1.143048 0.5018048 3.503168 -0.06887817 1.4301e-4 0.02842825 1.43037e-4 -0.3607972 3.503168 -0.06887817 1.4301e-4 0.02842825 1.43037e-4 -0.3607972 0.625 0 0.625 -0.25 0.375 -0.25 -1.5 0 -1.5 -0.25 0.5 -0.25 0.375 0 0.375 -0.25 0.625 -0.25 0.4999995 1.045707 0.4999995 2.066418 2.499999 2.066418 0.6375 0.75 0.6875 -0.25 0.3125 -0.25 2.125617 0.7530398 2.125617 0.501805 5.143048 0.7530375 2.125617 0.7530398 2.125617 0.501805 5.143048 0.7530375 0.625 0.5 0.625 2.5 0.375 0.5 0.5 0 2.5 0 0.5 -0.25 0.4999999 0.7707075 2.5 0.7707108 0.5 -0.25 0.6375001 0.75 0.3625 0.75 0.6875 -0.25 1.874383 0.501805 1.874383 0.7530398 -1.143048 0.5018048 1.874383 0.501805 1.874383 0.7530398 -1.143048 0.5018048 0.375 0 0.625 0 0.375 -0.25 0.5 0 -1.5 0 0.5 -0.25 0.625 0 0.375 0 0.625 -0.25 2.5 1.045711 0.4999995 1.045707 2.499999 2.066418 0.3625 0.75 0.6375 0.75 0.3125 -0.25</float_array>
          <technique_common>
            <accessor source="#Cube_016-mesh-map-0-array" count="90" stride="2">
              <param name="S" type="float"/>
              <param name="T" type="float"/>
            </accessor>
          </technique_common>
        </source>
        <source id="Cube_016-mesh-colors-Col" name="Col">
          <float_array id="Cube_016-mesh-colors-Col-array" count="270">1 1 1 1 1 1 1 1 1 1 1 1 1 1 1 1 1 1 1 1 1 1 1 1 1 1 1 1 1 1 0.5019608 0.5019608 0.5019608 0.5019608 0.5019608 0.5019608 1 1 1 1 1 1 1 1 1 1 1 1 1 1 1 1 1 1 1 1 1 1 1 1 1 1 1 1 1 1 1 1 1 1 1 1 1 1 1 1 1 1 1 1 1 1 1 1 1 1 1 1 1 1 1 1 1 1 1 1 1 1 1 1 1 1 1 1 1 1 1 1 1 1 1 0.5019608 0.5019608 0.5019608 0.5019608 0.5019608 0.5019608 1 1 1 0.5019608 0.5019608 0.5019608 0.5019608 0.5019608 0.5019608 1 1 1 0.5019608 0.5019608 0.5019608 0.5019608 0.5019608 0.5019608 1 1 1 1 1 1 1 1 1 1 1 1 1 1 1 1 1 1 1 1 1 1 1 1 1 1 1 1 1 1 1 1 1 1 1 1 1 1 1 1 1 1 1 1 1 1 1 1 1 1 1 0.5019608 0.5019608 0.5019608 1 1 1 1 1 1 1 1 1 1 1 1 1 1 1 1 1 1 1 1 1 1 1 1 1 1 1 1 1 1 1 1 1 1 1 1 1 1 1 1 1 1 0.5019608 0.5019608 0.5019608 1 1 1 1 1 1 0.5019608 0.5019608 0.5019608 1 1 1 1 1 1 0.5019608 0.5019608 0.5019608 1 1 1 1 1 1 1 1 1 1 1 1 1 1 1 1 1 1</float_array>
          <technique_common>
            <accessor source="#Cube_016-mesh-colors-Col-array" count="90" stride="3">
              <param name="R" type="float"/>
              <param name="G" type="float"/>
              <param name="B" type="float"/>
            </accessor>
          </technique_common>
        </source>
        <vertices id="Cube_016-mesh-vertices">
          <input semantic="POSITION" source="#Cube_016-mesh-positions"/>
        </vertices>
        <polylist material="ind_bld__2__concrete-material" count="18">
          <input semantic="VERTEX" source="#Cube_016-mesh-vertices" offset="0"/>
          <input semantic="NORMAL" source="#Cube_016-mesh-normals" offset="1"/>
          <input semantic="TEXCOORD" source="#Cube_016-mesh-map-0" offset="2" set="0"/>
          <input semantic="COLOR" source="#Cube_016-mesh-colors-Col" offset="3" set="0"/>
          <vcount>3 3 3 3 3 3 3 3 3 3 3 3 3 3 3 3 3 3 </vcount>
          <p>23 1 6 6 20 1 7 7 19 1 8 8 20 2 9 9 17 2 10 10 28 2 11 11 17 3 12 12 24 4 13 13 25 4 14 14 16 5 15 15 12 5 16 16 14 5 17 17 23 7 36 36 22 7 37 37 17 7 38 38 21 8 39 39 18 8 40 40 22 8 41 41 19 5 42 42 28 5 43 43 18 5 44 44 18 9 45 45 27 10 46 46 15 10 47 47 22 7 48 48 26 7 49 49 13 7 50 50 21 1 57 57 23 1 58 58 19 1 59 59 19 2 60 60 20 2 61 61 28 2 62 62 28 11 63 63 17 3 64 64 25 4 65 65 29 5 66 66 16 5 67 67 14 5 68 68 20 7 75 75 23 7 76 76 17 7 77 77 23 8 78 78 21 8 79 79 22 8 80 80 21 5 81 81 19 5 82 82 18 5 83 83 22 12 84 84 18 9 85 85 15 10 86 86 17 7 87 87 22 7 88 88 13 7 89 89</p>
        </polylist>
        <polylist material="eca_bld_metalbeams-material" count="12">
          <input semantic="VERTEX" source="#Cube_016-mesh-vertices" offset="0"/>
          <input semantic="NORMAL" source="#Cube_016-mesh-normals" offset="1"/>
          <input semantic="TEXCOORD" source="#Cube_016-mesh-map-0" offset="2" set="0"/>
          <input semantic="COLOR" source="#Cube_016-mesh-colors-Col" offset="3" set="0"/>
          <vcount>3 3 3 3 3 3 3 3 3 3 3 3 </vcount>
          <p>3 0 0 0 2 0 1 1 4 0 2 2 9 0 3 3 8 0 4 4 10 0 5 5 5 6 18 18 1 6 19 19 0 6 20 20 5 7 21 21 4 7 22 22 1 7 23 23 3 5 24 24 0 5 25 25 2 5 26 26 11 6 27 27 7 6 28 28 6 6 29 29 11 7 30 30 10 7 31 31 7 7 32 32 9 5 33 33 6 5 34 34 8 5 35 35 5 0 51 51 3 0 52 52 4 0 53 53 11 0 54 54 9 0 55 55 10 0 56 56 3 6 69 69 5 6 70 70 0 6 71 71 9 6 72 72 11 6 73 73 6 6 74 74</p>
        </polylist>
      </mesh>
    </geometry>
    <geometry id="Cube-mesh" name="Cube">
      <mesh>
        <source id="Cube-mesh-positions">
          <float_array id="Cube-mesh-positions-array" count="36">-1 0 -3 -1 0 0.75 -1 8 -3 -1 8 0.75 1 0 -3 1 0 0.75 1 8 -3 1 8 0.75 -0.1499999 0 5.25 -0.1499999 8 5.25 0.1499999 8 5.25 0.1499999 0 5.25</float_array>
          <technique_common>
            <accessor source="#Cube-mesh-positions-array" count="12" stride="3">
              <param name="X" type="float"/>
              <param name="Y" type="float"/>
              <param name="Z" type="float"/>
            </accessor>
          </technique_common>
        </source>
        <source id="Cube-mesh-normals">
          <float_array id="Cube-mesh-normals-array" count="21">-1 0 0 0 1 0 1 0 0 0 -1 0 -0.9826241 0 0.1856067 0 0 1 0.9826241 0 0.1856067</float_array>
          <technique_common>
            <accessor source="#Cube-mesh-normals-array" count="7" stride="3">
              <param name="X" type="float"/>
              <param name="Y" type="float"/>
              <param name="Z" type="float"/>
            </accessor>
          </technique_common>
        </source>
        <vertices id="Cube-mesh-vertices">
          <input semantic="POSITION" source="#Cube-mesh-positions"/>
        </vertices>
        <polylist count="18">
          <input semantic="VERTEX" source="#Cube-mesh-vertices" offset="0"/>
          <input semantic="NORMAL" source="#Cube-mesh-normals" offset="1"/>
          <vcount>3 3 3 3 3 3 3 3 3 3 3 3 3 3 3 3 3 3 </vcount>
          <p>3 0 2 0 0 0 7 1 6 1 2 1 5 2 4 2 6 2 1 3 0 3 4 3 1 4 8 4 9 4 10 5 9 5 8 5 5 3 11 3 8 3 3 1 9 1 10 1 7 6 10 6 11 6 1 0 3 0 0 0 3 1 7 1 2 1 7 2 5 2 6 2 5 3 1 3 4 3 3 4 1 4 9 4 11 5 10 5 8 5 1 3 5 3 8 3 7 1 3 1 10 1 5 6 7 6 11 6</p>
        </polylist>
      </mesh>
    </geometry>
  </library_geometries>
  <library_controllers/>
  <library_visual_scenes>
    <visual_scene id="Scene" name="Scene">
      <node id="base00" name="base00" type="NODE">
        <matrix sid="transform">1 0 0 0 0 1 0 0 0 0 1 0 0 0 0 1</matrix>
        <node id="start01" name="start01" type="NODE">
          <matrix sid="transform">1 0 0 0 0 1 0 0 0 0 1 0 0 0 0 1</matrix>
          <node id="heavyFence_b90" name="heavyFence_b90" type="NODE">
            <matrix sid="transform">1 0 0 0 0 1 0 0 0 0 1 0 0 0 0 1</matrix>
            <instance_geometry url="#Cube_006-mesh" name="heavyFence_b90">
              <bind_material>
                <technique_common>
                  <instance_material symbol="ind_bld__2__concrete-material" target="#ind_bld__2__concrete-material"/>
                  <instance_material symbol="ind_concreteleak-material" target="#ind_concreteleak-material"/>
                  <instance_material symbol="eca_bld_metalbeams-material" target="#eca_bld_metalbeams-material"/>
                  <instance_material symbol="ind_metalplates-material" target="#ind_metalplates-material"/>
                </technique_common>
              </bind_material>
            </instance_geometry>
          </node>
          <node id="heavyFence_a10" name="heavyFence_a10" type="NODE">
            <matrix sid="transform">1 0 0 0 0 1 0 0 0 0 1 0 0 0 0 1</matrix>
            <instance_geometry url="#Cube_016-mesh" name="heavyFence_a10">
              <bind_material>
                <technique_common>
                  <instance_material symbol="ind_bld__2__concrete-material" target="#ind_bld__2__concrete-material"/>
                  <instance_material symbol="ind_concreteleak-material" target="#ind_concreteleak-material"/>
                  <instance_material symbol="eca_bld_metalbeams-material" target="#eca_bld_metalbeams-material"/>
                  <instance_material symbol="ind_metalplates-material" target="#ind_metalplates-material"/>
                </technique_common>
              </bind_material>
            </instance_geometry>
          </node>
          <node id="Colmesh-1" name="Colmesh-1" type="NODE">
            <matrix sid="transform">1 0 0 0 0 1 0 0 0 0 1 0 0 0 0 1</matrix>
            <instance_geometry url="#Cube-mesh" name="Colmesh-1"/>
          </node>
        </node>
      </node>
    </visual_scene>
  </library_visual_scenes>
  <scene>
    <instance_visual_scene url="#Scene"/>
  </scene>
</COLLADA>