<?xml version="1.0" encoding="utf-8"?>
<COLLADA xmlns="http://www.collada.org/2005/11/COLLADASchema" version="1.4.1">
  <asset>
    <contributor>
      <author>Blender User</author>
      <authoring_tool>Blender 2.75.0 commit date:2015-07-07, commit time:14:56, hash:c27589e</authoring_tool>
    </contributor>
    <created>2018-10-16T22:30:30</created>
    <modified>2018-10-16T22:30:30</modified>
    <unit name="meter" meter="1"/>
    <up_axis>Z_UP</up_axis>
  </asset>
  <library_images/>
  <library_effects>
    <effect id="ind_bld__2__concrete-effect">
      <profile_COMMON>
        <technique sid="common">
          <phong>
            <emission>
              <color sid="emission">0 0 0 1</color>
            </emission>
            <ambient>
              <color sid="ambient">0 0 0 1</color>
            </ambient>
            <diffuse>
              <color sid="diffuse">0.64 0.64 0.64 1</color>
            </diffuse>
            <specular>
              <color sid="specular">0.5 0.5 0.5 1</color>
            </specular>
            <shininess>
              <float sid="shininess">50</float>
            </shininess>
            <index_of_refraction>
              <float sid="index_of_refraction">1</float>
            </index_of_refraction>
          </phong>
        </technique>
      </profile_COMMON>
    </effect>
    <effect id="ind_concreteleak-effect">
      <profile_COMMON>
        <technique sid="common">
          <phong>
            <emission>
              <color sid="emission">0 0 0 1</color>
            </emission>
            <ambient>
              <color sid="ambient">0 0 0 1</color>
            </ambient>
            <diffuse>
              <color sid="diffuse">0.64 0.64 0.64 1</color>
            </diffuse>
            <specular>
              <color sid="specular">0.5 0.5 0.5 1</color>
            </specular>
            <shininess>
              <float sid="shininess">50</float>
            </shininess>
            <index_of_refraction>
              <float sid="index_of_refraction">1</float>
            </index_of_refraction>
          </phong>
        </technique>
      </profile_COMMON>
    </effect>
    <effect id="eca_bld_metalbeams-effect">
      <profile_COMMON>
        <technique sid="common">
          <phong>
            <emission>
              <color sid="emission">0 0 0 1</color>
            </emission>
            <ambient>
              <color sid="ambient">0 0 0 1</color>
            </ambient>
            <diffuse>
              <color sid="diffuse">0.64 0.64 0.64 1</color>
            </diffuse>
            <specular>
              <color sid="specular">0.5 0.5 0.5 1</color>
            </specular>
            <shininess>
              <float sid="shininess">50</float>
            </shininess>
            <index_of_refraction>
              <float sid="index_of_refraction">1</float>
            </index_of_refraction>
          </phong>
        </technique>
      </profile_COMMON>
    </effect>
    <effect id="ind_metalplates-effect">
      <profile_COMMON>
        <technique sid="common">
          <phong>
            <emission>
              <color sid="emission">0 0 0 1</color>
            </emission>
            <ambient>
              <color sid="ambient">0 0 0 1</color>
            </ambient>
            <diffuse>
              <color sid="diffuse">0.64 0.64 0.64 1</color>
            </diffuse>
            <specular>
              <color sid="specular">0.5 0.5 0.5 1</color>
            </specular>
            <shininess>
              <float sid="shininess">50</float>
            </shininess>
            <index_of_refraction>
              <float sid="index_of_refraction">1</float>
            </index_of_refraction>
          </phong>
        </technique>
      </profile_COMMON>
    </effect>
  </library_effects>
  <library_materials>
    <material id="ind_bld__2__concrete-material" name="ind_bld__2__concrete">
      <instance_effect url="#ind_bld__2__concrete-effect"/>
    </material>
    <material id="ind_concreteleak-material" name="ind_concreteleak">
      <instance_effect url="#ind_concreteleak-effect"/>
    </material>
    <material id="eca_bld_metalbeams-material" name="eca_bld_metalbeams">
      <instance_effect url="#eca_bld_metalbeams-effect"/>
    </material>
    <material id="ind_metalplates-material" name="ind_metalplates">
      <instance_effect url="#ind_metalplates-effect"/>
    </material>
  </library_materials>
  <library_geometries>
    <geometry id="Cube_004-mesh" name="Cube.004">
      <mesh>
        <source id="Cube_004-mesh-positions">
          <float_array id="Cube_004-mesh-positions-array" count="408">-0.03535532 0 5 0 0 5.035356 -0.03535532 8 5 0 8 5.035356 0 0 4.964644 0.03535532 0 5 0 8 4.964644 0.03535532 8 5 -0.03535532 0 4.5 0 0 4.535356 -0.03535532 8 4.5 0 8 4.535356 0 0 4.464644 0.03535532 0 4.5 0 8 4.464644 0.03535532 8 4.5 -0.03535532 0 4 0 0 4.035356 -0.03535532 8 4 0 8 4.035356 0 0 3.964644 0.03535532 0 4 0 8 3.964644 0.03535532 8 4 -0.03535532 0 3 0 0 3.035356 -0.03535532 8 3 0 8 3.035356 0 0 2.964645 0.03535532 0 3 0 8 2.964645 0.03535532 8 3 -0.03535532 0 3.5 0 0 3.535356 -0.03535532 8 3.5 0 8 3.535356 0 0 3.464644 0.03535532 0 3.5 0 8 3.464644 0.03535532 8 3.5 -0.03535532 0 2.5 0 0 2.535355 -0.03535532 8 2.5 0 8 2.535355 0 0 2.464645 0.03535532 0 2.5 0 8 2.464645 0.03535532 8 2.5 -0.03535532 0 2 0 0 2.035355 -0.03535532 8 2 0 8 2.035355 0 0 1.964645 0.03535532 0 2 0 8 1.964645 0.03535532 8 2 -0.25 -0.125 1.25 -0.125 -0.125 5.25 -0.25 0.125 1.25 -0.125 0.125 5.25 0.25 -0.125 1.25 0.125 -0.125 5.25 0.25 0.125 1.25 0.125 0.125 5.25 -0.25 7.875 1.25 -0.125 7.875 5.25 -0.25 8.125 1.25 -0.125 8.125 5.25 0.25 7.875 1.25 0.125 7.875 5.25 0.25 8.125 1.25 0.125 8.125 5.25 -1 0 -3 -1 8 -3 1 0 -3 1 8 -3 -0.8 0 0.75 -1 0 0.55 -1 8 0.55 -0.8 8 0.75 1 0 0.55 0.8 0 0.75 0.8 8 0.75 1 8 0.55 -0.5 0 0.75 -0.5 0 1.25 -0.5 8 0.75 -0.5 8 1.25 0.5 0 0.75 0.5 0 1.25 0.5 8 0.75 0.5 8 1.25 0 4 2.000627 -0.03535532 4 1.965272 0.03535532 4 1.965272 0 4 1.929917 0 3.067208 2.516867 -0.03535532 3.067208 2.481512 0.03535532 3.067208 2.481512 0 3.067208 2.446156 0 4.840534 2.954181 -0.03535532 4.840534 2.918825 0.03535532 4.840534 2.918825 0 4.840534 2.88347 0 3.938954 3.506333 -0.03535532 3.938954 3.470978 0.03535532 3.938954 3.470978 0 3.938954 3.435622 0 2.707662 4.006333 -0.03535532 2.707662 3.970978 0.03535532 2.707662 3.970978 0 2.707662 3.935622 0 5.387884 4.516868 -0.03535532 5.387884 4.481512 0.03535532 5.387884 4.481512 0 5.387884 4.446156 0 3.334391 5.016868 -0.03535532 3.334391 4.981512 0.03535532 3.334391 4.981512 0 3.334391 4.946156 -1 8 -3 -1 8 -3 -1 0 -3 -1 0 -3 1 8 -3 1 8 -3 1 0 -3 1 0 -3 -1 0 0.55 -0.8 0 0.75 -0.8 8 0.75 -1 8 0.55 1 8 0.55 0.8 8 0.75 0.8 0 0.75 1 0 0.55</float_array>
          <technique_common>
            <accessor source="#Cube_004-mesh-positions-array" count="136" stride="3">
              <param name="X" type="float"/>
              <param name="Y" type="float"/>
              <param name="Z" type="float"/>
            </accessor>
          </technique_common>
        </source>
        <source id="Cube_004-mesh-normals">
          <float_array id="Cube_004-mesh-normals-array" count="312">0 7.92715e-4 0.9999998 0 -0.003962516 0.9999923 -0.9999985 -7.05169e-6 0.001779615 0.9999977 -3.39671e-6 -0.002138316 0.9999969 1.38451e-5 0.002497017 0 -0.005544483 -0.9999846 -0.9999977 -3.39681e-6 -0.002138257 -1.60704e-7 0.003962516 -0.9999922 0.9999985 -7.05169e-6 0.001779496 0 -0.001827478 0.9999984 0 -0.007077574 0.999975 -0.9999949 -2.25554e-5 0.003186881 0.9999972 8.63283e-6 -0.002364337 0.9999988 5.27323e-6 0.001536726 0 -0.00343132 -0.9999941 -0.9999973 8.63226e-6 -0.002364218 -1.60477e-7 0.007077574 -0.999975 0.9999949 -2.25565e-5 0.003186881 0 0.002626717 0.9999966 0 -0.005483686 0.999985 -0.999997 -1.35682e-5 0.002474188 0.9999934 -1.90863e-5 -0.00364691 0.9999884 5.17116e-5 0.004824578 0 -0.01071792 -0.9999427 -0.9999934 -1.90865e-5 -0.003646731 0 0.005483686 -0.999985 0.999997 -1.35678e-5 0.002474069 0 -0.004502415 0.9999899 0 -0.02568393 0.9996702 -0.9999333 -2.96914e-4 0.01155799 0.9999543 8.53116e-5 -0.009561359 0.9999716 1.26481e-4 0.007543504 0 -0.01676738 -0.9998595 -0.9999543 8.531e-5 -0.009561181 0 0.02568399 -0.9996702 0.9999333 -2.96914e-4 0.01155781 0 1.11123e-4 1 0 -0.007146298 0.9999745 -0.9999948 -2.29948e-5 0.003217577 0.9999948 -7.17747e-7 -0.003266751 0.9999945 2.44301e-5 0.003315687 0 -0.007367789 -0.9999729 -0.9999948 -7.17747e-7 -0.003266692 0 0.007146298 -0.9999746 0.9999948 -2.29952e-5 0.003217577 0 0.001142263 0.9999994 0 -0.00374794 0.999993 -0.9999986 -6.33496e-6 0.001690268 0.9999976 -5.00674e-6 -0.002196848 0.9999964 1.63686e-5 0.002715408 0 -0.006027519 -0.9999818 -0.9999976 -5.00695e-6 -0.002196788 0 0.00374794 -0.999993 0.9999986 -6.33496e-6 0.001690149 0 0 1 0 -0.008681595 0.9999623 -0.9999924 -3.38945e-5 0.003904044 0.9999924 0 -0.003905653 0.9999924 3.38932e-5 0.003903925 0 -0.008681595 -0.9999624 -0.9999924 0 -0.003905594 0 0.008681595 -0.9999624 0.9999924 -3.38937e-5 0.003903925 -0.9995121 0 0.03123474 0 1 0 0.9995121 0 0.03123474 0 -1 0 0 0 1 0.009973287 0 0.9999504 -0.01327306 0 0.9999119 -0.009973287 0 0.9999504 0.9999841 0 0.005648195 1 0 0 -0.9999841 0 0.005648195 -1 0 0 0 0 -1 0 1 -1.59492e-6 0 1 1.99228e-6 0 1 7.94728e-7 -0.999912 1.41965e-4 0.01327288 0.01327306 0 0.9999119 0.999912 -1.41965e-4 0.01327288 0 0 -1 -0.9999924 3.38949e-5 0.003904044 0 -0.001137256 -0.9999994 -0.9999964 1.63686e-5 0.002715528 0 0.00441724 -0.9999903 -0.9999716 1.26481e-4 0.007543623 0 -1.10411e-4 -1 -0.9999945 2.4431e-5 0.003315865 0 -0.002607643 -0.9999967 -0.9999884 5.17137e-5 0.004824697 0 0.001818835 -0.9999984 -0.9999988 5.27344e-6 0.001536905 0 -7.89304e-4 -0.9999998 -0.9999969 1.38455e-5 0.002497076 0 1 -5.96046e-6 0 0.008681595 0.9999623 0 0.006027519 0.9999819 0 0.01676732 0.9998595 0 0.007367789 0.9999729 0 0.01071792 0.9999426 0 0.00343132 0.9999942 0 0.005544483 0.9999846</float_array>
          <technique_common>
            <accessor source="#Cube_004-mesh-normals-array" count="104" stride="3">
              <param name="X" type="float"/>
              <param name="Y" type="float"/>
              <param name="Z" type="float"/>
            </accessor>
          </technique_common>
        </source>
        <source id="Cube_004-mesh-map-0">
          <float_array id="Cube_004-mesh-map-0-array" count="972">0.456725 0.3007758 0.7088518 0.3007758 0.7088839 0.3083214 0.4568213 0.3234124 0.2766327 0.3234124 0.2766007 0.3158669 0.4567571 0.3083214 0.7088839 0.3083214 0.708916 0.3158669 0.7088198 0.2932303 0.7088518 0.3007758 0.456725 0.3007758 0.5676946 0.3007758 0.7088518 0.3007758 0.7088839 0.3083214 0.5677909 0.3234124 0.2766327 0.3234124 0.2766007 0.3158669 0.5677266 0.3083214 0.7088839 0.3083214 0.708916 0.3158669 0.7088198 0.2932303 0.7088518 0.3007758 0.5676946 0.3007758 0.422857 0.3007758 0.7088518 0.3007758 0.7088839 0.3083214 0.4229532 0.3234124 0.2766327 0.3234124 0.2766007 0.3158669 0.422889 0.3083214 0.7088839 0.3083214 0.708916 0.3158669 0.7088198 0.2932303 0.7088518 0.3007758 0.422857 0.3007758 0.5381162 0.3007758 0.7088518 0.3007758 0.7088839 0.3083214 0.5382124 0.3234124 0.2766327 0.3234124 0.2766007 0.3158669 0.5381482 0.3083214 0.7088839 0.3083214 0.708916 0.3158669 0.7088198 0.2932303 0.7088518 0.3007758 0.5381162 0.3007758 0.4893953 0.3007758 0.7088518 0.3007758 0.7088839 0.3083214 0.4894915 0.3234124 0.2766327 0.3234124 0.2766007 0.3158669 0.4894273 0.3083214 0.7088839 0.3083214 0.708916 0.3158669 0.7088198 0.2932303 0.7088518 0.3007758 0.4893953 0.3007758 0.4422867 0.3007758 0.7088518 0.3007758 0.7088839 0.3083214 0.4423829 0.3234124 0.2766327 0.3234124 0.2766007 0.3158669 0.4423187 0.3083214 0.7088839 0.3083214 0.708916 0.3158669 0.7088198 0.2932303 0.7088518 0.3007758 0.4422867 0.3007758 0.4926941 0.3007758 0.7088518 0.3007758 0.7088839 0.3083214 0.4927904 0.3234124 0.2766327 0.3234124 0.2766007 0.3158669 0.4927262 0.3083214 0.7088839 0.3083214 0.708916 0.3158669 0.7088198 0.2932303 0.7088518 0.3007758 0.4926941 0.3007758 1.874383 0.7530398 -1.143048 0.7530381 -1.143048 0.5018048 3.503168 -0.06887817 1.4301e-4 0.02842825 1.43037e-4 -0.3607972 2.125617 0.501805 5.143048 0.5018042 5.143048 0.7530375 3.503168 -0.06887817 1.4301e-4 0.02842825 1.43037e-4 -0.3607972 2.125617 0.7530398 1.874383 0.7530398 1.874383 0.501805 1.874383 0.7530398 -1.143048 0.7530381 -1.143048 0.5018048 3.503168 -0.06887817 1.4301e-4 0.02842825 1.43037e-4 -0.3607972 2.125617 0.501805 5.143048 0.5018042 5.143048 0.7530375 3.503168 -0.06887817 1.4301e-4 0.02842825 1.43037e-4 -0.3607972 2.125617 0.7530398 1.874383 0.7530398 1.874383 0.501805 2.5 1.045711 2.5 0.7707108 0.4999999 0.7707075 0.4999995 1.116418 0.4999995 2.066418 2.499999 2.066418 2.5 0.7 2.5 -0.25 0.5 -0.25 0.3125 2.5 0.6875 2.5 0.6875 0.5 0.3125 0.7 0.6375 0.75 0.6875 0.7 2.5 0.7707108 2.5 0.7 0.5 0.7 0.4999995 1.045707 0.4999995 1.116418 2.499999 1.116418 0.6875 0.7 0.3625 0.75 0.3125 0.7 2.5 0 2.5 -0.25 0.5 -0.25 0.625 0 0.625 -0.25 0.375 -0.25 -1.5 0 -1.5 -0.25 0.5 -0.25 0.375 0 0.375 -0.25 0.625 -0.25 0.625 2.5 0.375 2.5 0.375 0.5 0.2765045 0.2932303 0.4926621 0.2932303 0.4926941 0.3007758 0.4927262 0.3083214 0.4927583 0.3158669 0.2766007 0.3158669 0.4927904 0.3234124 0.4927583 0.3158669 0.708916 0.3158669 0.4926941 0.3007758 0.4927262 0.3083214 0.2765686 0.3083214 0.2765045 0.2932303 0.4422546 0.2932303 0.4422867 0.3007758 0.4423187 0.3083214 0.4423508 0.3158669 0.2766007 0.3158669 0.4423829 0.3234124 0.4423508 0.3158669 0.708916 0.3158669 0.4422867 0.3007758 0.4423187 0.3083214 0.2765686 0.3083214 0.2765045 0.2932303 0.5380841 0.2932303 0.5381162 0.3007758 0.5381482 0.3083214 0.5381802 0.3158669 0.2766007 0.3158669 0.5382124 0.3234124 0.5381802 0.3158669 0.708916 0.3158669 0.5381162 0.3007758 0.5381482 0.3083214 0.2765686 0.3083214 0.2765045 0.2932303 0.4893632 0.2932303 0.4893953 0.3007758 0.4894273 0.3083214 0.4894595 0.3158669 0.2766007 0.3158669 0.4894915 0.3234124 0.4894595 0.3158669 0.708916 0.3158669 0.4893953 0.3007758 0.4894273 0.3083214 0.2765686 0.3083214 0.2765045 0.2932303 0.4228249 0.2932303 0.422857 0.3007758 0.422889 0.3083214 0.4229211 0.3158669 0.2766007 0.3158669 0.4229532 0.3234124 0.4229211 0.3158669 0.708916 0.3158669 0.422857 0.3007758 0.422889 0.3083214 0.2765686 0.3083214 0.2765045 0.2932303 0.5676625 0.2932303 0.5676946 0.3007758 0.5677266 0.3083214 0.5677588 0.3158669 0.2766007 0.3158669 0.5677909 0.3234124 0.5677588 0.3158669 0.708916 0.3158669 0.5676946 0.3007758 0.5677266 0.3083214 0.2765686 0.3083214 0.2765045 0.2932303 0.4566929 0.2932303 0.456725 0.3007758 0.4567571 0.3083214 0.4567892 0.3158669 0.2766007 0.3158669 0.4568213 0.3234124 0.4567892 0.3158669 0.708916 0.3158669 0.456725 0.3007758 0.4567571 0.3083214 0.2765686 0.3083214 0.4567571 0.3083214 0.456725 0.3007758 0.7088839 0.3083214 0.4567892 0.3158669 0.4568213 0.3234124 0.2766007 0.3158669 0.4567892 0.3158669 0.4567571 0.3083214 0.708916 0.3158669 0.4566929 0.2932303 0.7088198 0.2932303 0.456725 0.3007758 0.5677266 0.3083214 0.5676946 0.3007758 0.7088839 0.3083214 0.5677588 0.3158669 0.5677909 0.3234124 0.2766007 0.3158669 0.5677588 0.3158669 0.5677266 0.3083214 0.708916 0.3158669 0.5676625 0.2932303 0.7088198 0.2932303 0.5676946 0.3007758 0.422889 0.3083214 0.422857 0.3007758 0.7088839 0.3083214 0.4229211 0.3158669 0.4229532 0.3234124 0.2766007 0.3158669 0.4229211 0.3158669 0.422889 0.3083214 0.708916 0.3158669 0.4228249 0.2932303 0.7088198 0.2932303 0.422857 0.3007758 0.5381482 0.3083214 0.5381162 0.3007758 0.7088839 0.3083214 0.5381802 0.3158669 0.5382124 0.3234124 0.2766007 0.3158669 0.5381802 0.3158669 0.5381482 0.3083214 0.708916 0.3158669 0.5380841 0.2932303 0.7088198 0.2932303 0.5381162 0.3007758 0.4894273 0.3083214 0.4893953 0.3007758 0.7088839 0.3083214 0.4894595 0.3158669 0.4894915 0.3234124 0.2766007 0.3158669 0.4894595 0.3158669 0.4894273 0.3083214 0.708916 0.3158669 0.4893632 0.2932303 0.7088198 0.2932303 0.4893953 0.3007758 0.4423187 0.3083214 0.4422867 0.3007758 0.7088839 0.3083214 0.4423508 0.3158669 0.4423829 0.3234124 0.2766007 0.3158669 0.4423508 0.3158669 0.4423187 0.3083214 0.708916 0.3158669 0.4422546 0.2932303 0.7088198 0.2932303 0.4422867 0.3007758 0.4927262 0.3083214 0.4926941 0.3007758 0.7088839 0.3083214 0.4927583 0.3158669 0.4927904 0.3234124 0.2766007 0.3158669 0.4927583 0.3158669 0.4927262 0.3083214 0.708916 0.3158669 0.4926621 0.2932303 0.7088198 0.2932303 0.4926941 0.3007758 1.874383 0.501805 1.874383 0.7530398 -1.143048 0.5018048 3.503168 -0.263491 3.503168 -0.06887817 1.43037e-4 -0.3607972 2.125617 0.7530398 2.125617 0.501805 5.143048 0.7530375 3.503168 -0.263491 3.503168 -0.06887817 1.43037e-4 -0.3607972 2.125617 0.501805 2.125617 0.7530398 1.874383 0.501805 1.874383 0.501805 1.874383 0.7530398 -1.143048 0.5018048 3.503168 -0.263491 3.503168 -0.06887817 1.43037e-4 -0.3607972 2.125617 0.7530398 2.125617 0.501805 5.143048 0.7530375 3.503168 -0.263491 3.503168 -0.06887817 1.43037e-4 -0.3607972 2.125617 0.501805 2.125617 0.7530398 1.874383 0.501805 0.4999995 1.045707 2.5 1.045711 0.4999999 0.7707075 2.499999 1.116418 0.4999995 1.116418 2.499999 2.066418 0.5 0.7 2.5 0.7 0.5 -0.25 0.3125 0.5 0.3125 2.5 0.6875 0.5 0.6875 -0.25 0.3125 -0.25 0.3125 0.7 0.3125 0.7 0.6875 0.7 0.6875 -0.25 0.3125 0.7 0.3625 0.75 0.6375 0.75 0.4999999 0.7707075 2.5 0.7707108 0.5 0.7 2.5 1.045711 0.4999995 1.045707 2.499999 1.116418 0.3125 -0.25 0.6875 -0.25 0.6875 0.7 0.6875 0.7 0.3125 0.7 0.3125 -0.25 0.6875 0.7 0.6375001 0.75 0.3625 0.75 0.5 0 2.5 0 0.5 -0.25 0.375 0 0.625 0 0.375 -0.25 0.5 0 -1.5 0 0.5 -0.25 0.625 0 0.375 0 0.625 -0.25 0.625 0.5 0.625 2.5 0.375 0.5 0.2765365 0.3007758 0.2765045 0.2932303 0.4926941 0.3007758 0.2765686 0.3083214 0.4927262 0.3083214 0.2766007 0.3158669 0.708948 0.3234124 0.4927904 0.3234124 0.708916 0.3158669 0.2765365 0.3007758 0.4926941 0.3007758 0.2765686 0.3083214 0.2765365 0.3007758 0.2765045 0.2932303 0.4422867 0.3007758 0.2765686 0.3083214 0.4423187 0.3083214 0.2766007 0.3158669 0.708948 0.3234124 0.4423829 0.3234124 0.708916 0.3158669 0.2765365 0.3007758 0.4422867 0.3007758 0.2765686 0.3083214 0.2765365 0.3007758 0.2765045 0.2932303 0.5381162 0.3007758 0.2765686 0.3083214 0.5381482 0.3083214 0.2766007 0.3158669 0.708948 0.3234124 0.5382124 0.3234124 0.708916 0.3158669 0.2765365 0.3007758 0.5381162 0.3007758 0.2765686 0.3083214 0.2765365 0.3007758 0.2765045 0.2932303 0.4893953 0.3007758 0.2765686 0.3083214 0.4894273 0.3083214 0.2766007 0.3158669 0.708948 0.3234124 0.4894915 0.3234124 0.708916 0.3158669 0.2765365 0.3007758 0.4893953 0.3007758 0.2765686 0.3083214 0.2765365 0.3007758 0.2765045 0.2932303 0.422857 0.3007758 0.2765686 0.3083214 0.422889 0.3083214 0.2766007 0.3158669 0.708948 0.3234124 0.4229532 0.3234124 0.708916 0.3158669 0.2765365 0.3007758 0.422857 0.3007758 0.2765686 0.3083214 0.2765365 0.3007758 0.2765045 0.2932303 0.5676946 0.3007758 0.2765686 0.3083214 0.5677266 0.3083214 0.2766007 0.3158669 0.708948 0.3234124 0.5677909 0.3234124 0.708916 0.3158669 0.2765365 0.3007758 0.5676946 0.3007758 0.2765686 0.3083214 0.2765365 0.3007758 0.2765045 0.2932303 0.456725 0.3007758 0.2765686 0.3083214 0.4567571 0.3083214 0.2766007 0.3158669 0.708948 0.3234124 0.4568213 0.3234124 0.708916 0.3158669 0.2765365 0.3007758 0.456725 0.3007758 0.2765686 0.3083214</float_array>
          <technique_common>
            <accessor source="#Cube_004-mesh-map-0-array" count="486" stride="2">
              <param name="S" type="float"/>
              <param name="T" type="float"/>
            </accessor>
          </technique_common>
        </source>
        <source id="Cube_004-mesh-colors-Col" name="Col">
          <float_array id="Cube_004-mesh-colors-Col-array" count="1458">1 1 1 0.8 0.8 0.8 0.8 0.8 0.8 1 1 1 0.8 0.8 0.8 0.8 0.8 0.8 1 1 1 0.8 0.8 0.8 0.8 0.8 0.8 0.8 0.8 0.8 0.8 0.8 0.8 1 1 1 1 1 1 0.8 0.8 0.8 0.8 0.8 0.8 1 1 1 0.8 0.8 0.8 0.8 0.8 0.8 1 1 1 0.8 0.8 0.8 0.8 0.8 0.8 0.8 0.8 0.8 0.8 0.8 0.8 1 1 1 1 1 1 0.8 0.8 0.8 0.8 0.8 0.8 1 1 1 0.8 0.8 0.8 0.8 0.8 0.8 1 1 1 0.8 0.8 0.8 0.8 0.8 0.8 0.8 0.8 0.8 0.8 0.8 0.8 1 1 1 1 1 1 0.8 0.8 0.8 0.8 0.8 0.8 1 1 1 0.8 0.8 0.8 0.8 0.8 0.8 1 1 1 0.8 0.8 0.8 0.8 0.8 0.8 0.8 0.8 0.8 0.8 0.8 0.8 1 1 1 1 1 1 0.8 0.8 0.8 0.8 0.8 0.8 1 1 1 0.8 0.8 0.8 0.8 0.8 0.8 1 1 1 0.8 0.8 0.8 0.8 0.8 0.8 0.8 0.8 0.8 0.8 0.8 0.8 1 1 1 1 1 1 0.8 0.8 0.8 0.8 0.8 0.8 1 1 1 0.8 0.8 0.8 0.8 0.8 0.8 1 1 1 0.8 0.8 0.8 0.8 0.8 0.8 0.8 0.8 0.8 0.8 0.8 0.8 1 1 1 1 1 1 0.8 0.8 0.8 0.8 0.8 0.8 1 1 1 0.8 0.8 0.8 0.8 0.8 0.8 1 1 1 0.8 0.8 0.8 0.8 0.8 0.8 0.8 0.8 0.8 0.8 0.8 0.8 1 1 1 1 1 1 1 1 1 1 1 1 1 1 1 1 1 1 1 1 1 1 1 1 1 1 1 1 1 1 1 1 1 1 1 1 1 1 1 1 1 1 1 1 1 1 1 1 1 1 1 1 1 1 1 1 1 1 1 1 1 1 1 1 1 1 1 1 1 1 1 1 1 1 1 1 1 1 1 1 1 1 1 1 1 1 1 1 1 1 1 1 1 1 1 1 1 1 1 1 1 1 1 1 1 1 1 1 1 1 1 1 1 1 1 1 1 1 1 1 1 1 1 1 1 1 1 1 1 1 1 1 1 1 1 1 1 1 1 1 1 1 1 1 1 1 1 1 1 1 1 1 1 1 1 1 1 1 1 1 1 1 1 1 1 1 1 1 0.5019608 0.5019608 0.5019608 0.5019608 0.5019608 0.5019608 1 1 1 0.5019608 0.5019608 0.5019608 0.5019608 0.5019608 0.5019608 1 1 1 0.5019608 0.5019608 0.5019608 0.5019608 0.5019608 0.5019608 1 1 1 0.5019608 0.5019608 0.5019608 0.5019608 0.5019608 0.5019608 1 1 1 1 1 1 1 1 1 0.8 0.8 0.8 1 1 1 1 1 1 1 1 1 1 1 1 0.8 0.8 0.8 1 1 1 1 1 1 0.8 0.8 0.8 1 1 1 1 1 1 0.8 0.8 0.8 0.8 0.8 0.8 1 1 1 1 1 1 1 1 1 1 1 1 0.8 0.8 0.8 1 1 1 1 1 1 0.8 0.8 0.8 1 1 1 1 1 1 0.8 0.8 0.8 0.8 0.8 0.8 1 1 1 1 1 1 1 1 1 1 1 1 0.8 0.8 0.8 1 1 1 1 1 1 0.8 0.8 0.8 1 1 1 1 1 1 0.8 0.8 0.8 0.8 0.8 0.8 1 1 1 1 1 1 1 1 1 1 1 1 0.8 0.8 0.8 1 1 1 1 1 1 0.8 0.8 0.8 1 1 1 1 1 1 0.8 0.8 0.8 0.8 0.8 0.8 1 1 1 1 1 1 1 1 1 1 1 1 0.8 0.8 0.8 1 1 1 1 1 1 0.8 0.8 0.8 1 1 1 1 1 1 0.8 0.8 0.8 0.8 0.8 0.8 1 1 1 1 1 1 1 1 1 1 1 1 0.8 0.8 0.8 1 1 1 1 1 1 0.8 0.8 0.8 1 1 1 1 1 1 0.8 0.8 0.8 0.8 0.8 0.8 1 1 1 1 1 1 1 1 1 1 1 1 0.8 0.8 0.8 1 1 1 1 1 1 0.8 0.8 0.8 1 1 1 1 1 1 0.8 0.8 0.8 1 1 1 1 1 1 0.8 0.8 0.8 1 1 1 1 1 1 0.8 0.8 0.8 1 1 1 1 1 1 0.8 0.8 0.8 1 1 1 0.8 0.8 0.8 1 1 1 1 1 1 1 1 1 0.8 0.8 0.8 1 1 1 1 1 1 0.8 0.8 0.8 1 1 1 1 1 1 0.8 0.8 0.8 1 1 1 0.8 0.8 0.8 1 1 1 1 1 1 1 1 1 0.8 0.8 0.8 1 1 1 1 1 1 0.8 0.8 0.8 1 1 1 1 1 1 0.8 0.8 0.8 1 1 1 0.8 0.8 0.8 1 1 1 1 1 1 1 1 1 0.8 0.8 0.8 1 1 1 1 1 1 0.8 0.8 0.8 1 1 1 1 1 1 0.8 0.8 0.8 1 1 1 0.8 0.8 0.8 1 1 1 1 1 1 1 1 1 0.8 0.8 0.8 1 1 1 1 1 1 0.8 0.8 0.8 1 1 1 1 1 1 0.8 0.8 0.8 1 1 1 0.8 0.8 0.8 1 1 1 1 1 1 1 1 1 0.8 0.8 0.8 1 1 1 1 1 1 0.8 0.8 0.8 1 1 1 1 1 1 0.8 0.8 0.8 1 1 1 0.8 0.8 0.8 1 1 1 1 1 1 1 1 1 0.8 0.8 0.8 1 1 1 1 1 1 0.8 0.8 0.8 1 1 1 1 1 1 0.8 0.8 0.8 1 1 1 0.8 0.8 0.8 1 1 1 1 1 1 1 1 1 1 1 1 1 1 1 1 1 1 1 1 1 1 1 1 1 1 1 1 1 1 1 1 1 1 1 1 1 1 1 1 1 1 1 1 1 1 1 1 1 1 1 1 1 1 1 1 1 1 1 1 1 1 1 1 1 1 1 1 1 1 1 1 1 1 1 1 1 1 1 1 1 1 1 1 1 1 1 1 1 1 1 1 1 1 1 1 1 1 1 1 1 1 1 1 1 1 1 1 1 1 1 1 1 1 1 1 1 1 1 1 1 1 1 1 1 1 1 1 1 1 1 1 1 1 1 1 1 1 1 1 1 1 1 1 1 1 1 1 1 1 1 1 1 1 1 1 1 1 1 1 1 1 1 1 1 1 1 1 1 1 1 1 1 1 1 1 1 1 1 1 1 1 1 1 1 1 1 1 1 1 1 1 1 1 1 1 1 1 1 1 1 1 1 1 1 1 1 0.5019608 0.5019608 0.5019608 1 1 1 1 1 1 0.5019608 0.5019608 0.5019608 1 1 1 1 1 1 0.5019608 0.5019608 0.5019608 1 1 1 1 1 1 0.5019608 0.5019608 0.5019608 1 1 1 1 1 1 1 1 1 0.8 0.8 0.8 0.8 0.8 0.8 1 1 1 0.8 0.8 0.8 1 1 1 0.8 0.8 0.8 0.8 0.8 0.8 1 1 1 0.8 0.8 0.8 0.8 0.8 0.8 1 1 1 0.8 0.8 0.8 0.8 0.8 0.8 0.8 0.8 0.8 1 1 1 0.8 0.8 0.8 1 1 1 0.8 0.8 0.8 0.8 0.8 0.8 1 1 1 0.8 0.8 0.8 0.8 0.8 0.8 1 1 1 0.8 0.8 0.8 0.8 0.8 0.8 0.8 0.8 0.8 1 1 1 0.8 0.8 0.8 1 1 1 0.8 0.8 0.8 0.8 0.8 0.8 1 1 1 0.8 0.8 0.8 0.8 0.8 0.8 1 1 1 0.8 0.8 0.8 0.8 0.8 0.8 0.8 0.8 0.8 1 1 1 0.8 0.8 0.8 1 1 1 0.8 0.8 0.8 0.8 0.8 0.8 1 1 1 0.8 0.8 0.8 0.8 0.8 0.8 1 1 1 0.8 0.8 0.8 0.8 0.8 0.8 0.8 0.8 0.8 1 1 1 0.8 0.8 0.8 1 1 1 0.8 0.8 0.8 0.8 0.8 0.8 1 1 1 0.8 0.8 0.8 0.8 0.8 0.8 1 1 1 0.8 0.8 0.8 0.8 0.8 0.8 0.8 0.8 0.8 1 1 1 0.8 0.8 0.8 1 1 1 0.8 0.8 0.8 0.8 0.8 0.8 1 1 1 0.8 0.8 0.8 0.8 0.8 0.8 1 1 1 0.8 0.8 0.8 0.8 0.8 0.8 0.8 0.8 0.8 1 1 1 0.8 0.8 0.8 1 1 1 0.8 0.8 0.8 0.8 0.8 0.8 1 1 1 0.8 0.8 0.8 0.8 0.8 0.8 1 1 1 0.8 0.8 0.8</float_array>
          <technique_common>
            <accessor source="#Cube_004-mesh-colors-Col-array" count="486" stride="3">
              <param name="R" type="float"/>
              <param name="G" type="float"/>
              <param name="B" type="float"/>
            </accessor>
          </technique_common>
        </source>
        <vertices id="Cube_004-mesh-vertices">
          <input semantic="POSITION" source="#Cube_004-mesh-positions"/>
        </vertices>
        <polylist material="ind_bld__2__concrete-material" count="30">
          <input semantic="VERTEX" source="#Cube_004-mesh-vertices" offset="0"/>
          <input semantic="NORMAL" source="#Cube_004-mesh-normals" offset="1"/>
          <input semantic="TEXCOORD" source="#Cube_004-mesh-map-0" offset="2" set="0"/>
          <input semantic="COLOR" source="#Cube_004-mesh-colors-Col" offset="3" set="0"/>
          <vcount>3 3 3 3 3 3 3 3 3 3 3 3 3 3 3 3 3 3 3 3 3 3 3 3 3 3 3 3 3 3 </vcount>
          <p>82 68 114 114 130 69 115 115 129 70 116 116 135 71 117 117 126 72 118 118 125 72 119 119 78 73 120 120 120 74 121 121 122 74 122 122 121 75 123 123 124 75 124 124 127 75 125 125 131 76 126 126 133 77 127 127 132 78 128 128 130 69 129 129 78 73 130 130 128 79 131 131 134 80 132 132 135 71 133 133 83 81 134 134 80 66 135 135 76 66 136 136 77 66 137 137 87 74 138 138 86 74 139 139 84 74 140 140 91 64 141 141 90 64 142 142 86 64 143 143 89 72 144 144 88 72 145 145 90 72 146 146 85 66 147 147 84 66 148 148 88 66 149 149 91 67 150 150 87 67 151 151 85 67 152 152 134 80 351 351 82 68 352 352 129 70 353 353 83 81 354 354 135 71 355 355 125 72 356 356 128 79 357 357 78 73 358 358 122 74 359 359 123 75 360 360 121 75 361 361 127 75 362 362 75 64 363 363 73 64 364 364 131 76 365 365 131 76 366 366 132 78 367 367 75 64 368 368 131 76 369 369 79 96 370 370 133 77 371 371 129 70 372 372 130 69 373 373 128 79 374 374 82 68 375 375 134 80 376 376 83 81 377 377 72 66 378 378 74 66 379 379 80 66 380 380 80 66 381 381 77 66 382 382 72 66 383 383 80 66 384 384 81 66 385 385 76 66 386 386 85 74 387 387 87 74 388 388 84 74 389 389 87 64 390 390 91 64 391 391 86 64 392 392 91 72 393 393 89 72 394 394 90 72 395 395 89 66 396 396 85 66 397 397 88 66 398 398 89 67 399 399 91 67 400 400 85 67 401 401</p>
        </polylist>
        <polylist material="eca_bld_metalbeams-material" count="20">
          <input semantic="VERTEX" source="#Cube_004-mesh-vertices" offset="0"/>
          <input semantic="NORMAL" source="#Cube_004-mesh-normals" offset="1"/>
          <input semantic="TEXCOORD" source="#Cube_004-mesh-map-0" offset="2" set="0"/>
          <input semantic="COLOR" source="#Cube_004-mesh-colors-Col" offset="3" set="0"/>
          <vcount>3 3 3 3 3 3 3 3 3 3 3 3 3 3 3 3 3 3 3 3 </vcount>
          <p>59 63 84 84 58 63 85 85 56 63 86 86 63 64 87 87 62 64 88 88 58 64 89 89 61 65 90 90 60 65 91 91 62 65 92 92 57 66 93 93 56 66 94 94 60 66 95 95 63 67 96 96 59 67 97 97 57 67 98 98 67 63 99 99 66 63 100 100 64 63 101 101 71 64 102 102 70 64 103 103 66 64 104 104 69 65 105 105 68 65 106 106 70 65 107 107 65 66 108 108 64 66 109 109 68 66 110 110 71 67 111 111 67 67 112 112 65 67 113 113 57 63 321 321 59 63 322 322 56 63 323 323 59 64 324 324 63 64 325 325 58 64 326 326 63 65 327 327 61 65 328 328 62 65 329 329 61 66 330 330 57 66 331 331 60 66 332 332 61 67 333 333 63 67 334 334 57 67 335 335 65 63 336 336 67 63 337 337 64 63 338 338 67 64 339 339 71 64 340 340 66 64 341 341 71 65 342 342 69 65 343 343 70 65 344 344 69 66 345 345 65 66 346 346 68 66 347 347 69 67 348 348 71 67 349 349 65 67 350 350</p>
        </polylist>
        <polylist material="ind_metalplates-material" count="112">
          <input semantic="VERTEX" source="#Cube_004-mesh-vertices" offset="0"/>
          <input semantic="NORMAL" source="#Cube_004-mesh-normals" offset="1"/>
          <input semantic="TEXCOORD" source="#Cube_004-mesh-map-0" offset="2" set="0"/>
          <input semantic="COLOR" source="#Cube_004-mesh-colors-Col" offset="3" set="0"/>
          <vcount>3 3 3 3 3 3 3 3 3 3 3 3 3 3 3 3 3 3 3 3 3 3 3 3 3 3 3 3 3 3 3 3 3 3 3 3 3 3 3 3 3 3 3 3 3 3 3 3 3 3 3 3 3 3 3 3 3 3 3 3 3 3 3 3 3 3 3 3 3 3 3 3 3 3 3 3 3 3 3 3 3 3 3 3 3 3 3 3 3 3 3 3 3 3 3 3 3 3 3 3 3 3 3 3 3 3 3 3 3 3 3 3 </vcount>
          <p>116 0 0 0 3 1 1 1 2 2 2 2 118 3 3 3 5 4 4 4 4 5 5 5 117 6 6 6 2 2 7 7 6 7 8 8 7 8 9 9 3 1 10 10 116 0 11 11 112 9 12 12 11 10 13 13 10 11 14 14 114 12 15 15 13 13 16 16 12 14 17 17 113 15 18 18 10 11 19 19 14 16 20 20 15 17 21 21 11 10 22 22 112 9 23 23 108 18 24 24 19 19 25 25 18 20 26 26 110 21 27 27 21 22 28 28 20 23 29 29 109 24 30 30 18 20 31 31 22 25 32 32 23 26 33 33 19 19 34 34 108 18 35 35 100 27 36 36 27 28 37 37 26 29 38 38 102 30 39 39 29 31 40 40 28 32 41 41 101 33 42 42 26 29 43 43 30 34 44 44 31 35 45 45 27 28 46 46 100 27 47 47 104 36 48 48 35 37 49 49 34 38 50 50 106 39 51 51 37 40 52 52 36 41 53 53 105 42 54 54 34 38 55 55 38 43 56 56 39 44 57 57 35 37 58 58 104 36 59 59 96 45 60 60 43 46 61 61 42 47 62 62 98 48 63 63 45 49 64 64 44 50 65 65 97 51 66 66 42 47 67 67 46 52 68 68 47 53 69 69 43 46 70 70 96 45 71 71 92 54 72 72 51 55 73 73 50 56 74 74 94 57 75 75 53 58 76 76 52 59 77 77 93 60 78 78 50 56 79 79 54 61 80 80 55 62 81 81 51 55 82 82 92 54 83 83 53 58 153 153 94 57 154 154 92 54 155 155 93 60 156 156 95 82 157 157 52 59 158 158 94 57 159 159 95 82 160 160 54 61 161 161 92 54 162 162 93 60 163 163 48 83 164 164 45 49 165 165 98 48 166 166 96 45 167 167 97 51 168 168 99 84 169 169 44 50 170 170 98 48 171 171 99 84 172 172 46 52 173 173 96 45 174 174 97 51 175 175 40 85 176 176 29 31 177 177 102 30 178 178 100 27 179 179 101 33 180 180 103 86 181 181 28 32 182 182 102 30 183 183 103 86 184 184 30 34 185 185 100 27 186 186 101 33 187 187 24 87 188 188 37 40 189 189 106 39 190 190 104 36 191 191 105 42 192 192 107 88 193 193 36 41 194 194 106 39 195 195 107 88 196 196 38 43 197 197 104 36 198 198 105 42 199 199 32 89 200 200 21 22 201 201 110 21 202 202 108 18 203 203 109 24 204 204 111 90 205 205 20 23 206 206 110 21 207 207 111 90 208 208 22 25 209 209 108 18 210 210 109 24 211 211 16 91 212 212 13 13 213 213 114 12 214 214 112 9 215 215 113 15 216 216 115 92 217 217 12 14 218 218 114 12 219 219 115 92 220 220 14 16 221 221 112 9 222 222 113 15 223 223 8 93 224 224 5 4 225 225 118 3 226 226 116 0 227 227 117 6 228 228 119 94 229 229 4 5 230 230 118 3 231 231 119 94 232 232 6 7 233 233 116 0 234 234 117 6 235 235 0 95 236 236 117 6 237 237 116 0 238 238 2 2 239 239 119 94 240 240 118 3 241 241 4 5 242 242 119 94 243 243 117 6 244 244 6 7 245 245 118 3 246 246 7 8 247 247 116 0 248 248 113 15 249 249 112 9 250 250 10 11 251 251 115 92 252 252 114 12 253 253 12 14 254 254 115 92 255 255 113 15 256 256 14 16 257 257 114 12 258 258 15 17 259 259 112 9 260 260 109 24 261 261 108 18 262 262 18 20 263 263 111 90 264 264 110 21 265 265 20 23 266 266 111 90 267 267 109 24 268 268 22 25 269 269 110 21 270 270 23 26 271 271 108 18 272 272 101 33 273 273 100 27 274 274 26 29 275 275 103 86 276 276 102 30 277 277 28 32 278 278 103 86 279 279 101 33 280 280 30 34 281 281 102 30 282 282 31 35 283 283 100 27 284 284 105 42 285 285 104 36 286 286 34 38 287 287 107 88 288 288 106 39 289 289 36 41 290 290 107 88 291 291 105 42 292 292 38 43 293 293 106 39 294 294 39 44 295 295 104 36 296 296 97 51 297 297 96 45 298 298 42 47 299 299 99 84 300 300 98 48 301 301 44 50 302 302 99 84 303 303 97 51 304 304 46 52 305 305 98 48 306 306 47 53 307 307 96 45 308 308 93 60 309 309 92 54 310 310 50 56 311 311 95 82 312 312 94 57 313 313 52 59 314 314 95 82 315 315 93 60 316 316 54 61 317 317 94 57 318 318 55 62 319 319 92 54 320 320 49 97 402 402 53 58 403 403 92 54 404 404 48 83 405 405 93 60 406 406 52 59 407 407 55 62 408 408 94 57 409 409 54 61 410 410 49 97 411 411 92 54 412 412 48 83 413 413 41 98 414 414 45 49 415 415 96 45 416 416 40 85 417 417 97 51 418 418 44 50 419 419 47 53 420 420 98 48 421 421 46 52 422 422 41 98 423 423 96 45 424 424 40 85 425 425 25 99 426 426 29 31 427 427 100 27 428 428 24 87 429 429 101 33 430 430 28 32 431 431 31 35 432 432 102 30 433 433 30 34 434 434 25 99 435 435 100 27 436 436 24 87 437 437 33 100 438 438 37 40 439 439 104 36 440 440 32 89 441 441 105 42 442 442 36 41 443 443 39 44 444 444 106 39 445 445 38 43 446 446 33 100 447 447 104 36 448 448 32 89 449 449 17 101 450 450 21 22 451 451 108 18 452 452 16 91 453 453 109 24 454 454 20 23 455 455 23 26 456 456 110 21 457 457 22 25 458 458 17 101 459 459 108 18 460 460 16 91 461 461 9 102 462 462 13 13 463 463 112 9 464 464 8 93 465 465 113 15 466 466 12 14 467 467 15 17 468 468 114 12 469 469 14 16 470 470 9 102 471 471 112 9 472 472 8 93 473 473 1 103 474 474 5 4 475 475 116 0 476 476 0 95 477 477 117 6 478 478 4 5 479 479 7 8 480 480 118 3 481 481 6 7 482 482 1 103 483 483 116 0 484 484 0 95 485 485</p>
        </polylist>
      </mesh>
    </geometry>
    <geometry id="Cube_016-mesh" name="Cube.016">
      <mesh>
        <source id="Cube_016-mesh-positions">
          <float_array id="Cube_016-mesh-positions-array" count="90">-0.25 -0.125 1.25 -0.25 0.125 1.25 0.25 -0.125 1.25 0 -0.125 5.25 0.25 0.125 1.25 0 0.125 5.25 -0.25 7.875 1.25 -0.25 8.125 1.25 0.25 7.875 1.25 0 7.875 5.25 0.25 8.125 1.25 0 8.125 5.25 -1 0 -3 -1 8 -3 1 0 -3 1 8 -3 -0.75 0 0.75 -0.75 8 0.75 0.75 0 0.75 -0.5 0 1.25 -0.5 8 1.25 0.5 0 1.25 0.75 8 0.75 0.5 8 1.25 -1 8 -3 -1 0 -3 1 8 -3 1 0 -3 -0.75 0 0.75 0.75 0 0.75</float_array>
          <technique_common>
            <accessor source="#Cube_016-mesh-positions-array" count="30" stride="3">
              <param name="X" type="float"/>
              <param name="Y" type="float"/>
              <param name="Z" type="float"/>
            </accessor>
          </technique_common>
        </source>
        <source id="Cube_016-mesh-normals">
          <float_array id="Cube_016-mesh-normals-array" count="42">0.9980526 0 0.06237828 0.5257312 0 0.8506509 -0.525731 0 0.8506509 -0.5257312 0 0.8506509 -0.9826545 -0.1274169 0.1347406 -0.9165402 0.1260964 0.3795443 -0.9977852 0 0.06651902 0 -1 0 -0.9980526 0 0.06237828 0 1 0 0.525731 0 0.8506509 0.9826545 0.1274169 0.1347406 0.9165402 -0.1260964 0.3795443 0.9977852 0 0.06651902</float_array>
          <technique_common>
            <accessor source="#Cube_016-mesh-normals-array" count="14" stride="3">
              <param name="X" type="float"/>
              <param name="Y" type="float"/>
              <param name="Z" type="float"/>
            </accessor>
          </technique_common>
        </source>
        <source id="Cube_016-mesh-map-0">
          <float_array id="Cube_016-mesh-map-0-array" count="180">2.125617 0.501805 5.143048 0.5018042 5.143048 0.7530375 2.125617 0.501805 5.143048 0.5018042 5.143048 0.7530375 0.625 2.5 0.375 2.5 0.375 0.5 2.5 0 2.5 -0.25 0.5 -0.25 2.5 0.7707108 2.5 -0.25 0.5 -0.25 0.3625 0.75 0.3125 -0.25 0.6875 -0.25 1.874383 0.7530398 -1.143048 0.7530381 -1.143048 0.5018048 3.503168 -0.06887817 1.4301e-4 0.02842825 1.43037e-4 -0.3607972 3.503168 -0.06887817 1.4301e-4 0.02842825 1.43037e-4 -0.3607972 1.874383 0.7530398 -1.143048 0.7530381 -1.143048 0.5018048 3.503168 -0.06887817 1.4301e-4 0.02842825 1.43037e-4 -0.3607972 3.503168 -0.06887817 1.4301e-4 0.02842825 1.43037e-4 -0.3607972 0.625 0 0.625 -0.25 0.375 -0.25 -1.5 0 -1.5 -0.25 0.5 -0.25 0.375 0 0.375 -0.25 0.625 -0.25 0.4999995 1.045707 0.4999995 2.066418 2.499999 2.066418 0.6375 0.75 0.6875 -0.25 0.3125 -0.25 2.125617 0.7530398 2.125617 0.501805 5.143048 0.7530375 2.125617 0.7530398 2.125617 0.501805 5.143048 0.7530375 0.625 0.5 0.625 2.5 0.375 0.5 0.5 0 2.5 0 0.5 -0.25 0.4999999 0.7707075 2.5 0.7707108 0.5 -0.25 0.6375001 0.75 0.3625 0.75 0.6875 -0.25 1.874383 0.501805 1.874383 0.7530398 -1.143048 0.5018048 1.874383 0.501805 1.874383 0.7530398 -1.143048 0.5018048 0.375 0 0.625 0 0.375 -0.25 0.5 0 -1.5 0 0.5 -0.25 0.625 0 0.375 0 0.625 -0.25 2.5 1.045711 0.4999995 1.045707 2.499999 2.066418 0.3625 0.75 0.6375 0.75 0.3125 -0.25</float_array>
          <technique_common>
            <accessor source="#Cube_016-mesh-map-0-array" count="90" stride="2">
              <param name="S" type="float"/>
              <param name="T" type="float"/>
            </accessor>
          </technique_common>
        </source>
        <source id="Cube_016-mesh-colors-Col" name="Col">
          <float_array id="Cube_016-mesh-colors-Col-array" count="270">1 1 1 1 1 1 1 1 1 1 1 1 1 1 1 1 1 1 1 1 1 1 1 1 1 1 1 1 1 1 0.5019608 0.5019608 0.5019608 0.5019608 0.5019608 0.5019608 1 1 1 1 1 1 1 1 1 1 1 1 1 1 1 1 1 1 1 1 1 1 1 1 1 1 1 1 1 1 1 1 1 1 1 1 1 1 1 1 1 1 1 1 1 1 1 1 1 1 1 1 1 1 1 1 1 1 1 1 1 1 1 1 1 1 1 1 1 1 1 1 1 1 1 0.5019608 0.5019608 0.5019608 0.5019608 0.5019608 0.5019608 1 1 1 0.5019608 0.5019608 0.5019608 0.5019608 0.5019608 0.5019608 1 1 1 0.5019608 0.5019608 0.5019608 0.5019608 0.5019608 0.5019608 1 1 1 1 1 1 1 1 1 1 1 1 1 1 1 1 1 1 1 1 1 1 1 1 1 1 1 1 1 1 1 1 1 1 1 1 1 1 1 1 1 1 1 1 1 1 1 1 1 1 1 0.5019608 0.5019608 0.5019608 1 1 1 1 1 1 1 1 1 1 1 1 1 1 1 1 1 1 1 1 1 1 1 1 1 1 1 1 1 1 1 1 1 1 1 1 1 1 1 1 1 1 0.5019608 0.5019608 0.5019608 1 1 1 1 1 1 0.5019608 0.5019608 0.5019608 1 1 1 1 1 1 0.5019608 0.5019608 0.5019608 1 1 1 1 1 1 1 1 1 1 1 1 1 1 1 1 1 1</float_array>
          <technique_common>
            <accessor source="#Cube_016-mesh-colors-Col-array" count="90" stride="3">
              <param name="R" type="float"/>
              <param name="G" type="float"/>
              <param name="B" type="float"/>
            </accessor>
          </technique_common>
        </source>
        <vertices id="Cube_016-mesh-vertices">
          <input semantic="POSITION" source="#Cube_016-mesh-positions"/>
        </vertices>
        <polylist material="ind_bld__2__concrete-material" count="18">
          <input semantic="VERTEX" source="#Cube_016-mesh-vertices" offset="0"/>
          <input semantic="NORMAL" source="#Cube_016-mesh-normals" offset="1"/>
          <input semantic="TEXCOORD" source="#Cube_016-mesh-map-0" offset="2" set="0"/>
          <input semantic="COLOR" source="#Cube_016-mesh-colors-Col" offset="3" set="0"/>
          <vcount>3 3 3 3 3 3 3 3 3 3 3 3 3 3 3 3 3 3 </vcount>
          <p>23 1 6 6 20 2 7 7 19 3 8 8 20 2 9 9 17 4 10 10 28 5 11 11 17 4 12 12 24 6 13 13 25 6 14 14 16 7 15 15 12 7 16 16 14 7 17 17 23 9 36 36 22 9 37 37 17 9 38 38 21 10 39 39 18 11 40 40 22 12 41 41 19 7 42 42 28 7 43 43 18 7 44 44 18 11 45 45 27 13 46 46 15 13 47 47 22 9 48 48 26 9 49 49 13 9 50 50 21 10 57 57 23 1 58 58 19 3 59 59 19 3 60 60 20 2 61 61 28 5 62 62 28 5 63 63 17 4 64 64 25 6 65 65 29 7 66 66 16 7 67 67 14 7 68 68 20 9 75 75 23 9 76 76 17 9 77 77 23 1 78 78 21 10 79 79 22 12 80 80 21 7 81 81 19 7 82 82 18 7 83 83 22 12 84 84 18 11 85 85 15 13 86 86 17 9 87 87 22 9 88 88 13 9 89 89</p>
        </polylist>
        <polylist material="eca_bld_metalbeams-material" count="12">
          <input semantic="VERTEX" source="#Cube_016-mesh-vertices" offset="0"/>
          <input semantic="NORMAL" source="#Cube_016-mesh-normals" offset="1"/>
          <input semantic="TEXCOORD" source="#Cube_016-mesh-map-0" offset="2" set="0"/>
          <input semantic="COLOR" source="#Cube_016-mesh-colors-Col" offset="3" set="0"/>
          <vcount>3 3 3 3 3 3 3 3 3 3 3 3 </vcount>
          <p>3 0 0 0 2 0 1 1 4 0 2 2 9 0 3 3 8 0 4 4 10 0 5 5 5 8 18 18 1 8 19 19 0 8 20 20 5 9 21 21 4 9 22 22 1 9 23 23 3 7 24 24 0 7 25 25 2 7 26 26 11 8 27 27 7 8 28 28 6 8 29 29 11 9 30 30 10 9 31 31 7 9 32 32 9 7 33 33 6 7 34 34 8 7 35 35 5 0 51 51 3 0 52 52 4 0 53 53 11 0 54 54 9 0 55 55 10 0 56 56 3 8 69 69 5 8 70 70 0 8 71 71 9 8 72 72 11 8 73 73 6 8 74 74</p>
        </polylist>
      </mesh>
    </geometry>
    <geometry id="Cube-mesh" name="Cube">
      <mesh>
        <source id="Cube-mesh-positions">
          <float_array id="Cube-mesh-positions-array" count="36">-1 0 -3 -1 0 0.75 -1 8 -3 -1 8 0.75 1 0 -3 1 0 0.75 1 8 -3 1 8 0.75 -0.1499999 0 5.25 -0.1499999 8 5.25 0.1499999 8 5.25 0.1499999 0 5.25</float_array>
          <technique_common>
            <accessor source="#Cube-mesh-positions-array" count="12" stride="3">
              <param name="X" type="float"/>
              <param name="Y" type="float"/>
              <param name="Z" type="float"/>
            </accessor>
          </technique_common>
        </source>
        <source id="Cube-mesh-normals">
          <float_array id="Cube-mesh-normals-array" count="21">-1 0 0 0 1 0 1 0 0 0 -1 0 -0.9826241 0 0.1856067 0 0 1 0.9826241 0 0.1856067</float_array>
          <technique_common>
            <accessor source="#Cube-mesh-normals-array" count="7" stride="3">
              <param name="X" type="float"/>
              <param name="Y" type="float"/>
              <param name="Z" type="float"/>
            </accessor>
          </technique_common>
        </source>
        <vertices id="Cube-mesh-vertices">
          <input semantic="POSITION" source="#Cube-mesh-positions"/>
        </vertices>
        <polylist count="18">
          <input semantic="VERTEX" source="#Cube-mesh-vertices" offset="0"/>
          <input semantic="NORMAL" source="#Cube-mesh-normals" offset="1"/>
          <vcount>3 3 3 3 3 3 3 3 3 3 3 3 3 3 3 3 3 3 </vcount>
          <p>3 0 2 0 0 0 7 1 6 1 2 1 5 2 4 2 6 2 1 3 0 3 4 3 1 4 8 4 9 4 10 5 9 5 8 5 5 3 11 3 8 3 3 1 9 1 10 1 7 6 10 6 11 6 1 0 3 0 0 0 3 1 7 1 2 1 7 2 5 2 6 2 5 3 1 3 4 3 3 4 1 4 9 4 11 5 10 5 8 5 1 3 5 3 8 3 7 1 3 1 10 1 5 6 7 6 11 6</p>
        </polylist>
      </mesh>
    </geometry>
  </library_geometries>
  <library_controllers/>
  <library_visual_scenes>
    <visual_scene id="Scene" name="Scene">
      <node id="base00" name="base00" type="NODE">
        <matrix sid="transform">1 0 0 0 0 1 0 0 0 0 1 0 0 0 0 1</matrix>
        <node id="start01" name="start01" type="NODE">
          <matrix sid="transform">1 0 0 0 0 1 0 0 0 0 1 0 0 0 0 1</matrix>
          <node id="heavyFence_a90" name="heavyFence_a90" type="NODE">
            <matrix sid="transform">1 0 0 0 0 1 0 0 0 0 1 0 0 0 0 1</matrix>
            <instance_geometry url="#Cube_004-mesh" name="heavyFence_a90">
              <bind_material>
                <technique_common>
                  <instance_material symbol="ind_bld__2__concrete-material" target="#ind_bld__2__concrete-material"/>
                  <instance_material symbol="ind_concreteleak-material" target="#ind_concreteleak-material"/>
                  <instance_material symbol="eca_bld_metalbeams-material" target="#eca_bld_metalbeams-material"/>
                  <instance_material symbol="ind_metalplates-material" target="#ind_metalplates-material"/>
                </technique_common>
              </bind_material>
            </instance_geometry>
          </node>
          <node id="heavyFence_a10" name="heavyFence_a10" type="NODE">
            <matrix sid="transform">1 0 0 0 0 1 0 0 0 0 1 0 0 0 0 1</matrix>
            <instance_geometry url="#Cube_016-mesh" name="heavyFence_a10">
              <bind_material>
                <technique_common>
                  <instance_material symbol="ind_bld__2__concrete-material" target="#ind_bld__2__concrete-material"/>
                  <instance_material symbol="ind_concreteleak-material" target="#ind_concreteleak-material"/>
                  <instance_material symbol="eca_bld_metalbeams-material" target="#eca_bld_metalbeams-material"/>
                  <instance_material symbol="ind_metalplates-material" target="#ind_metalplates-material"/>
                </technique_common>
              </bind_material>
            </instance_geometry>
          </node>
          <node id="Colmesh-1" name="Colmesh-1" type="NODE">
            <matrix sid="transform">1 0 0 0 0 1 0 0 0 0 1 0 0 0 0 1</matrix>
            <instance_geometry url="#Cube-mesh" name="Colmesh-1"/>
          </node>
        </node>
      </node>
    </visual_scene>
  </library_visual_scenes>
  <scene>
    <instance_visual_scene url="#Scene"/>
  </scene>
</COLLADA>