<?xml version="1.0" encoding="utf-8"?>
<COLLADA xmlns="http://www.collada.org/2005/11/COLLADASchema" version="1.4.1">
  <asset>
    <contributor>
      <author>Blender User</author>
      <authoring_tool>Blender 2.70.0 commit date:2014-04-10, commit time:11:49, hash:f93bc76</authoring_tool>
    </contributor>
    <created>2015-03-31T13:19:59</created>
    <modified>2015-03-31T13:19:59</modified>
    <unit name="meter" meter="1"/>
    <up_axis>Z_UP</up_axis>
  </asset>
  <library_images/>
  <library_effects>
    <effect id="ind_concrete_02-effect">
      <profile_COMMON>
        <technique sid="common">
          <lambert>
            <emission>
              <color sid="emission">0 0 0 1</color>
            </emission>
            <ambient>
              <color sid="ambient">0 0 0 1</color>
            </ambient>
            <diffuse>
              <color sid="diffuse">0.64 0.64 0.64 1</color>
            </diffuse>
            <index_of_refraction>
              <float sid="index_of_refraction">1</float>
            </index_of_refraction>
          </lambert>
        </technique>
      </profile_COMMON>
    </effect>
    <effect id="asphaltroad_lanes_narrow_nolines_mesh-effect">
      <profile_COMMON>
        <technique sid="common">
          <lambert>
            <emission>
              <color sid="emission">0 0 0 1</color>
            </emission>
            <ambient>
              <color sid="ambient">0 0 0 1</color>
            </ambient>
            <diffuse>
              <color sid="diffuse">0.64 0.64 0.64 1</color>
            </diffuse>
            <index_of_refraction>
              <float sid="index_of_refraction">1</float>
            </index_of_refraction>
          </lambert>
        </technique>
      </profile_COMMON>
    </effect>
  </library_effects>
  <library_materials>
    <material id="ind_concrete_02-material" name="ind_concrete_02">
      <instance_effect url="#ind_concrete_02-effect"/>
    </material>
    <material id="asphaltroad_lanes_narrow_nolines_mesh-material" name="asphaltroad_lanes_narrow_nolines_mesh">
      <instance_effect url="#asphaltroad_lanes_narrow_nolines_mesh-effect"/>
    </material>
  </library_materials>
  <library_geometries>
    <geometry id="Cube_015-mesh" name="Cube.015">
      <mesh>
        <source id="Cube_015-mesh-positions">
          <float_array id="Cube_015-mesh-positions-array" count="1008">-0.5 -2.5 0.05057495 -0.5 2.5 0.05057495 0.5 2.5 0.05057495 0.5 -2.5 0.05057495 -0.5 -2.816173 5.01424e-6 -0.5 2.816173 5.01424e-6 0.5 2.816173 5.01424e-6 0.5 -2.816173 5.01424e-6 -0.4333333 2.5 0.03182494 0.4333333 2.5 0.03182494 0.4333333 -2.5 0.03182494 -0.4333333 -2.5 0.03182494 -0.4333333 2.816173 5.01424e-6 0.4333333 2.816173 5.01424e-6 0.4333333 -2.816173 5.01424e-6 -0.4333333 -2.816173 5.01424e-6 0.4333333 2.531617 0.02864295 0.5 -2.531617 0.02864295 -0.5 -2.531617 0.02864295 -0.4333333 2.531617 0.02864295 0.4333333 -2.531617 0.02864295 0.5 2.531617 0.02864295 -0.5 2.531617 0.02864295 -0.4333333 -2.531617 0.02864295 -0.5 -2.5 0.01333874 -0.5 2.5 0.01333874 0.5 2.5 0.01333874 0.5 -2.5 0.01333874 -0.5 -2.816173 -0.02473121 -0.5 2.816173 -0.02473121 0.5 2.816173 -0.02473121 0.5 -2.816173 -0.02473121 0.5 -2.531617 0.003906726 -0.5 -2.531617 0.003906726 0.5 2.531617 0.003906726 -0.5 2.531617 0.003906726 -0.02499938 -2.538164 0.01249998 -0.02499938 2.538164 0.01249998 0.02500033 2.538164 0.01249998 0.02500033 -2.538164 0.01249998 -0.02499938 -2.538164 -0.02321922 -0.02321863 -2.538164 -0.02499997 -0.02321863 2.538164 -0.02499997 -0.02499938 2.538164 -0.02321922 0.02500033 2.538164 -0.02321922 0.02321958 2.538164 -0.02499997 0.02321958 -2.538164 -0.02499997 0.02500033 -2.538164 -0.02321922 -0.5125 -2.5 -0.01817518 -0.4625 -2.5 -0.01817518 -0.5075 -2.5 0.09432476 -0.5125 -2.5 0.08932477 -0.4625 -2.5 0.08932477 -0.4675 -2.5 0.09432476 -0.5158758 -2.504351 -0.01817518 -0.4805205 -2.539706 -0.01817518 -0.5123404 -2.507886 0.09432476 -0.5158758 -2.504351 0.08932477 -0.4805205 -2.539706 0.08932477 -0.484056 -2.53617 0.09432476 -0.6042645 -2.592739 -0.01817512 -0.5689092 -2.628094 -0.01817512 -0.6007291 -2.596274 0.09432482 -0.6042645 -2.592739 0.08932483 -0.5689092 -2.628094 0.08932483 -0.5724447 -2.624558 0.09432482 0.5125 -2.5 -0.01817524 0.4625 -2.5 -0.01817524 0.5075 -2.5 0.0943247 0.5125 -2.5 0.08932471 0.4625 -2.5 0.08932471 0.4675 -2.5 0.0943247 0.5158758 -2.504351 -0.01817524 0.4805205 -2.539706 -0.01817524 0.5123404 -2.507886 0.0943247 0.5158758 -2.504351 0.08932471 0.4805205 -2.539706 0.08932471 0.484056 -2.53617 0.0943247 0.6042645 -2.592739 -0.01817512 0.5689092 -2.628094 -0.01817512 0.6007291 -2.596274 0.09432482 0.6042645 -2.592739 0.08932483 0.5689092 -2.628094 0.08932483 0.5724447 -2.624558 0.09432482 -0.5125 2.5 -0.01817518 -0.4625 2.5 -0.01817518 -0.5075 2.5 0.09432476 -0.5125 2.5 0.08932477 -0.4625 2.5 0.08932477 -0.4675 2.5 0.09432476 -0.5125 0 -0.01817518 -0.4625 0 -0.01817518 -0.5075 0 0.09432476 -0.5125 0 0.08932477 -0.4625 0 0.08932477 -0.4675 0 0.09432476 -0.5158758 2.504351 -0.01817518 -0.4805205 2.539706 -0.01817518 -0.5123404 2.507886 0.09432476 -0.5158758 2.504351 0.08932477 -0.4805205 2.539706 0.08932477 -0.484056 2.53617 0.09432476 -0.6042645 2.592739 -0.01817512 -0.5689092 2.628094 -0.01817512 -0.6007291 2.596274 0.09432482 -0.6042645 2.592739 0.08932483 -0.5689092 2.628094 0.08932483 -0.5724447 2.624558 0.09432482 0.5125 2.5 -0.01817524 0.4625 2.5 -0.01817524 0.5075 2.5 0.0943247 0.5125 2.5 0.08932471 0.4625 2.5 0.08932471 0.4675 2.5 0.0943247 0.5125 0 -0.01817524 0.4625 0 -0.01817524 0.5075 0 0.0943247 0.5125 0 0.08932471 0.4625 0 0.08932471 0.4675 0 0.0943247 0.5158758 2.504351 -0.01817524 0.4805205 2.539706 -0.01817524 0.5123404 2.507886 0.0943247 0.5158758 2.504351 0.08932471 0.4805205 2.539706 0.08932471 0.484056 2.53617 0.0943247 0.6042645 2.592739 -0.01817512 0.5689092 2.628094 -0.01817512 0.6007291 2.596274 0.09432482 0.6042645 2.592739 0.08932483 0.5689092 2.628094 0.08932483 0.5724447 2.624558 0.09432482 -0.02499961 1.470192 -0.02500021 -0.02499961 1.529808 -0.02500021 -0.4624996 1.529808 -0.01817518 -0.4624996 1.470192 -0.01817518 -0.06786632 1.470192 -0.009581148 -0.02499961 1.470192 -0.009581148 -0.02499961 1.529808 -0.009581148 -0.06786632 1.529808 -0.009581148 -0.5124998 1.529808 -0.01817518 -0.5124998 1.470192 -0.01817518 -0.06807047 1.469988 -0.09293341 -0.06807047 1.471825 -0.09477877 -0.06623303 1.469988 -0.09477877 -0.06807047 1.528175 -0.09477877 -0.06807047 1.530012 -0.09293341 -0.06623303 1.530012 -0.09477877 -0.4624996 1.528583 -0.0578925 -0.4624999 1.529808 -0.05666226 -0.4624996 1.529808 -0.05666226 -0.4624999 1.470192 -0.05666226 -0.4624996 1.471417 -0.0578925 -0.4624996 1.470192 -0.05666226 -0.5260319 1.528583 -0.05079835 -0.5275139 1.528583 -0.04946637 -0.5266281 1.529808 -0.04929411 -0.5266281 1.470192 -0.04929411 -0.5275139 1.471417 -0.04946637 -0.5260319 1.471417 -0.05079835 -0.5124998 1.529808 0.001065015 -0.5137248 1.528583 0.002063989 -0.5124998 1.470192 0.001065015 -0.5137248 1.471417 0.002063989 -0.06602889 1.46958 -1.941375 -0.06847882 1.472029 -1.941375 -0.06847882 1.527971 -1.941375 -0.06602889 1.53042 -1.941375 -0.5268515 1.471417 0.002063989 -0.5288435 1.471417 0.001108825 -0.5273076 1.470192 0.001065015 -0.5363072 1.471417 -0.009711623 -0.535508 1.470192 -0.009147405 -0.5358048 1.471417 -0.007560431 -0.5358048 1.528583 -0.007560431 -0.535508 1.529808 -0.009147405 -0.5363072 1.528583 -0.009711623 -0.5273076 1.529808 0.001065015 -0.5288435 1.528583 0.001108825 -0.5268515 1.528583 0.002063989 0 1.470192 -0.09457373 0 1.529808 -0.09457373 0.02499961 1.470192 -0.02500021 0.02499961 1.529808 -0.02500021 0 1.529808 -0.02500021 0.4624996 1.529808 -0.01817524 0 1.470192 -0.02500021 0.4624996 1.470192 -0.01817524 0.06786632 1.470192 -0.009581148 0.02499961 1.470192 -0.009581148 0.02499961 1.529808 -0.009581148 0.06786632 1.529808 -0.009581148 0.5124998 1.529808 -0.01817524 0.5124998 1.470192 -0.01817524 0 1.470192 -1.941375 0 1.529808 -1.941375 0.06807047 1.469988 -0.09293341 0.06807047 1.471825 -0.09477877 0.06623303 1.469988 -0.09477877 0.06807047 1.528175 -0.09477877 0.06807047 1.530012 -0.09293341 0.06623303 1.530012 -0.09477877 0.4624996 1.528583 -0.05789256 0.4624999 1.529808 -0.05666232 0.4624996 1.529808 -0.05666232 0.4624999 1.470192 -0.05666232 0.4624996 1.471417 -0.05789256 0.4624996 1.470192 -0.05666232 0.5260319 1.528583 -0.05079841 0.5275139 1.528583 -0.04946637 0.5266281 1.529808 -0.04929411 0.5266281 1.470192 -0.04929411 0.5275139 1.471417 -0.04946643 0.5260319 1.471417 -0.05079841 0.5124998 1.529808 0.001065015 0.5137248 1.528583 0.002063989 0.5124998 1.470192 0.001065015 0.5137248 1.471417 0.002063989 0.06602889 1.46958 -1.941375 0.06847882 1.472029 -1.941375 0.06847882 1.527971 -1.941375 0.06602889 1.53042 -1.941375 0.5268515 1.471417 0.002063989 0.5288435 1.471417 0.001108825 0.5273076 1.470192 0.001065015 0.5363072 1.471417 -0.009711682 0.535508 1.470192 -0.009147405 0.5358048 1.471417 -0.007560431 0.5358048 1.528583 -0.007560431 0.535508 1.529808 -0.009147405 0.5363072 1.528583 -0.009711682 0.5273076 1.529808 0.001065015 0.5288435 1.528583 0.001108825 0.5268515 1.528583 0.002063989 -0.02499961 -0.904808 -0.02500021 -0.02499961 -0.845192 -0.02500021 -0.4624996 -0.845192 -0.01817518 -0.4624996 -0.904808 -0.01817518 -0.06786632 -0.904808 -0.009581148 -0.02499961 -0.904808 -0.009581148 -0.02499961 -0.845192 -0.009581148 -0.06786632 -0.845192 -0.009581148 -0.5124998 -0.845192 -0.01817518 -0.5124998 -0.904808 -0.01817518 -0.06807047 -0.9050121 -0.09293341 -0.06807047 -0.9031747 -0.09477877 -0.06623303 -0.9050121 -0.09477877 -0.06807047 -0.8468253 -0.09477877 -0.06807047 -0.8449879 -0.09293341 -0.06623303 -0.8449879 -0.09477877 -0.4624996 -0.846417 -0.0578925 -0.4624999 -0.845192 -0.05666226 -0.4624996 -0.845192 -0.05666226 -0.4624999 -0.904808 -0.05666226 -0.4624996 -0.9035831 -0.0578925 -0.4624996 -0.904808 -0.05666226 -0.5260319 -0.846417 -0.05079835 -0.5275139 -0.846417 -0.04946637 -0.5266281 -0.845192 -0.04929411 -0.5266281 -0.904808 -0.04929411 -0.5275139 -0.9035831 -0.04946637 -0.5260319 -0.9035831 -0.05079835 -0.5124998 -0.845192 0.001065015 -0.5137248 -0.846417 0.002063989 -0.5124998 -0.904808 0.001065015 -0.5137248 -0.9035831 0.002063989 -0.06602889 -0.9054205 -1.941375 -0.06847882 -0.9029706 -1.941375 -0.06847882 -0.8470295 -1.941375 -0.06602889 -0.8445795 -1.941375 -0.5268515 -0.9035831 0.002063989 -0.5288435 -0.9035831 0.001108825 -0.5273076 -0.904808 0.001065015 -0.5363072 -0.9035831 -0.009711623 -0.535508 -0.904808 -0.009147405 -0.5358048 -0.9035831 -0.007560431 -0.5358048 -0.846417 -0.007560431 -0.535508 -0.845192 -0.009147405 -0.5363072 -0.846417 -0.009711623 -0.5273076 -0.845192 0.001065015 -0.5288435 -0.846417 0.001108825 -0.5268515 -0.846417 0.002063989 0 -0.904808 -0.09457373 0 -0.845192 -0.09457373 0.02499961 -0.904808 -0.02500021 0.02499961 -0.845192 -0.02500021 0 -0.845192 -0.02500021 0.4624996 -0.845192 -0.01817524 0 -0.904808 -0.02500021 0.4624996 -0.904808 -0.01817524 0.06786632 -0.904808 -0.009581148 0.02499961 -0.904808 -0.009581148 0.02499961 -0.845192 -0.009581148 0.06786632 -0.845192 -0.009581148 0.5124998 -0.845192 -0.01817524 0.5124998 -0.904808 -0.01817524 0 -0.904808 -1.941375 0 -0.845192 -1.941375 0.06807047 -0.9050121 -0.09293341 0.06807047 -0.9031747 -0.09477877 0.06623303 -0.9050121 -0.09477877 0.06807047 -0.8468253 -0.09477877 0.06807047 -0.8449879 -0.09293341 0.06623303 -0.8449879 -0.09477877 0.4624996 -0.846417 -0.05789256 0.4624999 -0.845192 -0.05666232 0.4624996 -0.845192 -0.05666232 0.4624999 -0.904808 -0.05666232 0.4624996 -0.9035831 -0.05789256 0.4624996 -0.904808 -0.05666232 0.5260319 -0.846417 -0.05079841 0.5275139 -0.846417 -0.04946637 0.5266281 -0.845192 -0.04929411 0.5266281 -0.904808 -0.04929411 0.5275139 -0.9035831 -0.04946643 0.5260319 -0.9035831 -0.05079841 0.5124998 -0.845192 0.001065015 0.5137248 -0.846417 0.002063989 0.5124998 -0.904808 0.001065015 0.5137248 -0.9035831 0.002063989 0.06602889 -0.9054205 -1.941375 0.06847882 -0.9029706 -1.941375 0.06847882 -0.8470295 -1.941375 0.06602889 -0.8445795 -1.941375 0.5268515 -0.9035831 0.002063989 0.5288435 -0.9035831 0.001108825 0.5273076 -0.904808 0.001065015 0.5363072 -0.9035831 -0.009711682 0.535508 -0.904808 -0.009147405 0.5358048 -0.9035831 -0.007560431 0.5358048 -0.846417 -0.007560431 0.535508 -0.845192 -0.009147405 0.5363072 -0.846417 -0.009711682 0.5273076 -0.845192 0.001065015 0.5288435 -0.846417 0.001108825 0.5268515 -0.846417 0.002063989</float_array>
          <technique_common>
            <accessor source="#Cube_015-mesh-positions-array" count="336" stride="3">
              <param name="X" type="float"/>
              <param name="Y" type="float"/>
              <param name="Z" type="float"/>
            </accessor>
          </technique_common>
        </source>
        <source id="Cube_015-mesh-normals">
          <float_array id="Cube_015-mesh-normals-array" count="1842">0.2707456 0 0.962651 -0.2707456 0 0.962651 0 0 1 -0.2251597 0.5553328 0.8005677 0 0.1001356 0.9949738 0.2251597 -0.5553328 0.8005677 0 0.1001356 0.9949739 0 -0.1001353 0.9949739 0 -0.1001356 0.9949738 0 0.1001353 0.9949739 0 0.1001356 0.9949738 0 -0.1001353 0.9949739 0 -0.1001356 0.9949739 0 0.1001353 0.9949739 0 -0.1001353 0.9949739 0 0.1001353 0.9949739 0.2251597 0.5553328 0.8005677 0 -0.1001356 0.9949738 -0.2251597 -0.5553328 0.8005677 1 0 0 -1 0 0 1 0 0 -1 0 0 1 0 0 -1 0 0 -1 0 0 1 0 0 1 0 0 -1 0 0 0 -1 0 0 -1 0 0 -1 0 0 1 0 0 1 0 0 1 0 0 0 -1 0 0 -1 1 0 0 -0.7071068 0 -0.7071068 0.7071068 0 -0.7071068 -1 0 0 0.9106061 -0.4132755 0 0 0 1 1 0 0 0 0 -1 -0.7071073 0 0.7071062 0.7071073 0 0.7071062 -1 0 0 0.7071038 -0.7071098 0 0 0 1 -0.7900575 0.6130327 0 0.6634286 -0.3036664 0.6838487 -0.5608529 0.435185 0.7043139 0 0 -1 4.21467e-7 4.21471e-7 1 4.21467e-7 4.2147e-7 1 -0.707104 0.7071096 0 0.4999917 -0.4999953 0.7071161 -0.4999932 0.4999979 0.707113 -4.32007e-7 -4.32004e-7 -1 -0.9106061 -0.4132755 0 0 0 1 -1 0 0 0 0 -1 0.7071073 0 0.7071062 -0.7071073 0 0.7071062 1 0 0 -0.7071038 -0.7071098 0 0 0 1 0.7900575 0.6130327 0 -0.6634286 -0.3036664 0.6838487 0.5608529 0.435185 0.7043139 0 0 -1 -4.21467e-7 4.21471e-7 1 -4.21467e-7 4.2147e-7 1 0.707104 0.7071096 0 -0.4999917 -0.4999953 0.7071161 0.4999932 0.4999979 0.707113 4.10934e-7 -4.1093e-7 -1 0.9106061 0.4132755 0 0 0 1 1 0 0 0 0 -1 -0.7071073 0 0.7071062 0.7071073 0 0.7071062 -1 0 0 0.7071038 0.7071098 0 0 0 1 -0.7900575 -0.6130327 0 0.6634286 0.3036664 0.6838487 -0.5608529 -0.435185 0.7043139 0 0 -1 4.21467e-7 -4.21471e-7 1 4.21467e-7 -4.2147e-7 1 -0.7071039 -0.7071096 0 0.4999917 0.4999953 0.7071161 -0.4999932 -0.4999979 0.707113 -4.32007e-7 4.32003e-7 -1 -0.9106061 0.4132755 0 0 0 1 -1 0 0 0 0 -1 0.7071073 0 0.7071062 -0.7071073 0 0.7071062 1 0 0 -0.7071038 0.7071098 0 0 0 1 0.7900575 -0.6130327 0 -0.6634286 0.3036664 0.6838487 0.5608529 -0.435185 0.7043139 0 0 -1 -4.21467e-7 -4.21471e-7 1 -4.21467e-7 -4.2147e-7 1 0.707104 -0.7071096 0 -0.4999917 0.4999953 0.7071161 0.4999932 -0.4999979 0.707113 4.10933e-7 4.1093e-7 -1 0.003081262 0.9999952 0 0 0 1 0 0 1 -0.09311181 0 -0.9956556 -0.0217722 0 0.9997629 1 0 0 0 -1 0 0 1 0 -2.92197e-4 0.999997 0.002449154 0 -1 0 0 0 1 0 1 0 0 1 0 0 1 0 0 1 0 0 -1 0 -1 0 2.21121e-4 0.009273946 -0.999957 2.22121e-4 -0.9764 0 -0.2159699 -0.1109725 0 -0.9938235 0 -1 0 0 1 0 0 -1 0 -0.7797346 1.42804e-7 0.6261102 0.003077864 0.9999946 0.001105964 0.001843333 -0.9999966 0.001835465 0 0 1 1 0 0 0 -1 0 -0.5781677 -0.5781911 -0.5756886 -0.5781677 0.5781911 -0.5756886 0 0.7086169 -0.7055935 0 -0.7086169 -0.7055935 -0.5762523 0.5068441 -0.6411259 -0.576249 -0.5068458 -0.6411276 -0.3749299 -0.4980468 0.781906 -0.8602254 -0.4686588 0.2009262 -0.8602249 0.4686588 0.2009279 -0.3749347 0.4980444 0.7819052 -0.6684737 0 -0.7437357 -0.07436883 0.7586306 -0.6472627 -0.07436895 -0.7586297 -0.6472636 0.6320091 0 0.774961 -0.06511354 -0.7071131 -0.7040961 -0.06511354 0.7071131 -0.7040961 -0.7070983 -0.7071154 7.81582e-5 -0.7070924 0.7071211 7.81563e-5 -0.5513586 -0.7071026 0.4427298 -0.5513591 0.7071024 0.4427295 -0.432375 0 0.9016938 -0.9737893 0 0.2274518 -0.7862223 -0.5929685 -0.1739045 0 -0.6319907 0.774976 -0.7862228 0.5929678 -0.1739047 0 0.6319907 0.774976 0 -1 0 -0.009273946 0.999957 2.22121e-4 0 0 1 0 0 1 0.09311175 0 -0.9956557 0.0217722 0 0.9997629 -1 0 0 0 -1 0 0 1 0 0 1 0 0 -1 0 0 0 1 0 1 0 0 1 0 0 1 0 0 1 0 0 -1 0 1 0 2.21121e-4 -0.009273946 -0.999957 2.22121e-4 0.9764 0 -0.2159699 0.1109724 0 -0.9938235 0 -1 0 0 1 0 0 -1 0 0.7797346 1.42804e-7 0.6261102 -8.79935e-4 0.9999966 0.002446293 0 0 1 0 0 1 -1 0 0 0 -1 0 0.5781677 -0.5781911 -0.5756886 0.5781677 0.5781911 -0.5756886 0 0.7086169 -0.7055935 0 -0.7086169 -0.7055935 0.5762523 0.5068441 -0.6411259 0.5762489 -0.5068458 -0.6411275 0.37493 -0.4980467 0.7819061 0.8602253 -0.4686587 0.2009261 0.8602249 0.4686588 0.2009278 0.3749347 0.4980443 0.7819053 0.6684769 0 -0.743733 0.07436883 0.7586306 -0.6472627 0.07854551 -0.70642 -0.7034212 -0.6320092 0 0.7749609 0.06511163 -0.7071349 -0.7040743 0.06511348 0.7071131 -0.7040961 0.7070924 -0.7071211 7.81715e-5 0.7070983 0.7071154 7.81696e-5 0.5513585 -0.7071027 0.4427297 0.5513604 0.7071004 0.4427312 0.4323702 2.07496e-7 0.9016962 0.9737889 0 0.2274537 0.7861955 -0.5930064 -0.1738968 0 -0.6319907 0.774976 0.7862228 0.5929678 -0.1739047 0 0.6319907 0.7749761 0 -1 0 0.003082215 0.9999952 0 0 0 1 0 0 1 -0.09311181 0 -0.9956557 -0.0217722 0 0.9997629 1 0 0 0 -1 0 0 1 0 -2.92282e-4 0.999997 0.00244987 0 -1 0 0 0 1 0 1 0 0 1 0 0 1 0 0 1 0 0 -1 0 -1 0 2.21121e-4 0.009275794 -0.999957 2.22153e-4 -0.9764 0 -0.2159699 -0.1109725 0 -0.9938235 0 -1 0 0 1 0 0 -1 0 -0.7797346 1.42804e-7 0.6261102 0.003078758 0.9999946 0.001106262 0.001843869 -0.9999966 0.001836001 0 0 1 1 0 0 0 -1 0 -0.5781739 -0.5781786 -0.5756948 -0.5781739 0.5781786 -0.5756948 0 0.708634 -0.7055762 0 -0.708634 -0.7055762 -0.5762451 0.5068624 -0.6411179 -0.5762417 -0.5068641 -0.6411195 -0.3749254 -0.498065 0.7818965 -0.8602162 -0.4686765 0.200924 -0.8602157 0.4686766 0.2009258 -0.3749302 0.4980626 0.7818957 -0.6684737 0 -0.7437357 -0.07436674 0.7586462 -0.6472446 -0.07436686 -0.7586454 -0.6472455 0.6320091 0 0.7749609 -0.06511205 -0.7071303 -0.704079 -0.06511205 0.7071303 -0.704079 -0.7071068 -0.7071068 7.81839e-5 -0.7071039 0.7071096 7.81829e-5 -0.5513452 -0.7071198 0.4427191 -0.5513456 0.7071195 0.4427188 -0.432375 0 0.9016938 -0.9737893 0 0.2274518 -0.7862088 -0.5929872 -0.1739016 0 -0.6320092 0.7749609 -0.7862094 0.5929865 -0.1739017 0 0.6320092 0.7749609 0 -1 0 -0.009275794 0.999957 2.22153e-4 0 0 1 0 0 1 0.09311175 0 -0.9956557 0.0217722 0 0.9997629 -1 0 0 0 -1 0 0 1 0 0 1 0 0 -1 0 0 0 1 0 1 0 0 1 0 0 1 0 0 1 0 0 -1 0 1 0 2.21121e-4 -0.009275794 -0.999957 2.22153e-4 0.9764 0 -0.2159699 0.1109724 0 -0.9938235 0 -1 0 0 1 0 0 -1 0 0.7797346 1.42804e-7 0.6261102 -8.80192e-4 0.9999966 0.002447009 0 0 1 0 0 1 -1 0 0 0 -1 0 0.5781739 -0.5781786 -0.5756948 0.5781739 0.5781786 -0.5756948 0 0.708634 -0.7055762 0 -0.708634 -0.7055762 0.576245 0.5068624 -0.6411179 0.5762417 -0.5068641 -0.6411195 0.3749254 -0.4980649 0.7818967 0.8602162 -0.4686766 0.2009239 0.8602159 0.4686766 0.2009257 0.3749302 0.4980624 0.7818958 0.6684769 0 -0.743733 0.07436674 0.7586462 -0.6472446 0.0785436 -0.7064372 -0.7034041 -0.6320092 0 0.7749609 0.06511259 -0.7071234 -0.7040857 0.06511205 0.7071303 -0.704079 0.7071039 -0.7071096 7.81905e-5 0.7071068 0.7071068 7.81896e-5 0.5513451 -0.7071199 0.4427189 0.551347 0.7071176 0.4427204 0.4323702 2.07496e-7 0.9016962 0.9737889 0 0.2274537 0.7861819 -0.593025 -0.1738938 0 -0.6320092 0.774961 0.7862094 0.5929865 -0.1739017 0 0.6320091 0.774961 0 -1 0 0.2707456 0 0.962651 -0.2707456 0 0.962651 0 0 1 0 0.1001356 0.9949739 0 -0.1001353 0.9949739 0 0.1001353 0.9949739 0 -0.1001353 0.9949739 0 -0.1001356 0.9949739 0 0.1001353 0.9949739 0 -0.1001353 0.9949739 0 0.1001353 0.9949739 1 0 0 -1 0 0 1 0 0 -1 0 0 1 0 0 -1 0 0 -1 0 0 1 0 0 1 0 0 -1 0 0 0 -1 0 0 1 0 0 0 -1 0 0 -1 1 0 0 -0.7071068 0 -0.7071068 0.7071068 0 -0.7071068 -1 0 0 0.9106061 -0.4132755 0 0 0 1 1 0 0 0 0 -1 -0.7071073 0 0.7071062 0.7071073 0 0.7071062 -1 0 0 0.7071038 -0.7071098 0 0 0 1 -0.7900575 0.6130327 0 0.6732863 -0.3055688 0.6732854 -0.6486536 0.3981185 0.6486526 0 0 -1 -0.7071038 -0.7071098 -4.6348e-5 -0.7071098 -0.7071038 0 -0.7071097 -0.7071038 2.98022e-5 -0.7071098 -0.7071038 0 -0.707104 0.7071096 0 0.4999917 -0.4999953 0.7071161 -0.4999933 0.499998 0.707113 -4.32007e-7 -4.32004e-7 -1 -0.9106061 -0.4132755 0 0 0 1 -1 0 0 0 0 -1 0.7071073 0 0.7071062 -0.7071073 0 0.7071062 1 0 0 -0.7071038 -0.7071098 0 0 0 1 0.7900575 0.6130327 0 -0.6732863 -0.3055688 0.6732854 0.6486536 0.3981185 0.6486526 0 0 -1 0.7071038 -0.7071098 -4.6348e-5 0.7071098 -0.7071038 0 0.7071098 -0.7071038 0 0.7071097 -0.7071037 2.95112e-5 0.707104 0.7071096 0 -0.4999917 -0.4999953 0.7071161 0.4999932 0.4999979 0.707113 4.10933e-7 -4.1093e-7 -1 0.9106061 0.4132755 0 0 0 1 1 0 0 0 0 -1 -0.7071073 0 0.7071062 0.7071073 0 0.7071062 -1 0 0 0.7071038 0.7071098 0 0 0 1 -0.7900575 -0.6130327 0 0.6732863 0.3055688 0.6732854 -0.6486536 -0.3981185 0.6486526 0 0 -1 -0.7071038 0.7071098 -4.6348e-5 -0.7071098 0.7071038 0 -0.7071098 0.7071038 0 -0.7071097 0.7071037 2.95112e-5 -0.707104 -0.7071096 0 0.4999917 0.4999953 0.7071161 -0.4999932 -0.4999979 0.707113 -4.32007e-7 4.32004e-7 -1 -0.9106061 0.4132755 0 0 0 1 -1 0 0 0 0 -1 0.7071073 0 0.7071062 -0.7071073 0 0.7071062 1 0 0 -0.7071038 0.7071098 0 0 0 1 0.7900575 -0.6130327 0 -0.6732863 0.3055688 0.6732854 0.6486536 -0.3981185 0.6486526 0 0 -1 0.7071038 0.7071098 -4.6348e-5 0.7071098 0.7071038 0 0.7071097 0.7071038 2.98022e-5 0.7071098 0.7071038 0 0.707104 -0.7071096 0 -0.4999917 0.4999953 0.7071161 0.4999933 -0.499998 0.707113 4.10934e-7 4.1093e-7 -1 0.009273946 0.999957 2.22121e-4 0 0 1 0 0 1 -0.09311181 0 -0.9956557 -0.0217722 0 0.9997629 1 0 0 0 1 0 0 0 1 0 1 0 0 -1 0 -1 0 2.21121e-4 0.003081262 -0.9999952 0 -0.9764 0 -0.2159699 -0.1109724 0 -0.9938235 0 1 0 -0.7797346 1.44079e-7 0.6261102 0.003077864 -0.9999946 0.001105964 0.001843333 0.9999966 0.001835465 8.79936e-4 0.9999966 0.002446293 8.79936e-4 -0.9999966 0.002446293 0 0 1 1 0 0 0 -1 0 -0.6684769 0 -0.743733 -0.07854545 0.7064199 -0.7034213 -0.07854551 -0.70642 -0.7034212 0.6320092 0 0.7749609 -0.06511169 -0.7071349 -0.7040743 -0.06511163 0.7071351 -0.7040742 -0.7070924 -0.7071211 7.81715e-5 -0.7070983 0.7071154 7.81696e-5 -0.5513571 -0.7071048 0.442728 -0.5513604 0.7071002 0.4427312 -0.4323702 2.07055e-7 0.9016962 -0.9737889 0 0.2274537 -0.7861955 -0.5930064 -0.1738968 0 -0.6319907 0.774976 -0.7861958 0.5930061 -0.1738969 0 0.6319907 0.774976 -2.92197e-4 -0.999997 0.002449154 -0.003081262 0.9999952 0 0 0 1 0 0 1 0.09311175 0 -0.9956556 0.0217722 0 0.9997629 -1 0 0 2.92197e-4 0.999997 0.002449154 0 0 1 0 1 0 0 -1 0 1 0 2.21121e-4 -0.003081262 -0.9999952 0 0.9764 0 -0.2159699 0.1109725 0 -0.9938235 0 1 0 0.7797346 1.43094e-7 0.6261102 -0.003077864 -0.9999946 0.001105964 -0.001843333 0.9999966 0.001835465 -0.003077864 0.9999946 0.001105964 -8.79935e-4 -0.9999966 0.002446293 -0.001843333 -0.9999966 0.001835465 -1 0 0 0 -1 0 0.6684737 0 -0.7437357 0.07854545 0.70642 -0.7034212 0.07436895 -0.7586297 -0.6472636 -0.6320091 0 0.774961 0.06511354 -0.7071127 -0.7040966 0.06511163 0.7071349 -0.7040743 0.7070983 -0.7071154 7.81582e-5 0.7070925 0.7071211 7.81563e-5 0.5513572 -0.7071048 0.4427281 0.5513591 0.7071023 0.4427296 0.432375 0 0.9016938 0.9737893 0 0.2274516 0.7862225 -0.5929683 -0.1739045 0 -0.6319907 0.7749761 0.7861959 0.5930058 -0.1738969 0 0.6319907 0.774976 2.92197e-4 -0.999997 0.002449154 0.009275794 0.9999569 2.22153e-4 0 0 1 0 0 1 -0.09311181 0 -0.9956557 -0.0217722 0 0.9997629 1 0 0 0 1 0 0 0 1 0 1 0 0 -1 0 -1 0 2.21121e-4 0.003082215 -0.9999952 0 -0.9764 0 -0.2159699 -0.1109724 0 -0.9938235 0 1 0 -0.7797346 1.44079e-7 0.6261102 0.003078758 -0.9999946 0.001106262 0.001843869 0.9999966 0.001836001 8.80192e-4 0.9999966 0.002447009 8.80192e-4 -0.9999966 0.002447009 0 0 1 1 0 0 0 -1 0 -0.6684769 0 -0.743733 -0.07854354 0.7064371 -0.7034043 -0.0785436 -0.7064372 -0.7034041 0.6320092 0 0.7749609 -0.06511265 -0.7071234 -0.7040857 -0.06511265 0.7071237 -0.7040856 -0.7071039 -0.7071096 7.81905e-5 -0.7071068 0.7071068 7.81896e-5 -0.5513437 -0.707122 0.4427172 -0.5513471 0.7071174 0.4427205 -0.4323702 2.07055e-7 0.9016962 -0.9737889 0 0.2274537 -0.7861819 -0.5930251 -0.1738938 0 -0.6320092 0.774961 -0.7861822 0.5930247 -0.1738939 0 0.6320092 0.774961 -2.92282e-4 -0.999997 0.00244987 -0.003082215 0.9999952 0 0 0 1 0 0 1 0.09311175 0 -0.9956557 0.0217722 0 0.9997629 -1 0 0 2.92282e-4 0.999997 0.00244987 0 0 1 0 1 0 0 -1 0 1 0 2.21121e-4 -0.003082215 -0.9999952 0 0.9764 0 -0.2159699 0.1109725 0 -0.9938235 0 1 0 0.7797346 1.43094e-7 0.6261102 -0.003078758 -0.9999946 0.001106262 -0.001843869 0.9999966 0.001836001 -0.003078758 0.9999946 0.001106262 -8.80192e-4 -0.9999966 0.002447009 -0.001843869 -0.9999966 0.001836001 -1 0 0 0 -1 0 0.6684737 0 -0.7437357 0.07854354 0.7064372 -0.7034041 0.07436686 -0.7586454 -0.6472455 -0.6320091 0 0.7749609 0.06511205 -0.7071298 -0.7040794 0.06511259 0.7071234 -0.7040857 0.7071068 -0.7071068 7.81839e-5 0.7071039 0.7071096 7.81829e-5 0.5513438 -0.7071219 0.4427173 0.5513457 0.7071195 0.4427188 0.432375 0 0.9016938 0.9737893 0 0.2274516 0.7862091 -0.592987 -0.1739016 0 -0.6320091 0.774961 0.7861824 0.5930245 -0.1738939 0 0.6320092 0.774961 2.92282e-4 -0.999997 0.00244987</float_array>
          <technique_common>
            <accessor source="#Cube_015-mesh-normals-array" count="614" stride="3">
              <param name="X" type="float"/>
              <param name="Y" type="float"/>
              <param name="Z" type="float"/>
            </accessor>
          </technique_common>
        </source>
        <source id="Cube_015-mesh-map-0">
          <float_array id="Cube_015-mesh-map-0-array" count="3684">-6.490038 0.2857796 7.514084 0.28576 7.514084 0.4724793 -6.49006 0.09833562 7.514033 0.09819632 7.514035 0.2849186 0.9909937 -2.743916 0.990999 2.92143 0.009006738 2.92143 7.514035 0.2849186 7.514033 0.09819632 7.603035 0.0981943 7.603037 0.2849165 7.514035 0.2849186 7.603035 0.0981943 -6.490038 0.2857796 -6.490037 0.4725014 -6.579042 0.4725028 0.9909937 -2.743916 0.009000241 -2.743915 0.009000182 -2.77992 -6.579043 0.2857804 -6.579042 0.4725028 -7.380088 0.4725161 -6.490057 0.2850548 -6.57906 0.2850566 -6.579062 0.09833693 7.603083 0.2857607 8.404077 0.2857671 8.404075 0.4724832 7.514084 0.28576 7.603083 0.2857607 7.603083 0.4724797 -6.579062 0.09833693 -6.57906 0.2850566 -7.380085 0.2850731 0.009006738 2.92143 0.990999 2.92143 0.990999 2.957435 7.603035 0.0981943 8.404054 0.09817582 8.404058 0.2848981 0.009006738 2.957436 0.990999 2.957435 0.9909995 3.281485 0.9909937 -2.779922 0.009000182 -2.77992 0.008999943 -3.10397 7.514084 0.4724793 7.514084 0.28576 7.603083 0.4724797 -6.579043 0.2857804 -6.490038 0.2857796 -6.579042 0.4725028 -6.49006 0.09833562 -6.490057 0.2850548 -6.579062 0.09833693 7.603035 0.0981943 7.514033 0.09819632 7.514033 0.09819632 -7.380088 0.4725161 -6.579042 0.4725028 -6.579042 0.4725028 8.404054 0.09817582 7.603035 0.0981943 7.603035 0.0981943 -6.579042 0.4725028 -6.490037 0.4725014 -6.490037 0.4725014 -7.38009 0.09834891 -7.38009 0.09834891 -6.579062 0.09833693 8.404075 0.4724832 8.404075 0.4724832 7.603083 0.4724797 7.603083 0.4724797 7.603083 0.4724797 7.514084 0.4724793 -6.579062 0.09833693 -6.579062 0.09833693 -6.49006 0.09833562 7.514033 0.09819632 -6.49006 0.09833562 -6.49006 0.09833562 -6.490037 0.4725014 7.514084 0.4724793 7.514084 0.4724793 -7.38009 0.09834891 -7.380085 0.2850731 0 0 -7.380088 0.4725161 0 0 -7.380088 0.4725161 0 0 0 0 -7.380085 0.2850731 8.404054 0.09817582 0 0 8.404054 0.09817582 8.404075 0.4724832 8.404077 0.2857671 0 0 8.404077 0.2857671 0.008999943 -3.10397 0 0 -2.485059 -0.4969759 3.485059 -0.4969762 3.485059 0.6970476 -2.025291 -0.002294123 3.025285 -0.003041923 3.025292 0.04316079 3.025292 0.1263407 -2.025285 0.1263414 -2.025285 0.04565346 3.025285 -0.003041923 -2.025291 -0.002294123 -2.025291 -0.004799962 -2.025285 0.04390966 3.025292 0.04316079 3.025292 0.04566663 -2.02529 -0.08547449 3.025285 -0.08547329 3.025285 -0.004785716 -0.261186 0.0223518 -0.2611956 0.208793 -0.3223117 0.2087721 3.24211 0.2867061 -0.2611959 0.2868248 -0.2611967 0.2262139 -0.261186 0.0223518 3.242106 0.02221435 3.242109 0.2086624 -0.2611873 -0.1009373 3.242105 -0.1010645 3.242106 0.02221435 -0.2611959 0.2868248 3.24211 0.2867061 3.24211 0.3041409 -0.2611956 0.208793 3.242109 0.2086624 3.242109 0.2260971 -0.2611939 0.5076564 -0.2611959 0.3042452 3.24211 0.3041409 -0.3223117 0.2087721 -0.4974734 0.2086349 -0.4974266 0.02220469 -0.2873247 0.2868248 -0.3001962 0.2868248 -0.3198493 0.225665 -0.2898285 0.3042452 -0.2670588 0.4936229 -0.2746282 0.4962967 -0.2640937 0.2254681 -0.3198493 0.225665 -0.3223117 0.2087721 -0.2898285 0.3042452 -0.2973971 0.3042452 -0.3001962 0.2868248 -0.2901231 -0.08989423 -0.261186 0.0223518 -0.3222766 0.02232915 -0.322319 0.2262139 -0.3223526 0.2868272 -0.4974787 0.2260558 -0.3223526 0.2868272 -0.497511 0.2866498 -0.4974787 0.2260558 -0.3223602 0.3042666 -0.3224365 0.5076743 -0.4975988 0.5074691 -0.3223117 0.2087721 -0.322319 0.2262139 -0.4974787 0.2260558 -0.3223526 0.2868272 -0.3223602 0.3042666 -0.4975197 0.3040723 -0.3222489 -0.1009392 -0.3222766 0.02232915 -0.4974266 0.02220469 -0.261186 0.0223518 -0.3222766 0.02232915 -0.3223117 0.2087721 3.24211 0.2867061 3.242109 0.2260971 -0.2611967 0.2262139 -0.261186 0.0223518 -0.2611956 0.208793 3.242109 0.2086624 -0.2611873 -0.1009373 -0.261186 0.0223518 3.242106 0.02221435 -0.2611959 0.2868248 -0.2611959 0.3042452 3.24211 0.3041409 -0.2611956 0.208793 -0.2611967 0.2262139 3.242109 0.2260971 -0.2611939 0.5076564 3.242113 0.5075436 3.24211 0.3041409 -0.4974266 0.02220469 -0.4974734 0.2086349 -0.3223117 0.2087721 -0.3198493 0.225665 -0.3001962 0.2868248 -0.2873247 0.2868248 -0.2898285 0.3042452 -0.2973971 0.3042452 -0.2746282 0.4962967 -0.3223117 0.2087721 -0.3198493 0.225665 -0.2640937 0.2254681 -0.3001962 0.2868248 -0.2973971 0.3042452 -0.2898285 0.3042452 -0.2901231 -0.08989423 -0.2976281 -0.09304237 -0.3222766 0.02232915 -0.322319 0.2262139 -0.4974787 0.2260558 -0.3223526 0.2868272 -0.4974787 0.2260558 -0.497511 0.2866498 -0.3223526 0.2868272 -0.3223602 0.3042666 -0.4975197 0.3040723 -0.4975988 0.5074691 -0.3223117 0.2087721 -0.4974734 0.2086349 -0.4974787 0.2260558 -0.3223526 0.2868272 -0.497511 0.2866498 -0.4975197 0.3040723 -0.3222489 -0.1009392 -0.497398 -0.1010639 -0.4974266 0.02220469 -0.261186 0.0223518 -0.3222766 0.02232915 -0.3223117 0.2087721 3.24211 0.2867061 3.242109 0.2260971 -0.2611967 0.2262139 -0.261186 0.0223518 -0.2611956 0.208793 3.242109 0.2086624 -0.2611873 -0.1009373 -0.261186 0.0223518 3.242106 0.02221435 -0.2611959 0.2868248 -0.2611959 0.3042452 3.24211 0.3041409 -0.2611956 0.208793 -0.2611967 0.2262139 3.242109 0.2260971 -0.2611939 0.5076564 3.242113 0.5075436 3.24211 0.3041409 -0.4974266 0.02220469 -0.4974734 0.2086349 -0.3223117 0.2087721 -0.3198493 0.225665 -0.3001962 0.2868248 -0.2873247 0.2868248 -0.2898285 0.3042452 -0.2973971 0.3042452 -0.2746282 0.4962967 -0.3223117 0.2087721 -0.3198493 0.225665 -0.2640937 0.2254681 -0.3001962 0.2868248 -0.2973971 0.3042452 -0.2898285 0.3042452 -0.2901231 -0.08989423 -0.2976281 -0.09304237 -0.3222766 0.02232915 -0.322319 0.2262139 -0.4974787 0.2260558 -0.3223526 0.2868272 -0.4974787 0.2260558 -0.497511 0.2866498 -0.3223526 0.2868272 -0.3223602 0.3042666 -0.4975197 0.3040723 -0.4975988 0.5074691 -0.3223117 0.2087721 -0.4974734 0.2086349 -0.4974787 0.2260558 -0.3223526 0.2868272 -0.497511 0.2866498 -0.4975197 0.3040723 -0.3222489 -0.1009392 -0.497398 -0.1010639 -0.4974266 0.02220469 -0.261186 0.0223518 -0.2611956 0.208793 -0.3223117 0.2087721 3.24211 0.2867061 -0.2611959 0.2868248 -0.2611967 0.2262139 -0.261186 0.0223518 3.242106 0.02221435 3.242109 0.2086624 -0.2611873 -0.1009373 3.242105 -0.1010645 3.242106 0.02221435 -0.2611959 0.2868248 3.24211 0.2867061 3.24211 0.3041409 -0.2611956 0.208793 3.242109 0.2086624 3.242109 0.2260971 -0.2611939 0.5076564 -0.2611959 0.3042452 3.24211 0.3041409 -0.3223117 0.2087721 -0.4974734 0.2086349 -0.4974266 0.02220469 -0.2873247 0.2868248 -0.3001962 0.2868248 -0.3198493 0.225665 -0.2898285 0.3042452 -0.2670588 0.4936229 -0.2746282 0.4962967 -0.2640937 0.2254681 -0.3198493 0.225665 -0.3223117 0.2087721 -0.2898285 0.3042452 -0.2973971 0.3042452 -0.3001962 0.2868248 -0.2901231 -0.08989423 -0.261186 0.0223518 -0.3222766 0.02232915 -0.322319 0.2262139 -0.3223526 0.2868272 -0.4974787 0.2260558 -0.3223526 0.2868272 -0.497511 0.2866498 -0.4974787 0.2260558 -0.3223602 0.3042666 -0.3224365 0.5076743 -0.4975988 0.5074691 -0.3223117 0.2087721 -0.322319 0.2262139 -0.4974787 0.2260558 -0.3223526 0.2868272 -0.3223602 0.3042666 -0.4975197 0.3040723 -0.3222489 -0.1009392 -0.3222766 0.02232915 -0.4974266 0.02220469 1.673023 0.6834702 1.67327 0.7623444 -0.5259934 0.7624258 0.2113931 0.2121636 0.2436699 0.2121636 0.2436699 0.2256988 0.2488918 0.1252512 0.2488808 0.1575281 0.2218101 0.1575188 0.5002063 -0.001974344 0.5002059 0.04299777 0.2863855 0.04349404 0.4626012 0.1253245 0.4625902 0.1576012 0.2488808 0.1575281 0.2113931 0.2256988 0.2436699 0.2256988 0.2436699 0.2340468 0.5362145 0.1166528 0.5218068 0.1163774 0.5362342 0.04406982 0.5218356 -0.08074438 0.536271 -0.08100759 0.5362142 -0.003027498 0.4972383 -0.08756446 0.5001027 -0.00315833 0.2862802 -0.00353527 0.4972202 0.123673 0.5218068 0.1163774 0.5213137 0.1250438 0.4858098 0.1253324 0.4857987 0.1576092 0.4625902 0.1576012 0.5218356 -0.08074438 0.4972383 -0.08756446 0.5213459 -0.08756446 0.2842736 -0.08756446 0.2862802 -0.00353527 0.2863315 -0.003472268 0.256992 -0.08756446 0.2478042 -0.1000833 0.2558794 -0.1014981 0.256992 -0.08756446 0.2863315 -0.003472268 0.2510871 -0.003709554 0.2863404 0.0444675 0.2862915 0.04452913 0.2842897 0.1232714 1.673039 0.6043588 1.673023 0.6803756 -0.5259959 0.6796259 1.67304 0.6012283 -0.5259796 0.5999617 -0.5259428 0.5213203 0.22808 0.04370683 0.2279903 -0.002570211 0.25036 -0.002613186 0.2863771 -0.002502501 0.2863855 0.04349404 0.2515122 0.04361957 0.2478526 0.135415 0.2570276 0.1218879 0.255922 0.1368209 0.256992 -0.08756446 0.2510871 -0.003709554 0.2439229 -0.08756446 0.2863404 0.0444675 0.2570276 0.1218879 0.2511168 0.04473137 0.2206772 -0.002549409 0.226778 -0.002566814 0.2268677 0.04371041 0.5218356 -0.08074438 0.5362142 -0.003027498 0.5011074 -0.002686262 0.5218068 0.1163774 0.5001016 0.04417955 0.5011072 0.04371672 0.2123522 0.04375207 0.2122623 -0.002525389 0.219465 -0.002546012 0.2218211 0.1252419 0.2218101 0.1575188 0.2113931 0.1575151 0.2570276 0.1218879 0.2478526 0.135415 0.2439707 0.1254415 0.5001016 0.04417955 0.5002059 0.04299777 0.5011421 0.04376685 0.5002063 -0.001974344 0.5001027 -0.00315833 0.501143 -0.002740085 0.2115873 0.2342409 0.2115875 0.2348317 0.2115873 0.2348317 0.2117816 0.2348317 0.2117817 0.2342409 0.2117817 0.2348317 0.2514813 -0.002593278 0.25036 -0.002613186 0.2506802 -0.003407418 0.2507348 0.04441511 0.2504204 0.04364275 0.2515122 0.04361957 0.2195549 0.04373145 0.2207671 0.04372793 0.2200198 0.04450529 0.22808 0.04370683 0.227681 0.04446899 0.2268677 0.04371041 0.226778 -0.002566814 0.2275869 -0.003330051 0.2279903 -0.002570211 0.2199255 -0.003322482 0.2206772 -0.002549409 0.219465 -0.002546012 0.2514813 -0.002593278 0.2515122 0.04361957 0.2504204 0.04364275 0.2514813 -0.002593278 0.2510871 -0.003709554 0.2863315 -0.003472268 0.2863404 0.0444675 0.2511168 0.04473137 0.2515122 0.04361957 0.2114869 0.04442662 0.2113931 -0.003195047 0.2122623 -0.002525389 0.5001016 0.04417955 0.2862915 0.04452913 0.2863855 0.04349404 0.2863771 -0.002502501 0.2862802 -0.00353527 0.5001027 -0.00315833 1.673039 0.6043588 -0.5259809 0.6040878 -0.5259796 0.5999617 -0.5259959 0.6796259 1.673023 0.6803756 1.673023 0.6834702 0.2268677 0.04371041 0.2274475 0.04465931 0.220261 0.04467993 0.226778 -0.002566814 0.2206772 -0.002549409 0.2201656 -0.003498554 0.2195549 0.04373145 0.219465 -0.002546012 0.2206772 -0.002549409 0.2279903 -0.002570211 0.22808 0.04370683 0.2268677 0.04371041 0.22808 0.04370683 0.2504204 0.04364275 0.2504354 0.0444774 0.2123522 0.04375207 0.2195549 0.04373145 0.2198076 0.04459804 0.2503711 -0.003449082 0.25036 -0.002613186 0.2279903 -0.002570211 0.2197128 -0.003414034 0.219465 -0.002546012 0.2122623 -0.002525389 0.4972202 0.123673 0.2842897 0.1232714 0.2862915 0.04452913 1.673029 0.8371242 -0.5259901 0.8369712 -0.5259934 0.7624258 0.2113931 0.2121636 0.2113931 0.1986286 0.2436699 0.1986286 0.4483111 0.1578042 0.4753817 0.1578035 0.4753826 0.1900802 0.572265 -0.00190103 0.7860615 -0.002116262 0.7860055 0.04387044 0.2346017 0.157809 0.4483111 0.1578042 0.4483119 0.190081 0.2113931 0.1986286 0.2113931 0.1902805 0.2436699 0.1902805 0.5362145 0.1166528 0.5362342 0.04406982 0.5506189 0.1163828 0.5507067 -0.08070439 0.5362142 -0.003027498 0.536271 -0.08100759 0.5753107 -0.08756446 0.7881973 -0.08756446 0.786162 -0.003148198 0.5751825 0.1236993 0.5511027 0.1250443 0.5506189 0.1163828 0.2113931 0.1578096 0.2346017 0.157809 0.2346025 0.1900859 0.5507067 -0.08070439 0.5512183 -0.08756446 0.5753107 -0.08756446 0.7881973 -0.08756446 0.8154671 -0.08756446 0.7861095 -0.003085553 0.8154671 -0.08756446 0.8165954 -0.1007699 0.8246669 -0.09933513 0.8154671 -0.08756446 0.8213431 -0.003269791 0.7861095 -0.003085553 0.7860497 0.04484266 0.8153238 0.1226014 0.7880672 0.1238742 1.673116 0.4403837 -0.5259034 0.4385276 -0.5258549 0.3719099 -0.5259428 0.5213203 -0.5259058 0.4426862 1.673114 0.4434784 0.8442918 0.04417258 0.8219588 0.04407382 0.822068 -0.002172172 0.7860615 -0.002116262 0.8209469 -0.002153992 0.8208675 0.04404914 0.8244804 0.1361179 0.8164125 0.1375023 0.8153238 0.1226014 0.8285378 -0.08756446 0.8213431 -0.003269791 0.8154671 -0.08756446 0.7860497 0.04484266 0.8212606 0.0451613 0.8153238 0.1226014 0.8455032 0.04417783 0.8456425 -0.002088785 0.8517408 -0.002061605 0.5507067 -0.08070439 0.5753107 -0.08756446 0.5723666 -0.003046572 0.8601526 -0.002024173 0.860013 0.0442422 0.8529525 -0.002056181 0.860013 0.0442422 0.852813 0.04421019 0.8529525 -0.002056181 0.4753817 0.1578035 0.4857986 0.1578033 0.4857994 0.19008 0.8153238 0.1226014 0.8212606 0.0451613 0.8283703 0.1261581 0.5723623 0.0442115 0.5712879 0.0438171 0.5722329 0.0430389 0.572265 -0.00190103 0.5713496 -0.002675294 0.5723666 -0.003046572 0.2119758 0.2342409 0.211976 0.2348317 0.2119758 0.2348317 0.2113932 0.2351809 0.2113931 0.2351809 0.2113932 0.2342409 0.8209469 -0.002153992 0.8217491 -0.002966761 0.822068 -0.002172172 0.8216435 0.04484546 0.8208675 0.04404914 0.8219588 0.04407382 0.852813 0.04421019 0.8523471 0.04498291 0.8516013 0.04420483 0.8442918 0.04417258 0.8455032 0.04417783 0.8446895 0.04493474 0.8456425 -0.002088785 0.8444308 -0.002094268 0.8448353 -0.002852976 0.8524935 -0.002833127 0.8529525 -0.002056181 0.8517408 -0.002061605 0.8209469 -0.002153992 0.822068 -0.002172172 0.8219588 0.04407382 0.7861095 -0.003085553 0.8213431 -0.003269791 0.8209469 -0.002153992 0.7860497 0.04484266 0.7860055 0.04387044 0.8208675 0.04404914 0.8608771 0.04491794 0.860013 0.0442422 0.8601526 -0.002024173 0.5723623 0.0442115 0.5722329 0.0430389 0.7860055 0.04387044 0.5723666 -0.003046572 0.786162 -0.003148198 0.7860615 -0.002116262 1.673116 0.4403837 1.673114 0.4434784 -0.5259058 0.4426862 -0.5259896 0.8410974 -0.5259901 0.8369712 1.673029 0.8371242 0.8521058 0.04515731 0.8449221 0.04512548 0.8455032 0.04417783 0.8456425 -0.002088785 0.8450698 -0.003041565 0.8522537 -0.003009557 0.852813 0.04421019 0.8516013 0.04420483 0.8517408 -0.002061605 0.8444308 -0.002094268 0.8456425 -0.002088785 0.8455032 0.04417783 0.8442918 0.04417258 0.8444956 0.045008 0.8219425 0.04490816 0.860013 0.0442422 0.8606811 0.04511219 0.852559 0.04507607 0.8444308 -0.002094268 0.822068 -0.002172172 0.8220582 -0.003007769 0.8601526 -0.002024173 0.8529525 -0.002056181 0.8527062 -0.002924323 0.7860988 0.04490411 0.7880672 0.1238742 0.5751825 0.1236993 1.673023 0.6834702 1.67327 0.7623444 -0.5259934 0.7624258 0.2113931 0.2121636 0.2436699 0.2121636 0.2436699 0.2256988 0.2488918 0.1252512 0.2488808 0.1575281 0.2218101 0.1575188 0.5002063 -0.001974344 0.5002059 0.04299777 0.2863855 0.04349404 0.4626012 0.1253245 0.4625902 0.1576012 0.2488808 0.1575281 0.2113931 0.2256988 0.2436699 0.2256988 0.2436699 0.2340468 0.5362145 0.1166528 0.5218068 0.1163774 0.5362342 0.04406982 0.5218356 -0.08074438 0.536271 -0.08100759 0.5362142 -0.003027498 0.4972383 -0.08756446 0.5001027 -0.00315833 0.2862802 -0.00353527 0.4972202 0.123673 0.5218068 0.1163774 0.5213137 0.1250438 0.4858098 0.1253324 0.4857987 0.1576092 0.4625902 0.1576012 0.5218356 -0.08074438 0.4972383 -0.08756446 0.5213459 -0.08756446 0.2842736 -0.08756446 0.2862802 -0.00353527 0.2863315 -0.003472268 0.256992 -0.08756446 0.2478042 -0.1000833 0.2558794 -0.1014981 0.256992 -0.08756446 0.2863315 -0.003472268 0.2510871 -0.003709554 0.2863404 0.0444675 0.2862915 0.04452913 0.2842897 0.1232714 1.673039 0.6043588 1.673023 0.6803756 -0.5259959 0.6796259 1.67304 0.6012283 -0.5259796 0.5999617 -0.5259428 0.5213203 0.22808 0.04370683 0.2279903 -0.002570211 0.25036 -0.002613186 0.2863771 -0.002502501 0.2863855 0.04349404 0.2515122 0.04361957 0.2478526 0.135415 0.2570276 0.1218879 0.255922 0.1368209 0.256992 -0.08756446 0.2510871 -0.003709554 0.2439229 -0.08756446 0.2863404 0.0444675 0.2570276 0.1218879 0.2511168 0.04473137 0.2206772 -0.002549409 0.226778 -0.002566814 0.2268677 0.04371041 0.5218356 -0.08074438 0.5362142 -0.003027498 0.5011074 -0.002686262 0.5218068 0.1163774 0.5001016 0.04417955 0.5011072 0.04371672 0.2123522 0.04375207 0.2122623 -0.002525389 0.219465 -0.002546012 0.2218211 0.1252419 0.2218101 0.1575188 0.2113931 0.1575151 0.2570276 0.1218879 0.2478526 0.135415 0.2439707 0.1254415 0.5001016 0.04417955 0.5002059 0.04299777 0.5011421 0.04376685 0.5002063 -0.001974344 0.5001027 -0.00315833 0.501143 -0.002740085 0.2115873 0.2342409 0.2115875 0.2348317 0.2115873 0.2348317 0.2117816 0.2348317 0.2117817 0.2342409 0.2117817 0.2348317 0.2514813 -0.002593278 0.25036 -0.002613186 0.2506802 -0.003407418 0.2507348 0.04441511 0.2504204 0.04364275 0.2515122 0.04361957 0.2195549 0.04373145 0.2207671 0.04372793 0.2200198 0.04450529 0.22808 0.04370683 0.227681 0.04446899 0.2268677 0.04371041 0.226778 -0.002566814 0.2275869 -0.003330051 0.2279903 -0.002570211 0.2199255 -0.003322482 0.2206772 -0.002549409 0.219465 -0.002546012 0.2514813 -0.002593278 0.2515122 0.04361957 0.2504204 0.04364275 0.2514813 -0.002593278 0.2510871 -0.003709554 0.2863315 -0.003472268 0.2863404 0.0444675 0.2511168 0.04473137 0.2515122 0.04361957 0.2114869 0.04442662 0.2113931 -0.003195047 0.2122623 -0.002525389 0.5001016 0.04417955 0.2862915 0.04452913 0.2863855 0.04349404 0.2863771 -0.002502501 0.2862802 -0.00353527 0.5001027 -0.00315833 1.673039 0.6043588 -0.5259809 0.6040878 -0.5259796 0.5999617 -0.5259959 0.6796259 1.673023 0.6803756 1.673023 0.6834702 0.2268677 0.04371041 0.2274475 0.04465931 0.220261 0.04467993 0.226778 -0.002566814 0.2206772 -0.002549409 0.2201656 -0.003498554 0.2195549 0.04373145 0.219465 -0.002546012 0.2206772 -0.002549409 0.2279903 -0.002570211 0.22808 0.04370683 0.2268677 0.04371041 0.22808 0.04370683 0.2504204 0.04364275 0.2504354 0.0444774 0.2123522 0.04375207 0.2195549 0.04373145 0.2198076 0.04459804 0.2503711 -0.003449082 0.25036 -0.002613186 0.2279903 -0.002570211 0.2197128 -0.003414034 0.219465 -0.002546012 0.2122623 -0.002525389 0.4972202 0.123673 0.2842897 0.1232714 0.2862915 0.04452913 1.673029 0.8371242 -0.5259901 0.8369712 -0.5259934 0.7624258 0.2113931 0.2121636 0.2113931 0.1986286 0.2436699 0.1986286 0.4483111 0.1578042 0.4753817 0.1578035 0.4753826 0.1900802 0.572265 -0.00190103 0.7860615 -0.002116262 0.7860055 0.04387044 0.2346017 0.157809 0.4483111 0.1578042 0.4483119 0.190081 0.2113931 0.1986286 0.2113931 0.1902805 0.2436699 0.1902805 0.5362145 0.1166528 0.5362342 0.04406982 0.5506189 0.1163828 0.5507067 -0.08070439 0.5362142 -0.003027498 0.536271 -0.08100759 0.5753107 -0.08756446 0.7881973 -0.08756446 0.786162 -0.003148198 0.5751825 0.1236993 0.5511027 0.1250443 0.5506189 0.1163828 0.2113931 0.1578096 0.2346017 0.157809 0.2346025 0.1900859 0.5507067 -0.08070439 0.5512183 -0.08756446 0.5753107 -0.08756446 0.7881973 -0.08756446 0.8154671 -0.08756446 0.7861095 -0.003085553 0.8154671 -0.08756446 0.8165954 -0.1007699 0.8246669 -0.09933513 0.8154671 -0.08756446 0.8213431 -0.003269791 0.7861095 -0.003085553 0.7860497 0.04484266 0.8153238 0.1226014 0.7880672 0.1238742 1.673116 0.4403837 -0.5259034 0.4385276 -0.5258549 0.3719099 -0.5259428 0.5213203 -0.5259058 0.4426862 1.673114 0.4434784 0.8442918 0.04417258 0.8219588 0.04407382 0.822068 -0.002172172 0.7860615 -0.002116262 0.8209469 -0.002153992 0.8208675 0.04404914 0.8244804 0.1361179 0.8164125 0.1375023 0.8153238 0.1226014 0.8285378 -0.08756446 0.8213431 -0.003269791 0.8154671 -0.08756446 0.7860497 0.04484266 0.8212606 0.0451613 0.8153238 0.1226014 0.8455032 0.04417783 0.8456425 -0.002088785 0.8517408 -0.002061605 0.5507067 -0.08070439 0.5753107 -0.08756446 0.5723666 -0.003046572 0.8601526 -0.002024173 0.860013 0.0442422 0.8529525 -0.002056181 0.860013 0.0442422 0.852813 0.04421019 0.8529525 -0.002056181 0.4753817 0.1578035 0.4857986 0.1578033 0.4857994 0.19008 0.8153238 0.1226014 0.8212606 0.0451613 0.8283703 0.1261581 0.5723623 0.0442115 0.5712879 0.0438171 0.5722329 0.0430389 0.572265 -0.00190103 0.5713496 -0.002675294 0.5723666 -0.003046572 0.2119758 0.2342409 0.211976 0.2348317 0.2119758 0.2348317 0.2113932 0.2351809 0.2113931 0.2351809 0.2113932 0.2342409 0.8209469 -0.002153992 0.8217491 -0.002966761 0.822068 -0.002172172 0.8216435 0.04484546 0.8208675 0.04404914 0.8219588 0.04407382 0.852813 0.04421019 0.8523471 0.04498291 0.8516013 0.04420483 0.8442918 0.04417258 0.8455032 0.04417783 0.8446895 0.04493474 0.8456425 -0.002088785 0.8444308 -0.002094268 0.8448353 -0.002852976 0.8524935 -0.002833127 0.8529525 -0.002056181 0.8517408 -0.002061605 0.8209469 -0.002153992 0.822068 -0.002172172 0.8219588 0.04407382 0.7861095 -0.003085553 0.8213431 -0.003269791 0.8209469 -0.002153992 0.7860497 0.04484266 0.7860055 0.04387044 0.8208675 0.04404914 0.8608771 0.04491794 0.860013 0.0442422 0.8601526 -0.002024173 0.5723623 0.0442115 0.5722329 0.0430389 0.7860055 0.04387044 0.5723666 -0.003046572 0.786162 -0.003148198 0.7860615 -0.002116262 1.673116 0.4403837 1.673114 0.4434784 -0.5259058 0.4426862 -0.5259896 0.8410974 -0.5259901 0.8369712 1.673029 0.8371242 0.8521058 0.04515731 0.8449221 0.04512548 0.8455032 0.04417783 0.8456425 -0.002088785 0.8450698 -0.003041565 0.8522537 -0.003009557 0.852813 0.04421019 0.8516013 0.04420483 0.8517408 -0.002061605 0.8444308 -0.002094268 0.8456425 -0.002088785 0.8455032 0.04417783 0.8442918 0.04417258 0.8444956 0.045008 0.8219425 0.04490816 0.860013 0.0442422 0.8606811 0.04511219 0.852559 0.04507607 0.8444308 -0.002094268 0.822068 -0.002172172 0.8220582 -0.003007769 0.8601526 -0.002024173 0.8529525 -0.002056181 0.8527062 -0.002924323 0.7860988 0.04490411 0.7880672 0.1238742 0.5751825 0.1236993 -6.490037 0.4725014 -6.490038 0.2857796 7.514084 0.4724793 -6.490057 0.2850548 -6.49006 0.09833562 7.514035 0.2849186 0.009000241 -2.743915 0.9909937 -2.743916 0.009006738 2.92143 0.9909937 -2.779922 0.9909937 -2.743916 0.009000182 -2.77992 -7.38009 0.2857879 -6.579043 0.2857804 -7.380088 0.4725161 7.603083 0.4724797 7.603083 0.2857607 8.404075 0.4724832 -7.38009 0.09834891 -6.579062 0.09833693 -7.380085 0.2850731 0.009006738 2.957436 0.009006738 2.92143 0.990999 2.957435 7.603037 0.2849165 7.603035 0.0981943 8.404058 0.2848981 0.009007096 3.281485 0.009006738 2.957436 0.9909995 3.281485 0.9909933 -3.103971 0.9909937 -2.779922 0.008999943 -3.10397 7.603035 0.0981943 7.603035 0.0981943 7.514033 0.09819632 -7.380088 0.4725161 -7.380088 0.4725161 -6.579042 0.4725028 8.404054 0.09817582 8.404054 0.09817582 7.603035 0.0981943 -6.579042 0.4725028 -6.579042 0.4725028 -6.490037 0.4725014 -6.579062 0.09833693 -7.38009 0.09834891 -6.579062 0.09833693 7.603083 0.4724797 8.404075 0.4724832 7.603083 0.4724797 7.514084 0.4724793 7.603083 0.4724797 7.514084 0.4724793 -6.49006 0.09833562 -6.579062 0.09833693 -6.49006 0.09833562 7.514033 0.09819632 7.514033 0.09819632 -6.49006 0.09833562 -6.490037 0.4725014 -6.490037 0.4725014 7.514084 0.4724793 0.9909995 3.281485 0 0 -7.380085 0.2850731 0 0 8.404077 0.2857671 0 0 -2.485059 0.6970476 -2.485059 -0.4969759 3.485059 0.6970476 -2.025285 0.04390966 -2.025291 -0.002294123 3.025292 0.04316079 3.025292 0.04566663 3.025292 0.1263407 -2.025285 0.04565346 3.025285 -0.004785716 3.025285 -0.003041923 -2.025291 -0.004799962 -2.025285 0.04565346 -2.025285 0.04390966 3.025292 0.04566663 -2.025291 -0.004799962 -2.02529 -0.08547449 3.025285 -0.004785716 -0.3222766 0.02232915 -0.261186 0.0223518 -0.3223117 0.2087721 3.242109 0.2260971 3.24211 0.2867061 -0.2611967 0.2262139 -0.2611956 0.208793 -0.261186 0.0223518 3.242109 0.2086624 -0.261186 0.0223518 -0.2611873 -0.1009373 3.242106 0.02221435 -0.2611959 0.3042452 -0.2611959 0.2868248 3.24211 0.3041409 -0.2611967 0.2262139 -0.2611956 0.208793 3.242109 0.2260971 3.242113 0.5075436 -0.2611939 0.5076564 3.24211 0.3041409 -0.3222766 0.02232915 -0.3223117 0.2087721 -0.4974266 0.02220469 -0.2640937 0.2254681 -0.2873247 0.2868248 -0.3198493 0.225665 -0.2973971 0.3042452 -0.2898285 0.3042452 -0.2746282 0.4962967 -0.2611956 0.208793 -0.2640937 0.2254681 -0.3223117 0.2087721 -0.2873247 0.2868248 -0.2898285 0.3042452 -0.3001962 0.2868248 -0.2976281 -0.09304237 -0.2901231 -0.08989423 -0.3222766 0.02232915 -0.5044822 0.2209568 -0.5605301 0.2209168 -0.5675328 0.2085852 -0.5675328 0.2085852 -0.5674863 0.02215534 -0.4974266 0.02220469 -0.5044822 0.2209568 -0.5675328 0.2085852 -0.4974734 0.2086349 -0.5675328 0.2085852 -0.4974266 0.02220469 -0.4974734 0.2086349 -0.4975197 0.3040723 -0.3223602 0.3042666 -0.4975988 0.5074691 -0.4974734 0.2086349 -0.3223117 0.2087721 -0.4974787 0.2260558 -0.497511 0.2866498 -0.3223526 0.2868272 -0.4975197 0.3040723 -0.497398 -0.1010639 -0.3222489 -0.1009392 -0.4974266 0.02220469 -0.2611956 0.208793 -0.261186 0.0223518 -0.3223117 0.2087721 -0.2611959 0.2868248 3.24211 0.2867061 -0.2611967 0.2262139 3.242106 0.02221435 -0.261186 0.0223518 3.242109 0.2086624 3.242105 -0.1010645 -0.2611873 -0.1009373 3.242106 0.02221435 3.24211 0.2867061 -0.2611959 0.2868248 3.24211 0.3041409 3.242109 0.2086624 -0.2611956 0.208793 3.242109 0.2260971 -0.2611959 0.3042452 -0.2611939 0.5076564 3.24211 0.3041409 -0.3222766 0.02232915 -0.4974266 0.02220469 -0.3223117 0.2087721 -0.2640937 0.2254681 -0.3198493 0.225665 -0.2873247 0.2868248 -0.2670588 0.4936229 -0.2898285 0.3042452 -0.2746282 0.4962967 -0.2611956 0.208793 -0.3223117 0.2087721 -0.2640937 0.2254681 -0.2873247 0.2868248 -0.3001962 0.2868248 -0.2898285 0.3042452 -0.261186 0.0223518 -0.2901231 -0.08989423 -0.3222766 0.02232915 -0.5675328 0.2085852 -0.5605301 0.2209168 -0.5044822 0.2209568 -0.4974266 0.02220469 -0.5675328 0.2085852 -0.4974734 0.2086349 -0.4974266 0.02220469 -0.5674863 0.02215534 -0.5675328 0.2085852 -0.5675328 0.2085852 -0.5044822 0.2209568 -0.4974734 0.2086349 -0.3224365 0.5076743 -0.3223602 0.3042666 -0.4975988 0.5074691 -0.322319 0.2262139 -0.3223117 0.2087721 -0.4974787 0.2260558 -0.3223602 0.3042666 -0.3223526 0.2868272 -0.4975197 0.3040723 -0.3222766 0.02232915 -0.3222489 -0.1009392 -0.4974266 0.02220469 -0.2611956 0.208793 -0.261186 0.0223518 -0.3223117 0.2087721 -0.2611959 0.2868248 3.24211 0.2867061 -0.2611967 0.2262139 3.242106 0.02221435 -0.261186 0.0223518 3.242109 0.2086624 3.242105 -0.1010645 -0.2611873 -0.1009373 3.242106 0.02221435 3.24211 0.2867061 -0.2611959 0.2868248 3.24211 0.3041409 3.242109 0.2086624 -0.2611956 0.208793 3.242109 0.2260971 -0.2611959 0.3042452 -0.2611939 0.5076564 3.24211 0.3041409 -0.3222766 0.02232915 -0.4974266 0.02220469 -0.3223117 0.2087721 -0.2640937 0.2254681 -0.3198493 0.225665 -0.2873247 0.2868248 -0.2670588 0.4936229 -0.2898285 0.3042452 -0.2746282 0.4962967 -0.2611956 0.208793 -0.3223117 0.2087721 -0.2640937 0.2254681 -0.2873247 0.2868248 -0.3001962 0.2868248 -0.2898285 0.3042452 -0.261186 0.0223518 -0.2901231 -0.08989423 -0.3222766 0.02232915 -0.5675328 0.2085852 -0.5605301 0.2209168 -0.5044822 0.2209568 -0.4974266 0.02220469 -0.5675328 0.2085852 -0.4974734 0.2086349 -0.4974266 0.02220469 -0.5674863 0.02215534 -0.5675328 0.2085852 -0.5675328 0.2085852 -0.5044822 0.2209568 -0.4974734 0.2086349 -0.3224365 0.5076743 -0.3223602 0.3042666 -0.4975988 0.5074691 -0.322319 0.2262139 -0.3223117 0.2087721 -0.4974787 0.2260558 -0.3223602 0.3042666 -0.3223526 0.2868272 -0.4975197 0.3040723 -0.3222766 0.02232915 -0.3222489 -0.1009392 -0.4974266 0.02220469 -0.3222766 0.02232915 -0.261186 0.0223518 -0.3223117 0.2087721 3.242109 0.2260971 3.24211 0.2867061 -0.2611967 0.2262139 -0.2611956 0.208793 -0.261186 0.0223518 3.242109 0.2086624 -0.261186 0.0223518 -0.2611873 -0.1009373 3.242106 0.02221435 -0.2611959 0.3042452 -0.2611959 0.2868248 3.24211 0.3041409 -0.2611967 0.2262139 -0.2611956 0.208793 3.242109 0.2260971 3.242113 0.5075436 -0.2611939 0.5076564 3.24211 0.3041409 -0.3222766 0.02232915 -0.3223117 0.2087721 -0.4974266 0.02220469 -0.2640937 0.2254681 -0.2873247 0.2868248 -0.3198493 0.225665 -0.2973971 0.3042452 -0.2898285 0.3042452 -0.2746282 0.4962967 -0.2611956 0.208793 -0.2640937 0.2254681 -0.3223117 0.2087721 -0.2873247 0.2868248 -0.2898285 0.3042452 -0.3001962 0.2868248 -0.2976281 -0.09304237 -0.2901231 -0.08989423 -0.3222766 0.02232915 -0.5044822 0.2209568 -0.5605301 0.2209168 -0.5675328 0.2085852 -0.5675328 0.2085852 -0.5674863 0.02215534 -0.4974266 0.02220469 -0.5044822 0.2209568 -0.5675328 0.2085852 -0.4974734 0.2086349 -0.5675328 0.2085852 -0.4974266 0.02220469 -0.4974734 0.2086349 -0.4975197 0.3040723 -0.3223602 0.3042666 -0.4975988 0.5074691 -0.4974734 0.2086349 -0.3223117 0.2087721 -0.4974787 0.2260558 -0.497511 0.2866498 -0.3223526 0.2868272 -0.4975197 0.3040723 -0.497398 -0.1010639 -0.3222489 -0.1009392 -0.4974266 0.02220469 -0.5259962 0.6837844 1.673023 0.6834702 -0.5259934 0.7624258 0.2113931 0.2256988 0.2113931 0.2121636 0.2436699 0.2256988 0.2218211 0.1252419 0.2488918 0.1252512 0.2218101 0.1575188 0.2863771 -0.002502501 0.5002063 -0.001974344 0.2863855 0.04349404 0.2488918 0.1252512 0.4626012 0.1253245 0.2488808 0.1575281 0.2113931 0.2340468 0.2113931 0.2256988 0.2436699 0.2340468 0.2842736 -0.08756446 0.4972383 -0.08756446 0.2862802 -0.00353527 0.4626012 0.1253245 0.4858098 0.1253324 0.4625902 0.1576012 0.256992 -0.08756446 0.2842736 -0.08756446 0.2863315 -0.003472268 0.2570276 0.1218879 0.2863404 0.0444675 0.2842897 0.1232714 -0.5259809 0.6040878 1.673039 0.6043588 -0.5259959 0.6796259 1.673321 0.5223542 1.67304 0.6012283 -0.5259428 0.5213203 0.2504204 0.04364275 0.22808 0.04370683 0.25036 -0.002613186 0.2514813 -0.002593278 0.2863771 -0.002502501 0.2515122 0.04361957 0.2478042 -0.1000833 0.256992 -0.08756446 0.2439229 -0.08756446 0.2207671 0.04372793 0.2206772 -0.002549409 0.2268677 0.04371041 0.5011072 0.04371672 0.5362342 0.04406982 0.5218068 0.1163774 0.5001027 -0.00315833 0.5218356 -0.08074438 0.5011074 -0.002686262 0.5001027 -0.00315833 0.4972383 -0.08756446 0.5218356 -0.08074438 0.5218068 0.1163774 0.4972202 0.123673 0.5001016 0.04417955 0.2195549 0.04373145 0.2123522 0.04375207 0.219465 -0.002546012 0.2114043 0.1252384 0.2218211 0.1252419 0.2113931 0.1575151 0.2511168 0.04473137 0.2570276 0.1218879 0.2439707 0.1254415 0.25036 -0.002613186 0.2514813 -0.002593278 0.2504204 0.04364275 0.2863771 -0.002502501 0.2514813 -0.002593278 0.2863315 -0.003472268 0.2863855 0.04349404 0.2863404 0.0444675 0.2515122 0.04361957 0.2123522 0.04375207 0.2114869 0.04442662 0.2122623 -0.002525389 0.5002059 0.04299777 0.5001016 0.04417955 0.2863855 0.04349404 0.5002063 -0.001974344 0.2863771 -0.002502501 0.5001027 -0.00315833 1.67304 0.6012283 1.673039 0.6043588 -0.5259796 0.5999617 -0.5259962 0.6837844 -0.5259959 0.6796259 1.673023 0.6834702 0.2207671 0.04372793 0.2268677 0.04371041 0.220261 0.04467993 0.2273523 -0.003519058 0.226778 -0.002566814 0.2201656 -0.003498554 0.2207671 0.04372793 0.2195549 0.04373145 0.2206772 -0.002549409 0.226778 -0.002566814 0.2279903 -0.002570211 0.2268677 0.04371041 0.2278748 0.04454213 0.22808 0.04370683 0.2504354 0.0444774 0.2116826 0.04462134 0.2123522 0.04375207 0.2198076 0.04459804 0.2277808 -0.00340563 0.2503711 -0.003449082 0.2279903 -0.002570211 0.2115877 -0.003390729 0.2197128 -0.003414034 0.2122623 -0.002525389 0.5001016 0.04417955 0.4972202 0.123673 0.2862915 0.04452913 1.67327 0.7623444 1.673029 0.8371242 -0.5259934 0.7624258 0.2436699 0.2121636 0.2113931 0.2121636 0.2436699 0.1986286 0.4483119 0.190081 0.4483111 0.1578042 0.4753826 0.1900802 0.5722329 0.0430389 0.572265 -0.00190103 0.7860055 0.04387044 0.2346025 0.1900859 0.2346017 0.157809 0.4483119 0.190081 0.2436699 0.1986286 0.2113931 0.1986286 0.2436699 0.1902805 0.5723666 -0.003046572 0.5753107 -0.08756446 0.786162 -0.003148198 0.2113938 0.1900864 0.2113931 0.1578096 0.2346025 0.1900859 0.786162 -0.003148198 0.7881973 -0.08756446 0.7861095 -0.003085553 0.7860988 0.04490411 0.7860497 0.04484266 0.7880672 0.1238742 1.673166 0.3732711 1.673116 0.4403837 -0.5258549 0.3719099 1.673321 0.5223542 -0.5259428 0.5213203 1.673114 0.4434784 0.8444308 -0.002094268 0.8442918 0.04417258 0.822068 -0.002172172 0.7860055 0.04387044 0.7860615 -0.002116262 0.8208675 0.04404914 0.8246669 -0.09933513 0.8285378 -0.08756446 0.8154671 -0.08756446 0.8516013 0.04420483 0.8455032 0.04417783 0.8517408 -0.002061605 0.5506189 0.1163828 0.5362342 0.04406982 0.5714024 0.04369723 0.5713558 -0.002480208 0.5507067 -0.08070439 0.5723666 -0.003046572 0.5713558 -0.002480208 0.5362142 -0.003027498 0.5507067 -0.08070439 0.5751825 0.1236993 0.5506189 0.1163828 0.5723623 0.0442115 0.5506189 0.1163828 0.5714024 0.04369723 0.5723623 0.0442115 0.4753826 0.1900802 0.4753817 0.1578035 0.4857994 0.19008 0.8244804 0.1361179 0.8153238 0.1226014 0.8283703 0.1261581 0.8208675 0.04404914 0.8209469 -0.002153992 0.8219588 0.04407382 0.7860615 -0.002116262 0.7861095 -0.003085553 0.8209469 -0.002153992 0.8212606 0.0451613 0.7860497 0.04484266 0.8208675 0.04404914 0.8610224 -0.002692103 0.8608771 0.04491794 0.8601526 -0.002024173 0.7860988 0.04490411 0.5723623 0.0442115 0.7860055 0.04387044 0.572265 -0.00190103 0.5723666 -0.003046572 0.7860615 -0.002116262 -0.5259034 0.4385276 1.673116 0.4403837 -0.5259058 0.4426862 1.673029 0.8402547 -0.5259896 0.8410974 1.673029 0.8371242 0.8516013 0.04420483 0.8521058 0.04515731 0.8455032 0.04417783 0.8517408 -0.002061605 0.8456425 -0.002088785 0.8522537 -0.003009557 0.8529525 -0.002056181 0.852813 0.04421019 0.8517408 -0.002061605 0.8442918 0.04417258 0.8444308 -0.002094268 0.8455032 0.04417783 0.8219588 0.04407382 0.8442918 0.04417258 0.8219425 0.04490816 0.852813 0.04421019 0.860013 0.0442422 0.852559 0.04507607 0.8446416 -0.002929151 0.8444308 -0.002094268 0.8220582 -0.003007769 0.8608282 -0.002888143 0.8601526 -0.002024173 0.8527062 -0.002924323 0.5723623 0.0442115 0.7860988 0.04490411 0.5751825 0.1236993 -0.5259962 0.6837844 1.673023 0.6834702 -0.5259934 0.7624258 0.2113931 0.2256988 0.2113931 0.2121636 0.2436699 0.2256988 0.2218211 0.1252419 0.2488918 0.1252512 0.2218101 0.1575188 0.2863771 -0.002502501 0.5002063 -0.001974344 0.2863855 0.04349404 0.2488918 0.1252512 0.4626012 0.1253245 0.2488808 0.1575281 0.2113931 0.2340468 0.2113931 0.2256988 0.2436699 0.2340468 0.2842736 -0.08756446 0.4972383 -0.08756446 0.2862802 -0.00353527 0.4626012 0.1253245 0.4858098 0.1253324 0.4625902 0.1576012 0.256992 -0.08756446 0.2842736 -0.08756446 0.2863315 -0.003472268 0.2570276 0.1218879 0.2863404 0.0444675 0.2842897 0.1232714 -0.5259809 0.6040878 1.673039 0.6043588 -0.5259959 0.6796259 1.673321 0.5223542 1.67304 0.6012283 -0.5259428 0.5213203 0.2504204 0.04364275 0.22808 0.04370683 0.25036 -0.002613186 0.2514813 -0.002593278 0.2863771 -0.002502501 0.2515122 0.04361957 0.2478042 -0.1000833 0.256992 -0.08756446 0.2439229 -0.08756446 0.2207671 0.04372793 0.2206772 -0.002549409 0.2268677 0.04371041 0.5011072 0.04371672 0.5362342 0.04406982 0.5218068 0.1163774 0.5001027 -0.00315833 0.5218356 -0.08074438 0.5011074 -0.002686262 0.5001027 -0.00315833 0.4972383 -0.08756446 0.5218356 -0.08074438 0.5218068 0.1163774 0.4972202 0.123673 0.5001016 0.04417955 0.2195549 0.04373145 0.2123522 0.04375207 0.219465 -0.002546012 0.2114043 0.1252384 0.2218211 0.1252419 0.2113931 0.1575151 0.2511168 0.04473137 0.2570276 0.1218879 0.2439707 0.1254415 0.25036 -0.002613186 0.2514813 -0.002593278 0.2504204 0.04364275 0.2863771 -0.002502501 0.2514813 -0.002593278 0.2863315 -0.003472268 0.2863855 0.04349404 0.2863404 0.0444675 0.2515122 0.04361957 0.2123522 0.04375207 0.2114869 0.04442662 0.2122623 -0.002525389 0.5002059 0.04299777 0.5001016 0.04417955 0.2863855 0.04349404 0.5002063 -0.001974344 0.2863771 -0.002502501 0.5001027 -0.00315833 1.67304 0.6012283 1.673039 0.6043588 -0.5259796 0.5999617 -0.5259962 0.6837844 -0.5259959 0.6796259 1.673023 0.6834702 0.2207671 0.04372793 0.2268677 0.04371041 0.220261 0.04467993 0.2273523 -0.003519058 0.226778 -0.002566814 0.2201656 -0.003498554 0.2207671 0.04372793 0.2195549 0.04373145 0.2206772 -0.002549409 0.226778 -0.002566814 0.2279903 -0.002570211 0.2268677 0.04371041 0.2278748 0.04454213 0.22808 0.04370683 0.2504354 0.0444774 0.2116826 0.04462134 0.2123522 0.04375207 0.2198076 0.04459804 0.2277808 -0.00340563 0.2503711 -0.003449082 0.2279903 -0.002570211 0.2115877 -0.003390729 0.2197128 -0.003414034 0.2122623 -0.002525389 0.5001016 0.04417955 0.4972202 0.123673 0.2862915 0.04452913 1.67327 0.7623444 1.673029 0.8371242 -0.5259934 0.7624258 0.2436699 0.2121636 0.2113931 0.2121636 0.2436699 0.1986286 0.4483119 0.190081 0.4483111 0.1578042 0.4753826 0.1900802 0.5722329 0.0430389 0.572265 -0.00190103 0.7860055 0.04387044 0.2346025 0.1900859 0.2346017 0.157809 0.4483119 0.190081 0.2436699 0.1986286 0.2113931 0.1986286 0.2436699 0.1902805 0.5723666 -0.003046572 0.5753107 -0.08756446 0.786162 -0.003148198 0.2113938 0.1900864 0.2113931 0.1578096 0.2346025 0.1900859 0.786162 -0.003148198 0.7881973 -0.08756446 0.7861095 -0.003085553 0.7860988 0.04490411 0.7860497 0.04484266 0.7880672 0.1238742 1.673166 0.3732711 1.673116 0.4403837 -0.5258549 0.3719099 1.673321 0.5223542 -0.5259428 0.5213203 1.673114 0.4434784 0.8444308 -0.002094268 0.8442918 0.04417258 0.822068 -0.002172172 0.7860055 0.04387044 0.7860615 -0.002116262 0.8208675 0.04404914 0.8246669 -0.09933513 0.8285378 -0.08756446 0.8154671 -0.08756446 0.8516013 0.04420483 0.8455032 0.04417783 0.8517408 -0.002061605 0.5506189 0.1163828 0.5362342 0.04406982 0.5714024 0.04369723 0.5713558 -0.002480208 0.5507067 -0.08070439 0.5723666 -0.003046572 0.5713558 -0.002480208 0.5362142 -0.003027498 0.5507067 -0.08070439 0.5751825 0.1236993 0.5506189 0.1163828 0.5723623 0.0442115 0.5506189 0.1163828 0.5714024 0.04369723 0.5723623 0.0442115 0.4753826 0.1900802 0.4753817 0.1578035 0.4857994 0.19008 0.8244804 0.1361179 0.8153238 0.1226014 0.8283703 0.1261581 0.8208675 0.04404914 0.8209469 -0.002153992 0.8219588 0.04407382 0.7860615 -0.002116262 0.7861095 -0.003085553 0.8209469 -0.002153992 0.8212606 0.0451613 0.7860497 0.04484266 0.8208675 0.04404914 0.8610224 -0.002692103 0.8608771 0.04491794 0.8601526 -0.002024173 0.7860988 0.04490411 0.5723623 0.0442115 0.7860055 0.04387044 0.572265 -0.00190103 0.5723666 -0.003046572 0.7860615 -0.002116262 -0.5259034 0.4385276 1.673116 0.4403837 -0.5259058 0.4426862 1.673029 0.8402547 -0.5259896 0.8410974 1.673029 0.8371242 0.8516013 0.04420483 0.8521058 0.04515731 0.8455032 0.04417783 0.8517408 -0.002061605 0.8456425 -0.002088785 0.8522537 -0.003009557 0.8529525 -0.002056181 0.852813 0.04421019 0.8517408 -0.002061605 0.8442918 0.04417258 0.8444308 -0.002094268 0.8455032 0.04417783 0.8219588 0.04407382 0.8442918 0.04417258 0.8219425 0.04490816 0.852813 0.04421019 0.860013 0.0442422 0.852559 0.04507607 0.8446416 -0.002929151 0.8444308 -0.002094268 0.8220582 -0.003007769 0.8608282 -0.002888143 0.8601526 -0.002024173 0.8527062 -0.002924323 0.5723623 0.0442115 0.7860988 0.04490411 0.5751825 0.1236993</float_array>
          <technique_common>
            <accessor source="#Cube_015-mesh-map-0-array" count="1842" stride="2">
              <param name="S" type="float"/>
              <param name="T" type="float"/>
            </accessor>
          </technique_common>
        </source>
        <vertices id="Cube_015-mesh-vertices">
          <input semantic="POSITION" source="#Cube_015-mesh-positions"/>
        </vertices>
        <polylist material="ind_concrete_02-material" count="604">
          <input semantic="VERTEX" source="#Cube_015-mesh-vertices" offset="0"/>
          <input semantic="NORMAL" source="#Cube_015-mesh-normals" offset="1"/>
          <input semantic="TEXCOORD" source="#Cube_015-mesh-map-0" offset="2" set="0"/>
          <vcount>3 3 3 3 3 3 3 3 3 3 3 3 3 3 3 3 3 3 3 3 3 3 3 3 3 3 3 3 3 3 3 3 3 3 3 3 3 3 3 3 3 3 3 3 3 3 3 3 3 3 3 3 3 3 3 3 3 3 3 3 3 3 3 3 3 3 3 3 3 3 3 3 3 3 3 3 3 3 3 3 3 3 3 3 3 3 3 3 3 3 3 3 3 3 3 3 3 3 3 3 3 3 3 3 3 3 3 3 3 3 3 3 3 3 3 3 3 3 3 3 3 3 3 3 3 3 3 3 3 3 3 3 3 3 3 3 3 3 3 3 3 3 3 3 3 3 3 3 3 3 3 3 3 3 3 3 3 3 3 3 3 3 3 3 3 3 3 3 3 3 3 3 3 3 3 3 3 3 3 3 3 3 3 3 3 3 3 3 3 3 3 3 3 3 3 3 3 3 3 3 3 3 3 3 3 3 3 3 3 3 3 3 3 3 3 3 3 3 3 3 3 3 3 3 3 3 3 3 3 3 3 3 3 3 3 3 3 3 3 3 3 3 3 3 3 3 3 3 3 3 3 3 3 3 3 3 3 3 3 3 3 3 3 3 3 3 3 3 3 3 3 3 3 3 3 3 3 3 3 3 3 3 3 3 3 3 3 3 3 3 3 3 3 3 3 3 3 3 3 3 3 3 3 3 3 3 3 3 3 3 3 3 3 3 3 3 3 3 3 3 3 3 3 3 3 3 3 3 3 3 3 3 3 3 3 3 3 3 3 3 3 3 3 3 3 3 3 3 3 3 3 3 3 3 3 3 3 3 3 3 3 3 3 3 3 3 3 3 3 3 3 3 3 3 3 3 3 3 3 3 3 3 3 3 3 3 3 3 3 3 3 3 3 3 3 3 3 3 3 3 3 3 3 3 3 3 3 3 3 3 3 3 3 3 3 3 3 3 3 3 3 3 3 3 3 3 3 3 3 3 3 3 3 3 3 3 3 3 3 3 3 3 3 3 3 3 3 3 3 3 3 3 3 3 3 3 3 3 3 3 3 3 3 3 3 3 3 3 3 3 3 3 3 3 3 3 3 3 3 3 3 3 3 3 3 3 3 3 3 3 3 3 3 3 3 3 3 3 3 3 3 3 3 3 3 3 3 3 3 3 3 3 3 3 3 3 3 3 3 3 3 3 3 3 3 3 3 3 3 3 3 3 3 3 3 3 3 3 3 3 3 3 3 3 3 3 3 3 3 3 3 3 3 3 3 3 3 3 3 3 3 3 3 3 3 3 3 3 3 3 3 3 3 3 3 3 3 3 3 3 3 3 3 3 3 3 3 3 3 3 3 3 3 3 3 3 3 3 3 3 3 3 3 3 </vcount>
          <p>11 0 0 8 0 1 1 0 2 3 1 3 2 1 4 9 1 5 9 3 9 2 3 10 21 3 11 16 4 12 9 4 13 21 4 14 11 5 15 0 5 16 18 5 17 23 7 21 18 7 22 4 7 23 10 8 24 20 8 25 17 8 26 19 9 27 12 9 28 5 9 29 8 10 30 19 10 31 22 10 32 17 11 33 20 11 34 14 11 35 21 13 39 6 13 40 13 13 41 1 16 48 8 16 49 22 16 50 23 17 51 11 17 52 18 17 53 3 18 54 10 18 55 17 18 56 21 19 57 2 19 58 26 19 59 4 20 60 18 20 61 33 20 62 6 21 63 21 21 64 34 21 65 18 22 66 0 22 67 24 22 68 7 23 69 31 23 70 32 23 71 5 24 72 29 24 73 35 24 74 22 25 75 35 25 76 25 25 77 17 26 78 32 26 79 27 26 80 2 27 81 3 27 82 27 27 83 0 28 84 1 28 85 25 28 86 7 29 87 14 29 88 31 29 89 4 30 90 28 30 91 15 30 92 15 31 93 28 31 94 31 31 95 6 32 96 30 32 97 13 32 98 5 33 99 12 33 100 29 33 101 12 34 102 13 34 103 30 34 104 24 35 105 25 35 106 26 35 107 41 36 108 42 36 109 45 36 110 38 37 111 39 37 112 47 37 113 42 38 114 41 38 115 40 38 116 46 39 117 45 39 118 44 39 119 36 40 120 37 40 121 43 40 122 49 41 123 52 41 124 58 41 125 92 42 126 50 42 127 53 42 128 49 43 129 91 43 130 94 43 131 48 44 132 90 44 133 91 44 134 50 45 135 92 45 136 93 45 137 52 46 138 94 46 139 95 46 140 48 47 141 51 47 142 93 47 143 58 48 144 64 48 145 61 48 146 50 49 147 56 49 148 59 49 149 51 50 150 48 50 151 54 50 152 53 51 153 59 51 154 58 51 155 51 52 156 57 52 157 56 52 158 48 53 159 49 53 160 55 53 161 59 54 162 56 54 163 65 54 164 56 55 165 62 55 166 65 55 167 57 56 168 54 56 169 60 56 170 58 57 171 59 57 172 65 57 173 56 58 174 57 58 175 63 58 176 54 59 177 55 59 178 61 59 179 67 60 180 73 60 181 76 60 182 116 61 183 119 61 184 71 61 185 67 62 186 70 62 187 118 62 188 66 63 189 67 63 190 115 63 191 68 64 192 69 64 193 117 64 194 70 65 195 71 65 196 119 65 197 66 66 198 114 66 199 117 66 200 79 67 201 82 67 202 76 67 203 77 68 204 74 68 205 68 68 206 69 69 207 75 69 208 72 69 209 76 70 210 77 70 211 71 70 212 74 71 213 75 71 214 69 71 215 66 72 216 72 72 217 73 72 218 77 73 219 83 73 220 74 73 221 83 74 222 80 74 223 74 74 224 75 75 225 81 75 226 78 75 227 76 76 228 82 76 229 83 76 230 74 77 231 80 77 232 81 77 233 72 78 234 78 78 235 79 78 236 85 79 237 97 79 238 100 79 239 92 80 240 95 80 241 89 80 242 85 81 243 88 81 244 94 81 245 84 82 246 85 82 247 91 82 248 86 83 249 87 83 250 93 83 251 88 84 252 89 84 253 95 84 254 84 85 255 90 85 256 93 85 257 103 86 258 106 86 259 100 86 260 101 87 261 98 87 262 86 87 263 87 88 264 99 88 265 96 88 266 100 89 267 101 89 268 89 89 269 98 90 270 99 90 271 87 90 272 84 91 273 96 91 274 97 91 275 101 92 276 107 92 277 98 92 278 107 93 279 104 93 280 98 93 281 99 94 282 105 94 283 102 94 284 100 95 285 106 95 286 107 95 287 98 96 288 104 96 289 105 96 290 96 97 291 102 97 292 103 97 293 109 98 294 112 98 295 124 98 296 116 99 297 110 99 298 113 99 299 109 100 300 115 100 301 118 100 302 108 101 303 114 101 304 115 101 305 110 102 306 116 102 307 117 102 308 112 103 309 118 103 310 119 103 311 108 104 312 111 104 313 117 104 314 124 105 315 130 105 316 127 105 317 110 106 318 122 106 319 125 106 320 111 107 321 108 107 322 120 107 323 113 108 324 125 108 325 124 108 326 111 109 327 123 109 328 122 109 329 108 110 330 109 110 331 121 110 332 125 111 333 122 111 334 131 111 335 122 112 336 128 112 337 131 112 338 123 113 339 120 113 340 126 113 341 124 114 342 125 114 343 131 114 344 122 115 345 123 115 346 129 115 347 120 116 348 121 116 349 127 116 350 147 117 351 181 117 352 195 117 353 186 118 354 184 118 355 133 118 356 135 119 357 134 119 358 140 119 359 145 120 360 143 120 361 152 120 362 136 121 363 139 121 364 134 121 365 132 122 366 133 122 367 138 122 368 186 123 369 132 123 370 180 123 371 133 124 372 184 124 373 181 124 374 139 125 375 146 125 376 150 125 377 136 126 378 132 126 379 137 126 380 137 127 381 138 127 382 139 127 383 133 128 384 139 128 385 138 128 386 134 129 387 150 129 388 149 129 389 140 130 390 177 130 391 160 130 392 140 131 393 149 131 394 156 131 395 151 132 396 153 132 397 135 132 398 143 133 399 145 133 400 166 133 401 144 134 402 164 134 403 194 134 404 171 135 405 176 135 406 155 135 407 148 136 408 152 136 409 159 136 410 170 137 411 141 137 412 162 137 413 140 138 414 156 138 415 175 138 416 151 139 417 141 139 418 157 139 419 178 140 420 174 140 421 173 140 422 133 141 423 181 141 424 147 141 425 132 142 426 142 142 427 144 142 428 163 143 429 161 143 430 179 143 431 141 144 432 140 144 433 160 144 434 141 145 435 170 145 436 172 145 437 142 146 438 143 146 439 144 146 440 145 147 441 146 147 442 147 147 443 148 148 444 149 148 445 150 148 446 151 149 447 152 149 448 153 149 449 154 150 450 155 150 451 156 150 452 157 151 453 158 151 454 159 151 455 168 152 456 169 152 457 170 152 458 171 153 459 172 153 460 173 153 461 174 154 462 175 154 463 176 154 464 177 155 465 178 155 466 179 155 467 154 156 468 159 156 469 158 156 470 154 157 471 156 157 472 149 157 473 151 158 474 157 158 475 159 158 476 162 159 477 160 159 478 161 159 479 142 160 480 153 160 481 152 160 482 148 161 483 150 161 484 146 161 485 143 162 486 165 162 487 164 162 488 166 163 489 145 163 490 147 163 491 173 164 492 172 164 493 170 164 494 174 165 495 178 165 496 177 165 497 168 166 498 179 166 499 178 166 500 176 167 501 171 167 502 173 167 503 171 168 504 158 168 505 157 168 506 163 169 507 168 169 508 170 169 509 156 170 510 155 170 511 176 170 512 177 171 513 179 171 514 161 171 515 136 172 516 135 172 517 153 172 518 201 173 519 221 173 520 195 173 521 186 174 522 182 174 523 183 174 524 187 175 525 193 175 526 192 175 527 199 176 528 202 176 529 206 176 530 188 177 531 187 177 532 185 177 533 182 178 534 189 178 535 190 178 536 186 179 537 180 179 538 182 179 539 183 180 540 181 180 541 184 180 542 191 181 543 185 181 544 204 181 545 188 182 546 189 182 547 182 182 548 189 183 549 188 183 550 191 183 551 183 184 552 190 184 553 191 184 554 185 185 555 192 185 556 203 185 557 192 186 558 214 186 559 231 186 560 192 187 561 210 187 562 203 187 563 205 188 564 193 188 565 187 188 566 197 189 567 219 189 568 220 189 569 194 190 570 218 190 571 198 190 572 225 191 573 212 191 574 209 191 575 202 192 576 208 192 577 213 192 578 224 193 579 216 193 580 193 193 581 229 194 582 210 194 583 192 194 584 205 195 585 211 195 586 193 195 587 227 196 588 228 196 589 232 196 590 183 197 591 191 197 592 200 197 593 215 198 594 217 198 595 233 198 596 217 199 597 222 199 598 233 199 599 193 200 600 216 200 601 214 200 602 193 201 603 211 201 604 226 201 605 196 202 606 198 202 607 197 202 608 199 203 609 201 203 610 200 203 611 202 204 612 204 204 613 203 204 614 205 205 615 207 205 616 206 205 617 208 206 618 210 206 619 209 206 620 211 207 621 213 207 622 212 207 623 222 208 624 224 208 625 223 208 626 225 209 627 227 209 628 226 209 629 228 210 630 230 210 631 229 210 632 231 211 633 233 211 634 232 211 635 208 212 636 209 212 637 212 212 638 203 213 639 210 213 640 208 213 641 205 214 642 206 214 643 213 214 644 216 215 645 217 215 646 215 215 647 196 216 648 197 216 649 206 216 650 200 217 651 204 217 652 202 217 653 197 218 654 198 218 655 218 218 656 220 219 657 221 219 658 201 219 659 224 220 660 226 220 661 227 220 662 228 221 663 229 221 664 231 221 665 222 222 666 223 222 667 232 222 668 230 223 669 228 223 670 227 223 671 225 224 672 226 224 673 211 224 674 217 225 675 216 225 676 224 225 677 230 226 678 209 226 679 210 226 680 215 227 681 233 227 682 231 227 683 207 228 684 187 228 685 188 228 686 249 229 687 283 229 688 297 229 689 288 230 690 286 230 691 235 230 692 237 231 693 236 231 694 242 231 695 247 232 696 245 232 697 254 232 698 238 233 699 241 233 700 236 233 701 234 234 702 235 234 703 240 234 704 288 235 705 234 235 706 282 235 707 235 236 708 286 236 709 283 236 710 241 237 711 248 237 712 252 237 713 238 238 714 234 238 715 239 238 716 239 239 717 240 239 718 241 239 719 235 240 720 241 240 721 240 240 722 236 241 723 252 241 724 251 241 725 242 242 726 279 242 727 262 242 728 242 243 729 251 243 730 258 243 731 253 244 732 255 244 733 237 244 734 245 245 735 247 245 736 268 245 737 246 246 738 266 246 739 296 246 740 273 247 741 278 247 742 257 247 743 250 248 744 254 248 745 261 248 746 272 249 747 243 249 748 264 249 749 242 250 750 258 250 751 277 250 752 253 251 753 243 251 754 259 251 755 280 252 756 276 252 757 275 252 758 235 253 759 283 253 760 249 253 761 234 254 762 244 254 763 246 254 764 265 255 765 263 255 766 281 255 767 243 256 768 242 256 769 262 256 770 243 257 771 272 257 772 274 257 773 244 258 774 245 258 775 246 258 776 247 259 777 248 259 778 249 259 779 250 260 780 251 260 781 252 260 782 253 261 783 254 261 784 255 261 785 256 262 786 257 262 787 258 262 788 259 263 789 260 263 790 261 263 791 270 264 792 271 264 793 272 264 794 273 265 795 274 265 796 275 265 797 276 266 798 277 266 799 278 266 800 279 267 801 280 267 802 281 267 803 256 268 804 261 268 805 260 268 806 256 269 807 258 269 808 251 269 809 253 270 810 259 270 811 261 270 812 264 271 813 262 271 814 263 271 815 244 272 816 255 272 817 254 272 818 250 273 819 252 273 820 248 273 821 245 274 822 267 274 823 266 274 824 268 275 825 247 275 826 249 275 827 275 276 828 274 276 829 272 276 830 276 277 831 280 277 832 279 277 833 270 278 834 281 278 835 280 278 836 278 279 837 273 279 838 275 279 839 273 280 840 260 280 841 259 280 842 265 281 843 270 281 844 272 281 845 258 282 846 257 282 847 278 282 848 279 283 849 281 283 850 263 283 851 238 284 852 237 284 853 255 284 854 303 285 855 323 285 856 297 285 857 288 286 858 284 286 859 285 286 860 289 287 861 295 287 862 294 287 863 301 288 864 304 288 865 308 288 866 290 289 867 289 289 868 287 289 869 284 290 870 291 290 871 292 290 872 288 291 873 282 291 874 284 291 875 285 292 876 283 292 877 286 292 878 293 293 879 287 293 880 306 293 881 290 294 882 291 294 883 284 294 884 291 295 885 290 295 886 293 295 887 285 296 888 292 296 889 293 296 890 287 297 891 294 297 892 305 297 893 294 298 894 316 298 895 333 298 896 294 299 897 312 299 898 305 299 899 307 300 900 295 300 901 289 300 902 299 301 903 321 301 904 322 301 905 296 302 906 320 302 907 300 302 908 327 303 909 314 303 910 311 303 911 304 304 912 310 304 913 315 304 914 326 305 915 318 305 916 295 305 917 331 306 918 312 306 919 294 306 920 307 307 921 313 307 922 295 307 923 329 308 924 330 308 925 334 308 926 285 309 927 293 309 928 302 309 929 317 310 930 319 310 931 335 310 932 319 311 933 324 311 934 335 311 935 295 312 936 318 312 937 316 312 938 295 313 939 313 313 940 328 313 941 298 314 942 300 314 943 299 314 944 301 315 945 303 315 946 302 315 947 304 316 948 306 316 949 305 316 950 307 317 951 309 317 952 308 317 953 310 318 954 312 318 955 311 318 956 313 319 957 315 319 958 314 319 959 324 320 960 326 320 961 325 320 962 327 321 963 329 321 964 328 321 965 330 322 966 332 322 967 331 322 968 333 323 969 335 323 970 334 323 971 310 324 972 311 324 973 314 324 974 305 325 975 312 325 976 310 325 977 307 326 978 308 326 979 315 326 980 318 327 981 319 327 982 317 327 983 298 328 984 299 328 985 308 328 986 302 329 987 306 329 988 304 329 989 299 330 990 300 330 991 320 330 992 322 331 993 323 331 994 303 331 995 326 332 996 328 332 997 329 332 998 330 333 999 331 333 1000 333 333 1001 324 334 1002 325 334 1003 334 334 1004 332 335 1005 330 335 1006 329 335 1007 327 336 1008 328 336 1009 313 336 1010 319 337 1011 318 337 1012 326 337 1013 332 338 1014 311 338 1015 312 338 1016 317 339 1017 335 339 1018 333 339 1019 309 340 1020 289 340 1021 290 340 1022 0 341 1023 11 341 1024 1 341 1025 10 342 1026 3 342 1027 9 342 1028 15 345 1035 23 345 1036 4 345 1037 22 346 1038 19 346 1039 5 346 1040 7 347 1041 17 347 1042 14 347 1043 16 349 1047 21 349 1048 13 349 1049 34 352 1056 21 352 1057 26 352 1058 28 353 1059 4 353 1060 33 353 1061 30 354 1062 6 354 1063 34 354 1064 33 355 1065 18 355 1066 24 355 1067 17 356 1068 7 356 1069 32 356 1070 22 357 1071 5 357 1072 35 357 1073 1 358 1074 22 358 1075 25 358 1076 3 359 1077 17 359 1078 27 359 1079 26 360 1080 2 360 1081 27 360 1082 24 361 1083 0 361 1084 25 361 1085 14 362 1086 15 362 1087 31 362 1088 29 363 1089 12 363 1090 30 363 1091 27 364 1092 24 364 1093 26 364 1094 46 365 1095 41 365 1096 45 365 1097 44 366 1098 38 366 1099 47 366 1100 43 367 1101 42 367 1102 40 367 1103 47 368 1104 46 368 1105 44 368 1106 40 369 1107 36 369 1108 43 369 1109 55 370 1110 49 370 1111 58 370 1112 95 371 1113 92 371 1114 53 371 1115 52 372 1116 49 372 1117 94 372 1118 49 373 1119 48 373 1120 91 373 1121 51 374 1122 50 374 1123 93 374 1124 53 375 1125 52 375 1126 95 375 1127 90 376 1128 48 376 1129 93 376 1130 55 377 1131 58 377 1132 61 377 1133 53 378 1134 50 378 1135 59 378 1136 57 379 1137 51 379 1138 54 379 1139 52 380 1140 53 380 1141 58 380 1142 50 381 1143 51 381 1144 56 381 1145 54 382 1146 48 382 1147 55 382 1148 65 383 1149 62 383 1150 63 383 1151 63 384 1152 60 384 1153 61 384 1154 65 385 1155 63 385 1156 64 385 1157 63 386 1158 61 386 1159 64 386 1160 63 387 1161 57 387 1162 60 387 1163 64 388 1164 58 388 1165 65 388 1166 62 389 1167 56 389 1168 63 389 1169 60 390 1170 54 390 1171 61 390 1172 70 391 1173 67 391 1174 76 391 1175 68 392 1176 116 392 1177 71 392 1178 115 393 1179 67 393 1180 118 393 1181 114 394 1182 66 394 1183 115 394 1184 116 395 1185 68 395 1186 117 395 1187 118 396 1188 70 396 1189 119 396 1190 69 397 1191 66 397 1192 117 397 1193 73 398 1194 79 398 1195 76 398 1196 71 399 1197 77 399 1198 68 399 1199 66 400 1200 69 400 1201 72 400 1202 70 401 1203 76 401 1204 71 401 1205 68 402 1206 74 402 1207 69 402 1208 67 403 1209 66 403 1210 73 403 1211 81 404 1212 80 404 1213 83 404 1214 79 405 1215 81 405 1216 82 405 1217 79 406 1218 78 406 1219 81 406 1220 81 407 1221 83 407 1222 82 407 1223 72 408 1224 75 408 1225 78 408 1226 77 409 1227 76 409 1228 83 409 1229 75 410 1230 74 410 1231 81 410 1232 73 411 1233 72 411 1234 79 411 1235 88 412 1236 85 412 1237 100 412 1238 86 413 1239 92 413 1240 89 413 1241 91 414 1242 85 414 1243 94 414 1244 90 415 1245 84 415 1246 91 415 1247 92 416 1248 86 416 1249 93 416 1250 94 417 1251 88 417 1252 95 417 1253 87 418 1254 84 418 1255 93 418 1256 97 419 1257 103 419 1258 100 419 1259 89 420 1260 101 420 1261 86 420 1262 84 421 1263 87 421 1264 96 421 1265 88 422 1266 100 422 1267 89 422 1268 86 423 1269 98 423 1270 87 423 1271 85 424 1272 84 424 1273 97 424 1274 105 425 1275 104 425 1276 107 425 1277 103 426 1278 105 426 1279 106 426 1280 103 427 1281 102 427 1282 105 427 1283 105 428 1284 107 428 1285 106 428 1286 96 429 1287 99 429 1288 102 429 1289 101 430 1290 100 430 1291 107 430 1292 99 431 1293 98 431 1294 105 431 1295 97 432 1296 96 432 1297 103 432 1298 121 433 1299 109 433 1300 124 433 1301 119 434 1302 116 434 1303 113 434 1304 112 435 1305 109 435 1306 118 435 1307 109 436 1308 108 436 1309 115 436 1310 111 437 1311 110 437 1312 117 437 1313 113 438 1314 112 438 1315 119 438 1316 114 439 1317 108 439 1318 117 439 1319 121 440 1320 124 440 1321 127 440 1322 113 441 1323 110 441 1324 125 441 1325 123 442 1326 111 442 1327 120 442 1328 112 443 1329 113 443 1330 124 443 1331 110 444 1332 111 444 1333 122 444 1334 120 445 1335 108 445 1336 121 445 1337 131 446 1338 128 446 1339 129 446 1340 129 447 1341 126 447 1342 127 447 1343 131 448 1344 129 448 1345 130 448 1346 129 449 1347 127 449 1348 130 449 1349 129 450 1350 123 450 1351 126 450 1352 130 451 1353 124 451 1354 131 451 1355 128 452 1356 122 452 1357 129 452 1358 126 453 1359 120 453 1360 127 453 1361 167 454 1362 147 454 1363 195 454 1364 132 455 1365 186 455 1366 133 455 1367 141 456 1368 135 456 1369 140 456 1370 148 457 1371 145 457 1372 152 457 1373 135 458 1374 136 458 1375 134 458 1376 137 459 1377 132 459 1378 138 459 1379 134 460 1380 139 460 1381 150 460 1382 136 461 1383 137 461 1384 139 461 1385 140 462 1386 134 462 1387 149 462 1388 141 463 1389 151 463 1390 135 463 1391 165 464 1392 143 464 1393 166 464 1394 180 465 1395 144 465 1396 194 465 1397 158 466 1398 171 466 1399 155 466 1400 154 467 1401 148 467 1402 159 467 1403 177 468 1404 140 468 1405 175 468 1406 169 469 1407 178 469 1408 173 469 1409 144 470 1410 180 470 1411 132 470 1412 146 471 1413 133 471 1414 147 471 1415 146 472 1416 139 472 1417 133 472 1418 132 473 1419 136 473 1420 142 473 1421 168 474 1422 163 474 1423 179 474 1424 162 475 1425 141 475 1426 160 475 1427 157 476 1428 141 476 1429 172 476 1430 155 477 1431 154 477 1432 158 477 1433 148 478 1434 154 478 1435 149 478 1436 152 479 1437 151 479 1438 159 479 1439 163 480 1440 162 480 1441 161 480 1442 143 481 1443 142 481 1444 152 481 1445 145 482 1446 148 482 1447 146 482 1448 144 483 1449 143 483 1450 164 483 1451 167 484 1452 166 484 1453 147 484 1454 169 485 1455 173 485 1456 170 485 1457 175 486 1458 174 486 1459 177 486 1460 169 487 1461 168 487 1462 178 487 1463 174 488 1464 176 488 1465 173 488 1466 172 489 1467 171 489 1468 157 489 1469 162 490 1470 163 490 1471 170 490 1472 175 491 1473 156 491 1474 176 491 1475 160 492 1476 177 492 1477 161 492 1478 142 493 1479 136 493 1480 153 493 1481 181 494 1482 201 494 1483 195 494 1484 184 495 1485 186 495 1486 183 495 1487 185 496 1488 187 496 1489 192 496 1490 197 497 1491 199 497 1492 206 497 1493 191 498 1494 188 498 1495 185 498 1496 183 499 1497 182 499 1498 190 499 1499 200 500 1500 191 500 1501 204 500 1502 190 501 1503 189 501 1504 191 501 1505 204 502 1506 185 502 1507 203 502 1508 207 503 1509 205 503 1510 187 503 1511 199 504 1512 197 504 1513 220 504 1514 180 505 1515 194 505 1516 198 505 1517 230 506 1518 225 506 1519 209 506 1520 206 507 1521 202 507 1522 213 507 1523 231 508 1524 229 508 1525 192 508 1526 223 509 1527 227 509 1528 232 509 1529 182 510 1530 180 510 1531 198 510 1532 201 511 1533 183 511 1534 200 511 1535 201 512 1536 181 512 1537 183 512 1538 188 513 1539 182 513 1540 196 513 1541 182 514 1542 198 514 1543 196 514 1544 192 515 1545 193 515 1546 214 515 1547 224 516 1548 193 516 1549 226 516 1550 213 517 1551 208 517 1552 212 517 1553 202 518 1554 203 518 1555 208 518 1556 211 519 1557 205 519 1558 213 519 1559 214 520 1560 216 520 1561 215 520 1562 207 521 1563 196 521 1564 206 521 1565 199 522 1566 200 522 1567 202 522 1568 219 523 1569 197 523 1570 218 523 1571 199 524 1572 220 524 1573 201 524 1574 223 525 1575 224 525 1576 227 525 1577 232 526 1578 228 526 1579 231 526 1580 233 527 1581 222 527 1582 232 527 1583 225 528 1584 230 528 1585 227 528 1586 212 529 1587 225 529 1588 211 529 1589 222 530 1590 217 530 1591 224 530 1592 229 531 1593 230 531 1594 210 531 1595 214 532 1596 215 532 1597 231 532 1598 196 533 1599 207 533 1600 188 533 1601 269 534 1602 249 534 1603 297 534 1604 234 535 1605 288 535 1606 235 535 1607 243 536 1608 237 536 1609 242 536 1610 250 537 1611 247 537 1612 254 537 1613 237 538 1614 238 538 1615 236 538 1616 239 539 1617 234 539 1618 240 539 1619 236 540 1620 241 540 1621 252 540 1622 238 541 1623 239 541 1624 241 541 1625 242 542 1626 236 542 1627 251 542 1628 243 543 1629 253 543 1630 237 543 1631 267 544 1632 245 544 1633 268 544 1634 282 545 1635 246 545 1636 296 545 1637 260 546 1638 273 546 1639 257 546 1640 256 547 1641 250 547 1642 261 547 1643 279 548 1644 242 548 1645 277 548 1646 271 549 1647 280 549 1648 275 549 1649 246 550 1650 282 550 1651 234 550 1652 248 551 1653 235 551 1654 249 551 1655 248 552 1656 241 552 1657 235 552 1658 234 553 1659 238 553 1660 244 553 1661 270 554 1662 265 554 1663 281 554 1664 264 555 1665 243 555 1666 262 555 1667 259 556 1668 243 556 1669 274 556 1670 257 557 1671 256 557 1672 260 557 1673 250 558 1674 256 558 1675 251 558 1676 254 559 1677 253 559 1678 261 559 1679 265 560 1680 264 560 1681 263 560 1682 245 561 1683 244 561 1684 254 561 1685 247 562 1686 250 562 1687 248 562 1688 246 563 1689 245 563 1690 266 563 1691 269 564 1692 268 564 1693 249 564 1694 271 565 1695 275 565 1696 272 565 1697 277 566 1698 276 566 1699 279 566 1700 271 567 1701 270 567 1702 280 567 1703 276 568 1704 278 568 1705 275 568 1706 274 569 1707 273 569 1708 259 569 1709 264 570 1710 265 570 1711 272 570 1712 277 571 1713 258 571 1714 278 571 1715 262 572 1716 279 572 1717 263 572 1718 244 573 1719 238 573 1720 255 573 1721 283 574 1722 303 574 1723 297 574 1724 286 575 1725 288 575 1726 285 575 1727 287 576 1728 289 576 1729 294 576 1730 299 577 1731 301 577 1732 308 577 1733 293 578 1734 290 578 1735 287 578 1736 285 579 1737 284 579 1738 292 579 1739 302 580 1740 293 580 1741 306 580 1742 292 581 1743 291 581 1744 293 581 1745 306 582 1746 287 582 1747 305 582 1748 309 583 1749 307 583 1750 289 583 1751 301 584 1752 299 584 1753 322 584 1754 282 585 1755 296 585 1756 300 585 1757 332 586 1758 327 586 1759 311 586 1760 308 587 1761 304 587 1762 315 587 1763 333 588 1764 331 588 1765 294 588 1766 325 589 1767 329 589 1768 334 589 1769 284 590 1770 282 590 1771 300 590 1772 303 591 1773 285 591 1774 302 591 1775 303 592 1776 283 592 1777 285 592 1778 290 593 1779 284 593 1780 298 593 1781 284 594 1782 300 594 1783 298 594 1784 294 595 1785 295 595 1786 316 595 1787 326 596 1788 295 596 1789 328 596 1790 315 597 1791 310 597 1792 314 597 1793 304 598 1794 305 598 1795 310 598 1796 313 599 1797 307 599 1798 315 599 1799 316 600 1800 318 600 1801 317 600 1802 309 601 1803 298 601 1804 308 601 1805 301 602 1806 302 602 1807 304 602 1808 321 603 1809 299 603 1810 320 603 1811 301 604 1812 322 604 1813 303 604 1814 325 605 1815 326 605 1816 329 605 1817 334 606 1818 330 606 1819 333 606 1820 335 607 1821 324 607 1822 334 607 1823 327 608 1824 332 608 1825 329 608 1826 314 609 1827 327 609 1828 313 609 1829 324 610 1830 319 610 1831 326 610 1832 331 611 1833 332 611 1834 312 611 1835 316 612 1836 317 612 1837 333 612 1838 298 613 1839 309 613 1840 290 613 1841</p>
        </polylist>
        <polylist material="asphaltroad_lanes_narrow_nolines_mesh-material" count="10">
          <input semantic="VERTEX" source="#Cube_015-mesh-vertices" offset="0"/>
          <input semantic="NORMAL" source="#Cube_015-mesh-normals" offset="1"/>
          <input semantic="TEXCOORD" source="#Cube_015-mesh-map-0" offset="2" set="0"/>
          <vcount>3 3 3 3 3 3 3 3 3 3 </vcount>
          <p>8 2 6 11 2 7 10 2 8 8 6 18 9 6 19 16 6 20 10 12 36 11 12 37 23 12 38 20 14 42 23 14 43 15 14 44 19 15 45 16 15 46 13 15 47 9 343 1029 8 343 1030 10 343 1031 19 344 1032 8 344 1033 16 344 1034 20 348 1044 10 348 1045 23 348 1046 14 350 1050 20 350 1051 15 350 1052 12 351 1053 19 351 1054 13 351 1055</p>
        </polylist>
      </mesh>
    </geometry>
  </library_geometries>
  <library_controllers/>
  <library_visual_scenes>
    <visual_scene id="Scene" name="Scene">
      <node id="jri_bridge_01_001" name="jri_bridge_01_001" type="NODE">
        <matrix sid="transform">8 0 0 0 0 8 0 0 0 0 8 0 0 0 0 1</matrix>
        <instance_geometry url="#Cube_015-mesh">
          <bind_material>
            <technique_common>
              <instance_material symbol="ind_concrete_02-material" target="#ind_concrete_02-material"/>
              <instance_material symbol="asphaltroad_lanes_narrow_nolines_mesh-material" target="#asphaltroad_lanes_narrow_nolines_mesh-material"/>
            </technique_common>
          </bind_material>
        </instance_geometry>
      </node>
    </visual_scene>
  </library_visual_scenes>
  <scene>
    <instance_visual_scene url="#Scene"/>
  </scene>
</COLLADA>