<?xml version="1.0" encoding="utf-8"?>
<COLLADA xmlns="http://www.collada.org/2005/11/COLLADASchema" version="1.4.1">
  <asset>
    <contributor>
      <author>Blender User</author>
      <authoring_tool>Blender 2.68.0 r58368</authoring_tool>
    </contributor>
    <created>2013-08-16T12:50:46</created>
    <modified>2013-08-16T12:50:46</modified>
    <unit name="meter" meter="1"/>
    <up_axis>Z_UP</up_axis>
  </asset>
  <library_images/>
  <library_effects>
    <effect id="ColorEffectR225G87B143-material-effect">
      <profile_COMMON>
        <technique sid="common">
          <phong>
            <emission>
              <color sid="emission">0 0 0 1</color>
            </emission>
            <ambient>
              <color sid="ambient">0 0 0 1</color>
            </ambient>
            <diffuse>
              <color sid="diffuse">0.7036979 0.2735316 0.4466724 1</color>
            </diffuse>
            <specular>
              <color sid="specular">0.5 0.5 0.5 1</color>
            </specular>
            <shininess>
              <float sid="shininess">50</float>
            </shininess>
            <index_of_refraction>
              <float sid="index_of_refraction">1</float>
            </index_of_refraction>
          </phong>
        </technique>
        <extra>
          <technique profile="GOOGLEEARTH">
            <double_sided>1</double_sided>
          </technique>
        </extra>
      </profile_COMMON>
      <extra><technique profile="MAX3D"><double_sided>1</double_sided></technique></extra>
    </effect>
    <effect id="ind_bld__2__concrete-effect">
      <profile_COMMON>
        <technique sid="common">
          <phong>
            <emission>
              <color sid="emission">0 0 0 1</color>
            </emission>
            <ambient>
              <color sid="ambient">0 0 0 1</color>
            </ambient>
            <diffuse>
              <color sid="diffuse">0.64 0.64 0.64 1</color>
            </diffuse>
            <specular>
              <color sid="specular">0.5 0.5 0.5 1</color>
            </specular>
            <shininess>
              <float sid="shininess">50</float>
            </shininess>
            <index_of_refraction>
              <float sid="index_of_refraction">1</float>
            </index_of_refraction>
          </phong>
        </technique>
        <extra>
          <technique profile="GOOGLEEARTH">
            <double_sided>1</double_sided>
          </technique>
        </extra>
      </profile_COMMON>
      <extra><technique profile="MAX3D"><double_sided>1</double_sided></technique></extra>
    </effect>
    <effect id="ColorEffectR27G177B88-material-effect">
      <profile_COMMON>
        <technique sid="common">
          <phong>
            <emission>
              <color sid="emission">0 0 0 1</color>
            </emission>
            <ambient>
              <color sid="ambient">0 0 0 1</color>
            </ambient>
            <diffuse>
              <color sid="diffuse">0.08561849 0.5550975 0.2773633 1</color>
            </diffuse>
            <specular>
              <color sid="specular">0.5 0.5 0.5 1</color>
            </specular>
            <shininess>
              <float sid="shininess">50</float>
            </shininess>
            <index_of_refraction>
              <float sid="index_of_refraction">1</float>
            </index_of_refraction>
          </phong>
        </technique>
        <extra>
          <technique profile="GOOGLEEARTH">
            <double_sided>1</double_sided>
          </technique>
        </extra>
      </profile_COMMON>
      <extra><technique profile="MAX3D"><double_sided>1</double_sided></technique></extra>
    </effect>
  </library_effects>
  <library_materials>
    <material id="ColorEffectR225G87B143-material-material" name="ColorEffectR225G87B143-material">
      <instance_effect url="#ColorEffectR225G87B143-material-effect"/>
    </material>
    <material id="ind_bld__2__concrete-material" name="ind_bld__2__concrete">
      <instance_effect url="#ind_bld__2__concrete-effect"/>
    </material>
    <material id="ColorEffectR27G177B88-material-material" name="ColorEffectR27G177B88-material">
      <instance_effect url="#ColorEffectR27G177B88-material-effect"/>
    </material>
  </library_materials>
  <library_geometries>
    <geometry id="Untitled-mesh" name="Untitled">
      <mesh>
        <source id="Untitled-mesh-positions">
          <float_array id="Untitled-mesh-positions-array" count="24">-85.25765 -110.3208 -13.83285 -85.25765 110.3208 -13.83285 85.25765 110.3208 -13.83285 85.25765 -110.3208 -13.83285 -85.25765 -110.3208 13.83285 -85.25765 110.3208 13.83285 85.25765 110.3208 13.83285 85.25765 -110.3208 13.83285</float_array>
          <technique_common>
            <accessor source="#Untitled-mesh-positions-array" count="8" stride="3">
              <param name="X" type="float"/>
              <param name="Y" type="float"/>
              <param name="Z" type="float"/>
            </accessor>
          </technique_common>
        </source>
        <source id="Untitled-mesh-normals">
          <float_array id="Untitled-mesh-normals-array" count="36">-1 0 0 0 1 0 1 0 0 0 -1 0 0 0 -1 0 0 1 -1 0 0 0 1 0 1 0 0 0 -1 0 0 0 -1 0 0 1</float_array>
          <technique_common>
            <accessor source="#Untitled-mesh-normals-array" count="12" stride="3">
              <param name="X" type="float"/>
              <param name="Y" type="float"/>
              <param name="Z" type="float"/>
            </accessor>
          </technique_common>
        </source>
        <vertices id="Untitled-mesh-vertices">
          <input semantic="POSITION" source="#Untitled-mesh-positions"/>
        </vertices>
        <polylist material="ColorEffectR225G87B143-material-material" count="12">
          <input semantic="VERTEX" source="#Untitled-mesh-vertices" offset="0"/>
          <input semantic="NORMAL" source="#Untitled-mesh-normals" offset="1"/>
          <vcount>3 3 3 3 3 3 3 3 3 3 3 3 </vcount>
          <p>4 0 5 0 0 0 5 1 6 1 1 1 6 2 7 2 2 2 7 3 4 3 3 3 0 4 1 4 3 4 7 5 6 5 4 5 5 6 1 6 0 6 6 7 2 7 1 7 7 8 3 8 2 8 4 9 0 9 3 9 1 10 2 10 3 10 6 11 5 11 4 11</p>
        </polylist>
      </mesh>
      <extra><technique profile="MAYA"><double_sided>1</double_sided></technique></extra>
    </geometry>
    <geometry id="tree_oak_bush_a200-mesh" name="tree_oak_bush_a200">
      <mesh>
        <source id="tree_oak_bush_a200-mesh-positions">
          <float_array id="tree_oak_bush_a200-mesh-positions-array" count="225">-150 -149 -29 -150 50 -29 100 50 -29 100 -149 -29 -150 -149 -3 -150 50 -3 100 50 1 100 -149 1 -139.7727 50 -3 -139.7727 50 -29 -129.7727 -149 -3 -129.7727 -149 -29 -99.77274 50 1 50.22726 -149 -29 -99.77274 50 -29 50.22726 -149 1 -150 -139 -3 -150 -139 -29 100 -139 1 100 -139 -29 -139.7727 -139 -3 50.22726 -139 1 -139.7727 -139 1 100 40 1 -150 40 -29 100 40 -29 -150 40 -3 -99.77274 40 1 -139.7727 40 1 -139.7727 40 -3 -150 -40 -3 -150 -50 -3 -139.7727 -40 1 -139.7727 -50 1 -150 -40 -29 -150 -50 -29 -139.7727 -40 -3 -139.7727 -50 -3 -99.77274 -50 1 -99.77274 -40 1 10.22726 -139 -3 10.22726 -139 1 10.22726 -149 -3 100 90 -29 100 90 1 -99.77274 90 1 -99.77274 90 -29 -150 -209 -29 -150 -209 -3 -129.7727 -209 -3 -129.7727 -209 -29 -150 -229 -29 -150 -229 -3 -129.7727 -229 -3 -129.7727 -229 -29 -310 -209 -29 -310 -209 -3 -310 -229 -29 -310 -229 -3 -330 -209 -29 -330 -209 -3 -330 -229 -29 -330 -229 -3 -310 48.36966 -29 -310 48.36966 -3 -330 48.36966 -29 -330 48.36966 -3 -310 68.36966 -29 -310 68.36966 -3 -330 68.36966 -29 -330 68.36966 -3 -280 48.36966 -29 -280 48.36966 -3 -280 68.36966 -29 -280 68.36966 -3</float_array>
          <technique_common>
            <accessor source="#tree_oak_bush_a200-mesh-positions-array" count="75" stride="3">
              <param name="X" type="float"/>
              <param name="Y" type="float"/>
              <param name="Z" type="float"/>
            </accessor>
          </technique_common>
        </source>
        <source id="tree_oak_bush_a200-mesh-normals">
          <float_array id="tree_oak_bush_a200-mesh-normals-array" count="354">-1 0 0 0 0 1 1 0 0 1 0 0 0 0 1 0 1 0 0 -1 0 0 1 0 0 -1 0 -1 0 0 1 0 0 0 0 1 0 0 1 0 0 1 0 0 1 -0.09950369 0 0.9950371 -1 0 0 0 1 0 1 0 0 0 0 1 0 -1 0 0 0 1 0 0 1 -1 0 0 -1 0 0 -1 0 0 -1 0 0 -0.09950369 0 0.9950371 0 1 0 0 0 1 0 -1 0 0 0 1 -0.09950369 0 0.9950371 0 -1 0 0 -1 0 0 -1 0 0 1 0 -1 0 0 1 0 0 1 0 0 0 0 1 -1 0 0 0 -1 0 0 0 1 0 1 0 0 0 1 0 -1 0 -1 0 0 0 0 1 0 -1 0 0 0 1 1 0 0 -1 0 0 0 1 0 0 0 1 -1 0 0 1 0 0 0 0 1 0 -1 0 0 1 0 -1 0 0 0 0 1 1 0 0 1 0 0 0 0 1 0 1 0 0 1 0 0 -1 0 -1 0 0 1 0 0 0 0 1 0 0 1 0 0 1 0 0 1 -0.09950369 0 0.9950371 -1 0 0 1 0 0 0 0 1 0 -1 0 0 0 1 0 0 1 -1 0 0 -1 0 0 -1 0 0 -1 0 0 -0.09950369 0 0.9950371 0 0 1 0 0 1 0 0 1 0 0 1 0 0 1 0 0 1 0 0 1 -0.09950369 0 0.9950371 0 1 0 -1 0 0 1 0 0 1 0 0 0 0 1 -1 0 0 0 -1 0 0 0 1 0 1 0 0 0 1 0 -1 0 -1 0 0 0 0 1 0 -1 0 0 0 1 1 0 0 -1 0 0 0 1 0 0 0 1 -1 0 0 1 0 0 0 0 1 0 -1 0 0 1 0</float_array>
          <technique_common>
            <accessor source="#tree_oak_bush_a200-mesh-normals-array" count="118" stride="3">
              <param name="X" type="float"/>
              <param name="Y" type="float"/>
              <param name="Z" type="float"/>
            </accessor>
          </technique_common>
        </source>
        <source id="tree_oak_bush_a200-mesh-map-0">
          <float_array id="tree_oak_bush_a200-mesh-map-0-array" count="708">34.68164 -36.3382 34.99479 -38.22713 39.59287 -35.524 10.18731 -3.620943 16.44266 -41.35295 17.74306 -2.368331 28.87894 -37.31611 29.1921 -39.20504 34.54575 -36.37665 17.03051 32.0172 12.11927 31.203 18.90944 20.68358 7.0441 3.631635 8.933037 3.944787 6.723859 5.5633 36.6612 21.7872 36.99332 19.85733 41.56735 22.63153 36.32027 -10.81744 40.70443 -37.26258 45.61566 -36.44837 36.99332 19.85733 37.53748 12.17951 41.89946 20.70166 32.7534 6.014803 34.31206 -3.386957 38.42021 6.95427 28.76301 -0.6372815 29.07617 -2.526226 33.67425 0.1769201 23.27347 -3.504125 28.87894 -37.31611 28.94028 -2.56466 -28.3437 -4.175734 -26.76787 -1.973839 -27.08812 -0.04216986 -23.95998 -30.61819 -22.07103 -30.30503 -26.76787 -1.973839 -21.1472 -47.58474 -19.25825 -47.27157 -22.7057 -38.18391 14.55372 -41.6661 16.44266 -41.35295 8.298375 -3.934099 8.298375 -3.934099 10.18731 -3.620943 7.0441 3.631635 31.86325 -19.33777 32.1764 -21.2267 36.77447 -18.52357 36.1159 34.55651 34.84508 42.14796 34.10604 41.94697 22.96032 -1.615186 23.27347 -3.504125 28.62713 -0.6757192 -9.956336 0.8132407 -8.067398 1.126393 -10.27657 2.744912 49.4108 -22.712 44.71348 5.622065 48.65523 -22.83726 -8.387639 3.058063 -8.067398 1.126393 6.723859 5.5633 -26.76787 -1.973839 -9.956336 0.8132407 -27.08812 -0.04216986 37.08765 -20.4125 32.1764 -21.2267 39.59287 -35.524 29.07617 -2.526226 31.86325 -19.33777 33.9874 -1.712018 34.57781 34.29667 32.07256 49.40817 33.82223 34.17141 39.2 30.01683 36.41293 46.82837 38.44442 29.89157 -8.067398 1.126393 -9.956336 0.8132407 -6.813125 -6.439341 34.09354 42.02099 33.35449 41.82001 35.36435 34.42954 -22.06925 -30.31578 -8.702059 -6.752497 -9.954548 0.8024833 36.11474 34.63245 36.8788 34.68539 35.5853 42.27301 14.55372 -41.6661 8.298375 -3.934099 -19.25825 -47.27157 -22.7057 -38.18391 -20.81676 -37.87076 -23.95998 -30.61819 36.32027 -10.81744 45.61566 -36.44837 39.97887 -2.44749 44.71348 5.622065 42.70528 13.05255 43.95791 5.496803 34.31206 -3.386957 36.32027 -10.81744 39.97887 -2.44749 15.31036 43.67037 21.56634 5.93455 20.97717 44.60984 40.34382 30.19219 34.67701 29.25272 41.59644 22.63644 22.96032 -1.615186 28.62713 -0.6757192 21.7077 5.940562 18.90944 20.68358 13.9982 19.86938 19.53575 16.90571 -28.3437 -4.175734 -28.97705 -0.3553211 -39.67731 -6.05467 28.76301 -0.6372815 33.67425 0.1769201 26.88408 10.69635 26.45182 43.84666 27.08525 40.02585 31.36306 44.66088 -39.67731 -6.05467 -40.31068 -2.234253 -43.45518 -6.680984 26.82673 10.68667 31.73289 11.53099 21.63092 40.87836 -44.08855 -2.860574 -40.31068 -2.234253 -49.09852 27.35938 31.99649 40.84006 27.08525 40.02585 37.00696 10.61708 15.4256 12.32768 20.33684 13.14188 14.79929 16.10555 -49.09852 27.35938 -45.32065 27.9857 -49.72475 31.13686 37.00696 10.61708 32.09572 9.802865 37.63328 6.839195 -45.94688 31.76319 -45.32065 27.9857 2.668628 39.82283 45.7462 -36.41083 50.65744 -35.59663 37.68655 12.2047 20.33684 13.14188 15.4256 12.32768 28.39649 -35.47365 11.1483 36.87998 16.05954 37.69418 10.52199 40.65786 2.668628 39.82283 3.294872 36.04535 6.446494 40.44914 28.39649 -35.47365 23.48525 -36.28786 29.0228 -39.25152 33.83768 34.17163 34.65188 29.2604 37.61555 34.79794 7.072741 36.67164 3.294872 36.04535 8.012115 31.00542 21.62584 40.90845 26.53708 41.72266 20.68638 46.57526 16.05954 37.69418 11.1483 36.87998 16.99901 32.02737 34.99479 -38.22713 39.90604 -37.41293 39.59287 -35.524 16.44266 -41.35295 23.99841 -40.10033 17.74306 -2.368331 29.1921 -39.20504 34.85891 -38.26559 34.54575 -36.37665 12.11927 31.203 13.9982 19.86938 18.90944 20.68358 8.933037 3.944787 8.612794 5.876458 6.723859 5.5633 36.99332 19.85733 41.89946 20.70166 41.56735 22.63153 37.53748 12.17951 43.19842 13.15373 41.89946 20.70166 34.31206 -3.386957 39.97887 -2.44749 38.42021 6.95427 29.07617 -2.526226 33.9874 -1.712018 33.67425 0.1769201 28.87894 -37.31611 34.54575 -36.37665 28.94028 -2.56466 -28.97705 -0.3553211 -28.3437 -4.175734 -27.08812 -0.04216986 -28.3437 -4.175734 -23.95998 -30.61819 -26.76787 -1.973839 -19.25825 -47.27157 -20.81676 -37.87076 -22.7057 -38.18391 16.44266 -41.35295 10.18731 -3.620943 8.298375 -3.934099 10.18731 -3.620943 8.933037 3.944787 7.0441 3.631635 32.1764 -21.2267 37.08765 -20.4125 36.77447 -18.52357 23.27347 -3.504125 28.94028 -2.56466 28.62713 -0.6757192 -8.067398 1.126393 -8.387639 3.058063 -10.27657 2.744912 44.71348 5.622065 43.95791 5.496803 48.65523 -22.83726 -8.067398 1.126393 7.0441 3.631635 6.723859 5.5633 -9.956336 0.8132407 -10.27657 2.744912 -27.08812 -0.04216986 32.1764 -21.2267 34.68164 -36.3382 39.59287 -35.524 31.86325 -19.33777 36.77447 -18.52357 33.9874 -1.712018 32.07256 49.40817 31.31699 49.2829 33.82223 34.17141 36.41293 46.82837 35.65734 46.70311 38.44442 29.89157 -9.956336 0.8132407 -8.702059 -6.752497 -6.813125 -6.439341 -26.76609 -1.984587 -22.06925 -30.31578 -9.954548 0.8024833 8.298375 -3.934099 7.045879 3.620887 -8.065618 1.115645 8.298375 -3.934099 -8.065618 1.115645 -6.813125 -6.439341 -19.25825 -47.27157 8.298375 -3.934099 -6.813125 -6.439341 -22.06925 -30.31578 -20.81676 -37.87076 -8.702059 -6.752497 -20.81676 -37.87076 -19.25825 -47.27157 -8.702059 -6.752497 -19.25825 -47.27157 -6.813125 -6.439341 -8.702059 -6.752497 -20.81676 -37.87076 -22.07103 -30.30503 -23.95998 -30.61819 21.56634 5.93455 27.23315 6.874016 20.97717 44.60984 34.67701 29.25272 35.92963 21.69698 41.59644 22.63644 28.62713 -0.6757192 27.37451 6.880033 21.7077 5.940562 13.9982 19.86938 14.6245 16.09151 19.53575 16.90571 -28.97705 -0.3553211 -40.31068 -2.234253 -39.67731 -6.05467 33.67425 0.1769201 31.79532 11.51055 26.88408 10.69635 27.08525 40.02585 31.99649 40.84006 31.36306 44.66088 -40.31068 -2.234253 -44.08855 -2.860574 -43.45518 -6.680984 31.73289 11.53099 26.53708 41.72266 21.63092 40.87836 -40.31068 -2.234253 -45.32065 27.9857 -49.09852 27.35938 27.08525 40.02585 32.09572 9.802865 37.00696 10.61708 20.33684 13.14188 19.71053 16.91974 14.79929 16.10555 -45.32065 27.9857 -45.94688 31.76319 -49.72475 31.13686 32.09572 9.802865 32.72204 6.024991 37.63328 6.839195 -45.32065 27.9857 3.294872 36.04535 2.668628 39.82283 50.65744 -35.59663 42.59778 13.0189 37.68655 12.2047 15.4256 12.32768 23.48525 -36.28786 28.39649 -35.47365 16.05954 37.69418 15.43323 41.47207 10.52199 40.65786 3.294872 36.04535 7.072741 36.67164 6.446494 40.44914 23.48525 -36.28786 24.11156 -40.06572 29.0228 -39.25152 34.65188 29.2604 38.42976 29.88671 37.61555 34.79794 3.294872 36.04535 4.234237 30.3791 8.012115 31.00542 26.53708 41.72266 25.59762 47.38946 20.68638 46.57526 11.1483 36.87998 12.08777 31.21317 16.99901 32.02737</float_array>
          <technique_common>
            <accessor source="#tree_oak_bush_a200-mesh-map-0-array" count="354" stride="2">
              <param name="S" type="float"/>
              <param name="T" type="float"/>
            </accessor>
          </technique_common>
        </source>
        <vertices id="tree_oak_bush_a200-mesh-vertices">
          <input semantic="POSITION" source="#tree_oak_bush_a200-mesh-positions"/>
        </vertices>
        <polylist material="ind_bld__2__concrete-material" count="118">
          <input semantic="VERTEX" source="#tree_oak_bush_a200-mesh-vertices" offset="0"/>
          <input semantic="NORMAL" source="#tree_oak_bush_a200-mesh-normals" offset="1"/>
          <input semantic="TEXCOORD" source="#tree_oak_bush_a200-mesh-map-0" offset="2" set="0"/>
          <vcount>3 3 3 3 3 3 3 3 3 3 3 3 3 3 3 3 3 3 3 3 3 3 3 3 3 3 3 3 3 3 3 3 3 3 3 3 3 3 3 3 3 3 3 3 3 3 3 3 3 3 3 3 3 3 3 3 3 3 3 3 3 3 3 3 3 3 3 3 3 3 3 3 3 3 3 3 3 3 3 3 3 3 3 3 3 3 3 3 3 3 3 3 3 3 3 3 3 3 3 3 3 3 3 3 3 3 3 3 3 3 3 3 3 3 3 3 3 3 </vcount>
          <p>26 0 0 5 0 1 24 0 2 12 1 3 6 1 4 45 1 5 18 2 6 7 2 7 19 2 8 11 3 9 10 3 10 50 3 11 29 4 12 8 4 13 26 4 14 5 5 15 8 5 16 1 5 17 42 6 18 10 6 19 11 6 20 8 7 21 12 7 22 9 7 23 7 8 24 15 8 25 3 8 26 4 9 27 16 9 28 0 9 29 23 10 30 18 10 31 25 10 32 10 11 33 20 11 34 16 11 35 42 12 36 40 12 37 20 12 38 7 13 39 18 13 40 15 13 41 23 14 42 6 14 43 27 14 44 27 15 45 12 15 46 29 15 47 31 16 48 30 16 49 35 16 50 27 17 51 29 17 52 28 17 53 6 18 54 23 18 55 2 18 56 37 19 57 36 19 58 31 19 59 20 20 60 40 20 61 22 20 62 30 21 63 36 21 64 26 21 65 20 22 66 37 22 67 16 22 68 34 23 69 30 23 70 24 23 71 16 24 72 31 24 73 17 24 74 29 25 75 36 25 76 28 25 77 37 26 78 20 26 79 33 26 80 36 27 81 37 27 82 39 27 83 37 28 84 33 28 85 38 28 86 41 29 87 38 29 88 33 29 89 32 30 90 36 30 91 39 30 92 23 31 93 27 31 94 18 31 95 15 32 96 21 32 97 42 32 98 42 33 99 11 33 100 13 33 101 40 34 102 21 34 103 41 34 104 15 35 105 42 35 106 13 35 107 45 36 108 44 36 109 46 36 110 14 37 111 12 37 112 46 37 113 6 38 114 2 38 115 44 38 116 50 39 117 49 39 118 54 39 119 10 40 120 4 40 121 49 40 122 4 41 123 0 41 124 48 41 125 53 42 126 52 42 127 54 42 128 49 43 129 48 43 130 53 43 131 48 44 132 47 44 133 56 44 134 52 45 135 48 45 136 58 45 137 51 46 138 52 46 139 57 46 140 60 47 141 59 47 142 62 47 143 58 48 144 56 48 145 62 48 146 57 49 147 58 49 148 61 49 149 60 50 150 56 50 151 66 50 152 56 51 153 55 51 154 64 51 155 59 52 156 60 52 157 65 52 158 68 53 159 67 53 160 70 53 161 66 54 162 64 54 163 70 54 164 65 55 165 66 55 166 69 55 167 72 56 168 71 56 169 74 56 170 68 57 171 64 57 172 74 57 173 64 58 174 63 58 175 72 58 176 67 59 177 68 59 178 73 59 179 5 60 180 1 60 181 24 60 182 6 61 183 44 61 184 45 61 185 7 62 186 3 62 187 19 62 188 10 63 189 49 63 190 50 63 191 8 64 192 5 64 193 26 64 194 8 65 195 9 65 196 1 65 197 12 66 198 14 66 199 9 66 200 15 67 201 13 67 202 3 67 203 16 68 204 17 68 205 0 68 206 18 69 207 19 69 208 25 69 209 4 70 210 10 70 211 16 70 212 10 71 213 42 71 214 20 71 215 18 72 216 21 72 217 15 72 218 6 73 219 12 73 220 27 73 221 12 74 222 8 74 223 29 74 224 30 75 225 34 75 226 35 75 227 23 76 228 25 76 229 2 76 230 36 77 231 30 77 232 31 77 233 40 78 234 41 78 235 22 78 236 36 79 237 29 79 238 26 79 239 37 80 240 31 80 241 16 80 242 30 81 243 26 81 244 24 81 245 31 82 246 35 82 247 17 82 248 36 83 249 32 83 250 28 83 251 20 84 252 22 84 253 33 84 254 37 85 255 38 85 256 39 85 257 22 86 258 41 86 259 33 86 260 27 87 261 28 87 262 32 87 263 27 88 264 32 88 265 39 88 266 18 89 267 27 89 268 39 89 269 41 90 270 21 90 271 38 90 272 21 91 273 18 91 274 38 91 275 18 92 276 39 92 277 38 92 278 21 93 279 40 93 280 42 93 281 44 94 282 43 94 283 46 94 284 12 95 285 45 95 286 46 95 287 2 96 288 43 96 289 44 96 290 49 97 291 53 97 292 54 97 293 4 98 294 48 98 295 49 98 296 0 99 297 47 99 298 48 99 299 52 100 300 51 100 301 54 100 302 48 101 303 52 101 304 53 101 305 47 102 306 55 102 307 56 102 308 48 103 309 56 103 310 58 103 311 52 104 312 58 104 313 57 104 314 59 105 315 61 105 316 62 105 317 56 106 318 60 106 319 62 106 320 58 107 321 62 107 322 61 107 323 56 108 324 64 108 325 66 108 326 55 109 327 63 109 328 64 109 329 60 110 330 66 110 331 65 110 332 67 111 333 69 111 334 70 111 335 64 112 336 68 112 337 70 112 338 66 113 339 70 113 340 69 113 341 71 114 342 73 114 343 74 114 344 64 115 345 72 115 346 74 115 347 63 116 348 71 116 349 72 116 350 68 117 351 74 117 352 73 117 353</p>
        </polylist>
      </mesh>
      <extra><technique profile="MAYA"><double_sided>1</double_sided></technique></extra>
    </geometry>
    <geometry id="Colmesh-1-mesh" name="Colmesh-1">
      <mesh>
        <source id="Colmesh-1-mesh-positions">
          <float_array id="Colmesh-1-mesh-positions-array" count="501">-150 -149 -29 100 50 -29 -139.7727 50 -29 50.22726 -149 -29 -150 -139 -29 100 -139 -29 -150 40 -29 100 40 -29 -150 -40 -29 -150 -50 -29 10.22726 -139 -3 -129.7727 -209 -29 -150 -229 -29 -310 -229 -29 -330 -209 -29 -330 48.36966 -29 -310 68.36966 -29 -150 49.954 -29 -149.954 50 -29 100 -148.954 -29 99.95401 -149 -29 -149.954 -149 -3 -150 -149 -3.046 -150 49.954 -3.046 -149.954 49.954 -3 -149.954 50 -3.046 99.95401 50 1 100 50 0.954 100 -148.954 0.954 99.95401 -148.954 1 99.95401 -149 0.954 -139.7704 50 -3.046 -139.7727 49.954 -3 -129.8187 -149 -3 -129.7727 -149.046 -3.046 -129.7267 -149 -3.046 -129.8187 -148.954 -3 -129.7267 -149 -28.99146 -129.7727 -149.046 -29 -129.7259 -149 -29 -99.81874 50 0.9491708 -99.81851 49.954 0.9954231 -99.72674 50 1 -99.77274 50.046 0.954 -99.81874 50 -29 -99.77274 50.046 -29 50.22956 -149 0.954 50.27326 -148.954 1 50.18149 -148.954 0.9954228 -150 -139 -3.046 -149.954 -139 -3 99.95401 -139 1 100 -139 0.954 -139.7267 -139 -3 -139.7727 -138.954 -3 -139.8187 -139 -3 -139.7402 -139.0325 -3 50.17944 -139 0.9952177 50.27326 -139 1 -139.7267 -139 0.954 -139.7267 -138.954 1 -139.7727 -138.954 0.954 100 40 0.954 99.95401 40 1 -149.954 40 -3 -150 40 -3.046 -99.82056 40 0.995218 -99.72674 40 1 -139.7727 39.954 0.954 -139.7267 39.954 1 -139.7267 40 0.954 -139.7727 39.954 -3 -139.7267 40 -2.995399 -139.7727 40.046 -3 -139.8187 40 -3 -149.954 -40 -3 -150 -40 -3.046 -150 -50 -3.046 -149.954 -50 -3 -139.7267 -39.954 1 -139.7727 -39.954 0.954 -139.7267 -40 0.954 -139.7727 -50.046 0.954 -139.7267 -50.046 1 -139.7267 -50 0.954 -139.7267 -40 -2.995399 -139.7727 -39.954 -3 -139.819 -40 -3 -139.7727 -40.04623 -3 -139.7727 -50.046 -3 -139.7267 -50 -2.995399 -139.7727 -49.954 -3 -139.8187 -50 -3 -99.72674 -50.046 1 -99.82056 -50 0.995218 -99.72674 -39.954 1 -99.82056 -40 0.995218 10.22726 -138.954 1 10.22726 -139 0.954 10.22726 -148.954 -3 9.979573 -149 -3.046 10.2889 -149 -3.040066 99.95401 90 -29 100 89.95401 -29 99.95401 90 0.954 99.95401 89.95401 1 100 89.95401 0.954 -99.77274 89.95401 0.954 -99.72674 89.95401 1 -99.72674 90 0.954 -99.77274 89.95401 -29 -99.72674 90 -29 -150.046 -209 -29 -150 -208.954 -29 -150 -208.954 -3.046 -150.046 -209 -3.046 -150 -209.046 -3 -149.954 -209 -3 -129.7727 -209 -3.046 -129.8187 -209 -3 -150 -229 -3.046 -150 -228.954 -3 -129.7727 -228.954 -3.046 -129.8187 -228.954 -3 -129.8187 -229 -3.046 -129.7727 -228.954 -29 -129.8187 -229 -29 -310 -208.954 -29 -309.954 -209 -29 -309.954 -209 -3.046 -310 -208.954 -3.046 -310.046 -209 -3 -310 -209.046 -3 -310 -229 -3.046 -310 -228.954 -3 -330 -209 -3.046 -329.954 -209 -3 -329.954 -229 -29 -330 -228.954 -29 -330 -228.954 -3.046 -329.954 -229 -3.046 -329.954 -228.954 -3 -309.954 48.36966 -29 -310 48.32366 -29 -310 48.32366 -3.046 -309.954 48.36966 -3.046 -310 48.41566 -3 -310.046 48.36966 -3 -330 48.36966 -3.046 -329.954 48.36966 -3 -310 68.36966 -3.046 -310 68.32366 -3 -330 68.32366 -29 -329.954 68.36966 -29 -329.954 68.36966 -3.046 -330 68.32366 -3.046 -329.954 68.32366 -3 -280 48.41566 -29 -280.046 48.36966 -29 -280.046 48.41566 -3 -280.046 48.36966 -3.046 -280 48.41566 -3.046 -280.046 68.36966 -29 -280 68.32366 -29 -280 68.32366 -3.046 -280.046 68.36966 -3.046 -280.046 68.32366 -3</float_array>
          <technique_common>
            <accessor source="#Colmesh-1-mesh-positions-array" count="167" stride="3">
              <param name="X" type="float"/>
              <param name="Y" type="float"/>
              <param name="Z" type="float"/>
            </accessor>
          </technique_common>
        </source>
        <source id="Colmesh-1-mesh-normals">
          <float_array id="Colmesh-1-mesh-normals-array" count="864">0 -1 0 0 0 1 -1 0 0 0 -1 0 0 0 1 -1 0 0 0 0 1 -0.09950369 0 0.9950372 1 0 0 0 0 1 -0.09950369 0 0.9950372 -1 0 0 1 0 0 0 1 0 1 0 0 0 -1 0 0 -1 0 -1 0 0 0 0 1 -1 0 0 -1 0 0 0 1 0 -1 0 0 0 0 1 1 0 0 0 0 1 0 -1 0 0 1 0 -0.09950369 0 0.9950372 -1 0 0 0 1 0 0 -1 0 0 -1 0 -1 0 0 0 0 1 0 0 1 0 1 0 -0.09950369 0 0.9950372 1 0 0 0 -1 0 0 0 1 0 0 1 0 -1 0 0 0 1 0 0 1 1 0 0 1 0 0 -1 0 0 0 0 1 -1 0 0 0 -1 0 0 0 1 0 -1 0 0 1 0 0 0 1 0 1 0 -1 0 0 0 0 1 1 0 0 -0.5773124 0.5773603 0.5773782 0.5773922 -0.5772964 0.5773622 0.4082173 -0.4082173 0.8165276 0.6995542 -0.7116195 0.06497311 -0.3634768 0.6596325 0.6578524 -0.03609007 -0.6892532 0.7236213 0 0 1 -0.5773283 -0.5773283 0.5773941 -0.5773124 0.5773603 0.5773782 -0.09950369 0 0.9950373 -0.5773124 -0.5773603 0.5773782 -0.5773124 0.5773603 0.5773782 -0.09950369 0 0.9950372 -0.09950369 0 0.9950373 -0.01428204 -0.6674965 0.7444759 0.5773603 0.5773603 0.5773304 -0.5773603 0.5773603 0.5773304 -0.4082173 0.4082173 0.8165276 0.5773283 -0.5773283 0.5773941 0.4083302 0.4081947 0.8164825 -0.5774559 -0.5772644 0.5773302 0.4083245 -0.4082229 0.8164711 -0.577424 0.5773283 0.5772984 0.5774401 -0.5772964 0.5773144 0.577424 0.5773283 0.5772984 -0.7070665 0 0.7071471 -0.7070775 0.7071362 0 0.7071251 0 0.7070884 0.7071654 -0.7070481 0 0 0.7070958 0.7071178 0 -0.7070665 0.7071471 0.7071068 -0.7071068 0 -0.07036125 0.7070916 0.7036127 0 -0.7070664 0.7071471 -0.7071361 0.7070775 0 -0.05090379 1.00887e-5 0.9987036 -0.7070664 0 0.7071471 0.7071251 0 0.7070885 -7.30363e-4 0.7070956 0.7071176 -0.7070665 0 0.7071471 -0.7071068 -0.7071068 0 0.7071251 0 0.7070884 -0.7070665 0 0.7071471 -0.7070775 0.7071361 0 0 -0.7070664 0.7071471 -0.04981321 0 0.9987586 -0.7070664 0 0.7071471 -0.7070664 0 0.7071471 -0.7070665 0 0.7071471 0 -0.1033953 0.9946403 -0.7070775 -0.7071361 0 -0.7070775 0.7071361 0 -0.05090415 0 0.9987035 -7.30363e-4 0.7070956 0.7071176 -7.29546e-4 -0.7070663 0.707147 -0.07036352 -0.7070688 0.7036353 0 0.7071251 0.7070884 0.7071068 0.7071068 0 -0.7071068 0.7071068 0 0.7071251 0 0.7070885 -0.7071251 0 0.7070885 -0.7071068 0.7071068 0 0.7070665 0 0.7071471 -0.7070665 0 0.7071471 0 -0.7070665 0.7071471 0.7071068 -0.7071068 0 0.7070664 0 0.7071471 0.707224 0.7069895 0 0 0.7070664 0.7071471 0 -0.7070664 0.7071471 -0.707224 -0.7069895 0 -0.7071837 0 0.7070298 0 -0.7070665 0.7071471 0.7071948 -0.7070189 0 0.7071838 0 0.7070298 -0.7071838 0 0.7070298 -0.7071655 0.7070482 0 0 0.7071251 0.7070885 -0.7071837 0 0.7070298 0.7071948 -0.7070189 0 0.7071655 0.7070482 0 0.7071838 0 0.7070298 0 -0.7070958 0.7071178 0 0.7071251 0.7070884 0 1 0 0 -1 0 0 0 1 -1 0 0 0 0 1 0 -1 0 0 0 1 -1 0 0 0 0 1 0 0 1 -0.09950369 0 0.9950372 0 0 1 1 0 0 0 0 1 0 0 1 0 0 1 0 0 1 0 0 1 0 0 1 0 0 1 -1 0 0 1 0 0 0 1 0 1 0 0 -1 0 0 0 0 1 -1 0 0 -1 0 0 -1 0 0 0 0 1 0 0 1 0 0 1 1 0 0 0 0 1 0 0 1 0 0 1 0 1 0 -0.09950369 0 0.9950372 -0.09950369 0 0.9950372 -0.09950369 0 0.9950373 -1 0 0 0 -1 0 -1 0 0 0 0 1 0 0 1 0 0 1 0 0 1 0 1 0 -0.09950369 0 0.9950371 1 0 0 0 -1 0 0 0 1 0 0 1 0 0 1 0 0 1 0 -1 0 0 -1 0 0 0 1 0 0 1 0 0 1 1 0 0 1 0 0 -1 0 0 0 0 1 -1 0 0 0 -1 0 0 0 1 0 0 1 0 -1 0 0 1 0 0 0 1 0 1 0 -1 0 0 0 0 1 0 0 1 1 0 0 0.4471728 0 0.8944476 -0.4503016 0.364706 0.8149957 -0.707224 -0.7069895 0 0 0 1 0 0 1 0 0 1 0.4083302 0.4081947 0.8164825 0.4083245 -0.4082229 0.8164711 -0.7070665 0 0.7071471 -0.4082173 0.4082173 0.8165276 0.7071251 0 0.7070884 0.7071654 -0.7070481 0 0 0.7070958 0.7071177 0 -0.7070665 0.7071471 0.7071068 -0.7071068 0 -0.07036077 0.7070962 0.7036081 0 -0.7070664 0.7071471 -0.7071361 0.7070774 0 -0.04981231 0 0.9987586 -0.7070664 0 0.7071471 0.7071251 0 0.7070885 -0.001149713 0.9997449 0.02255707 -0.7070665 0 0.7071471 -0.7071068 -0.7071068 0 0.7071251 0 0.7070884 -0.7070665 0 0.7071471 -0.7070775 0.7071361 0 0 -0.7070664 0.7071471 -0.05090415 -1.00827e-5 0.9987035 -0.7070664 0 0.7071471 -0.7070664 0 0.7071471 -0.7070665 0 0.7071471 -7.30363e-4 -0.7070956 0.7071176 -0.7070775 -0.7071361 0 -0.7070775 0.7071361 0 -0.05090415 0 0.9987036 0 0.1033953 0.9946403 -0.001148462 -0.9997454 0.02253323 -0.07036352 -0.7070689 0.7036353 0 0.7071251 0.7070884 0.7071068 0.7071068 0 -0.7071068 0.7071068 0 0.7071251 0 0.7070885 -0.7071251 0 0.7070885 -0.7071068 0.7071068 0 0.7070665 0 0.7071471 -0.7070665 0 0.7071471 0 -0.7070665 0.7071471 -0.7070775 0.7071362 0 0.7070664 0 0.7071471 0.707224 0.7069895 0 0 0.7070665 0.7071471 0 -0.7070664 0.7071471 0.7071068 -0.7071068 0 -0.7071837 0 0.7070298 0 -0.7070665 0.7071471 0.7071948 -0.7070189 0 0.7071838 0 0.7070299 -0.7071838 0 0.7070298 -0.7071655 0.7070482 0 0 0.7071251 0.7070885 -0.7071837 0 0.7070298 0.7071948 -0.7070189 0 0.7071655 0.7070482 0 0.7071838 0 0.7070298 0 -0.7070958 0.7071177 0 0.7071251 0.7070884 0 1 0 0 0 1</float_array>
          <technique_common>
            <accessor source="#Colmesh-1-mesh-normals-array" count="288" stride="3">
              <param name="X" type="float"/>
              <param name="Y" type="float"/>
              <param name="Z" type="float"/>
            </accessor>
          </technique_common>
        </source>
        <source id="Colmesh-1-mesh-map-0">
          <float_array id="Colmesh-1-mesh-map-0-array" count="1728">32.76353 6.007555 34.32069 -3.385082 38.42165 6.945582 -21.13994 -47.57461 -19.25969 -47.26289 -20.81532 -37.87945 28.7717 -0.6358411 33.67425 0.1769201 31.79676 11.50186 45.6142 -36.43953 39.97887 -2.44749 36.33671 -10.86279 14.55228 -41.65741 16.44122 -41.34427 10.18876 -3.629631 34.69033 -36.33676 35.00204 -38.21701 39.90459 -37.40424 -23.95129 -30.61675 -22.07103 -30.30503 -28.33645 -4.165605 8.296875 -3.925054 10.17719 -3.613728 7.045542 3.622933 28.88763 -37.31467 29.19935 -39.19491 34.85747 -38.2569 -28.34514 -4.167046 -28.97561 -0.3640103 -40.30924 -2.242943 8.924347 3.943346 7.052789 3.633075 7.045542 3.622933 28.7717 -0.6358411 29.08486 -2.524785 33.9874 -1.712018 17.03195 32.00851 12.1294 31.19576 14.00689 19.87082 37.00207 19.85839 37.54558 12.18984 43.19692 13.16241 22.96901 -1.613745 28.62713 -0.6757192 27.37595 6.871344 36.33671 -10.86279 40.71168 -37.25245 45.6126 -36.43995 36.12292 34.64184 36.87731 34.69412 35.58684 42.26393 34.57637 34.30536 32.074 49.39948 31.32712 49.27565 10.18876 -3.629631 16.44122 -41.34427 23.98828 -40.09308 31.87194 -19.33633 32.18509 -21.22526 37.08765 -20.4125 39.19857 30.02552 36.41437 46.81968 35.66747 46.69586 36.11438 34.56558 34.84654 42.13922 34.11685 41.94079 29.08486 -2.524785 31.87194 -19.33633 36.77447 -18.52357 7.042659 3.640324 6.7253 5.554611 7.032543 3.647493 23.28216 -3.502684 28.88763 -37.31467 34.54575 -36.37665 -10.27513 2.736223 -8.068846 1.135125 -8.386198 3.049374 44.71348 5.622065 42.70768 13.04366 43.9666 5.498244 15.32049 43.66312 21.57359 5.944679 27.23171 6.882705 -6.814625 -6.430296 -9.954894 0.8045392 -8.703558 -6.743453 37.08765 -20.4125 32.18509 -21.22526 34.69033 -36.33676 34.095 42.01227 33.3653 41.81382 35.36283 34.43862 49.40935 -22.70331 44.71348 5.622065 43.9666 5.498244 34.32068 -3.385082 36.3259 -10.80455 39.97887 -2.44749 40.34526 30.1835 34.68713 29.24547 35.93687 21.70711 -22.06056 -30.31434 -8.709309 -6.762626 -26.75596 -1.991835 -9.957777 0.8219299 -10.27513 2.736223 -9.965025 0.8118001 26.83392 10.69684 31.7314 11.53967 26.53857 41.71398 -22.69845 -38.17382 -20.81826 -37.86172 -23.95129 -30.61675 22.96901 -1.613745 23.28216 -3.502684 28.94028 -2.56466 26.46195 43.83942 27.09395 40.0273 31.99649 40.84006 6.7253 5.554611 7.042659 3.640324 8.605546 5.866328 -28.97561 -0.3640103 -26.76931 -1.965149 -27.08668 -0.05085903 31.99649 40.84006 27.09395 40.0273 32.10442 9.804306 -44.07986 -2.859133 -40.31937 -2.235694 -45.32934 27.98425 -39.67876 -6.045981 -40.30924 -2.242943 -43.44793 -6.670854 18.90944 20.68358 14.00689 19.87082 14.63175 16.10164 45.75345 -36.40069 50.656 -35.58794 42.59923 13.01022 20.33684 13.14188 15.43429 12.32912 23.49394 -36.28641 -45.94544 31.75451 -45.32209 27.99438 3.293432 36.05403 15.43429 12.32912 20.33684 13.14188 19.71197 16.91105 37.00696 10.61708 32.10442 9.804306 32.72929 6.035119 -45.94544 31.75451 -49.71463 31.12961 -45.32209 27.99438 21.63309 40.91857 26.53564 41.73135 25.59906 47.38077 16.05954 37.69418 11.15699 36.88142 12.09502 31.2233 7.064052 36.6702 3.303561 36.04679 4.241487 30.38923 11.15699 36.88142 16.05954 37.69418 15.43467 41.46338 28.39649 -35.47365 23.49394 -36.28641 24.11881 -40.05559 7.064052 36.6702 6.439246 40.43902 3.303561 36.04679 33.84781 34.16438 34.66057 29.26184 38.42107 29.88527 35.00204 -38.21701 34.99335 -38.21844 35.00348 -38.2257 29.19935 -39.19491 29.19066 -39.19635 29.20079 -39.2036 -28.34514 -4.167046 -28.35239 -4.177175 -28.34226 -4.184424 45.6126 -36.43995 45.61566 -36.44837 45.6142 -36.43953 37.54558 12.18984 37.53686 12.1883 37.53898 12.17084 34.32068 -3.385082 34.31062 -3.378267 34.31436 -3.395459 49.40978 -22.70585 49.40935 -22.70331 49.41224 -22.72069 48.66248 -22.82713 48.67097 -22.82572 48.66392 -22.83582 33.82947 34.18154 33.82078 34.1801 33.83092 34.17285 34.57637 34.30536 34.57694 34.29653 34.57926 34.28798 -8.05549 1.108397 -8.05405 1.099712 -8.064178 1.106956 38.45167 29.9017 38.44298 29.90026 38.45311 29.89301 36.87731 34.69412 36.8788 34.68539 36.8788 34.68539 39.19857 30.02552 39.19913 30.01669 39.20144 30.00814 -23.95129 -30.61675 -23.96781 -30.57094 -23.95819 -30.62899 21.57359 5.944679 21.5649 5.943239 21.57503 5.93599 35.93687 21.70711 35.92818 21.70567 35.93832 21.69842 26.89421 10.6891 26.89277 10.69779 26.88408 10.69635 14.63175 16.10164 14.62306 16.1002 14.63319 16.09296 21.6411 40.87117 21.6396 40.87985 21.62943 40.88703 14.80942 16.0983 14.80798 16.10699 14.80073 16.09686 37.69667 12.19745 37.69524 12.20614 37.68655 12.2047 10.53212 40.65061 10.53068 40.6593 10.52343 40.64917 4.241487 30.38923 4.232797 30.38779 4.242926 30.38054 37.60831 34.78781 37.617 34.78925 37.60686 34.7965 6.7253 5.554611 8.605546 5.866328 8.604104 5.87502 36.67138 21.78002 41.56885 22.62285 36.66988 21.7887 -19.25969 -47.26289 -21.13994 -47.57461 -21.13851 -47.5833 32.76353 6.007555 38.42165 6.945582 38.42021 6.95427 37.00207 19.85839 36.67138 21.78002 36.99332 19.85733 34.32069 -3.385082 32.76353 6.007555 34.31063 -3.378267 12.1294 31.19576 17.03195 32.00851 17.02889 32.01694 37.54558 12.18984 37.00207 19.85839 36.99332 19.85733 -23.95129 -30.61675 -28.33645 -4.165605 -23.96774 -30.57141 34.68713 29.24547 40.34526 30.1835 34.68661 29.25432 -20.81826 -37.86172 -22.69845 -38.17382 -20.81532 -37.87945 29.08486 -2.524785 28.7717 -0.6358411 28.76301 -0.6372815 23.28216 -3.502684 22.96901 -1.613745 22.96032 -1.615186 36.11438 34.56558 34.11685 41.94079 34.10835 41.93848 38.45167 29.9017 35.66747 46.69586 35.65878 46.69442 49.40935 -22.70331 48.66248 -22.82713 48.66392 -22.83582 14.55228 -41.65741 -19.25969 -47.26289 -19.25825 -47.27157 31.87194 -19.33633 29.08486 -2.524785 29.07617 -2.526226 34.57637 34.30536 33.82947 34.18154 34.57694 34.29653 -22.06056 -30.31434 -26.75596 -1.991835 -26.76465 -1.993276 8.299816 -3.942787 10.18876 -3.629631 10.17719 -3.613728 -8.386198 3.049374 6.7253 5.554611 6.723858 5.563303 -10.27513 2.736223 -8.386198 3.049374 -8.38764 3.058066 -8.05549 1.108397 7.03863 3.610756 7.037189 3.619446 -6.802996 -6.446588 -8.05549 1.108397 -6.814622 -6.430308 36.87731 34.69412 36.12292 34.64184 36.12353 34.63306 33.3653 41.81382 34.095 42.01227 33.36299 41.82232 -8.70931 -6.762626 -6.802996 -6.446588 -6.814625 -6.430296 35.36283 34.43862 33.3653 41.81382 33.3568 41.81151 43.9666 5.498244 42.70768 13.04366 43.95791 5.496803 36.3259 -10.80455 34.32068 -3.385082 34.31436 -3.395459 17.73581 -2.378459 23.98828 -40.09308 23.99697 -40.09165 21.71783 5.933314 27.37595 6.871344 27.37451 6.880033 15.32049 43.66312 20.97861 44.60115 20.97717 44.60984 22.96901 -1.613745 21.71783 5.933314 21.70914 5.931873 35.93687 21.70711 34.68713 29.24547 35.92818 21.70567 31.7314 11.53967 26.83392 10.69684 26.83541 10.68816 -28.34514 -4.167046 -39.67876 -6.045981 -28.35239 -4.177175 28.7717 -0.6358411 26.89421 10.6891 28.76301 -0.6372815 -43.44793 -6.670854 -44.07986 -2.859133 -44.08855 -2.860571 26.46195 43.83942 31.3645 44.65219 26.46051 43.84811 -39.67876 -6.045981 -43.44793 -6.670854 -43.44649 -6.67954 50.656 -35.58794 45.75345 -36.40069 45.75489 -36.40938 -45.32934 27.98425 -40.31937 -2.235694 -40.31212 -2.225564 32.10442 9.804306 27.09395 40.0273 27.08525 40.02585 37.63184 6.847882 32.72929 6.035119 37.63328 6.839195 -49.71463 31.12961 -45.94544 31.75451 -45.94688 31.76319 32.72929 6.035119 32.10442 9.804306 32.09572 9.802865 26.53564 41.73135 21.63309 40.91857 21.63453 40.90989 45.75345 -36.40069 37.69667 12.19745 37.68655 12.2047 23.49394 -36.28641 15.43429 12.32912 15.4256 12.32768 29.02136 -39.24283 24.11881 -40.05559 24.12025 -40.06428 11.15699 36.88142 10.53212 40.65061 10.52343 40.64917 24.11881 -40.05559 23.49394 -36.28641 23.48525 -36.28786 34.66057 29.26184 33.84781 34.16438 33.83912 34.16294 16.99757 32.03606 12.09502 31.2233 12.09646 31.21461 33.84781 34.16438 37.60831 34.78781 37.60686 34.7965 21.63309 40.91857 20.69651 46.56801 20.68782 46.56657 12.09502 31.2233 11.15699 36.88142 11.1483 36.87998 36.67138 21.78002 37.00207 19.85839 41.89946 20.70166 34.32069 -3.385082 39.97887 -2.44749 38.42165 6.945582 -22.69557 -38.19116 -21.13994 -47.57461 -20.81532 -37.87945 26.89421 10.6891 28.7717 -0.6358411 31.79676 11.50186 49.40935 -22.70331 49.4108 -22.712 49.41224 -22.72069 39.97887 -2.44749 36.3259 -10.80455 36.33671 -10.86279 8.299816 -3.942787 14.55228 -41.65741 10.18876 -3.629631 39.59287 -35.524 34.69033 -36.33676 39.90459 -37.40424 -22.07103 -30.30503 -26.76643 -1.982528 -28.33645 -4.165605 -28.97561 -0.3640103 -28.34514 -4.167046 -26.773 -1.981002 10.17719 -3.613728 8.924347 3.943346 7.045542 3.622933 -26.76643 -1.982528 -26.773 -1.981002 -28.33645 -4.165605 34.54575 -36.37665 28.88763 -37.31467 34.85747 -38.2569 -39.67876 -6.045981 -28.34514 -4.167046 -40.30924 -2.242943 7.03863 3.610756 -8.05549 1.108397 -6.802996 -6.446588 8.299816 -3.942787 7.03863 3.610756 -6.802996 -6.446588 -20.81532 -37.87945 -19.25969 -47.26289 14.55228 -41.65741 -8.70931 -6.762626 -22.06056 -30.31434 -6.802996 -6.446588 -20.81532 -37.87945 14.55228 -41.65741 -22.06056 -30.31434 14.55228 -41.65741 -6.802996 -6.446588 -22.06056 -30.31434 33.67425 0.1769201 28.7717 -0.6358411 33.9874 -1.712018 18.90944 20.68358 17.03195 32.00851 14.00689 19.87082 41.89946 20.70166 37.00207 19.85839 43.19692 13.16241 21.71783 5.933314 22.96901 -1.613745 27.37595 6.871344 33.82947 34.18154 34.57637 34.30536 31.32712 49.27565 17.73581 -2.378459 10.18876 -3.629631 23.98828 -40.09308 36.77447 -18.52357 31.87194 -19.33633 37.08765 -20.4125 38.45167 29.9017 39.19857 30.02552 35.66747 46.69586 33.9874 -1.712018 29.08486 -2.524785 36.77447 -18.52357 -10.27513 2.736223 -27.08668 -0.05085903 -9.965025 0.8118001 -8.068846 1.135125 -8.058708 1.127834 -8.386198 3.049374 -8.058708 1.127834 7.032543 3.647493 -8.386198 3.049374 28.94028 -2.56466 23.28216 -3.502684 34.54575 -36.37665 -10.27513 2.736223 -9.957777 0.8219299 -8.068846 1.135125 -9.957777 0.8219299 -9.947646 0.8146812 -8.07613 1.124945 -8.068846 1.135125 -9.957777 0.8219299 -8.07613 1.124945 20.97861 44.60115 15.32049 43.66312 27.23171 6.882705 -6.814625 -6.430296 -8.065956 1.117692 -9.954894 0.8045392 -8.065956 1.117692 -8.07613 1.124945 -9.954894 0.8045392 -8.07613 1.124945 -9.947646 0.8146812 -9.954894 0.8045392 39.59287 -35.524 37.08765 -20.4125 34.69033 -36.33676 48.66248 -22.82713 49.40935 -22.70331 43.9666 5.498244 41.595 22.64513 40.34526 30.1835 35.93687 21.70711 -8.709309 -6.762626 -9.961798 0.7923535 -26.75596 -1.991835 -45.32934 27.98425 -45.32209 27.99438 -49.71463 31.12961 -26.76931 -1.965149 -26.75918 -1.972398 -27.08668 -0.05085903 -26.75918 -1.972398 -9.965025 0.8118001 -27.08668 -0.05085903 21.6411 40.87117 26.83392 10.69684 26.53857 41.71398 -20.81826 -37.86172 -22.07103 -30.30503 -23.95129 -30.61675 28.62713 -0.6757192 22.96901 -1.613745 28.94028 -2.56466 31.3645 44.65219 26.46195 43.83942 31.99649 40.84006 7.042659 3.640324 7.052789 3.633075 8.924347 3.943346 8.605546 5.866328 7.042659 3.640324 8.924347 3.943346 -26.76931 -1.965149 -28.97561 -0.3640103 -26.773 -1.981002 -28.34514 -4.167046 -28.33645 -4.165605 -26.773 -1.981002 36.33671 -10.86279 45.6126 -36.43995 45.6142 -36.43953 37.00696 10.61708 31.99649 40.84006 32.10442 9.804306 -49.08983 27.36082 -44.07986 -2.859133 -45.32934 27.98425 -40.30924 -2.242943 -40.31937 -2.235694 -44.07986 -2.859133 -43.44793 -6.670854 -40.30924 -2.242943 -44.07986 -2.859133 19.53431 16.9144 18.90944 20.68358 14.63175 16.10164 37.69667 12.19745 45.75345 -36.40069 42.59923 13.01022 28.39649 -35.47365 20.33684 13.14188 23.49394 -36.28641 2.670068 39.81414 -45.94544 31.75451 3.293432 36.05403 14.80942 16.0983 15.43429 12.32912 19.71197 16.91105 37.63184 6.847882 37.00696 10.61708 32.72929 6.035119 -49.08983 27.36082 -45.32934 27.98425 -49.71463 31.12961 6.7253 5.554611 -8.386198 3.049374 7.032543 3.647493 20.69651 46.56801 21.63309 40.91857 25.59906 47.38077 16.99757 32.03606 16.05954 37.69418 12.09502 31.2233 8.001986 31.01266 7.064052 36.6702 4.241487 30.38923 10.53212 40.65061 11.15699 36.88142 15.43467 41.46338 29.02136 -39.24283 28.39649 -35.47365 24.11881 -40.05559 2.670068 39.81414 3.293432 36.05403 6.439246 40.43902 3.293432 36.05403 3.303561 36.04679 6.439246 40.43902 37.60831 34.78781 33.84781 34.16438 38.42107 29.88527 -28.33645 -4.165605 -28.34514 -4.167046 -28.34226 -4.184424 37.54616 12.18101 37.54558 12.18984 37.53898 12.17084 32.72929 6.035119 32.73073 6.026432 37.63328 6.839195 34.57781 34.29667 34.57637 34.30536 34.57926 34.28798 36.8788 34.68539 36.87941 34.67656 36.8788 34.68539 39.2 30.01683 39.19857 30.02552 39.20144 30.00814 21.63092 40.87836 21.6411 40.87117 21.62943 40.88703 37.69524 12.20614 37.68511 12.21339 37.68655 12.2047 6.723858 5.563303 6.7253 5.554611 8.604104 5.87502 26.89277 10.69779 26.88264 10.70504 26.88408 10.69635 -19.25825 -47.27157 -19.25969 -47.26289 -21.13851 -47.5833 32.76209 6.016243 32.76353 6.007555 38.42021 6.95427 36.67138 21.78002 36.6627 21.77852 36.99332 19.85733 32.76353 6.007555 32.75484 6.006114 34.31063 -3.378267 12.12796 31.20445 12.1294 31.19576 17.02889 32.01694 37.53686 12.1883 37.54558 12.18984 36.99332 19.85733 -28.33645 -4.165605 -28.34226 -4.184423 -23.96774 -30.57141 40.34526 30.1835 40.34382 30.19219 34.68661 29.25432 -22.69845 -38.17382 -22.69557 -38.19116 -20.81532 -37.87945 29.07617 -2.526226 29.08486 -2.524785 28.76301 -0.6372815 23.27347 -3.504125 23.28216 -3.502684 22.96032 -1.615186 36.11822 34.54801 36.11438 34.56558 34.10835 41.93848 38.44298 29.90026 38.45167 29.9017 35.65878 46.69442 49.4108 -22.712 49.40935 -22.70331 48.66392 -22.83582 14.55372 -41.6661 14.55228 -41.65741 -19.25825 -47.27157 31.86325 -19.33777 31.87194 -19.33633 29.07617 -2.526226 33.82947 34.18154 33.83092 34.17285 34.57694 34.29653 -22.06925 -30.31578 -22.06056 -30.31434 -26.76465 -1.993276 8.296875 -3.925054 8.299816 -3.942787 10.17719 -3.613728 -8.38764 3.058066 -8.386198 3.049374 6.723858 5.563303 -10.27657 2.744915 -10.27513 2.736223 -8.38764 3.058066 -8.05405 1.099712 -8.05549 1.108397 7.037189 3.619446 -8.05549 1.108397 -8.064178 1.106956 -6.814622 -6.430308 36.8788 34.68539 36.87731 34.69412 36.12353 34.63306 34.095 42.01227 34.09354 42.02099 33.36299 41.82232 -8.703558 -6.743453 -8.70931 -6.762626 -6.814625 -6.430296 35.36666 34.42104 35.36283 34.43862 33.3568 41.81151 42.70768 13.04366 42.70385 13.06124 43.95791 5.496803 36.32027 -10.81744 36.3259 -10.80455 34.31436 -3.395459 17.7445 -2.377019 17.73581 -2.378459 23.99697 -40.09165 21.71639 5.942002 21.71783 5.933314 27.37451 6.880033 15.31904 43.67181 15.32049 43.66312 20.97717 44.60984 22.96032 -1.615186 22.96901 -1.613745 21.70914 5.931873 34.68713 29.24547 34.67701 29.25272 35.92818 21.70567 31.73289 11.53099 31.7314 11.53967 26.83541 10.68816 -39.67876 -6.045981 -39.67731 -6.05467 -28.35239 -4.177175 26.89421 10.6891 26.88408 10.69635 28.76301 -0.6372815 -43.45661 -6.672292 -43.44793 -6.670854 -44.08855 -2.860571 41.56885 22.62285 41.56735 22.63153 36.66988 21.7887 -39.67731 -6.054667 -39.67876 -6.045981 -43.44649 -6.67954 50.65744 -35.59663 50.656 -35.58794 45.75489 -36.40938 -45.31921 27.97701 -45.32934 27.98425 -40.31212 -2.225564 32.09572 9.802865 32.10442 9.804306 27.08525 40.02585 31.3645 44.65219 31.36306 44.66088 26.46051 43.84811 -49.71606 31.1383 -49.71463 31.12961 -45.94688 31.76319 32.7206 6.033678 32.72929 6.035119 32.09572 9.802865 26.53708 41.72266 26.53564 41.73135 21.63453 40.90989 45.7462 -36.41083 45.75345 -36.40069 37.68655 12.2047 23.48525 -36.28786 23.49394 -36.28641 15.4256 12.32768 29.0228 -39.25152 29.02136 -39.24283 24.12025 -40.06428 11.1483 36.87998 11.15699 36.88142 10.52343 40.64917 24.11012 -40.05703 24.11881 -40.05559 23.48525 -36.28786 34.65188 29.2604 34.66057 29.26184 33.83912 34.16294 16.99901 32.02737 16.99757 32.03606 12.09646 31.21461 33.84636 34.17307 33.84781 34.16438 37.60686 34.7965 21.62584 40.90845 21.63309 40.91857 20.68782 46.56657 12.08633 31.22186 12.09502 31.2233 11.1483 36.87998 41.56885 22.62285 36.67138 21.78002 41.89946 20.70166 14.55228 -41.65741 8.299816 -3.942787 -6.802996 -6.446588</float_array>
          <technique_common>
            <accessor source="#Colmesh-1-mesh-map-0-array" count="864" stride="2">
              <param name="S" type="float"/>
              <param name="T" type="float"/>
            </accessor>
          </technique_common>
        </source>
        <vertices id="Colmesh-1-mesh-vertices">
          <input semantic="POSITION" source="#Colmesh-1-mesh-positions"/>
        </vertices>
        <polylist material="ColorEffectR27G177B88-material-material" count="288">
          <input semantic="VERTEX" source="#Colmesh-1-mesh-vertices" offset="0"/>
          <input semantic="NORMAL" source="#Colmesh-1-mesh-normals" offset="1"/>
          <input semantic="TEXCOORD" source="#Colmesh-1-mesh-map-0" offset="2" set="0"/>
          <vcount>3 3 3 3 3 3 3 3 3 3 3 3 3 3 3 3 3 3 3 3 3 3 3 3 3 3 3 3 3 3 3 3 3 3 3 3 3 3 3 3 3 3 3 3 3 3 3 3 3 3 3 3 3 3 3 3 3 3 3 3 3 3 3 3 3 3 3 3 3 3 3 3 3 3 3 3 3 3 3 3 3 3 3 3 3 3 3 3 3 3 3 3 3 3 3 3 3 3 3 3 3 3 3 3 3 3 3 3 3 3 3 3 3 3 3 3 3 3 3 3 3 3 3 3 3 3 3 3 3 3 3 3 3 3 3 3 3 3 3 3 3 3 3 3 3 3 3 3 3 3 3 3 3 3 3 3 3 3 3 3 3 3 3 3 3 3 3 3 3 3 3 3 3 3 3 3 3 3 3 3 3 3 3 3 3 3 3 3 3 3 3 3 3 3 3 3 3 3 3 3 3 3 3 3 3 3 3 3 3 3 3 3 3 3 3 3 3 3 3 3 3 3 3 3 3 3 3 3 3 3 3 3 3 3 3 3 3 3 3 3 3 3 3 3 3 3 3 3 3 3 3 3 3 3 3 3 3 3 3 3 3 3 3 3 3 3 3 3 3 3 3 3 3 3 3 3 3 3 3 3 3 3 3 3 3 3 3 3 </vcount>
          <p>30 0 0 46 0 1 20 0 2 29 1 3 51 1 4 58 1 5 22 2 6 0 2 7 113 2 8 39 3 9 3 3 10 100 3 11 63 4 12 26 4 13 42 4 14 65 5 15 23 5 16 17 5 17 99 6 18 10 6 19 36 6 20 66 7 21 41 7 22 72 7 23 52 8 24 28 8 25 19 8 26 33 9 27 21 9 28 117 9 29 32 10 30 73 10 31 72 10 32 22 11 33 49 11 34 4 11 35 38 12 36 34 12 37 118 12 38 31 13 39 40 13 40 44 13 41 27 14 42 1 14 43 103 14 44 100 15 45 35 15 46 37 15 47 81 16 48 85 16 49 96 16 50 71 17 51 86 17 52 80 17 53 42 18 54 26 18 55 105 18 56 77 19 57 76 19 58 8 19 59 89 20 60 54 20 61 61 20 62 66 21 63 72 21 64 70 21 65 49 22 66 77 22 67 9 22 68 74 23 69 64 23 70 71 23 71 62 24 72 52 24 73 5 24 74 78 25 75 87 25 76 75 25 77 10 26 78 57 26 79 98 26 80 109 27 81 104 27 82 102 27 83 96 28 84 90 28 85 94 28 86 8 29 87 76 29 88 65 29 89 90 30 90 84 30 91 94 30 92 53 31 93 10 31 94 98 31 95 46 32 96 101 32 97 3 32 98 45 33 99 43 33 100 107 33 101 97 34 102 93 34 103 60 34 104 92 35 105 78 35 106 89 35 107 115 36 108 112 36 109 128 36 110 48 37 111 57 37 112 99 37 113 27 38 114 62 38 115 7 38 116 124 39 117 120 39 118 12 39 119 64 40 120 74 40 121 24 40 122 21 41 123 55 41 124 50 41 125 12 42 126 120 42 127 133 42 128 121 43 129 116 43 130 132 43 131 119 44 132 117 44 133 123 44 134 11 45 135 118 45 136 122 45 137 130 46 138 127 46 139 143 46 140 14 47 141 135 47 142 148 47 143 136 48 144 131 48 145 147 48 146 135 49 147 14 49 148 138 49 149 13 50 150 133 50 151 140 50 152 136 51 153 141 51 154 131 51 155 145 52 156 142 52 157 158 52 158 16 53 159 150 53 160 165 53 161 151 54 162 146 54 163 159 54 164 150 55 165 16 55 166 153 55 167 15 56 168 148 56 169 155 56 170 151 57 171 156 57 172 146 57 173 161 58 174 157 58 175 163 58 176 23 59 177 24 59 178 25 59 179 28 60 180 29 60 181 30 60 182 33 61 183 34 61 184 35 61 185 37 62 186 38 62 187 39 62 188 40 63 189 41 63 190 42 63 191 46 64 192 47 64 193 48 64 194 56 65 195 53 65 196 55 65 197 59 66 198 60 66 199 61 66 200 68 67 201 69 67 202 70 67 203 71 68 204 72 68 205 73 68 206 79 69 207 80 69 208 81 69 209 82 70 210 83 70 211 84 70 212 85 71 213 86 71 214 88 71 215 89 72 216 90 72 217 91 72 218 99 73 219 100 73 220 101 73 221 104 74 222 105 74 223 106 74 224 107 75 225 108 75 226 109 75 227 114 76 228 115 76 229 117 76 230 122 77 231 123 77 232 124 77 233 129 78 234 130 78 235 131 78 236 139 79 237 140 79 238 141 79 239 144 80 240 145 80 241 147 80 242 154 81 243 155 81 244 156 81 245 159 82 246 160 82 247 161 82 248 164 83 249 165 83 250 166 83 251 64 84 252 24 84 253 23 84 254 25 85 255 18 85 256 23 85 257 51 86 258 29 86 259 28 86 260 30 87 261 20 87 262 19 87 263 31 88 264 25 88 265 32 88 266 46 89 267 30 89 268 47 89 269 34 90 270 38 90 271 37 90 272 40 91 273 31 91 274 32 91 275 99 92 276 36 92 277 100 92 278 43 93 279 45 93 280 40 93 281 57 94 282 48 94 283 58 94 284 49 95 285 22 95 286 21 95 287 62 96 288 27 96 289 26 96 290 66 97 291 70 97 292 69 97 293 82 98 294 61 98 295 60 98 296 53 99 297 59 99 298 61 99 299 63 100 300 51 100 301 52 100 302 77 101 303 49 101 304 50 101 305 71 102 306 68 102 307 72 102 308 97 103 309 60 103 310 59 103 311 67 104 312 42 104 313 41 104 314 75 105 315 64 105 316 65 105 317 78 106 318 75 106 319 76 106 320 79 107 321 69 107 322 68 107 323 95 108 324 79 108 325 96 108 326 85 109 327 81 109 328 80 109 329 84 110 330 90 110 331 82 110 332 93 111 333 95 111 334 96 111 335 94 112 336 84 112 337 83 112 338 98 113 339 57 113 340 97 113 341 101 114 342 46 114 343 48 114 344 108 115 345 105 115 346 104 115 347 106 116 348 103 116 349 102 116 350 109 117 351 111 117 352 110 117 353 27 118 354 106 118 355 105 118 356 107 119 357 43 119 358 108 119 359 112 120 360 115 120 361 114 120 362 33 121 363 119 121 364 34 121 365 22 122 366 114 122 367 21 122 368 123 123 369 121 123 370 120 123 371 124 124 372 126 124 373 122 124 374 119 125 375 123 125 376 122 125 377 127 126 378 130 126 379 129 126 380 132 127 381 116 127 382 115 127 383 133 128 384 120 128 385 121 128 386 137 129 387 140 129 388 138 129 389 141 130 390 136 130 391 135 130 392 140 131 393 133 131 394 134 131 395 142 132 396 145 132 397 144 132 398 130 133 399 144 133 400 147 133 401 148 134 402 135 134 403 136 134 404 152 135 405 155 135 406 154 135 407 150 136 408 154 136 409 156 136 410 155 137 411 148 137 412 149 137 413 157 138 414 161 138 415 160 138 416 162 139 417 165 139 418 164 139 419 161 140 420 164 140 421 166 140 422 145 141 423 160 141 424 159 141 425 165 142 426 150 142 427 151 142 428 25 143 429 31 143 430 2 143 431 46 144 432 3 144 433 20 144 434 47 145 435 29 145 436 58 145 437 114 146 438 22 146 439 113 146 440 53 147 441 54 147 442 55 147 443 3 148 444 101 148 445 100 148 446 67 149 447 63 149 448 42 149 449 6 150 450 65 150 451 17 150 452 10 151 453 53 151 454 36 151 455 21 152 456 33 152 457 56 152 458 41 153 459 32 153 460 72 153 461 53 154 462 56 154 463 36 154 464 5 155 465 52 155 466 19 155 467 119 156 468 33 156 469 117 156 470 69 157 471 79 157 472 95 157 473 67 158 474 69 158 475 95 158 476 58 159 477 51 159 478 63 159 479 93 160 480 97 160 481 95 160 482 58 161 483 63 161 484 97 161 485 63 162 486 95 162 487 97 162 488 0 163 489 22 163 490 4 163 491 11 164 492 38 164 493 118 164 494 2 165 495 31 165 496 44 165 497 106 166 498 27 166 499 103 166 500 68 167 501 71 167 502 80 167 503 108 168 504 42 168 505 105 168 506 9 169 507 77 169 508 8 169 509 82 170 510 89 170 511 61 170 512 4 171 513 49 171 514 9 171 515 78 172 516 50 172 517 89 172 518 87 173 519 86 173 520 75 173 521 86 174 522 71 174 523 75 174 524 7 175 525 62 175 526 5 175 527 78 176 528 92 176 529 87 176 530 92 177 531 91 177 532 88 177 533 87 178 534 92 178 535 88 178 536 111 179 537 109 179 538 102 179 539 96 180 540 85 180 541 90 180 542 85 181 543 88 181 544 90 181 545 88 182 546 91 182 547 90 182 548 6 183 549 8 183 550 65 183 551 59 184 552 53 184 553 98 184 554 110 185 555 45 185 556 107 185 557 93 186 558 83 186 559 60 186 560 132 187 561 131 187 562 141 187 563 55 188 564 54 188 565 50 188 566 54 189 567 89 189 568 50 189 569 129 190 570 115 190 571 128 190 572 57 191 573 10 191 574 99 191 575 1 192 576 27 192 577 7 192 578 126 193 579 124 193 580 12 193 581 74 194 582 73 194 583 32 194 584 24 195 585 74 195 586 32 195 587 55 196 588 21 196 589 56 196 590 33 197 591 36 197 592 56 197 593 100 198 594 37 198 595 39 198 596 13 199 597 12 199 598 133 199 599 134 200 600 121 200 601 132 200 602 117 201 603 116 201 604 121 201 605 123 202 606 117 202 607 121 202 608 125 203 609 11 203 610 122 203 611 144 204 612 130 204 613 143 204 614 15 205 615 14 205 616 148 205 617 149 206 618 136 206 619 147 206 620 139 207 621 135 207 622 138 207 623 137 208 624 13 208 625 140 208 626 134 209 627 132 209 628 141 209 629 64 210 630 75 210 631 71 210 632 160 211 633 145 211 634 158 211 635 162 212 636 16 212 637 165 212 638 166 213 639 151 213 640 159 213 641 154 214 642 150 214 643 153 214 644 152 215 645 15 215 646 155 215 647 149 216 648 147 216 649 156 216 650 147 217 651 146 217 652 156 217 653 164 218 654 161 218 655 163 218 656 36 219 657 33 219 658 35 219 659 43 220 660 40 220 661 42 220 662 140 221 663 139 221 664 138 221 665 74 222 666 71 222 667 73 222 668 86 223 669 87 223 670 88 223 671 92 224 672 89 224 673 91 224 674 132 225 675 129 225 676 131 225 677 145 226 678 146 226 679 147 226 680 65 227 681 64 227 682 23 227 683 115 228 684 116 228 685 117 228 686 52 229 687 51 229 688 28 229 689 28 230 690 30 230 691 19 230 692 25 231 693 24 231 694 32 231 695 30 232 696 29 232 697 47 232 698 35 233 699 34 233 700 37 233 701 41 234 702 40 234 703 32 234 704 36 235 705 35 235 706 100 235 707 45 236 708 44 236 709 40 236 710 48 237 711 47 237 712 58 237 713 50 238 714 49 238 715 21 238 716 63 239 717 62 239 718 26 239 719 67 240 720 66 240 721 69 240 722 83 241 723 82 241 724 60 241 725 54 242 726 53 242 727 61 242 728 62 243 729 63 243 730 52 243 731 78 244 732 77 244 733 50 244 734 68 245 735 70 245 736 72 245 737 98 246 738 97 246 739 59 246 740 66 247 741 67 247 742 41 247 743 76 248 744 75 248 745 65 248 746 77 249 747 78 249 748 76 249 749 80 250 750 79 250 751 68 250 752 79 251 753 81 251 754 96 251 755 86 252 756 85 252 757 80 252 758 90 253 759 89 253 760 82 253 761 94 254 762 93 254 763 96 254 764 93 255 765 94 255 766 83 255 767 57 256 768 58 256 769 97 256 770 99 257 771 101 257 772 48 257 773 109 258 774 108 258 775 104 258 776 104 259 777 106 259 778 102 259 779 107 260 780 109 260 781 110 260 782 26 261 783 27 261 784 105 261 785 43 262 786 42 262 787 108 262 788 113 263 789 112 263 790 114 263 791 119 264 792 118 264 793 34 264 794 114 265 795 117 265 796 21 265 797 124 266 798 123 266 799 120 266 800 18 267 801 17 267 802 23 267 803 118 268 804 119 268 805 122 268 806 128 269 807 127 269 808 129 269 809 129 270 810 132 270 811 115 270 812 134 271 813 133 271 814 121 271 815 126 272 816 125 272 817 122 272 818 139 273 819 141 273 820 135 273 821 141 274 822 140 274 823 134 274 824 143 275 825 142 275 826 144 275 827 131 276 828 130 276 829 147 276 830 149 277 831 148 277 832 136 277 833 153 278 834 152 278 835 154 278 836 151 279 837 150 279 838 156 279 839 156 280 840 155 280 841 149 280 842 158 281 843 157 281 844 160 281 845 163 282 846 162 282 847 164 282 848 159 283 849 161 283 850 166 283 851 146 284 852 145 284 853 159 284 854 166 285 855 165 285 856 151 285 857 18 286 858 25 286 859 2 286 860 63 287 861 67 287 862 95 287 863</p>
        </polylist>
      </mesh>
      <extra><technique profile="MAYA"><double_sided>1</double_sided></technique></extra>
    </geometry>
  </library_geometries>
  <library_controllers/>
  <library_visual_scenes>
    <visual_scene id="Scene" name="Scene">
      <node id="bounds" name="bounds" type="NODE">
        <matrix sid="transform">1 0 0 0 0 1 0 0 0 0 1 0 0 0 0 1</matrix>
        <node id="Untitled" name="Untitled" type="NODE">
          <matrix sid="transform">2.509943 0 0 -114.2353 0 1.429433 0 -68.12576 0 0 1.465662 -15.77598 0 0 0 1</matrix>
          <instance_geometry url="#Untitled-mesh">
            <bind_material>
              <technique_common>
                <instance_material symbol="ColorEffectR225G87B143-material-material" target="#ColorEffectR225G87B143-material-material"/>
              </technique_common>
            </bind_material>
          </instance_geometry>
        </node>
      </node>
      <node id="base00" name="base00" type="NODE">
        <matrix sid="transform">1 0 0 0 0 1 0 0 0 0 1 0 0 0 0 1</matrix>
        <node id="collision-1" name="collision-1" type="NODE">
          <matrix sid="transform">1 0 0 0 0 1 0 0 0 0 1 0 0 0 0 1</matrix>
        </node>
        <node id="detail150" name="detail150" type="NODE">
          <matrix sid="transform">1 0 0 0 0 1 0 0 0 0 1 0 0 0 0 1</matrix>
        </node>
        <node id="detail550" name="detail550" type="NODE">
          <matrix sid="transform">1 0 0 0 0 1 0 0 0 0 1 0 0 0 0 1</matrix>
        </node>
        <node id="start01" name="start01" type="NODE">
          <matrix sid="transform">1 0 0 0 0 1 0 0 0 0 1 0 0 0 0 1</matrix>
          <node id="tree_oak_bush_a250" name="tree_oak_bush_a250" type="NODE">
            <matrix sid="transform">1 0 0 0 0 1 0 0 0 0 1 0 0 0 0 1</matrix>
            <instance_geometry url="#tree_oak_bush_a200-mesh">
              <bind_material>
                <technique_common>
                  <instance_material symbol="ind_bld__2__concrete-material" target="#ind_bld__2__concrete-material"/>
                </technique_common>
              </bind_material>
            </instance_geometry>
          </node>
          <node id="Colmesh-1" name="Colmesh-1" type="NODE">
            <matrix sid="transform">1 0 0 0 0 1 0 0 0 0 1 0 0 0 0 1</matrix>
            <instance_geometry url="#Colmesh-1-mesh">
              <bind_material>
                <technique_common>
                  <instance_material symbol="ColorEffectR27G177B88-material-material" target="#ColorEffectR27G177B88-material-material"/>
                </technique_common>
              </bind_material>
            </instance_geometry>
          </node>
        </node>
      </node>
    </visual_scene>
  </library_visual_scenes>
  <scene>
    <instance_visual_scene url="#Scene"/>
  </scene>
</COLLADA>