<?xml version="1.0" encoding="utf-8"?>
<COLLADA xmlns="http://www.collada.org/2005/11/COLLADASchema" version="1.4.1">
  <asset>
    <contributor>
      <author>Blender User</author>
      <authoring_tool>Blender 2.68.0 r58368</authoring_tool>
    </contributor>
    <created>2013-07-20T12:03:42</created>
    <modified>2013-07-20T12:03:42</modified>
    <unit name="meter" meter="1"/>
    <up_axis>Z_UP</up_axis>
  </asset>
  <library_images/>
  <library_effects>
    <effect id="ColorEffectR225G87B143-material-effect">
      <profile_COMMON>
        <technique sid="common">
          <phong>
            <emission>
              <color sid="emission">0 0 0 1</color>
            </emission>
            <ambient>
              <color sid="ambient">0 0 0 1</color>
            </ambient>
            <diffuse>
              <color sid="diffuse">0.7036979 0.2735316 0.4466724 1</color>
            </diffuse>
            <specular>
              <color sid="specular">0.5 0.5 0.5 1</color>
            </specular>
            <shininess>
              <float sid="shininess">50</float>
            </shininess>
            <index_of_refraction>
              <float sid="index_of_refraction">1</float>
            </index_of_refraction>
          </phong>
        </technique>
        <extra>
          <technique profile="GOOGLEEARTH">
            <double_sided>1</double_sided>
          </technique>
        </extra>
      </profile_COMMON>
      <extra><technique profile="MAX3D"><double_sided>1</double_sided></technique></extra>
    </effect>
    <effect id="ColorEffectR27G177B88-material-effect">
      <profile_COMMON>
        <technique sid="common">
          <phong>
            <emission>
              <color sid="emission">0 0 0 1</color>
            </emission>
            <ambient>
              <color sid="ambient">0 0 0 1</color>
            </ambient>
            <diffuse>
              <color sid="diffuse">0.08561849 0.5550975 0.2773633 1</color>
            </diffuse>
            <specular>
              <color sid="specular">0.5 0.5 0.5 1</color>
            </specular>
            <shininess>
              <float sid="shininess">50</float>
            </shininess>
            <index_of_refraction>
              <float sid="index_of_refraction">1</float>
            </index_of_refraction>
          </phong>
        </technique>
        <extra>
          <technique profile="GOOGLEEARTH">
            <double_sided>1</double_sided>
          </technique>
        </extra>
      </profile_COMMON>
      <extra><technique profile="MAX3D"><double_sided>1</double_sided></technique></extra>
    </effect>
    <effect id="containers_01_a-effect">
      <profile_COMMON>
        <technique sid="common">
          <lambert>
            <emission>
              <color sid="emission">0 0 0 1</color>
            </emission>
            <ambient>
              <color sid="ambient">0 0 0 1</color>
            </ambient>
            <diffuse>
              <color sid="diffuse">0.64 0.64 0.64 1</color>
            </diffuse>
            <index_of_refraction>
              <float sid="index_of_refraction">1</float>
            </index_of_refraction>
          </lambert>
        </technique>
        <extra>
          <technique profile="GOOGLEEARTH">
            <double_sided>1</double_sided>
          </technique>
        </extra>
      </profile_COMMON>
      <extra><technique profile="MAX3D"><double_sided>1</double_sided></technique></extra>
    </effect>
  </library_effects>
  <library_materials>
    <material id="ColorEffectR225G87B143-material-material" name="ColorEffectR225G87B143-material">
      <instance_effect url="#ColorEffectR225G87B143-material-effect"/>
    </material>
    <material id="ColorEffectR27G177B88-material-material" name="ColorEffectR27G177B88-material">
      <instance_effect url="#ColorEffectR27G177B88-material-effect"/>
    </material>
    <material id="containers_01_a-material" name="containers_01_a">
      <instance_effect url="#containers_01_a-effect"/>
    </material>
  </library_materials>
  <library_geometries>
    <geometry id="Untitled-mesh" name="Untitled">
      <mesh>
        <source id="Untitled-mesh-positions">
          <float_array id="Untitled-mesh-positions-array" count="24">-3.092402 -3.779648 -8.011638 -3.092402 3.779648 -8.011638 3.092402 3.779648 -8.011638 3.092402 -3.779648 -8.011638 -3.092402 -3.779648 8.011638 -3.092402 3.779648 8.011638 3.092402 3.779648 8.011638 3.092402 -3.779648 8.011638</float_array>
          <technique_common>
            <accessor source="#Untitled-mesh-positions-array" count="8" stride="3">
              <param name="X" type="float"/>
              <param name="Y" type="float"/>
              <param name="Z" type="float"/>
            </accessor>
          </technique_common>
        </source>
        <source id="Untitled-mesh-normals">
          <float_array id="Untitled-mesh-normals-array" count="36">-1 0 0 0 1 0 1 0 0 0 -1 0 0 0 -1 0 0 1 -1 0 0 0 1 0 1 0 0 0 -1 0 0 0 -1 0 0 1</float_array>
          <technique_common>
            <accessor source="#Untitled-mesh-normals-array" count="12" stride="3">
              <param name="X" type="float"/>
              <param name="Y" type="float"/>
              <param name="Z" type="float"/>
            </accessor>
          </technique_common>
        </source>
        <vertices id="Untitled-mesh-vertices">
          <input semantic="POSITION" source="#Untitled-mesh-positions"/>
        </vertices>
        <polylist material="ColorEffectR225G87B143-material-material" count="12">
          <input semantic="VERTEX" source="#Untitled-mesh-vertices" offset="0"/>
          <input semantic="NORMAL" source="#Untitled-mesh-normals" offset="1"/>
          <vcount>3 3 3 3 3 3 3 3 3 3 3 3 </vcount>
          <p>4 0 5 0 0 0 5 1 6 1 1 1 6 2 7 2 2 2 7 3 4 3 3 3 0 4 1 4 3 4 7 5 6 5 4 5 5 6 1 6 0 6 6 7 2 7 1 7 7 8 3 8 2 8 4 9 0 9 3 9 1 10 2 10 3 10 6 11 5 11 4 11</p>
        </polylist>
      </mesh>
      <extra><technique profile="MAYA"><double_sided>1</double_sided></technique></extra>
    </geometry>
    <geometry id="Colmesh-1-mesh" name="Colmesh-1">
      <mesh>
        <source id="Colmesh-1-mesh-positions">
          <float_array id="Colmesh-1-mesh-positions-array" count="24">1.2 6 0 1.2 -6 0 -1.2 -6 0 -1.2 6 0 -1.2 -6 2.6 -1.2 6 2.6 1.200001 6 2.6 1.199999 -6 2.6</float_array>
          <technique_common>
            <accessor source="#Colmesh-1-mesh-positions-array" count="8" stride="3">
              <param name="X" type="float"/>
              <param name="Y" type="float"/>
              <param name="Z" type="float"/>
            </accessor>
          </technique_common>
        </source>
        <source id="Colmesh-1-mesh-normals">
          <float_array id="Colmesh-1-mesh-normals-array" count="36">-1.98682e-7 0 1 0 -1 -1.83399e-7 0 0 -1 1.98682e-7 1 1.83399e-7 1 0 -1.83399e-7 -1 0 0 -1.98682e-7 0 1 -3.97364e-7 -1 1.83399e-7 0 0 -1 1.98682e-7 1 1.83399e-7 1 0 2.75098e-7 -1 0 0</float_array>
          <technique_common>
            <accessor source="#Colmesh-1-mesh-normals-array" count="12" stride="3">
              <param name="X" type="float"/>
              <param name="Y" type="float"/>
              <param name="Z" type="float"/>
            </accessor>
          </technique_common>
        </source>
        <source id="Colmesh-1-mesh-map-0">
          <float_array id="Colmesh-1-mesh-map-0-array" count="72">0.141024 0.1169999 0.8104296 0.1266017 0.1056393 0.218469 0.1117503 1.06506e-4 0.141024 0.1169999 1.06506e-4 0.09752148 0.6306701 0.3768651 0.6306701 0.5029779 1.06506e-4 0.3768653 0.8104296 0.1266017 0.8551748 1.06556e-4 0.8531212 0.2398169 0.8551748 1.06556e-4 0.8104296 0.1266017 0.1117503 1.06506e-4 1.06506e-4 0.3766521 1.06506e-4 0.2400299 0.6306701 0.3766519 0.8104296 0.1266017 0.8531212 0.2398169 0.1056393 0.218469 0.141024 0.1169999 0.1056393 0.218469 1.06506e-4 0.09752148 0.6306701 0.5029779 1.06506e-4 0.5029779 1.06506e-4 0.3768653 0.8551748 1.06556e-4 0.9998934 0.1112363 0.8531212 0.2398169 0.8104296 0.1266017 0.141024 0.1169999 0.1117503 1.06506e-4 1.06506e-4 0.2400299 0.6306701 0.2400298 0.6306701 0.3766519</float_array>
          <technique_common>
            <accessor source="#Colmesh-1-mesh-map-0-array" count="36" stride="2">
              <param name="S" type="float"/>
              <param name="T" type="float"/>
            </accessor>
          </technique_common>
        </source>
        <vertices id="Colmesh-1-mesh-vertices">
          <input semantic="POSITION" source="#Colmesh-1-mesh-positions"/>
        </vertices>
        <polylist material="ColorEffectR27G177B88-material-material" count="12">
          <input semantic="VERTEX" source="#Colmesh-1-mesh-vertices" offset="0"/>
          <input semantic="NORMAL" source="#Colmesh-1-mesh-normals" offset="1"/>
          <input semantic="TEXCOORD" source="#Colmesh-1-mesh-map-0" offset="2" set="0"/>
          <vcount>3 3 3 3 3 3 3 3 3 3 3 3 </vcount>
          <p>7 0 0 6 0 1 4 0 2 1 1 3 7 1 4 2 1 5 3 2 6 0 2 7 2 2 8 6 3 9 0 3 10 5 3 11 0 4 12 6 4 13 1 4 14 2 5 15 4 5 16 3 5 17 6 6 18 5 6 19 4 6 20 7 7 21 4 7 22 2 7 23 0 8 24 1 8 25 2 8 26 0 9 27 3 9 28 5 9 29 6 10 30 7 10 31 1 10 32 4 11 33 5 11 34 3 11 35</p>
        </polylist>
      </mesh>
      <extra><technique profile="MAYA"><double_sided>1</double_sided></technique></extra>
    </geometry>
    <geometry id="nd_bld_a30_001-mesh" name="nd_bld_a30.001">
      <mesh>
        <source id="nd_bld_a30_001-mesh-positions">
          <float_array id="nd_bld_a30_001-mesh-positions-array" count="636">-1.223528 -6.013971 2.477375 -1.223528 -5.77688 2.477375 -1.048324 -5.77688 2.477375 -1.048324 -6.013971 2.477375 -1.223528 -6.013971 2.610475 -1.223528 -5.77688 2.610475 -1.048324 -5.77688 2.610475 -1.048324 -6.013971 2.610475 1.223528 -6.013971 2.477375 1.223528 -5.77688 2.477375 1.048324 -5.77688 2.477375 1.048324 -6.013971 2.477375 1.223528 -6.013971 2.610475 1.223528 -5.77688 2.610475 1.048324 -5.77688 2.610475 1.048324 -6.013971 2.610475 -1.223528 6.013972 2.477375 -1.223528 5.776881 2.477375 -1.048324 5.776881 2.477375 -1.048324 6.013972 2.477375 -1.223528 6.013972 2.610475 -1.223528 5.776881 2.610475 -1.048324 5.776881 2.610475 -1.048324 6.013972 2.610475 1.223528 6.013972 2.477375 1.223528 5.776881 2.477375 1.048324 5.776881 2.477375 1.048324 6.013972 2.477375 1.223528 6.013972 2.610475 1.223528 5.776881 2.610475 1.048324 5.776881 2.610475 1.048324 6.013972 2.610475 -1.223528 -6.013971 0.1226253 -1.223528 -5.77688 0.1226253 -1.048324 -5.77688 0.1226253 -1.048324 -6.013971 0.1226253 -1.223528 -6.013971 -0.01047444 -1.223528 -5.77688 -0.01047444 -1.048324 -5.77688 -0.01047444 -1.048324 -6.013971 -0.01047444 1.223528 -6.013971 0.1226253 1.223528 -5.77688 0.1226253 1.048324 -5.77688 0.1226253 1.048324 -6.013971 0.1226253 1.223528 -6.013971 -0.01047444 1.223528 -5.77688 -0.01047444 1.048324 -5.77688 -0.01047444 1.048324 -6.013971 -0.01047444 -1.223528 6.013972 0.1226253 -1.223528 5.776881 0.1226253 -1.048324 5.776881 0.1226253 -1.048324 6.013972 0.1226253 -1.223528 6.013972 -0.01047444 -1.223528 5.776881 -0.01047444 -1.048324 5.776881 -0.01047444 -1.048324 6.013972 -0.01047444 1.223528 6.013972 0.1226253 1.223528 5.776881 0.1226253 1.048324 5.776881 0.1226253 1.048324 6.013972 0.1226253 1.223528 6.013972 -0.01047444 1.223528 5.776881 -0.01047444 1.048324 5.776881 -0.01047444 1.048324 6.013972 -0.01047444 0.5764494 -6.030573 2.47683 0.582786 -6.050475 2.47683 0.5999994 -6.062579 2.47683 0.6172129 -6.050475 2.47683 0.6235495 -6.030573 2.47683 0.5999994 -6.015589 2.47683 0.5999994 -6.015589 0.08639359 0.5764494 -6.030573 0.08639359 0.582786 -6.050475 0.08639359 0.5999994 -6.062579 0.08639359 0.6172129 -6.050475 0.08639359 0.6235495 -6.030573 0.08639359 0.5764494 -6.030573 2.47683 0.582786 -6.050475 2.47683 0.5999994 -6.062579 2.47683 0.6172129 -6.050475 2.47683 0.6235495 -6.030573 2.47683 0.5999994 -6.015589 2.47683 0.5999994 -6.015589 0.08639359 0.5764494 -6.030573 0.08639359 0.582786 -6.050475 0.08639359 0.5999994 -6.062579 0.08639359 0.6172129 -6.050475 0.08639359 0.6235495 -6.030573 0.08639359 0.10645 -6.030573 2.47683 0.1127866 -6.050475 2.47683 0.1300001 -6.062579 2.47683 0.1472136 -6.050475 2.47683 0.1535502 -6.030573 2.47683 0.1300001 -6.015589 2.47683 0.1300001 -6.015589 0.08639359 0.10645 -6.030573 0.08639359 0.1127866 -6.050475 0.08639359 0.1300001 -6.062579 0.08639359 0.1472136 -6.050475 0.08639359 0.1535502 -6.030573 0.08639359 0.10645 -6.030573 2.47683 0.1127866 -6.050475 2.47683 0.1300001 -6.062579 2.47683 0.1472136 -6.050475 2.47683 0.1535502 -6.030573 2.47683 0.1300001 -6.015589 2.47683 0.1300001 -6.015589 0.08639359 0.10645 -6.030573 0.08639359 0.1127866 -6.050475 0.08639359 0.1300001 -6.062579 0.08639359 0.1472136 -6.050475 0.08639359 0.1535502 -6.030573 0.08639359 -0.6035504 -6.030573 2.47683 -0.5972139 -6.050475 2.47683 -0.5800004 -6.062579 2.47683 -0.5627869 -6.050475 2.47683 -0.5564504 -6.030573 2.47683 -0.5800004 -6.015589 2.47683 -0.5800004 -6.015589 0.08639359 -0.6035504 -6.030573 0.08639359 -0.5972139 -6.050475 0.08639359 -0.5800004 -6.062579 0.08639359 -0.5627869 -6.050475 0.08639359 -0.5564504 -6.030573 0.08639359 -0.6035504 -6.030573 2.47683 -0.5972139 -6.050475 2.47683 -0.5800004 -6.062579 2.47683 -0.5627869 -6.050475 2.47683 -0.5564504 -6.030573 2.47683 -0.5800004 -6.015589 2.47683 -0.5800004 -6.015589 0.08639359 -0.6035504 -6.030573 0.08639359 -0.5972139 -6.050475 0.08639359 -0.5800004 -6.062579 0.08639359 -0.5627869 -6.050475 0.08639359 -0.5564504 -6.030573 0.08639359 -0.1335501 -6.030573 2.47683 -0.1272135 -6.050475 2.47683 -0.1100001 -6.062579 2.47683 -0.09278666 -6.050475 2.47683 -0.08645009 -6.030573 2.47683 -0.1100001 -6.015589 2.47683 -0.1100001 -6.015589 0.08639359 -0.1335501 -6.030573 0.08639359 -0.1272135 -6.050475 0.08639359 -0.1100001 -6.062579 0.08639359 -0.09278666 -6.050475 0.08639359 -0.08645009 -6.030573 0.08639359 -0.1335501 -6.030573 2.47683 -0.1272135 -6.050475 2.47683 -0.1100001 -6.062579 2.47683 -0.09278666 -6.050475 2.47683 -0.08645009 -6.030573 2.47683 -0.1100001 -6.015589 2.47683 -0.1100001 -6.015589 0.08639359 -0.1335501 -6.030573 0.08639359 -0.1272135 -6.050475 0.08639359 -0.1100001 -6.062579 0.08639359 -0.09278666 -6.050475 0.08639359 -0.08645009 -6.030573 0.08639359 1.2 6 0 1.2 -6 0 -1.2 -6 0 -1.2 6 0 1.200001 6 2.6 1.199999 -6 2.6 -1.2 -6 2.6 -1.2 6 2.6 1.2 6 0 1.2 -6 0 -1.2 -6 0 -1.2 6 0 1.200001 6 2.6 1.199999 -6 2.6 -1.2 -6 2.6 -1.2 6 2.6 1.2 0 0 -1.2 0 0 -1.2 4.76837e-7 2.6 1.2 -4.76837e-7 2.6 1.148065 -6 0.1672972 -1.148065 -6 0.1672972 1.148065 -6 2.40591 -1.148066 -6 2.40591 1.134836 -6.03358 0.180195 -1.134836 -6.03358 0.180195 1.134835 -6.033581 2.393012 -1.134836 -6.03358 2.393012 1.186369 -5.778584 0.1721777 1.186369 5.735126 0.1701531 1.200001 5.769332 2.487308 1.199999 -5.8291 2.495918 1.2 -5.814756 0.1569504 1.186368 -5.792839 2.480608 1.186369 5.733085 2.472111 1.2 5.771387 0.154899 -1.18637 5.781245 0.164754 -1.18637 -5.741457 0.165565 -1.186371 -5.733225 2.47876 -1.18637 5.787281 2.491672 -1.2 5.818729 2.499278 -1.2 -5.764627 2.486281 -1.2 -5.772905 0.1579647 -1.2 5.81266 0.1571483 1.02618 5.974727 0.1722704 -1.022864 5.974728 0.1770915 -1.015632 5.974727 2.510591 1.02618 5.974727 2.503359 1.047331 6 2.527348 -1.036634 6 2.534729 -1.044015 6 0.1530535 1.047331 6 0.1481328</float_array>
          <technique_common>
            <accessor source="#nd_bld_a30_001-mesh-positions-array" count="212" stride="3">
              <param name="X" type="float"/>
              <param name="Y" type="float"/>
              <param name="Z" type="float"/>
            </accessor>
          </technique_common>
        </source>
        <source id="nd_bld_a30_001-mesh-normals">
          <float_array id="nd_bld_a30_001-mesh-normals-array" count="750">-1 0 0 0 1 0 1 0 0 0 -1 0 0 0 -1 0 0 1 1 0 0 0 1 0 -1 0 0 0 -1 0 0 0 -1 0 0 1 -1 0 0 0 -1 0 1 0 0 0 1 0 0 0 -1 0 0 1 1 0 0 0 -1 0 -1 0 0 0 1 0 0 0 -1 0 0 1 -1 0 0 0 1 0 1 0 0 0 -1 0 0 0 1 0 0 -1 1 0 0 0 1 0 -1 0 0 0 -1 0 0 0 1 0 0 -1 -1 0 0 0 -1 0 1 0 0 0 1 0 0 0 1 0 0 -1 1 0 0 0 -1 0 -1 0 0 0 1 0 0 0 1 0 0 -1 0 -1 0 0 -1 0 0.806177 -0.5916318 0 -0.806177 -0.5916318 0 -0.806177 -0.5916318 0 -0.9400616 0.3409528 0 -0.9400616 0.3409528 0 0.806177 -0.5916318 0 0.9400616 0.3409528 0 0.9400616 0.3409528 0 0 1 0 0 1 0 0 0 -1 0 0 -1 0 -1 0 0 -1 0 0.806177 -0.5916318 0 -0.806177 -0.5916318 0 -0.806177 -0.5916318 0 -0.9400616 0.3409528 0 -0.9400616 0.3409528 0 0.806177 -0.5916318 0 0.9400616 0.3409528 0 0.9400616 0.3409528 0 0 1 0 0 1 0 0 0 -1 0 0 -1 0 -1 0 0 -1 0 0.806177 -0.5916318 0 -0.806177 -0.5916318 0 -0.806177 -0.5916318 0 -0.9400616 0.3409528 0 -0.9400616 0.3409528 0 0.806177 -0.5916318 0 0.9400616 0.3409528 0 0.9400616 0.3409528 0 0 1 0 0 1 0 0 0 -1 0 0 -1 0 -1 0 0 -1 0 0.806177 -0.5916318 0 -0.806177 -0.5916318 0 -0.806177 -0.5916318 0 -0.9400616 0.3409528 0 -0.9400616 0.3409528 0 0.806177 -0.5916318 0 0.9400616 0.3409528 0 0.9400616 0.3409528 0 0 1 0 0 1 0 0 0 -1 0 0 -1 0 0 -1 1 -2.33081e-7 2.75098e-7 0 -1 -1.83399e-7 -0.9174438 0.3978631 -0.001414537 -0.7668659 0.6418074 1.67053e-7 0 0 -1 0 0 1 0 0 1 0 -1 -2.15489e-7 0.9304023 -0.36654 2.19196e-7 -0.9304023 -0.36654 0 -1.48922e-7 -0.3585544 0.9335088 0 -0.3585516 -0.9335099 1 0 3.09845e-7 0.7450215 -4.95222e-4 -0.6670404 1 0 -2.04352e-7 0.9360585 0.3518379 0.002157926 0.9360472 -0.3518743 -3.10096e-4 0.7452196 1.18064e-4 0.6668191 -1 0 0 -1 0 0 -1 0 0 -1 0 0 -0.4871785 6.15572e-5 0.8733024 -0.9174689 -0.3978061 0.001030623 -0.4848718 9.81333e-4 -0.8745848 1.98682e-7 1 4.97277e-7 1.98682e-7 1 2.04766e-7 0 1 1.83399e-7 0 1 1.83399e-7 2.34261e-7 1 2.04556e-7 0.001703321 0.6899316 0.7238727 -0.002564966 0.6895594 -0.7242245 0.7679777 0.6404722 -0.002379953 -1 0 0 0 1 0 1 0 0 0 -1 0 0 0 -1 0 0 1 1 0 0 0 1 0 -1 0 0 0 -1 0 0 0 -1 0 0 1 -1 0 0 0 -1 0 1 0 0 0 1 0 0 0 -1 0 0 1 1 0 0 0 -1 0 -1 0 0 0 1 0 0 0 -1 0 0 1 -1 0 0 0 1 0 1 0 0 0 -1 0 0 0 1 0 0 -1 1 0 0 0 1 0 -1 0 0 0 -1 0 0 0 1 0 0 -1 -1 0 0 0 -1 0 1 0 0 0 1 0 0 0 1 0 0 -1 1 0 0 0 -1 0 -1 0 0 0 1 0 0 0 1 0 0 -1 0 0 -1 0 0 -1 0 0 -1 0 0 -1 0 0 -1 0 0 -1 0 0 -1 0 0 -1 0 0 -1 0 0 -1 0 0 -1 0 0 -1 0 0 -1 0 0 -1 0 0 -1 0 0 -1 0 0 -1 0 0 -1 0 0 -1 0 0 -1 0 0 -1 0 0 -1 0 0 -1 0 0 -1 0 0 -1 1 1.86936e-7 3.06946e-7 1 0 -1.63117e-7 1 0 2.10061e-7 -3.97364e-7 -1 1.83399e-7 -0.9174045 0.3979535 -0.001416265 -0.7668638 0.6418098 2.09719e-7 0 0 -1 0 0 1 0 0 1 -4.20182e-7 -1 2.15489e-7 0.9304023 -0.3665401 2.21752e-7 -0.9304023 -0.36654 0 -1.50658e-7 -0.3585546 0.9335089 0 -0.3585515 -0.9335099 1 0 -2.07236e-7 0.7462943 -4.90788e-4 -0.6656159 1 -1.24264e-7 -1.83399e-7 1 0 0 1 0 0 0.9357401 0.3526836 0.002178132 0.9360007 -0.3519979 -3.12413e-4 0.7455232 1.17198e-4 0.6664797 -1 0 0 -1 0 0 -1 0 0 -1 0 0 -1 0 0 -1 0 0 -0.4871314 6.1486e-5 0.8733287 -0.9174388 -0.3978756 0.001031935 -0.4855543 9.79855e-4 -0.874206 2.27122e-7 1 -4.77267e-7 2.27459e-7 1 -2.31815e-7 -1.97048e-7 1 2.00822e-7 1.94463e-7 1 2.00418e-7 2.33191e-7 1 2.03622e-7 0.001703321 0.6899312 0.7238729 -0.002564847 0.6895624 -0.7242217 0.7679748 0.6404756 -0.002379834</float_array>
          <technique_common>
            <accessor source="#nd_bld_a30_001-mesh-normals-array" count="250" stride="3">
              <param name="X" type="float"/>
              <param name="Y" type="float"/>
              <param name="Z" type="float"/>
            </accessor>
          </technique_common>
        </source>
        <source id="nd_bld_a30_001-mesh-map-0">
          <float_array id="nd_bld_a30_001-mesh-map-0-array" count="1500">0.4796153 0.2935974 0.5002305 0.2935974 0.4796153 0.3051705 0.4801098 0.2918816 0.4997278 0.2918816 0.4801098 0.306785 0.5002305 0.30504 0.4796153 0.30504 0.5002305 0.2934668 0.4997714 0.3068156 0.4801535 0.3068156 0.4997714 0.2919121 0.4795573 0.2916601 0.5001726 0.2916601 0.4795573 0.3068942 0.479592 0.2917426 0.5002071 0.2917426 0.479592 0.3069767 0.4796153 0.2935974 0.4796153 0.3051705 0.5002305 0.2935974 0.4801098 0.2918816 0.4801098 0.306785 0.4997278 0.2918816 0.5002305 0.30504 0.5002305 0.2934668 0.4796153 0.30504 0.4997714 0.3068156 0.4997714 0.2919121 0.4801535 0.3068156 0.4795573 0.2916601 0.4795573 0.3068942 0.5001726 0.2916601 0.479592 0.2917426 0.479592 0.3069767 0.5002071 0.2917426 0.4796153 0.2935974 0.4796153 0.3051705 0.5002305 0.2935974 0.4801098 0.2918816 0.4801098 0.306785 0.4997278 0.2918816 0.5002305 0.30504 0.5002305 0.2934668 0.4796153 0.30504 0.4997714 0.3068156 0.4997714 0.2919121 0.4801535 0.3068156 0.4795573 0.2916601 0.4795573 0.3068942 0.5001726 0.2916601 0.479592 0.2917426 0.479592 0.3069767 0.5002071 0.2917426 0.4796153 0.2935974 0.5002305 0.2935974 0.4796153 0.3051705 0.4801098 0.2918816 0.4997278 0.2918816 0.4801098 0.306785 0.5002305 0.30504 0.4796153 0.30504 0.5002305 0.2934668 0.4997714 0.3068156 0.4801535 0.3068156 0.4997714 0.2919121 0.4795573 0.2916601 0.5001726 0.2916601 0.4795573 0.3068942 0.479592 0.2917426 0.5002071 0.2917426 0.479592 0.3069767 0.4796153 0.2935974 0.4796153 0.3051705 0.5002305 0.2935974 0.4801098 0.2918816 0.4801098 0.306785 0.4997278 0.2918816 0.5002305 0.30504 0.5002305 0.2934668 0.4796153 0.30504 0.4997714 0.3068156 0.4997714 0.2919121 0.4801535 0.3068156 0.4795573 0.2916601 0.4795573 0.3068942 0.5001726 0.2916601 0.479592 0.2917426 0.479592 0.3069767 0.5002071 0.2917426 0.4796153 0.2935974 0.5002305 0.2935974 0.4796153 0.3051705 0.4801098 0.2918816 0.4997278 0.2918816 0.4801098 0.306785 0.5002305 0.30504 0.4796153 0.30504 0.5002305 0.2934668 0.4997714 0.3068156 0.4801535 0.3068156 0.4997714 0.2919121 0.4795573 0.2916601 0.5001726 0.2916601 0.4795573 0.3068942 0.479592 0.2917426 0.5002071 0.2917426 0.479592 0.3069767 0.4796153 0.2935974 0.5002305 0.2935974 0.4796153 0.3051705 0.4801098 0.2918816 0.4997278 0.2918816 0.4801098 0.306785 0.5002305 0.30504 0.4796153 0.30504 0.5002305 0.2934668 0.4997714 0.3068156 0.4801535 0.3068156 0.4997714 0.2919121 0.4795573 0.2916601 0.5001726 0.2916601 0.4795573 0.3068942 0.479592 0.2917426 0.5002071 0.2917426 0.479592 0.3069767 0.4796153 0.2935974 0.4796153 0.3051705 0.5002305 0.2935974 0.4801098 0.2918816 0.4801098 0.306785 0.4997278 0.2918816 0.5002305 0.30504 0.5002305 0.2934668 0.4796153 0.30504 0.4997714 0.3068156 0.4997714 0.2919121 0.4801535 0.3068156 0.4795573 0.2916601 0.4795573 0.3068942 0.5001726 0.2916601 0.479592 0.2917426 0.479592 0.3069767 0.5002071 0.2917426 0.1185881 0.9815502 0.04415816 0.8097087 0.1193183 0.9812339 0.1178579 0.9818664 0.04342794 0.8100249 0.1185881 0.9815502 0.1171278 0.9821827 0.04269778 0.8103412 0.1178579 0.9818664 0.1193183 0.9812339 0.04488831 0.8093924 0.1200485 0.9809176 0.1200485 0.9809176 0.04561847 0.8090761 0.1207787 0.9806013 0.1163976 0.982499 0.04196757 0.8106575 0.1171278 0.9821827 0.1321051 0.9358541 0.1135458 0.8842265 0.1869673 0.9358541 0.1933634 0.8977938 0.1891278 0.886011 0.2058844 0.8977938 0.1185881 0.9815502 0.04415816 0.8097087 0.1193183 0.9812339 0.1178579 0.9818664 0.04342794 0.8100249 0.1185881 0.9815502 0.1171278 0.9821827 0.04269778 0.8103412 0.1178579 0.9818664 0.1193183 0.9812339 0.04488831 0.8093924 0.1200485 0.9809176 0.1200485 0.9809176 0.04561847 0.8090761 0.1207787 0.9806013 0.1163976 0.982499 0.04196757 0.8106575 0.1171278 0.9821827 0.1321051 0.9358541 0.1135458 0.8842265 0.1869673 0.9358541 0.1933634 0.8977938 0.1891278 0.886011 0.2058844 0.8977938 0.1185881 0.9815502 0.04415816 0.8097087 0.1193183 0.9812339 0.1178579 0.9818664 0.04342794 0.8100249 0.1185881 0.9815502 0.1171278 0.9821827 0.04269778 0.8103412 0.1178579 0.9818664 0.1193183 0.9812339 0.04488831 0.8093924 0.1200485 0.9809176 0.1200485 0.9809176 0.04561847 0.8090761 0.1207787 0.9806013 0.1163976 0.982499 0.04196757 0.8106575 0.1171278 0.9821827 0.1321051 0.9358541 0.1135458 0.8842265 0.1869673 0.9358541 0.1933634 0.8977938 0.1891278 0.886011 0.2058844 0.8977938 0.1185881 0.9815502 0.04415816 0.8097087 0.1193183 0.9812339 0.1178579 0.9818664 0.04342794 0.8100249 0.1185881 0.9815502 0.1171278 0.9821827 0.04269778 0.8103412 0.1178579 0.9818664 0.1193183 0.9812339 0.04488831 0.8093924 0.1200485 0.9809176 0.1200485 0.9809176 0.04561847 0.8090761 0.1207787 0.9806013 0.1163976 0.982499 0.04196757 0.8106575 0.1171278 0.9821827 0.1321051 0.9358541 0.1135458 0.8842265 0.1869673 0.9358541 0.1933634 0.8977938 0.1891278 0.886011 0.2058844 0.8977938 0.4998692 0.5685656 0.9920238 0.5690775 0.4998692 0.3581873 -8.34721e-5 0.999524 -8.34721e-5 0.7872154 0.01930749 0.7999995 0.4972508 0.3110637 0.4972507 0.5691098 0.2529605 0.3110637 0.9867189 0.8000827 0.9860305 0.9902906 0.9828454 0.9874054 0.01575684 0.5637884 0.01669466 0.324854 0.01911216 0.5600604 0.9920239 0.5690775 0.4998692 0.5685656 0.9920238 0.3586993 0.9920238 0.3586993 0.9920239 0.5690775 0.4998692 0.3581872 0.4998692 0.3581873 0.4998692 0.5685656 0.9920239 0.3586993 0.4883962 0.3297855 0.4883962 0.5515493 0.2627565 0.3297856 0.4938943 0.3284928 0.4938943 0.5528417 0.4883962 0.3297855 0.2572591 0.5528417 0.2572584 0.328493 0.2627567 0.5515494 0.4897114 0.5570839 0.2614415 0.5570839 0.4883962 0.5515493 0.2614414 0.3242509 0.4897113 0.3242508 0.2627565 0.3297856 0.02248919 0.8029122 0.9834092 0.8027516 0.02130389 0.9881728 0.9864219 0.990375 0.01811426 0.9910821 0.9832343 0.9874872 1.000247 0.9995238 0.9864219 0.990375 0.986598 0.7998339 0.01811426 0.9910821 0.01930749 0.7999995 0.02248919 0.8029122 0.986598 0.7998339 0.9864219 0.990375 0.9832343 0.9874872 0.01930749 0.7999995 0.986598 0.7998339 0.02248919 0.8029122 1.000247 0.9995239 -8.34465e-5 0.9995238 0.01897698 0.9913579 1.000247 0.9995239 0.9860305 0.9902906 0.9867189 0.8000827 -8.34465e-5 0.7872154 0.01948183 0.8000156 0.01897698 0.9913579 0.0226624 0.8029279 0.9835293 0.8029928 0.02216088 0.9884402 0.01948183 0.8000156 0.9867189 0.8000827 0.0226624 0.8029279 0.01897698 0.9913579 0.01948183 0.8000156 0.0226624 0.8029279 0.9860305 0.9902906 0.01897698 0.9913579 0.9828454 0.9874054 0.2449668 0.5709539 2.69949e-4 0.5709541 0.2284415 0.5645295 0.001293718 0.3101082 0.2459908 0.3101082 0.01669466 0.324854 0.2459908 0.3101082 0.2449668 0.5709539 0.2284415 0.5645295 2.69949e-4 0.5709541 0.001293718 0.3101082 0.01575684 0.5637884 0.01911216 0.5600604 0.02002054 0.3286052 0.2251392 0.5607783 0.01669466 0.324854 0.2301338 0.3253481 0.2267785 0.3290839 0.2284415 0.5645295 0.01575684 0.5637884 0.01911216 0.5600604 0.2301338 0.3253481 0.2284415 0.5645295 0.2251392 0.5607783 0.5002305 0.2935974 0.5002305 0.3051705 0.4796153 0.3051705 0.4997278 0.2918816 0.4997278 0.306785 0.4801098 0.306785 0.4796153 0.30504 0.4796153 0.2934668 0.5002305 0.2934668 0.4801535 0.3068156 0.4801535 0.2919121 0.4997714 0.2919121 0.5001726 0.2916601 0.5001726 0.3068942 0.4795573 0.3068942 0.5002071 0.2917426 0.5002071 0.3069767 0.479592 0.3069767 0.4796153 0.3051705 0.5002305 0.3051705 0.5002305 0.2935974 0.4801098 0.306785 0.4997278 0.306785 0.4997278 0.2918816 0.5002305 0.2934668 0.4796153 0.2934668 0.4796153 0.30504 0.4997714 0.2919121 0.4801535 0.2919121 0.4801535 0.3068156 0.4795573 0.3068942 0.5001726 0.3068942 0.5001726 0.2916601 0.479592 0.3069767 0.5002071 0.3069767 0.5002071 0.2917426 0.4796153 0.3051705 0.5002305 0.3051705 0.5002305 0.2935974 0.4801098 0.306785 0.4997278 0.306785 0.4997278 0.2918816 0.5002305 0.2934668 0.4796153 0.2934668 0.4796153 0.30504 0.4997714 0.2919121 0.4801535 0.2919121 0.4801535 0.3068156 0.4795573 0.3068942 0.5001726 0.3068942 0.5001726 0.2916601 0.479592 0.3069767 0.5002071 0.3069767 0.5002071 0.2917426 0.5002305 0.2935974 0.5002305 0.3051705 0.4796153 0.3051705 0.4997278 0.2918816 0.4997278 0.306785 0.4801098 0.306785 0.4796153 0.30504 0.4796153 0.2934668 0.5002305 0.2934668 0.4801535 0.3068156 0.4801535 0.2919121 0.4997714 0.2919121 0.5001726 0.2916601 0.5001726 0.3068942 0.4795573 0.3068942 0.5002071 0.2917426 0.5002071 0.3069767 0.479592 0.3069767 0.4796153 0.3051705 0.5002305 0.3051705 0.5002305 0.2935974 0.4801098 0.306785 0.4997278 0.306785 0.4997278 0.2918816 0.5002305 0.2934668 0.4796153 0.2934668 0.4796153 0.30504 0.4997714 0.2919121 0.4801535 0.2919121 0.4801535 0.3068156 0.4795573 0.3068942 0.5001726 0.3068942 0.5001726 0.2916601 0.479592 0.3069767 0.5002071 0.3069767 0.5002071 0.2917426 0.5002305 0.2935974 0.5002305 0.3051705 0.4796153 0.3051705 0.4997278 0.2918816 0.4997278 0.306785 0.4801098 0.306785 0.4796153 0.30504 0.4796153 0.2934668 0.5002305 0.2934668 0.4801535 0.3068156 0.4801535 0.2919121 0.4997714 0.2919121 0.5001726 0.2916601 0.5001726 0.3068942 0.4795573 0.3068942 0.5002071 0.2917426 0.5002071 0.3069767 0.479592 0.3069767 0.5002305 0.2935974 0.5002305 0.3051705 0.4796153 0.3051705 0.4997278 0.2918816 0.4997278 0.306785 0.4801098 0.306785 0.4796153 0.30504 0.4796153 0.2934668 0.5002305 0.2934668 0.4801535 0.3068156 0.4801535 0.2919121 0.4997714 0.2919121 0.5001726 0.2916601 0.5001726 0.3068942 0.4795573 0.3068942 0.5002071 0.2917426 0.5002071 0.3069767 0.479592 0.3069767 0.4796153 0.3051705 0.5002305 0.3051705 0.5002305 0.2935974 0.4801098 0.306785 0.4997278 0.306785 0.4997278 0.2918816 0.5002305 0.2934668 0.4796153 0.2934668 0.4796153 0.30504 0.4997714 0.2919121 0.4801535 0.2919121 0.4801535 0.3068156 0.4795573 0.3068942 0.5001726 0.3068942 0.5001726 0.2916601 0.479592 0.3069767 0.5002071 0.3069767 0.5002071 0.2917426 0.04415816 0.8097087 0.04488831 0.8093924 0.1193183 0.9812339 0.04342794 0.8100249 0.04415816 0.8097087 0.1185881 0.9815502 0.04269778 0.8103412 0.04342794 0.8100249 0.1178579 0.9818664 0.04488831 0.8093924 0.04561847 0.8090761 0.1200485 0.9809176 0.04561847 0.8090761 0.04634869 0.8087599 0.1207787 0.9806013 0.04196757 0.8106575 0.04269778 0.8103412 0.1171278 0.9821827 0.1298782 0.8322788 0.2025727 0.83564 0.2303271 0.9029118 0.1135458 0.8842265 0.1298782 0.8322788 0.1869673 0.9358541 0.1298782 0.8322788 0.2303271 0.9029118 0.1869673 0.9358541 0.1928552 0.8741552 0.209446 0.8749223 0.2157803 0.8902755 0.1891278 0.886011 0.1928552 0.8741552 0.2058844 0.8977938 0.1928552 0.8741552 0.2157803 0.8902755 0.2058844 0.8977938 0.04415816 0.8097087 0.04488831 0.8093924 0.1193183 0.9812339 0.04342794 0.8100249 0.04415816 0.8097087 0.1185881 0.9815502 0.04269778 0.8103412 0.04342794 0.8100249 0.1178579 0.9818664 0.04488831 0.8093924 0.04561847 0.8090761 0.1200485 0.9809176 0.04561847 0.8090761 0.04634869 0.8087599 0.1207787 0.9806013 0.04196757 0.8106575 0.04269778 0.8103412 0.1171278 0.9821827 0.1298782 0.8322788 0.2025727 0.83564 0.2303271 0.9029118 0.1135458 0.8842265 0.1298782 0.8322788 0.1869673 0.9358541 0.1298782 0.8322788 0.2303271 0.9029118 0.1869673 0.9358541 0.1928552 0.8741552 0.209446 0.8749223 0.2157803 0.8902755 0.1891278 0.886011 0.1928552 0.8741552 0.2058844 0.8977938 0.1928552 0.8741552 0.2157803 0.8902755 0.2058844 0.8977938 0.04415816 0.8097087 0.04488831 0.8093924 0.1193183 0.9812339 0.04342794 0.8100249 0.04415816 0.8097087 0.1185881 0.9815502 0.04269778 0.8103412 0.04342794 0.8100249 0.1178579 0.9818664 0.04488831 0.8093924 0.04561847 0.8090761 0.1200485 0.9809176 0.04561847 0.8090761 0.04634869 0.8087599 0.1207787 0.9806013 0.04196757 0.8106575 0.04269778 0.8103412 0.1171278 0.9821827 0.1298782 0.8322788 0.2025727 0.83564 0.2303271 0.9029118 0.1135458 0.8842265 0.1298782 0.8322788 0.1869673 0.9358541 0.1298782 0.8322788 0.2303271 0.9029118 0.1869673 0.9358541 0.1928552 0.8741552 0.209446 0.8749223 0.2157803 0.8902755 0.1891278 0.886011 0.1928552 0.8741552 0.2058844 0.8977938 0.1928552 0.8741552 0.2157803 0.8902755 0.2058844 0.8977938 0.04415816 0.8097087 0.04488831 0.8093924 0.1193183 0.9812339 0.04342794 0.8100249 0.04415816 0.8097087 0.1185881 0.9815502 0.04269778 0.8103412 0.04342794 0.8100249 0.1178579 0.9818664 0.04488831 0.8093924 0.04561847 0.8090761 0.1200485 0.9809176 0.04561847 0.8090761 0.04634869 0.8087599 0.1207787 0.9806013 0.04196757 0.8106575 0.04269778 0.8103412 0.1171278 0.9821827 0.1298782 0.8322788 0.2025727 0.83564 0.2303271 0.9029118 0.1135458 0.8842265 0.1298782 0.8322788 0.1869673 0.9358541 0.1298782 0.8322788 0.2303271 0.9029118 0.1869673 0.9358541 0.1928552 0.8741552 0.209446 0.8749223 0.2157803 0.8902755 0.1891278 0.886011 0.1928552 0.8741552 0.2058844 0.8977938 0.1928552 0.8741552 0.2157803 0.8902755 0.2058844 0.8977938 0.9920238 0.5690775 0.9920239 0.3586993 0.4998692 0.3581873 -8.34721e-5 0.999524 0.01930749 0.7999995 0.01811426 0.9910821 1.000247 0.9995238 -8.34721e-5 0.999524 0.01811426 0.9910821 0.9864219 0.990375 1.000247 0.9995238 0.01811426 0.9910821 0.4972507 0.5691098 0.2529605 0.5691098 0.2529605 0.3110637 0.9835293 0.8029928 0.9867189 0.8000827 0.9828454 0.9874054 0.01669466 0.324854 0.02002054 0.3286052 0.01911216 0.5600604 0.4998692 0.5685656 0.4998692 0.3581872 0.9920238 0.3586993 0.9920239 0.5690775 0.4998692 0.5685656 0.4998692 0.3581872 0.4998692 0.5685656 0.9920238 0.5690775 0.9920239 0.3586993 0.4883962 0.5515493 0.2627567 0.5515494 0.2627565 0.3297856 0.4938943 0.5528417 0.4883962 0.5515493 0.4883962 0.3297855 0.2572584 0.328493 0.2627565 0.3297856 0.2627567 0.5515494 0.2614415 0.5570839 0.2627567 0.5515494 0.4883962 0.5515493 0.4897113 0.3242508 0.4883962 0.3297855 0.2627565 0.3297856 0.9834092 0.8027516 0.9832343 0.9874872 0.02130389 0.9881728 0.01811426 0.9910821 0.02130389 0.9881728 0.9832343 0.9874872 1.000247 0.7872154 1.000247 0.9995238 0.986598 0.7998339 -8.34721e-5 0.7872154 1.000247 0.7872154 0.01930749 0.7999995 1.000247 0.7872154 0.986598 0.7998339 0.01930749 0.7999995 0.02130389 0.9881728 0.01811426 0.9910821 0.02248919 0.8029122 0.9834092 0.8027516 0.986598 0.7998339 0.9832343 0.9874872 0.986598 0.7998339 0.9834092 0.8027516 0.02248919 0.8029122 0.9860305 0.9902906 1.000247 0.9995239 0.01897698 0.9913579 1.000247 0.7872154 1.000247 0.9995239 0.9867189 0.8000827 -8.34465e-5 0.7872154 1.000247 0.7872154 0.01948183 0.8000156 1.000247 0.7872154 0.9867189 0.8000827 0.01948183 0.8000156 -8.34465e-5 0.9995238 -8.34465e-5 0.7872154 0.01897698 0.9913579 0.9835293 0.8029928 0.9828454 0.9874054 0.02216088 0.9884402 0.9867189 0.8000827 0.9835293 0.8029928 0.0226624 0.8029279 0.02216088 0.9884402 0.01897698 0.9913579 0.0226624 0.8029279 0.01897698 0.9913579 0.02216088 0.9884402 0.9828454 0.9874054 2.69949e-4 0.5709541 0.01575684 0.5637884 0.2284415 0.5645295 0.2459908 0.3101082 0.2301338 0.3253481 0.01669466 0.324854 0.2301338 0.3253481 0.2459908 0.3101082 0.2284415 0.5645295 0.001293718 0.3101082 0.01669466 0.324854 0.01575684 0.5637884 0.02002054 0.3286052 0.2267785 0.3290839 0.2251392 0.5607783 0.02002054 0.3286052 0.01669466 0.324854 0.2267785 0.3290839 0.2251392 0.5607783 0.2284415 0.5645295 0.01911216 0.5600604 0.2267785 0.3290839 0.2301338 0.3253481 0.2251392 0.5607783</float_array>
          <technique_common>
            <accessor source="#nd_bld_a30_001-mesh-map-0-array" count="750" stride="2">
              <param name="S" type="float"/>
              <param name="T" type="float"/>
            </accessor>
          </technique_common>
        </source>
        <vertices id="nd_bld_a30_001-mesh-vertices">
          <input semantic="POSITION" source="#nd_bld_a30_001-mesh-positions"/>
        </vertices>
        <polylist material="containers_01_a-material" count="250">
          <input semantic="VERTEX" source="#nd_bld_a30_001-mesh-vertices" offset="0"/>
          <input semantic="NORMAL" source="#nd_bld_a30_001-mesh-normals" offset="1"/>
          <input semantic="TEXCOORD" source="#nd_bld_a30_001-mesh-map-0" offset="2" set="0"/>
          <vcount>3 3 3 3 3 3 3 3 3 3 3 3 3 3 3 3 3 3 3 3 3 3 3 3 3 3 3 3 3 3 3 3 3 3 3 3 3 3 3 3 3 3 3 3 3 3 3 3 3 3 3 3 3 3 3 3 3 3 3 3 3 3 3 3 3 3 3 3 3 3 3 3 3 3 3 3 3 3 3 3 3 3 3 3 3 3 3 3 3 3 3 3 3 3 3 3 3 3 3 3 3 3 3 3 3 3 3 3 3 3 3 3 3 3 3 3 3 3 3 3 3 3 3 3 3 3 3 3 3 3 3 3 3 3 3 3 3 3 3 3 3 3 3 3 3 3 3 3 3 3 3 3 3 3 3 3 3 3 3 3 3 3 3 3 3 3 3 3 3 3 3 3 3 3 3 3 3 3 3 3 3 3 3 3 3 3 3 3 3 3 3 3 3 3 3 3 3 3 3 3 3 3 3 3 3 3 3 3 3 3 3 3 3 3 3 3 3 3 3 3 3 3 3 3 3 3 3 3 3 3 3 3 3 3 3 3 3 3 3 3 3 3 3 3 3 3 3 3 3 3 </vcount>
          <p>4 0 0 5 0 1 0 0 2 5 1 3 6 1 4 1 1 5 6 2 6 7 2 7 2 2 8 7 3 9 4 3 10 3 3 11 0 4 12 1 4 13 3 4 14 7 5 15 6 5 16 4 5 17 12 6 18 8 6 19 13 6 20 13 7 21 9 7 22 14 7 23 14 8 24 10 8 25 15 8 26 15 9 27 11 9 28 12 9 29 8 10 30 11 10 31 9 10 32 15 11 33 12 11 34 14 11 35 20 12 36 16 12 37 21 12 38 21 13 39 17 13 40 22 13 41 22 14 42 18 14 43 23 14 44 23 15 45 19 15 46 20 15 47 16 16 48 19 16 49 17 16 50 23 17 51 20 17 52 22 17 53 28 18 54 29 18 55 24 18 56 29 19 57 30 19 58 25 19 59 30 20 60 31 20 61 26 20 62 31 21 63 28 21 64 27 21 65 24 22 66 25 22 67 27 22 68 31 23 69 30 23 70 28 23 71 36 24 72 32 24 73 37 24 74 37 25 75 33 25 76 38 25 77 38 26 78 34 26 79 39 26 80 39 27 81 35 27 82 36 27 83 32 28 84 35 28 85 33 28 86 39 29 87 36 29 88 38 29 89 44 30 90 45 30 91 40 30 92 45 31 93 46 31 94 41 31 95 46 32 96 47 32 97 42 32 98 47 33 99 44 33 100 43 33 101 40 34 102 41 34 103 43 34 104 47 35 105 46 35 106 44 35 107 52 36 108 53 36 109 48 36 110 53 37 111 54 37 112 49 37 113 54 38 114 55 38 115 50 38 116 55 39 117 52 39 118 51 39 119 48 40 120 49 40 121 51 40 122 55 41 123 54 41 124 52 41 125 60 42 126 56 42 127 61 42 128 61 43 129 57 43 130 62 43 131 62 44 132 58 44 133 63 44 134 63 45 135 59 45 136 60 45 137 56 46 138 59 46 139 57 46 140 63 47 141 60 47 142 62 47 143 66 48 144 73 49 145 67 50 146 65 51 147 72 52 148 66 48 149 64 53 150 71 54 151 65 51 152 67 50 153 74 55 154 68 56 155 68 56 156 75 57 157 69 58 158 69 58 159 70 59 160 64 53 161 78 60 162 77 60 163 79 60 164 85 61 165 84 61 166 86 61 167 90 62 168 97 63 169 91 64 170 89 65 171 96 66 172 90 62 173 88 67 174 95 68 175 89 65 176 91 64 177 98 69 178 92 70 179 92 70 180 99 71 181 93 72 182 93 72 183 94 73 184 88 67 185 102 74 186 101 74 187 103 74 188 109 75 189 108 75 190 110 75 191 114 76 192 121 77 193 115 78 194 113 79 195 120 80 196 114 76 197 112 81 198 119 82 199 113 79 200 115 78 201 122 83 202 116 84 203 116 84 204 123 85 205 117 86 206 117 86 207 118 87 208 112 81 209 126 88 210 125 88 211 127 88 212 133 89 213 132 89 214 134 89 215 138 90 216 145 91 217 139 92 218 137 93 219 144 94 220 138 90 221 136 95 222 143 96 223 137 93 224 139 92 225 146 97 226 140 98 227 140 98 228 147 99 229 141 100 230 141 100 231 142 101 232 136 95 233 150 102 234 149 102 235 151 102 236 157 103 237 156 103 238 158 103 239 168 104 240 176 104 241 171 104 242 165 105 243 161 105 244 192 105 245 161 106 246 165 106 247 162 106 248 202 107 249 201 107 250 198 107 251 208 108 252 211 108 253 207 108 254 176 109 255 169 109 256 177 109 257 179 110 258 178 110 259 173 110 260 172 111 261 175 111 262 179 111 263 184 112 264 186 112 265 185 112 266 180 113 267 182 113 268 184 113 269 183 114 270 181 114 271 187 114 272 182 115 273 183 115 274 186 115 275 181 116 276 180 116 277 185 116 278 188 117 279 189 117 280 193 117 281 190 118 282 191 118 283 194 118 284 164 119 285 190 119 286 195 119 287 191 120 288 192 120 289 188 120 290 195 121 291 190 121 292 194 121 293 192 122 294 195 122 295 188 122 296 166 123 297 167 123 298 200 123 299 166 124 300 201 124 301 202 124 302 163 125 303 203 125 304 200 125 305 196 126 306 197 126 307 199 126 308 203 127 309 202 127 310 196 127 311 200 128 312 203 128 313 196 128 314 201 129 315 200 129 316 198 129 317 167 130 318 164 130 319 209 130 320 160 131 321 163 131 322 211 131 323 163 132 324 167 132 325 209 132 326 164 133 327 160 133 328 208 133 329 207 134 330 204 134 331 206 134 332 211 135 333 210 135 334 205 135 335 209 136 336 208 136 337 207 136 338 210 137 339 209 137 340 206 137 341 5 138 342 1 138 343 0 138 344 6 139 345 2 139 346 1 139 347 7 140 348 3 140 349 2 140 350 4 141 351 0 141 352 3 141 353 1 142 354 2 142 355 3 142 356 6 143 357 5 143 358 4 143 359 8 144 360 9 144 361 13 144 362 9 145 363 10 145 364 14 145 365 10 146 366 11 146 367 15 146 368 11 147 369 8 147 370 12 147 371 11 148 372 10 148 373 9 148 374 12 149 375 13 149 376 14 149 377 16 150 378 17 150 379 21 150 380 17 151 381 18 151 382 22 151 383 18 152 384 19 152 385 23 152 386 19 153 387 16 153 388 20 153 389 19 154 390 18 154 391 17 154 392 20 155 393 21 155 394 22 155 395 29 156 396 25 156 397 24 156 398 30 157 399 26 157 400 25 157 401 31 158 402 27 158 403 26 158 404 28 159 405 24 159 406 27 159 407 25 160 408 26 160 409 27 160 410 30 161 411 29 161 412 28 161 413 32 162 414 33 162 415 37 162 416 33 163 417 34 163 418 38 163 419 34 164 420 35 164 421 39 164 422 35 165 423 32 165 424 36 165 425 35 166 426 34 166 427 33 166 428 36 167 429 37 167 430 38 167 431 45 168 432 41 168 433 40 168 434 46 169 435 42 169 436 41 169 437 47 170 438 43 170 439 42 170 440 44 171 441 40 171 442 43 171 443 41 172 444 42 172 445 43 172 446 46 173 447 45 173 448 44 173 449 53 174 450 49 174 451 48 174 452 54 175 453 50 175 454 49 175 455 55 176 456 51 176 457 50 176 458 52 177 459 48 177 460 51 177 461 49 178 462 50 178 463 51 178 464 54 179 465 53 179 466 52 179 467 56 180 468 57 180 469 61 180 470 57 181 471 58 181 472 62 181 473 58 182 474 59 182 475 63 182 476 59 183 477 56 183 478 60 183 479 59 184 480 58 184 481 57 184 482 60 185 483 61 185 484 62 185 485 73 49 486 74 55 487 67 50 488 72 52 489 73 49 490 66 48 491 71 54 492 72 52 493 65 51 494 74 55 495 75 57 496 68 56 497 75 57 498 70 59 499 69 58 500 70 59 501 71 54 502 64 53 503 76 186 504 81 186 505 80 186 506 77 187 507 76 187 508 79 187 509 76 188 510 80 188 511 79 188 512 83 189 513 82 189 514 87 189 515 84 190 516 83 190 517 86 190 518 83 191 519 87 191 520 86 191 521 97 63 522 98 69 523 91 64 524 96 66 525 97 63 526 90 62 527 95 68 528 96 66 529 89 65 530 98 69 531 99 71 532 92 70 533 99 71 534 94 73 535 93 72 536 94 73 537 95 68 538 88 67 539 100 192 540 105 192 541 104 192 542 101 193 543 100 193 544 103 193 545 100 194 546 104 194 547 103 194 548 107 195 549 106 195 550 111 195 551 108 196 552 107 196 553 110 196 554 107 197 555 111 197 556 110 197 557 121 77 558 122 83 559 115 78 560 120 80 561 121 77 562 114 76 563 119 82 564 120 80 565 113 79 566 122 83 567 123 85 568 116 84 569 123 85 570 118 87 571 117 86 572 118 87 573 119 82 574 112 81 575 124 198 576 129 198 577 128 198 578 125 199 579 124 199 580 127 199 581 124 200 582 128 200 583 127 200 584 131 201 585 130 201 586 135 201 587 132 202 588 131 202 589 134 202 590 131 203 591 135 203 592 134 203 593 145 91 594 146 97 595 139 92 596 144 94 597 145 91 598 138 90 599 143 96 600 144 94 601 137 93 602 146 97 603 147 99 604 140 98 605 147 99 606 142 101 607 141 100 608 142 101 609 143 96 610 136 95 611 148 204 612 153 204 613 152 204 614 149 205 615 148 205 616 151 205 617 148 206 618 152 206 619 151 206 620 155 207 621 154 207 622 159 207 623 156 208 624 155 208 625 158 208 626 155 209 627 159 209 628 158 209 629 176 210 630 177 210 631 171 210 632 165 211 633 192 211 634 191 211 635 164 212 636 165 212 637 191 212 638 190 213 639 164 213 640 191 213 641 165 214 642 166 214 643 162 214 644 197 215 645 202 215 646 198 215 647 211 216 648 204 216 649 207 216 650 169 217 651 170 217 652 177 217 653 178 218 654 174 218 655 173 218 656 175 219 657 178 219 658 179 219 659 186 220 660 187 220 661 185 220 662 182 221 663 186 221 664 184 221 665 181 222 666 185 222 667 187 222 668 183 223 669 187 223 670 186 223 671 180 224 672 184 224 673 185 224 674 189 225 675 194 225 676 193 225 677 191 226 678 193 226 679 194 226 680 160 227 681 164 227 682 195 227 683 161 228 684 160 228 685 192 228 686 160 229 687 195 229 688 192 229 689 193 230 690 191 230 691 188 230 692 189 231 693 195 231 694 194 231 695 195 232 696 189 232 697 188 232 698 201 233 699 166 233 700 200 233 701 162 234 702 166 234 703 202 234 704 163 235 705 162 235 706 203 235 707 162 236 708 202 236 709 203 236 710 167 237 711 163 237 712 200 237 713 197 238 714 198 238 715 199 238 716 202 239 717 197 239 718 196 239 719 199 240 720 200 240 721 196 240 722 200 241 723 199 241 724 198 241 725 164 242 726 208 242 727 209 242 728 163 243 729 210 243 730 211 243 731 210 244 732 163 244 733 209 244 734 160 245 735 211 245 736 208 245 737 204 246 738 205 246 739 206 246 740 204 247 741 211 247 742 205 247 743 206 248 744 209 248 745 207 248 746 205 249 747 210 249 748 206 249 749</p>
        </polylist>
      </mesh>
      <extra><technique profile="MAYA"><double_sided>1</double_sided></technique></extra>
    </geometry>
    <geometry id="nd_bld_a30_002-mesh" name="nd_bld_a30.002">
      <mesh>
        <source id="nd_bld_a30_002-mesh-positions">
          <float_array id="nd_bld_a30_002-mesh-positions-array" count="60">1.2 6 0 1.2 -6 0 -1.2 -6 0 -1.2 6 0 1.200001 6 2.6 1.199999 -6 2.6 -1.2 -6 2.6 -1.2 6 2.6 1.2 6 0 1.2 -6 0 -1.2 -6 0 -1.2 6 0 1.200001 6 2.6 1.199999 -6 2.6 -1.2 -6 2.6 -1.2 6 2.6 1.2 0 0 -1.2 0 0 -1.2 4.76837e-7 2.6 1.2 -4.76837e-7 2.6</float_array>
          <technique_common>
            <accessor source="#nd_bld_a30_002-mesh-positions-array" count="20" stride="3">
              <param name="X" type="float"/>
              <param name="Y" type="float"/>
              <param name="Z" type="float"/>
            </accessor>
          </technique_common>
        </source>
        <source id="nd_bld_a30_002-mesh-normals">
          <float_array id="nd_bld_a30_002-mesh-normals-array" count="48">0 0 -1 0 -1 -1.83399e-7 0 0 -1 0 0 1 0 0 1 1.98682e-7 1 1.83399e-7 1 0 -1.83399e-7 -1 0 0 0 0 -1 -3.97364e-7 -1 1.83399e-7 0 0 -1 0 0 1 0 0 1 1.98682e-7 1 1.83399e-7 1 0 2.75098e-7 -1 0 0</float_array>
          <technique_common>
            <accessor source="#nd_bld_a30_002-mesh-normals-array" count="16" stride="3">
              <param name="X" type="float"/>
              <param name="Y" type="float"/>
              <param name="Z" type="float"/>
            </accessor>
          </technique_common>
        </source>
        <source id="nd_bld_a30_002-mesh-map-0">
          <float_array id="nd_bld_a30_002-mesh-map-0-array" count="96">0.4998692 0.5685656 0.9920238 0.5690775 0.4998692 0.3581873 0.4972508 0.3110637 0.4972507 0.5691098 0.2529605 0.3110637 0.9920239 0.5690775 0.4998692 0.5685656 0.9920238 0.3586993 0.9920238 0.3586993 0.9920239 0.5690775 0.4998692 0.3581872 0.4998692 0.3581873 0.4998692 0.5685656 0.9920239 0.3586993 2.69949e-4 0.5709541 0.001293718 0.3101082 0.2449668 0.5709539 1.000247 0.9995238 -8.34721e-5 0.999524 1.000247 0.7872154 1.000247 0.7872154 1.000247 0.9995239 -8.34465e-5 0.7872154 0.9920238 0.5690775 0.9920239 0.3586993 0.4998692 0.3581873 0.4972507 0.5691098 0.2529605 0.5691098 0.2529605 0.3110637 0.4998692 0.5685656 0.4998692 0.3581872 0.9920238 0.3586993 0.9920239 0.5690775 0.4998692 0.5685656 0.4998692 0.3581872 0.4998692 0.5685656 0.9920238 0.5690775 0.9920239 0.3586993 0.001293718 0.3101082 0.2459908 0.3101082 0.2449668 0.5709539 -8.34721e-5 0.999524 -8.34721e-5 0.7872154 1.000247 0.7872154 1.000247 0.9995239 -8.34465e-5 0.9995238 -8.34465e-5 0.7872154</float_array>
          <technique_common>
            <accessor source="#nd_bld_a30_002-mesh-map-0-array" count="48" stride="2">
              <param name="S" type="float"/>
              <param name="T" type="float"/>
            </accessor>
          </technique_common>
        </source>
        <vertices id="nd_bld_a30_002-mesh-vertices">
          <input semantic="POSITION" source="#nd_bld_a30_002-mesh-positions"/>
        </vertices>
        <polylist material="containers_01_a-material" count="16">
          <input semantic="VERTEX" source="#nd_bld_a30_002-mesh-vertices" offset="0"/>
          <input semantic="NORMAL" source="#nd_bld_a30_002-mesh-normals" offset="1"/>
          <input semantic="TEXCOORD" source="#nd_bld_a30_002-mesh-map-0" offset="2" set="0"/>
          <vcount>3 3 3 3 3 3 3 3 3 3 3 3 3 3 3 3 </vcount>
          <p>8 0 0 16 0 1 11 0 2 1 1 3 5 1 4 2 1 5 16 2 6 9 2 7 17 2 8 19 3 9 18 3 10 13 3 11 12 4 12 15 4 13 19 4 14 4 5 15 0 5 16 7 5 17 4 6 18 5 6 19 0 6 20 2 7 21 6 7 22 3 7 23 16 8 24 17 8 25 11 8 26 5 9 27 6 9 28 2 9 29 9 10 30 10 10 31 17 10 32 18 11 33 14 11 34 13 11 35 15 12 36 18 12 37 19 12 38 0 13 39 3 13 40 7 13 41 5 14 42 1 14 43 0 14 44 6 15 45 7 15 46 3 15 47</p>
        </polylist>
      </mesh>
      <extra><technique profile="MAYA"><double_sided>1</double_sided></technique></extra>
    </geometry>
  </library_geometries>
  <library_controllers/>
  <library_visual_scenes>
    <visual_scene id="Scene" name="Scene">
      <node id="bounds" name="bounds" type="NODE">
        <matrix sid="transform">1 0 0 0 0 1 0 0 0 0 1 0 0 0 0 1</matrix>
        <node id="Untitled" name="Untitled" type="NODE">
          <matrix sid="transform">0.4126781 0 0 0.01539827 0 1.596322 0 -4.24623e-4 0 0 0.1724305 1.306952 0 0 0 1</matrix>
          <instance_geometry url="#Untitled-mesh">
            <bind_material>
              <technique_common>
                <instance_material symbol="ColorEffectR225G87B143-material-material" target="#ColorEffectR225G87B143-material-material"/>
              </technique_common>
            </bind_material>
          </instance_geometry>
        </node>
      </node>
      <node id="base00" name="base00" type="NODE">
        <matrix sid="transform">1 0 0 0 0 1 0 0 0 0 1 0 0 0 0 1</matrix>
        <node id="bb__autobillboard10" name="bb__autobillboard10" type="NODE">
          <matrix sid="transform">1 0 0 0 0 1 0 0 0 0 1 0 0 0 0 1</matrix>
        </node>
        <node id="collision-1" name="collision-1" type="NODE">
          <matrix sid="transform">1 0 0 0 0 1 0 0 0 0 1 0 0 0 0 1</matrix>
        </node>
        <node id="detail30" name="detail30" type="NODE">
          <matrix sid="transform">1 0 0 0 0 1 0 0 0 0 1 0 0 0 0 1</matrix>
        </node>
        <node id="start01" name="start01" type="NODE">
          <matrix sid="transform">1 0 0 0 0 1 0 0 0 0 1 0 0 0 0 1</matrix>
          <node id="Colmesh-1" name="Colmesh-1" type="NODE">
            <matrix sid="transform">1 0 0 0 0 1 0 0 0 0 1 0 0 0 0 1</matrix>
            <instance_geometry url="#Colmesh-1-mesh">
              <bind_material>
                <technique_common>
                  <instance_material symbol="ColorEffectR27G177B88-material-material" target="#ColorEffectR27G177B88-material-material"/>
                </technique_common>
              </bind_material>
            </instance_geometry>
          </node>
          <node id="ind_bld_a300" name="ind_bld_a300" type="NODE">
            <matrix sid="transform">1 0 0 0 0 1 0 0 0 0 1 0 0 0 0 1</matrix>
            <instance_geometry url="#nd_bld_a30_001-mesh">
              <bind_material>
                <technique_common>
                  <instance_material symbol="containers_01_a-material" target="#containers_01_a-material"/>
                </technique_common>
              </bind_material>
            </instance_geometry>
          </node>
          <node id="ind_bld_a30" name="ind_bld_a30" type="NODE">
            <matrix sid="transform">1 0 0 0 0 1 0 0 0 0 1 0 0 0 0 1</matrix>
            <instance_geometry url="#nd_bld_a30_002-mesh">
              <bind_material>
                <technique_common>
                  <instance_material symbol="containers_01_a-material" target="#containers_01_a-material"/>
                </technique_common>
              </bind_material>
            </instance_geometry>
          </node>
        </node>
        <node id="detail300" name="detail300" type="NODE">
          <matrix sid="transform">1 0 0 0 0 1 0 0 0 0 1 0 0 0 0 1</matrix>
        </node>
      </node>
    </visual_scene>
  </library_visual_scenes>
  <scene>
    <instance_visual_scene url="#Scene"/>
  </scene>
</COLLADA>