<?xml version="1.0" encoding="utf-8"?>
<COLLADA xmlns="http://www.collada.org/2005/11/COLLADASchema" version="1.4.1">
  <asset>
    <contributor>
      <author>Blender User</author>
      <authoring_tool>Blender 2.74.0 commit date:2015-03-31, commit time:13:39, hash:000dfc0</authoring_tool>
    </contributor>
    <created>2015-06-04T11:50:22</created>
    <modified>2015-06-04T11:50:22</modified>
    <unit name="meter" meter="1"/>
    <up_axis>Z_UP</up_axis>
  </asset>
  <library_images/>
  <library_effects>
    <effect id="ColorEffectR27G177B88-material-effect">
      <profile_COMMON>
        <technique sid="common">
          <phong>
            <emission>
              <color sid="emission">0 0 0 1</color>
            </emission>
            <ambient>
              <color sid="ambient">0 0 0 1</color>
            </ambient>
            <diffuse>
              <color sid="diffuse">0.08561849 0.5550975 0.2773633 1</color>
            </diffuse>
            <specular>
              <color sid="specular">0.25 0.25 0.25 1</color>
            </specular>
            <shininess>
              <float sid="shininess">50</float>
            </shininess>
            <index_of_refraction>
              <float sid="index_of_refraction">1</float>
            </index_of_refraction>
          </phong>
        </technique>
      </profile_COMMON>
    </effect>
    <effect id="containers_01_a-effect">
      <profile_COMMON>
        <technique sid="common">
          <phong>
            <emission>
              <color sid="emission">0 0 0 1</color>
            </emission>
            <ambient>
              <color sid="ambient">0 0 0 1</color>
            </ambient>
            <diffuse>
              <color sid="diffuse">0.64 0.64 0.64 1</color>
            </diffuse>
            <specular>
              <color sid="specular">0.5 0.5 0.5 1</color>
            </specular>
            <shininess>
              <float sid="shininess">50</float>
            </shininess>
            <index_of_refraction>
              <float sid="index_of_refraction">1</float>
            </index_of_refraction>
          </phong>
        </technique>
      </profile_COMMON>
    </effect>
  </library_effects>
  <library_materials>
    <material id="ColorEffectR27G177B88-material-material" name="ColorEffectR27G177B88-material">
      <instance_effect url="#ColorEffectR27G177B88-material-effect"/>
    </material>
    <material id="containers_01_a-material" name="containers_01_a">
      <instance_effect url="#containers_01_a-effect"/>
    </material>
  </library_materials>
  <library_geometries>
    <geometry id="Colmesh-1-mesh" name="Colmesh-1">
      <mesh>
        <source id="Colmesh-1-mesh-positions">
          <float_array id="Colmesh-1-mesh-positions-array" count="24">1.2 -6 0 -1.2 -6 0 1.200001 6 2.6 -1.2 -6 2.6 1.2 6 0 -1.2 6 0 1.199999 -6 2.6 -1.2 6 2.6</float_array>
          <technique_common>
            <accessor source="#Colmesh-1-mesh-positions-array" count="8" stride="3">
              <param name="X" type="float"/>
              <param name="Y" type="float"/>
              <param name="Z" type="float"/>
            </accessor>
          </technique_common>
        </source>
        <source id="Colmesh-1-mesh-normals">
          <float_array id="Colmesh-1-mesh-normals-array" count="36">0 -1 0 1 -1.6888e-7 -3.66798e-7 0 0 -1 -1 0 0 0 1 0 0 0 1 0 -1 0 1 0 4.12648e-7 0 0 -1 -1 0 0 0 1 0 0 0 1</float_array>
          <technique_common>
            <accessor source="#Colmesh-1-mesh-normals-array" count="12" stride="3">
              <param name="X" type="float"/>
              <param name="Y" type="float"/>
              <param name="Z" type="float"/>
            </accessor>
          </technique_common>
        </source>
        <source id="Colmesh-1-mesh-map-0">
          <float_array id="Colmesh-1-mesh-map-0-array" count="72">0.8088447 0.4153426 0.8082094 0.2082576 1 0.4147562 0.2129495 0.9564118 0.2100172 6.35242e-4 0.4200344 0.9557764 0.614122 0.9557765 0.4229666 0.9563629 0.6111897 0 0.00293225 0.9564119 0 6.35318e-4 0.2100172 0.9557766 0.8088448 0.2076713 0.8082094 5.86325e-4 1 0.2070848 0.8082094 5.86287e-4 0.8052772 0.9563627 0.6170541 0 0.8082094 0.2082576 0.9993647 0.2076713 1 0.4147562 0.2100172 6.35242e-4 0.4171022 0 0.4200344 0.9557764 0.4229666 0.9563629 0.4200344 5.86287e-4 0.6111897 0 0 6.35318e-4 0.207085 0 0.2100172 0.9557766 0.8082094 5.86325e-4 0.9993647 0 1 0.2070848 0.8052772 0.9563627 0.6141219 0.9557765 0.6170541 0</float_array>
          <technique_common>
            <accessor source="#Colmesh-1-mesh-map-0-array" count="36" stride="2">
              <param name="S" type="float"/>
              <param name="T" type="float"/>
            </accessor>
          </technique_common>
        </source>
        <vertices id="Colmesh-1-mesh-vertices">
          <input semantic="POSITION" source="#Colmesh-1-mesh-positions"/>
        </vertices>
        <polylist material="ColorEffectR27G177B88-material-material" count="12">
          <input semantic="VERTEX" source="#Colmesh-1-mesh-vertices" offset="0"/>
          <input semantic="NORMAL" source="#Colmesh-1-mesh-normals" offset="1"/>
          <input semantic="TEXCOORD" source="#Colmesh-1-mesh-map-0" offset="2" set="0"/>
          <vcount>3 3 3 3 3 3 3 3 3 3 3 3 </vcount>
          <p>0 0 0 6 0 1 1 0 2 2 1 3 6 1 4 4 1 5 0 2 6 1 2 7 4 2 8 3 3 9 7 3 10 1 3 11 5 4 12 7 4 13 4 4 14 7 5 15 3 5 16 2 5 17 6 6 18 3 6 19 1 6 20 6 7 21 0 7 22 4 7 23 1 8 24 5 8 25 4 8 26 7 9 27 5 9 28 1 9 29 7 10 30 2 10 31 4 10 32 3 11 33 6 11 34 2 11 35</p>
        </polylist>
      </mesh>
    </geometry>
    <geometry id="nd_bld_a30_001-mesh" name="nd_bld_a30.001">
      <mesh>
        <source id="nd_bld_a30_001-mesh-positions">
          <float_array id="nd_bld_a30_001-mesh-positions-array" count="492">1.2 6 0 1.2 -6 0 -1.2 -6 0 -1.2 6 0 1.200001 6 2.6 1.199999 -6 2.6 -1.2 -6 2.6 -1.2 6 2.6 1.2 6 0 1.2 -6 0 -1.2 -6 0 -1.2 6 0 1.200001 6 2.6 1.199999 -6 2.6 -1.2 -6 2.6 -1.2 6 2.6 1.2 0 0 -1.2 0 0 -1.2 4.76837e-7 2.6 1.2 -4.76837e-7 2.6 1.148065 -6 0.1672972 -1.148065 -6 0.1672972 1.148065 -6 2.40591 -1.148066 -6 2.40591 1.134836 -6.03358 0.180195 -1.134836 -6.03358 0.180195 1.134835 -6.033581 2.393012 -1.134836 -6.03358 2.393012 1.157067 -5.778584 0.1836062 1.157067 5.735126 0.1816016 1.200001 5.769332 2.487308 1.199999 -5.8291 2.495918 1.2 -5.814756 0.1569504 1.157067 -5.792839 2.469215 1.157068 5.733085 2.460802 1.2 5.771387 0.154899 -1.151006 5.781245 0.1762558 -1.151007 -5.741457 0.1770588 -1.151007 -5.733225 2.467385 -1.151006 5.787281 2.48017 -1.2 5.818729 2.499278 -1.2 -5.764627 2.486281 -1.2 -5.772905 0.1579647 -1.2 5.81266 0.1571483 1.02618 5.974727 0.1722704 -1.022864 5.974728 0.1770915 -1.015632 5.974727 2.510591 1.02618 5.974727 2.503359 1.047331 6 2.527348 -1.036634 6 2.534729 -1.044015 6 0.1530535 1.047331 6 0.1481328 -0.1335502 -6.030573 2.47683 -0.1272137 -6.050475 2.47683 -0.1100002 -6.062579 2.47683 -0.09278672 -6.050475 2.47683 -0.08645015 -6.030573 2.47683 -0.1100002 -6.015589 2.47683 -0.1100002 -6.015589 0.08639359 -0.1335502 -6.030573 0.08639359 -0.1272137 -6.050475 0.08639359 -0.1100002 -6.062579 0.08639359 -0.09278672 -6.050475 0.08639359 -0.08645015 -6.030573 0.08639359 -0.6035503 -6.030573 2.47683 -0.5972137 -6.050475 2.47683 -0.5800002 -6.062579 2.47683 -0.5627868 -6.050475 2.47683 -0.5564502 -6.030573 2.47683 -0.5800002 -6.015589 2.47683 -0.5800002 -6.015589 0.08639359 -0.6035503 -6.030573 0.08639359 -0.5972137 -6.050475 0.08639359 -0.5800002 -6.062579 0.08639359 -0.5627868 -6.050475 0.08639359 -0.5564502 -6.030573 0.08639359 0.1064497 -6.030573 2.47683 0.1127863 -6.050475 2.47683 0.1299998 -6.062579 2.47683 0.1472132 -6.050475 2.47683 0.1535498 -6.030573 2.47683 0.1299998 -6.015589 2.47683 0.1299998 -6.015589 0.08639359 0.1064497 -6.030573 0.08639359 0.1127863 -6.050475 0.08639359 0.1299998 -6.062579 0.08639359 0.1472132 -6.050475 0.08639359 0.1535498 -6.030573 0.08639359 0.5764497 -6.030573 2.47683 0.5827863 -6.050475 2.47683 0.5999997 -6.062579 2.47683 0.6172132 -6.050475 2.47683 0.6235498 -6.030573 2.47683 0.5999997 -6.015589 2.47683 0.5999997 -6.015589 0.08639359 0.5764497 -6.030573 0.08639359 0.5827863 -6.050475 0.08639359 0.5999997 -6.062579 0.08639359 0.6172132 -6.050475 0.08639359 0.6235498 -6.030573 0.08639359 -1.223528 -6.013971 2.477375 -1.223528 -5.77688 2.477375 -1.048324 -5.77688 2.477375 -1.048324 -6.013971 2.477375 -1.223528 -6.013971 2.610475 -1.223528 -5.77688 2.610475 -1.048324 -5.77688 2.610475 -1.048324 -6.013971 2.610475 1.223528 -6.013971 2.477375 1.223528 -5.77688 2.477375 1.048324 -5.77688 2.477375 1.048324 -6.013971 2.477375 1.223528 -6.013971 2.610475 1.223528 -5.77688 2.610475 1.048324 -5.77688 2.610475 1.048324 -6.013971 2.610475 -1.223528 6.013972 2.477375 -1.223528 5.776881 2.477375 -1.048324 5.776881 2.477375 -1.048324 6.013972 2.477375 -1.223528 6.013972 2.610475 -1.223528 5.776881 2.610475 -1.048324 5.776881 2.610475 -1.048324 6.013972 2.610475 1.223528 6.013972 2.477375 1.223528 5.776881 2.477375 1.048324 5.776881 2.477375 1.048324 6.013972 2.477375 1.223528 6.013972 2.610475 1.223528 5.776881 2.610475 1.048324 5.776881 2.610475 1.048324 6.013972 2.610475 -1.223528 -6.013971 0.1226253 -1.223528 -5.77688 0.1226253 -1.048324 -5.77688 0.1226253 -1.048324 -6.013971 0.1226253 -1.223528 -6.013971 -0.01047444 -1.223528 -5.77688 -0.01047444 -1.048324 -5.77688 -0.01047444 -1.048324 -6.013971 -0.01047444 1.223528 -6.013971 0.1226253 1.223528 -5.77688 0.1226253 1.048324 -5.77688 0.1226253 1.048324 -6.013971 0.1226253 1.223528 -6.013971 -0.01047444 1.223528 -5.77688 -0.01047444 1.048324 -5.77688 -0.01047444 1.048324 -6.013971 -0.01047444 -1.223528 6.013972 0.1226253 -1.223528 5.776881 0.1226253 -1.048324 5.776881 0.1226253 -1.048324 6.013972 0.1226253 -1.223528 6.013972 -0.01047444 -1.223528 5.776881 -0.01047444 -1.048324 5.776881 -0.01047444 -1.048324 6.013972 -0.01047444 1.223528 6.013972 0.1226253 1.223528 5.776881 0.1226253 1.048324 5.776881 0.1226253 1.048324 6.013972 0.1226253 1.223528 6.013972 -0.01047444 1.223528 5.776881 -0.01047444 1.048324 5.776881 -0.01047444 1.048324 6.013972 -0.01047444</float_array>
          <technique_common>
            <accessor source="#nd_bld_a30_001-mesh-positions-array" count="164" stride="3">
              <param name="X" type="float"/>
              <param name="Y" type="float"/>
              <param name="Z" type="float"/>
            </accessor>
          </technique_common>
        </source>
        <source id="nd_bld_a30_001-mesh-normals">
          <float_array id="nd_bld_a30_001-mesh-normals-array" count="654">0 0 -1 1 -3.49621e-7 4.12647e-7 0 -1 0 -0.5404367 0.8413793 -0.002991318 -0.7668729 0.641799 0 0 0 -1 0 0 1 0 0 1 0 -1 -4.30977e-7 0.9304027 -0.3665388 0 -0.9303926 -0.3665644 -4.45902e-7 0 -0.35855 0.9335106 0 -0.3585549 -0.9335086 1 0 0 0.525714 -6.31574e-4 -0.8506612 1 1.99671e-7 -4.08704e-7 0.6460116 0.7633132 0.004681289 0.6453429 -0.7638928 -6.73357e-4 0.5275639 1.50412e-4 0.8495153 -1 0 0 -1 0 0 -1 0 0 -1 0 0 -0.3633058 6.56524e-5 0.93167 -0.5403712 -0.8414239 0.002180337 -0.360432 0.001046597 -0.9327849 0 1 0 0 1 0 0 1 0 0 1 0 0 1 0 0.001703143 0.689944 0.7238608 -0.002564966 0.6895702 -0.7242143 0.7679793 0.6404701 -0.002380013 0 -1 0 0 -0.9999695 0 0.806177 -0.5916318 0 -0.806177 -0.5916318 0 -0.806177 -0.5916318 0 -0.9400616 0.3409528 0 -0.9400616 0.3409528 0 0.806177 -0.5916318 0 0.9400616 0.3409528 0 0.9400616 0.3409528 0 0 1 0 0 1 0 0 -1 0 0 -1 0 0.806177 -0.5916318 0 -0.806177 -0.5916318 0 -0.806177 -0.5916318 0 -0.9400616 0.3409528 0 -0.9400616 0.3409528 0 0.806177 -0.5916318 0 0.9400616 0.3409528 0 0.9400616 0.3409528 0 0 1 0 0 1 0 0 -1 0 0 -1 0 0.806177 -0.5916318 0 -0.806177 -0.5916318 0 -0.806177 -0.5916318 0 -0.9400616 0.3409528 0 -0.9400616 0.3409528 0 0.806177 -0.5916318 0 0.9400616 0.3409528 0 0.9400616 0.3409528 0 0 1 0 0 1 0 0 -1 0 0 -1 0 0.806177 -0.5916318 0 -0.806177 -0.5916318 0 -0.806177 -0.5916318 0 -0.9400616 0.3409528 0 -0.9400616 0.3409528 0 0.806177 -0.5916318 0 0.9400616 0.3409528 0 0.9400616 0.3409528 0 0 1 0 0 1 0 -1 0 0 0 1 0 1 0 0 0 -1 0 0 0 -1 0 0 1 1 0 0 0 1 0 -1 0 0 0 -1 0 0 0 -1 0 0 1 -1 0 0 0 -1 0 1 0 0 0 1 0 0 0 -1 0 0 1 1 0 0 0 -1 0 -1 0 0 0 1 0 0 0 -1 0 0 1 -1 0 0 0 1 0 1 0 0 0 -1 0 0 0 1 0 0 -1 1 0 0 0 1 0 -1 0 0 0 -1 0 0 0 1 0 0 -1 -1 0 0 0 -1 0 1 0 0 0 1 0 0 0 1 0 0 -1 1 0 0 0 -1 0 -1 0 0 0 1 0 0 0 1 0 0 -1 0 0 -1 1 2.80406e-7 4.60419e-7 1 -1.6888e-7 -2.77297e-7 1 -1.74462e-7 3.57104e-7 0 -1 0 -0.5393407 0.8420823 -0.003026664 -0.7668729 0.641799 0 0 0 -1 0 0 1 0 0 1 -4.20182e-7 -1 0 0.9303973 -0.3665527 2.43004e-7 -0.9304028 -0.3665388 0 -1.5066e-7 -0.358559 0.9335071 0 -0.3585549 -0.9335087 1 0 -4.70812e-7 0.5277795 -6.20017e-4 -0.8493812 1 -2.48527e-7 -3.66798e-7 1 0 0 1 0 0 0.6435103 0.7654225 0.004773795 0.6449992 -0.7641829 -6.84575e-4 0.5280502 1.47853e-4 0.8492131 -1 0 0 -1 0 0 -1 0 0 -1 0 0 -1 0 0 -1 0 0 -0.363164 6.49639e-5 0.9317252 -0.5395597 -0.8419444 0.002205848 -0.3627749 0.00103414 -0.9318762 0 1 0 0 1 0 0 1 0 0 1 0 4.66382e-7 1 4.07243e-7 0.001703441 0.6899312 0.723873 -0.002565085 0.689566 -0.7242184 0.76797 0.6404814 -0.002379775 -1 0 0 0 1 0 1 0 0 0 -1 0 0 0 -1 0 0 1 1 0 0 0 1 0 -1 0 0 0 -1 0 0 0 -1 0 0 1 -1 0 0 0 -1 0 1 0 0 0 1 0 0 0 -1 0 0 1 1 0 0 0 -1 0 -1 0 0 0 1 0 0 0 -1 0 0 1 -1 0 0 0 1 0 1 0 0 0 -1 0 0 0 1 0 0 -1 1 0 0 0 1 0 -1 0 0 0 -1 0 0 0 1 0 0 -1 -1 0 0 0 -1 0 1 0 0 0 1 0 0 0 1 0 0 -1 1 0 0 0 -1 0 -1 0 0 0 1 0 0 0 1 0 0 -1</float_array>
          <technique_common>
            <accessor source="#nd_bld_a30_001-mesh-normals-array" count="218" stride="3">
              <param name="X" type="float"/>
              <param name="Y" type="float"/>
              <param name="Z" type="float"/>
            </accessor>
          </technique_common>
        </source>
        <source id="nd_bld_a30_001-mesh-map-0">
          <float_array id="nd_bld_a30_001-mesh-map-0-array" count="1308">0.4998692 0.356166 0.9986798 0.3561658 0.4998692 0.1457875 -8.34721e-5 0.7859912 -8.34721e-5 0.5736827 0.01482743 0.5864667 0.4972508 0.04302835 0.4972507 0.3108959 0.2529605 0.04302835 0.9787829 0.5865499 0.9780945 0.7767578 0.9749094 0.7738726 0.01575684 0.2992889 0.01669466 0.06035435 0.01911211 0.2955608 0.9986799 0.3561658 0.4998692 0.3561659 0.9986798 0.1457875 0.9986798 0.1457875 0.9986799 0.3561658 0.4998692 0.1457875 0.4998692 0.1457875 0.4998692 0.356166 0.9986799 0.1457875 0.4883962 0.06400847 0.4883962 0.2846333 0.2627565 0.06400853 0.4938943 0.06272244 0.4938943 0.2859193 0.4883962 0.06400847 0.2572591 0.2859193 0.2572584 0.06272262 0.2627567 0.2846335 0.4897114 0.2901396 0.2614415 0.2901397 0.4883962 0.2846333 0.2614414 0.05850225 0.4897113 0.05850213 0.2627565 0.06400853 0.01800918 0.5893794 0.9754732 0.5892189 0.01682382 0.7746401 0.9784859 0.7768422 0.01363426 0.7775494 0.9752983 0.7739545 0.9971755 0.7859911 0.9784859 0.7768422 0.978662 0.5863012 0.01363426 0.7775494 0.01482743 0.5864667 0.01800918 0.5893794 0.978662 0.5863012 0.9784859 0.7768422 0.9752983 0.7739545 0.01482743 0.5864667 0.978662 0.5863012 0.01800918 0.5893794 0.9971755 0.7859911 -8.34465e-5 0.7859911 0.01449698 0.7778252 0.9971755 0.7859911 0.9780945 0.7767578 0.9787829 0.5865499 -8.34465e-5 0.5736826 0.01500189 0.5864829 0.01449698 0.7778252 0.01818239 0.5893951 0.9755933 0.5894601 0.01768088 0.7749075 0.01500189 0.5864829 0.9787829 0.5865499 0.01818239 0.5893951 0.01449698 0.7778252 0.01500189 0.5864829 0.01818239 0.5893951 0.9780945 0.7767578 0.01449698 0.7778252 0.9749094 0.7738726 0.2449668 0.3064543 2.69949e-4 0.3064545 0.2284415 0.3000299 0.001293659 0.04560858 0.2459908 0.04560858 0.01669466 0.06035435 0.2459908 0.04560858 0.2449668 0.3064543 0.2284415 0.3000299 2.69949e-4 0.3064545 0.001293659 0.04560858 0.01575684 0.2992889 0.01911211 0.2955608 0.02002054 0.06410562 0.2251392 0.2962787 0.01669466 0.06035435 0.2301338 0.06084853 0.2267785 0.06458431 0.2284415 0.3000299 0.01575684 0.2992889 0.01911211 0.2955608 0.2301338 0.06084853 0.2284415 0.3000299 0.2251392 0.2962787 0.1919991 0.7756407 0.1919991 0.5883727 0.1927949 0.7756407 0.1912035 0.7756407 0.1912035 0.5883727 0.1919991 0.7756407 0.1904077 0.7756407 0.1904077 0.5883727 0.1912035 0.7756407 0.1927949 0.7756407 0.1927949 0.5883727 0.1935907 0.7756407 0.1935907 0.7756407 0.1935907 0.5883727 0.1943864 0.7756407 0.189612 0.7756407 0.189612 0.5883727 0.1904077 0.7756407 0.1919991 0.7756407 0.1919991 0.5883727 0.1927949 0.7756407 0.1912035 0.7756407 0.1912035 0.5883727 0.1919991 0.7756407 0.1904077 0.7756407 0.1904077 0.5883727 0.1912035 0.7756407 0.1927949 0.7756407 0.1927949 0.5883727 0.1935907 0.7756407 0.1935907 0.7756407 0.1935907 0.5883727 0.1943864 0.7756407 0.189612 0.7756407 0.189612 0.5883727 0.1904077 0.7756407 0.1919991 0.7756407 0.1919991 0.5883727 0.1927949 0.7756407 0.1912035 0.7756407 0.1912035 0.5883727 0.1919991 0.7756407 0.1904077 0.7756407 0.1904077 0.5883727 0.1912035 0.7756407 0.1927949 0.7756407 0.1927949 0.5883727 0.1935907 0.7756407 0.1935907 0.7756407 0.1935907 0.5883727 0.1943864 0.7756407 0.189612 0.7756407 0.189612 0.5883727 0.1904077 0.7756407 0.1919991 0.7756407 0.1919991 0.5883727 0.1927949 0.7756407 0.1912035 0.7756407 0.1912035 0.5883727 0.1919991 0.7756407 0.1904077 0.7756407 0.1904077 0.5883727 0.1912035 0.7756407 0.1927949 0.7756407 0.1927949 0.5883727 0.1935907 0.7756407 0.1935907 0.7756407 0.1935907 0.5883727 0.1943864 0.7756407 0.189612 0.7756407 0.189612 0.5883727 0.1904077 0.7756407 0.4796153 0.2935974 0.5002305 0.2935974 0.4796153 0.3051705 0.4801098 0.2918816 0.4997278 0.2918816 0.4801098 0.306785 0.5002305 0.30504 0.4796153 0.30504 0.5002305 0.2934668 0.4997714 0.3068156 0.4801535 0.3068156 0.4997714 0.2919121 0.4795573 0.2916601 0.5001726 0.2916601 0.4795573 0.3068942 0.479592 0.2917426 0.5002071 0.2917426 0.479592 0.3069767 0.4796153 0.2935974 0.4796153 0.3051705 0.5002305 0.2935974 0.4801098 0.2918816 0.4801098 0.306785 0.4997278 0.2918816 0.5002305 0.30504 0.5002305 0.2934668 0.4796153 0.30504 0.4997714 0.3068156 0.4997714 0.2919121 0.4801535 0.3068156 0.4795573 0.2916601 0.4795573 0.3068942 0.5001726 0.2916601 0.479592 0.2917426 0.479592 0.3069767 0.5002071 0.2917426 0.4796153 0.2935974 0.4796153 0.3051705 0.5002305 0.2935974 0.4801098 0.2918816 0.4801098 0.306785 0.4997278 0.2918816 0.5002305 0.30504 0.5002305 0.2934668 0.4796153 0.30504 0.4997714 0.3068156 0.4997714 0.2919121 0.4801535 0.3068156 0.4795573 0.2916601 0.4795573 0.3068942 0.5001726 0.2916601 0.479592 0.2917426 0.479592 0.3069767 0.5002071 0.2917426 0.4796153 0.2935974 0.5002305 0.2935974 0.4796153 0.3051705 0.4801098 0.2918816 0.4997278 0.2918816 0.4801098 0.306785 0.5002305 0.30504 0.4796153 0.30504 0.5002305 0.2934668 0.4997714 0.3068156 0.4801535 0.3068156 0.4997714 0.2919121 0.4795573 0.2916601 0.5001726 0.2916601 0.4795573 0.3068942 0.479592 0.2917426 0.5002071 0.2917426 0.479592 0.3069767 0.4796153 0.2935974 0.4796153 0.3051705 0.5002305 0.2935974 0.4801098 0.2918816 0.4801098 0.306785 0.4997278 0.2918816 0.5002305 0.30504 0.5002305 0.2934668 0.4796153 0.30504 0.4997714 0.3068156 0.4997714 0.2919121 0.4801535 0.3068156 0.4795573 0.2916601 0.4795573 0.3068942 0.5001726 0.2916601 0.479592 0.2917426 0.479592 0.3069767 0.5002071 0.2917426 0.4796153 0.2935974 0.5002305 0.2935974 0.4796153 0.3051705 0.4801098 0.2918816 0.4997278 0.2918816 0.4801098 0.306785 0.5002305 0.30504 0.4796153 0.30504 0.5002305 0.2934668 0.4997714 0.3068156 0.4801535 0.3068156 0.4997714 0.2919121 0.4795573 0.2916601 0.5001726 0.2916601 0.4795573 0.3068942 0.479592 0.2917426 0.5002071 0.2917426 0.479592 0.3069767 0.4796153 0.2935974 0.5002305 0.2935974 0.4796153 0.3051705 0.4801098 0.2918816 0.4997278 0.2918816 0.4801098 0.306785 0.5002305 0.30504 0.4796153 0.30504 0.5002305 0.2934668 0.4997714 0.3068156 0.4801535 0.3068156 0.4997714 0.2919121 0.4795573 0.2916601 0.5001726 0.2916601 0.4795573 0.3068942 0.479592 0.2917426 0.5002071 0.2917426 0.479592 0.3069767 0.4796153 0.2935974 0.4796153 0.3051705 0.5002305 0.2935974 0.4801098 0.2918816 0.4801098 0.306785 0.4997278 0.2918816 0.5002305 0.30504 0.5002305 0.2934668 0.4796153 0.30504 0.4997714 0.3068156 0.4997714 0.2919121 0.4801535 0.3068156 0.4795573 0.2916601 0.4795573 0.3068942 0.5001726 0.2916601 0.479592 0.2917426 0.479592 0.3069767 0.5002071 0.2917426 0.9986798 0.3561658 0.9986799 0.1457875 0.4998692 0.1457875 -8.34721e-5 0.7859912 0.01482743 0.5864667 0.01363426 0.7775494 0.9971755 0.7859911 -8.34721e-5 0.7859912 0.01363426 0.7775494 0.9784859 0.7768422 0.9971755 0.7859911 0.01363426 0.7775494 0.4972507 0.3108959 0.2529605 0.3108959 0.2529605 0.04302835 0.9755933 0.5894601 0.9787829 0.5865499 0.9749094 0.7738726 0.01669466 0.06035435 0.02002054 0.06410562 0.01911211 0.2955608 0.4998692 0.3561659 0.4998692 0.1457875 0.9986798 0.1457875 0.9986799 0.3561658 0.4998692 0.3561659 0.4998692 0.1457875 0.4998692 0.356166 0.9986798 0.3561658 0.9986799 0.1457875 0.4883962 0.2846333 0.2627567 0.2846335 0.2627565 0.06400853 0.4938943 0.2859193 0.4883962 0.2846333 0.4883962 0.06400847 0.2572584 0.06272262 0.2627565 0.06400853 0.2627567 0.2846335 0.2614415 0.2901397 0.2627567 0.2846335 0.4883962 0.2846333 0.4897113 0.05850213 0.4883962 0.06400847 0.2627565 0.06400853 0.9754732 0.5892189 0.9752983 0.7739545 0.01682382 0.7746401 0.01363426 0.7775494 0.01682382 0.7746401 0.9752983 0.7739545 0.9971755 0.5736826 0.9971755 0.7859911 0.978662 0.5863012 -8.34721e-5 0.5736827 0.9971755 0.5736826 0.01482743 0.5864667 0.9971755 0.5736826 0.978662 0.5863012 0.01482743 0.5864667 0.01682382 0.7746401 0.01363426 0.7775494 0.01800918 0.5893794 0.9754732 0.5892189 0.978662 0.5863012 0.9752983 0.7739545 0.978662 0.5863012 0.9754732 0.5892189 0.01800918 0.5893794 0.9780945 0.7767578 0.9971755 0.7859911 0.01449698 0.7778252 0.9971755 0.5736826 0.9971755 0.7859911 0.9787829 0.5865499 -8.34465e-5 0.5736826 0.9971755 0.5736826 0.01500189 0.5864829 0.9971755 0.5736826 0.9787829 0.5865499 0.01500189 0.5864829 -8.34465e-5 0.7859911 -8.34465e-5 0.5736826 0.01449698 0.7778252 0.9755933 0.5894601 0.9749094 0.7738726 0.01768088 0.7749075 0.9787829 0.5865499 0.9755933 0.5894601 0.01818239 0.5893951 0.01768088 0.7749075 0.01449698 0.7778252 0.01818239 0.5893951 0.01449698 0.7778252 0.01768088 0.7749075 0.9749094 0.7738726 2.69949e-4 0.3064545 0.01575684 0.2992889 0.2284415 0.3000299 0.2459908 0.04560858 0.2301338 0.06084853 0.01669466 0.06035435 0.2301338 0.06084853 0.2459908 0.04560858 0.2284415 0.3000299 0.001293659 0.04560858 0.01669466 0.06035435 0.01575684 0.2992889 0.02002054 0.06410562 0.2267785 0.06458431 0.2251392 0.2962787 0.02002054 0.06410562 0.01669466 0.06035435 0.2267785 0.06458431 0.2251392 0.2962787 0.2284415 0.3000299 0.01911211 0.2955608 0.2267785 0.06458431 0.2301338 0.06084853 0.2251392 0.2962787 0.1919991 0.5883727 0.1927949 0.5883727 0.1927949 0.7756407 0.1912035 0.5883727 0.1919991 0.5883727 0.1919991 0.7756407 0.1904077 0.5883727 0.1912035 0.5883727 0.1912035 0.7756407 0.1927949 0.5883727 0.1935907 0.5883727 0.1935907 0.7756407 0.1935907 0.5883727 0.1943864 0.5883727 0.1943864 0.7756407 0.189612 0.5883727 0.1904077 0.5883727 0.1904077 0.7756407 0.1919991 0.5883727 0.1927949 0.5883727 0.1927949 0.7756407 0.1912035 0.5883727 0.1919991 0.5883727 0.1919991 0.7756407 0.1904077 0.5883727 0.1912035 0.5883727 0.1912035 0.7756407 0.1927949 0.5883727 0.1935907 0.5883727 0.1935907 0.7756407 0.1935907 0.5883727 0.1943864 0.5883727 0.1943864 0.7756407 0.189612 0.5883727 0.1904077 0.5883727 0.1904077 0.7756407 0.1919991 0.5883727 0.1927949 0.5883727 0.1927949 0.7756407 0.1912035 0.5883727 0.1919991 0.5883727 0.1919991 0.7756407 0.1904077 0.5883727 0.1912035 0.5883727 0.1912035 0.7756407 0.1927949 0.5883727 0.1935907 0.5883727 0.1935907 0.7756407 0.1935907 0.5883727 0.1943864 0.5883727 0.1943864 0.7756407 0.189612 0.5883727 0.1904077 0.5883727 0.1904077 0.7756407 0.1919991 0.5883727 0.1927949 0.5883727 0.1927949 0.7756407 0.1912035 0.5883727 0.1919991 0.5883727 0.1919991 0.7756407 0.1904077 0.5883727 0.1912035 0.5883727 0.1912035 0.7756407 0.1927949 0.5883727 0.1935907 0.5883727 0.1935907 0.7756407 0.1935907 0.5883727 0.1943864 0.5883727 0.1943864 0.7756407 0.189612 0.5883727 0.1904077 0.5883727 0.1904077 0.7756407 0.5002305 0.2935974 0.5002305 0.3051705 0.4796153 0.3051705 0.4997278 0.2918816 0.4997278 0.306785 0.4801098 0.306785 0.4796153 0.30504 0.4796153 0.2934668 0.5002305 0.2934668 0.4801535 0.3068156 0.4801535 0.2919121 0.4997714 0.2919121 0.5001726 0.2916601 0.5001726 0.3068942 0.4795573 0.3068942 0.5002071 0.2917426 0.5002071 0.3069767 0.479592 0.3069767 0.4796153 0.3051705 0.5002305 0.3051705 0.5002305 0.2935974 0.4801098 0.306785 0.4997278 0.306785 0.4997278 0.2918816 0.5002305 0.2934668 0.4796153 0.2934668 0.4796153 0.30504 0.4997714 0.2919121 0.4801535 0.2919121 0.4801535 0.3068156 0.4795573 0.3068942 0.5001726 0.3068942 0.5001726 0.2916601 0.479592 0.3069767 0.5002071 0.3069767 0.5002071 0.2917426 0.4796153 0.3051705 0.5002305 0.3051705 0.5002305 0.2935974 0.4801098 0.306785 0.4997278 0.306785 0.4997278 0.2918816 0.5002305 0.2934668 0.4796153 0.2934668 0.4796153 0.30504 0.4997714 0.2919121 0.4801535 0.2919121 0.4801535 0.3068156 0.4795573 0.3068942 0.5001726 0.3068942 0.5001726 0.2916601 0.479592 0.3069767 0.5002071 0.3069767 0.5002071 0.2917426 0.5002305 0.2935974 0.5002305 0.3051705 0.4796153 0.3051705 0.4997278 0.2918816 0.4997278 0.306785 0.4801098 0.306785 0.4796153 0.30504 0.4796153 0.2934668 0.5002305 0.2934668 0.4801535 0.3068156 0.4801535 0.2919121 0.4997714 0.2919121 0.5001726 0.2916601 0.5001726 0.3068942 0.4795573 0.3068942 0.5002071 0.2917426 0.5002071 0.3069767 0.479592 0.3069767 0.4796153 0.3051705 0.5002305 0.3051705 0.5002305 0.2935974 0.4801098 0.306785 0.4997278 0.306785 0.4997278 0.2918816 0.5002305 0.2934668 0.4796153 0.2934668 0.4796153 0.30504 0.4997714 0.2919121 0.4801535 0.2919121 0.4801535 0.3068156 0.4795573 0.3068942 0.5001726 0.3068942 0.5001726 0.2916601 0.479592 0.3069767 0.5002071 0.3069767 0.5002071 0.2917426 0.5002305 0.2935974 0.5002305 0.3051705 0.4796153 0.3051705 0.4997278 0.2918816 0.4997278 0.306785 0.4801098 0.306785 0.4796153 0.30504 0.4796153 0.2934668 0.5002305 0.2934668 0.4801535 0.3068156 0.4801535 0.2919121 0.4997714 0.2919121 0.5001726 0.2916601 0.5001726 0.3068942 0.4795573 0.3068942 0.5002071 0.2917426 0.5002071 0.3069767 0.479592 0.3069767 0.5002305 0.2935974 0.5002305 0.3051705 0.4796153 0.3051705 0.4997278 0.2918816 0.4997278 0.306785 0.4801098 0.306785 0.4796153 0.30504 0.4796153 0.2934668 0.5002305 0.2934668 0.4801535 0.3068156 0.4801535 0.2919121 0.4997714 0.2919121 0.5001726 0.2916601 0.5001726 0.3068942 0.4795573 0.3068942 0.5002071 0.2917426 0.5002071 0.3069767 0.479592 0.3069767 0.4796153 0.3051705 0.5002305 0.3051705 0.5002305 0.2935974 0.4801098 0.306785 0.4997278 0.306785 0.4997278 0.2918816 0.5002305 0.2934668 0.4796153 0.2934668 0.4796153 0.30504 0.4997714 0.2919121 0.4801535 0.2919121 0.4801535 0.3068156 0.4795573 0.3068942 0.5001726 0.3068942 0.5001726 0.2916601 0.479592 0.3069767 0.5002071 0.3069767 0.5002071 0.2917426</float_array>
          <technique_common>
            <accessor source="#nd_bld_a30_001-mesh-map-0-array" count="654" stride="2">
              <param name="S" type="float"/>
              <param name="T" type="float"/>
            </accessor>
          </technique_common>
        </source>
        <vertices id="nd_bld_a30_001-mesh-vertices">
          <input semantic="POSITION" source="#nd_bld_a30_001-mesh-positions"/>
        </vertices>
        <polylist material="containers_01_a-material" count="218">
          <input semantic="VERTEX" source="#nd_bld_a30_001-mesh-vertices" offset="0"/>
          <input semantic="NORMAL" source="#nd_bld_a30_001-mesh-normals" offset="1"/>
          <input semantic="TEXCOORD" source="#nd_bld_a30_001-mesh-map-0" offset="2" set="0"/>
          <vcount>3 3 3 3 3 3 3 3 3 3 3 3 3 3 3 3 3 3 3 3 3 3 3 3 3 3 3 3 3 3 3 3 3 3 3 3 3 3 3 3 3 3 3 3 3 3 3 3 3 3 3 3 3 3 3 3 3 3 3 3 3 3 3 3 3 3 3 3 3 3 3 3 3 3 3 3 3 3 3 3 3 3 3 3 3 3 3 3 3 3 3 3 3 3 3 3 3 3 3 3 3 3 3 3 3 3 3 3 3 3 3 3 3 3 3 3 3 3 3 3 3 3 3 3 3 3 3 3 3 3 3 3 3 3 3 3 3 3 3 3 3 3 3 3 3 3 3 3 3 3 3 3 3 3 3 3 3 3 3 3 3 3 3 3 3 3 3 3 3 3 3 3 3 3 3 3 3 3 3 3 3 3 3 3 3 3 3 3 3 3 3 3 3 3 3 3 3 3 3 3 3 3 3 3 3 3 3 3 3 3 3 3 3 3 3 3 3 3 </vcount>
          <p>8 0 0 16 0 1 11 0 2 5 1 3 1 1 4 32 1 5 1 2 6 5 2 7 2 2 8 42 3 9 41 3 10 38 3 11 48 4 12 51 4 13 47 4 14 16 5 15 9 5 16 17 5 17 19 6 18 18 6 19 13 6 20 12 7 21 15 7 22 19 7 23 24 8 24 26 8 25 25 8 26 20 9 27 22 9 28 24 9 29 23 10 30 21 10 31 27 10 32 22 11 33 23 11 34 26 11 35 21 12 36 20 12 37 25 12 38 28 13 39 29 13 40 33 13 41 30 14 42 31 14 43 34 14 44 4 15 45 30 15 46 35 15 47 31 16 48 32 16 49 28 16 50 35 17 51 30 17 52 34 17 53 32 18 54 35 18 55 28 18 56 6 19 57 7 19 58 40 19 59 6 20 60 41 20 61 42 20 62 3 21 63 43 21 64 40 21 65 36 22 66 37 22 67 39 22 68 43 23 69 42 23 70 36 23 71 40 24 72 43 24 73 36 24 74 41 25 75 40 25 76 38 25 77 7 26 78 4 26 79 49 26 80 0 27 81 3 27 82 51 27 83 3 28 84 7 28 85 49 28 86 4 29 87 0 29 88 48 29 89 47 30 90 44 30 91 46 30 92 51 31 93 50 31 94 45 31 95 49 32 96 48 32 97 47 32 98 50 33 99 49 33 100 46 33 101 54 34 102 61 35 103 55 36 104 53 37 105 60 38 106 54 34 107 52 39 108 59 40 109 53 37 110 55 36 111 62 41 112 56 42 113 56 42 114 63 43 115 57 44 116 57 44 117 58 45 118 52 39 119 66 46 120 73 47 121 67 48 122 65 49 123 72 50 124 66 46 125 64 51 126 71 52 127 65 49 128 67 48 129 74 53 130 68 54 131 68 54 132 75 55 133 69 56 134 69 56 135 70 57 136 64 51 137 78 58 138 85 59 139 79 60 140 77 61 141 84 62 142 78 58 143 76 63 144 83 64 145 77 61 146 79 60 147 86 65 148 80 66 149 80 66 150 87 67 151 81 68 152 81 68 153 82 69 154 76 63 155 90 70 156 97 71 157 91 72 158 89 73 159 96 74 160 90 70 161 88 75 162 95 76 163 89 73 164 91 72 165 98 77 166 92 78 167 92 78 168 99 79 169 93 80 170 93 80 171 94 81 172 88 75 173 104 82 174 105 82 175 100 82 176 105 83 177 106 83 178 101 83 179 106 84 180 107 84 181 102 84 182 107 85 183 104 85 184 103 85 185 100 86 186 101 86 187 103 86 188 107 87 189 106 87 190 104 87 191 112 88 192 108 88 193 113 88 194 113 89 195 109 89 196 114 89 197 114 90 198 110 90 199 115 90 200 115 91 201 111 91 202 112 91 203 108 92 204 111 92 205 109 92 206 115 93 207 112 93 208 114 93 209 120 94 210 116 94 211 121 94 212 121 95 213 117 95 214 122 95 215 122 96 216 118 96 217 123 96 218 123 97 219 119 97 220 120 97 221 116 98 222 119 98 223 117 98 224 123 99 225 120 99 226 122 99 227 128 100 228 129 100 229 124 100 230 129 101 231 130 101 232 125 101 233 130 102 234 131 102 235 126 102 236 131 103 237 128 103 238 127 103 239 124 104 240 125 104 241 127 104 242 131 105 243 130 105 244 128 105 245 136 106 246 132 106 247 137 106 248 137 107 249 133 107 250 138 107 251 138 108 252 134 108 253 139 108 254 139 109 255 135 109 256 136 109 257 132 110 258 135 110 259 133 110 260 139 111 261 136 111 262 138 111 263 144 112 264 145 112 265 140 112 266 145 113 267 146 113 268 141 113 269 146 114 270 147 114 271 142 114 272 147 115 273 144 115 274 143 115 275 140 116 276 141 116 277 143 116 278 147 117 279 146 117 280 144 117 281 152 118 282 153 118 283 148 118 284 153 119 285 154 119 286 149 119 287 154 120 288 155 120 289 150 120 290 155 121 291 152 121 292 151 121 293 148 122 294 149 122 295 151 122 296 155 123 297 154 123 298 152 123 299 160 124 300 156 124 301 161 124 302 161 125 303 157 125 304 162 125 305 162 126 306 158 126 307 163 126 308 163 127 309 159 127 310 160 127 311 156 128 312 159 128 313 157 128 314 163 129 315 160 129 316 162 129 317 16 130 318 17 130 319 11 130 320 5 131 321 32 131 322 31 131 323 4 132 324 5 132 325 31 132 326 30 133 327 4 133 328 31 133 329 5 134 330 6 134 331 2 134 332 37 135 333 42 135 334 38 135 335 51 136 336 44 136 337 47 136 338 9 137 339 10 137 340 17 137 341 18 138 342 14 138 343 13 138 344 15 139 345 18 139 346 19 139 347 26 140 348 27 140 349 25 140 350 22 141 351 26 141 352 24 141 353 21 142 354 25 142 355 27 142 356 23 143 357 27 143 358 26 143 359 20 144 360 24 144 361 25 144 362 29 145 363 34 145 364 33 145 365 31 146 366 33 146 367 34 146 368 0 147 369 4 147 370 35 147 371 1 148 372 0 148 373 32 148 374 0 149 375 35 149 376 32 149 377 33 150 378 31 150 379 28 150 380 29 151 381 35 151 382 34 151 383 35 152 384 29 152 385 28 152 386 41 153 387 6 153 388 40 153 389 2 154 390 6 154 391 42 154 392 3 155 393 2 155 394 43 155 395 2 156 396 42 156 397 43 156 398 7 157 399 3 157 400 40 157 401 37 158 402 38 158 403 39 158 404 42 159 405 37 159 406 36 159 407 39 160 408 40 160 409 36 160 410 40 161 411 39 161 412 38 161 413 4 162 414 48 162 415 49 162 416 3 163 417 50 163 418 51 163 419 50 164 420 3 164 421 49 164 422 0 165 423 51 165 424 48 165 425 44 166 426 45 166 427 46 166 428 44 167 429 51 167 430 45 167 431 46 168 432 49 168 433 47 168 434 45 169 435 50 169 436 46 169 437 61 35 438 62 41 439 55 36 440 60 38 441 61 35 442 54 34 443 59 40 444 60 38 445 53 37 446 62 41 447 63 43 448 56 42 449 63 43 450 58 45 451 57 44 452 58 45 453 59 40 454 52 39 455 73 47 456 74 53 457 67 48 458 72 50 459 73 47 460 66 46 461 71 52 462 72 50 463 65 49 464 74 53 465 75 55 466 68 54 467 75 55 468 70 57 469 69 56 470 70 57 471 71 52 472 64 51 473 85 59 474 86 65 475 79 60 476 84 62 477 85 59 478 78 58 479 83 64 480 84 62 481 77 61 482 86 65 483 87 67 484 80 66 485 87 67 486 82 69 487 81 68 488 82 69 489 83 64 490 76 63 491 97 71 492 98 77 493 91 72 494 96 74 495 97 71 496 90 70 497 95 76 498 96 74 499 89 73 500 98 77 501 99 79 502 92 78 503 99 79 504 94 81 505 93 80 506 94 81 507 95 76 508 88 75 509 105 170 510 101 170 511 100 170 512 106 171 513 102 171 514 101 171 515 107 172 516 103 172 517 102 172 518 104 173 519 100 173 520 103 173 521 101 174 522 102 174 523 103 174 524 106 175 525 105 175 526 104 175 527 108 176 528 109 176 529 113 176 530 109 177 531 110 177 532 114 177 533 110 178 534 111 178 535 115 178 536 111 179 537 108 179 538 112 179 539 111 180 540 110 180 541 109 180 542 112 181 543 113 181 544 114 181 545 116 182 546 117 182 547 121 182 548 117 183 549 118 183 550 122 183 551 118 184 552 119 184 553 123 184 554 119 185 555 116 185 556 120 185 557 119 186 558 118 186 559 117 186 560 120 187 561 121 187 562 122 187 563 129 188 564 125 188 565 124 188 566 130 189 567 126 189 568 125 189 569 131 190 570 127 190 571 126 190 572 128 191 573 124 191 574 127 191 575 125 192 576 126 192 577 127 192 578 130 193 579 129 193 580 128 193 581 132 194 582 133 194 583 137 194 584 133 195 585 134 195 586 138 195 587 134 196 588 135 196 589 139 196 590 135 197 591 132 197 592 136 197 593 135 198 594 134 198 595 133 198 596 136 199 597 137 199 598 138 199 599 145 200 600 141 200 601 140 200 602 146 201 603 142 201 604 141 201 605 147 202 606 143 202 607 142 202 608 144 203 609 140 203 610 143 203 611 141 204 612 142 204 613 143 204 614 146 205 615 145 205 616 144 205 617 153 206 618 149 206 619 148 206 620 154 207 621 150 207 622 149 207 623 155 208 624 151 208 625 150 208 626 152 209 627 148 209 628 151 209 629 149 210 630 150 210 631 151 210 632 154 211 633 153 211 634 152 211 635 156 212 636 157 212 637 161 212 638 157 213 639 158 213 640 162 213 641 158 214 642 159 214 643 163 214 644 159 215 645 156 215 646 160 215 647 159 216 648 158 216 649 157 216 650 160 217 651 161 217 652 162 217 653</p>
        </polylist>
      </mesh>
    </geometry>
    <geometry id="nd_bld_a30_002-mesh" name="nd_bld_a30.002">
      <mesh>
        <source id="nd_bld_a30_002-mesh-positions">
          <float_array id="nd_bld_a30_002-mesh-positions-array" count="60">1.2 6 0 1.2 -6 0 -1.2 -6 0 -1.2 6 0 1.200001 6 2.6 1.199999 -6 2.6 -1.2 -6 2.6 -1.2 6 2.6 1.2 6 0 1.2 -6 0 -1.2 -6 0 -1.2 6 0 1.200001 6 2.6 1.199999 -6 2.6 -1.2 -6 2.6 -1.2 6 2.6 1.2 0 0 -1.2 0 0 -1.2 4.76837e-7 2.6 1.2 -4.76837e-7 2.6</float_array>
          <technique_common>
            <accessor source="#nd_bld_a30_002-mesh-positions-array" count="20" stride="3">
              <param name="X" type="float"/>
              <param name="Y" type="float"/>
              <param name="Z" type="float"/>
            </accessor>
          </technique_common>
        </source>
        <source id="nd_bld_a30_002-mesh-normals">
          <float_array id="nd_bld_a30_002-mesh-normals-array" count="48">0 0 -1 0 -1 0 0 0 -1 0 0 1 0 0 1 0 1 0 -1 0 0 1 -1.6888e-7 -3.66798e-7 0 0 -1 0 -1 0 0 0 -1 0 0 1 0 0 1 0 1 0 -1 0 0 1 0 4.12648e-7</float_array>
          <technique_common>
            <accessor source="#nd_bld_a30_002-mesh-normals-array" count="16" stride="3">
              <param name="X" type="float"/>
              <param name="Y" type="float"/>
              <param name="Z" type="float"/>
            </accessor>
          </technique_common>
        </source>
        <source id="nd_bld_a30_002-mesh-map-0">
          <float_array id="nd_bld_a30_002-mesh-map-0-array" count="96">0.4998692 0.356166 0.9986798 0.3561658 0.4998692 0.1457875 0.4972508 0.04302835 0.4972507 0.3108959 0.2529605 0.04302835 0.9986799 0.3561658 0.4998692 0.3561659 0.9986798 0.1457875 0.9986798 0.1457875 0.9986799 0.3561658 0.4998692 0.1457875 0.4998692 0.1457875 0.4998692 0.356166 0.9986799 0.1457875 2.69949e-4 0.3064545 0.001293659 0.04560858 0.2449668 0.3064543 0.9971755 0.5736826 0.9971755 0.7859911 -8.34465e-5 0.5736826 0.9971755 0.7859911 -8.34721e-5 0.7859912 0.9971755 0.5736826 0.9986798 0.3561658 0.9986799 0.1457875 0.4998692 0.1457875 0.4972507 0.3108959 0.2529605 0.3108959 0.2529605 0.04302835 0.4998692 0.3561659 0.4998692 0.1457875 0.9986798 0.1457875 0.9986799 0.3561658 0.4998692 0.3561659 0.4998692 0.1457875 0.4998692 0.356166 0.9986798 0.3561658 0.9986799 0.1457875 0.001293659 0.04560858 0.2459908 0.04560858 0.2449668 0.3064543 0.9971755 0.7859911 -8.34465e-5 0.7859911 -8.34465e-5 0.5736826 -8.34721e-5 0.7859912 -8.34721e-5 0.5736827 0.9971755 0.5736826</float_array>
          <technique_common>
            <accessor source="#nd_bld_a30_002-mesh-map-0-array" count="48" stride="2">
              <param name="S" type="float"/>
              <param name="T" type="float"/>
            </accessor>
          </technique_common>
        </source>
        <vertices id="nd_bld_a30_002-mesh-vertices">
          <input semantic="POSITION" source="#nd_bld_a30_002-mesh-positions"/>
        </vertices>
        <polylist material="containers_01_a-material" count="16">
          <input semantic="VERTEX" source="#nd_bld_a30_002-mesh-vertices" offset="0"/>
          <input semantic="NORMAL" source="#nd_bld_a30_002-mesh-normals" offset="1"/>
          <input semantic="TEXCOORD" source="#nd_bld_a30_002-mesh-map-0" offset="2" set="0"/>
          <vcount>3 3 3 3 3 3 3 3 3 3 3 3 3 3 3 3 </vcount>
          <p>8 0 0 16 0 1 11 0 2 1 1 3 5 1 4 2 1 5 16 2 6 9 2 7 17 2 8 19 3 9 18 3 10 13 3 11 12 4 12 15 4 13 19 4 14 4 5 15 0 5 16 7 5 17 2 6 18 6 6 19 3 6 20 4 7 21 5 7 22 0 7 23 16 8 24 17 8 25 11 8 26 5 9 27 6 9 28 2 9 29 9 10 30 10 10 31 17 10 32 18 11 33 14 11 34 13 11 35 15 12 36 18 12 37 19 12 38 0 13 39 3 13 40 7 13 41 6 14 42 7 14 43 3 14 44 5 15 45 1 15 46 0 15 47</p>
        </polylist>
      </mesh>
    </geometry>
  </library_geometries>
  <library_controllers/>
  <library_visual_scenes>
    <visual_scene id="Scene" name="Scene">
      <node id="base00" name="base00" type="NODE">
        <matrix sid="transform">1 0 0 0 0 1 0 0 0 0 1 0 0 0 0 1</matrix>
        <node id="bb__autobillboard5" name="bb__autobillboard5" type="NODE">
          <matrix sid="transform">1 0 0 0 0 1 0 0 0 0 1 0 0 0 0 1</matrix>
        </node>
        <node id="collision-1" name="collision-1" type="NODE">
          <matrix sid="transform">1 0 0 0 0 1 0 0 0 0 1 0 0 0 0 1</matrix>
        </node>
        <node id="detail12" name="detail12" type="NODE">
          <matrix sid="transform">1 0 0 0 0 1 0 0 0 0 1 0 0 0 0 1</matrix>
        </node>
        <node id="start01" name="start01" type="NODE">
          <matrix sid="transform">1 0 0 0 0 1 0 0 0 0 1 0 0 0 0 1</matrix>
          <node id="Colmesh-1" name="Colmesh-1" type="NODE">
            <matrix sid="transform">1 0 0 0 0 1 0 0 0 0 1 0 0 0 0 1</matrix>
            <instance_geometry url="#Colmesh-1-mesh">
              <bind_material>
                <technique_common>
                  <instance_material symbol="ColorEffectR27G177B88-material-material" target="#ColorEffectR27G177B88-material-material"/>
                </technique_common>
              </bind_material>
            </instance_geometry>
          </node>
          <node id="ind_bld_a300" name="ind_bld_a300" type="NODE">
            <matrix sid="transform">1 0 0 0 0 1 0 0 0 0 1 0 0 0 0 1</matrix>
            <instance_geometry url="#nd_bld_a30_001-mesh">
              <bind_material>
                <technique_common>
                  <instance_material symbol="containers_01_a-material" target="#containers_01_a-material"/>
                </technique_common>
              </bind_material>
            </instance_geometry>
          </node>
          <node id="ind_bld_a20" name="ind_bld_a20" type="NODE">
            <matrix sid="transform">1 0 0 0 0 1 0 0 0 0 1 0 0 0 0 1</matrix>
            <instance_geometry url="#nd_bld_a30_002-mesh">
              <bind_material>
                <technique_common>
                  <instance_material symbol="containers_01_a-material" target="#containers_01_a-material"/>
                </technique_common>
              </bind_material>
            </instance_geometry>
          </node>
        </node>
        <node id="detail300" name="detail300" type="NODE">
          <matrix sid="transform">1 0 0 0 0 1 0 0 0 0 1 0 0 0 0 1</matrix>
        </node>
      </node>
    </visual_scene>
  </library_visual_scenes>
  <scene>
    <instance_visual_scene url="#Scene"/>
  </scene>
</COLLADA>