<?xml version="1.0"?>
<COLLADA xmlns="http://www.collada.org/2005/11/COLLADASchema" version="1.4.1">
    <asset>
        <contributor>
            <authoring_tool>CINEMA4D 17.032 COLLADA Exporter</authoring_tool>
        </contributor>
        <created>2019-06-16T23:18:36Z</created>
        <modified>2019-06-16T23:18:36Z</modified>
        <unit name="meter"/>
        <up_axis>Y_UP</up_axis>
    </asset>
    <library_images>
        <image id="ID3">
            <init_from>file:///C:/Users/Jesse/AppData/Roaming/MAXON/CINEMA%204D%20R17_A5743A5F/tex/gateColor.png</init_from>
        </image>
    </library_images>
    <library_effects>
        <effect id="ID2">
            <profile_COMMON>
                <newparam sid="ID4">
                    <surface type="2D">
                        <init_from>ID3</init_from>
                    </surface>
                </newparam>
                <newparam sid="ID5">
                    <sampler2D>
                        <source>ID4</source>
                    </sampler2D>
                </newparam>
                <technique sid="COMMON">
                    <blinn>
                        <diffuse>
                            <texture texture="ID5" texcoord="UVSET0"/>
                        </diffuse>
                    </blinn>
                </technique>
            </profile_COMMON>
        </effect>
    </library_effects>
    <library_materials>
        <material id="ID1" name="gate_tex">
            <instance_effect url="#ID2"/>
        </material>
    </library_materials>
    <library_geometries>
        <geometry id="ID8">
            <mesh>
                <source id="ID9">
                    <float_array id="ID10" count="840">-1.26843 -0.773944 -0.570113 -1.26843 -0.773944 0.233087 -1.26843 0.750056 0.180189 -1.26843 0.750056 -0.517215 -1.26843 0.155221 -0.308193 -1.26843 0.155221 -0.0288333 -1.26843 -0.518821 -0.0288333 -1.26843 -0.518821 -0.308193 1.26843 -0.773944 0.233087 1.26843 -0.773944 -0.570113 1.26843 0.750056 -0.517215 1.26843 0.750056 0.180189 1.26843 0.155221 -0.0288333 1.26843 0.155221 -0.308193 1.26843 -0.518821 -0.308193 1.26843 -0.518821 -0.0288333 1.25259 -2.29794 -0.697817 1.48359 -2.52862 -0.709971 2.11889 -2.52862 -0.709971 2.32934 -2.29794 -0.697817 2.21822 -3.59126 -0.765959 2.47179 -3.82194 -0.778113 1.48359 -3.59126 -0.765959 1.25259 -3.82194 -0.778113 2.25995 -2.29794 0.333087 2.00637 -2.06716 0.323082 1.90706 -1.00473 0.277022 2.11749 -0.773944 0.267017 1.48775 -1.00473 0.277022 1.25675 -0.773944 0.267017 1.48775 -2.06716 0.323082 1.25675 -2.29794 0.333087 1.25675 -2.29794 -0.670113 1.48775 -2.06716 -0.660108 1.48775 -1.00473 -0.614048 1.25675 -0.773944 -0.604043 1.90706 -1.00473 -0.614048 2.11749 -0.773944 -0.604043 2.00637 -2.06716 -0.660108 2.25995 -2.29794 -0.670113 2.07163 -0.773944 0.233087 1.81804 -0.543083 0.225074 1.71875 0.519195 0.188202 1.92918 0.750056 0.180189 1.49943 0.519195 0.188202 1.49943 -0.543083 0.225074 1.49943 -0.543083 -0.5621 1.49943 0.519195 -0.525228 1.71875 0.519195 -0.525228 1.92918 0.750056 -0.517215 1.81804 -0.543083 -0.5621 2.07163 -0.773944 -0.570113 -2.21822 -3.59126 0.428933 -2.21822 -3.59779 0.305105 -1.48359 -3.59779 0.305105 -1.48359 -3.59126 0.428933 -1.48359 -2.53515 0.249117 -1.48359 -2.52862 0.372945 -2.11889 -2.53515 0.249117 -2.11889 -2.52862 0.372945 -1.48359 -3.59126 -0.765959 -1.48359 -3.59779 -0.642131 -2.21822 -3.59779 -0.642131 -2.21822 -3.59126 -0.765959 -2.11889 -2.53515 -0.586143 -2.11889 -2.52862 -0.709971 -1.48359 -2.53515 -0.586143 -1.48359 -2.52862 -0.709971 -2.00637 -2.06716 0.323082 -2.00637 -2.07253 0.199198 -1.48775 -2.07253 0.199198 -1.48775 -2.06716 0.323082 -1.48775 -1.0101 0.153138 -1.48775 -1.00473 0.277022 -1.90706 -1.0101 0.153138 -1.90706 -1.00473 0.277022 -1.48775 -2.06716 -0.660108 -1.48775 -2.07253 -0.536224 -2.00637 -2.07253 -0.536224 -2.00637 -2.06716 -0.660108 -1.90706 -1.0101 -0.490165 -1.90706 -1.00473 -0.614048 -1.48775 -1.0101 -0.490165 -1.48775 -1.00473 -0.614048 -1.81804 -0.543083 0.225074 -1.81804 -0.547384 0.101148 -1.49943 -0.547384 0.101148 -1.49943 -0.543083 0.225074 -1.49943 0.514894 0.0642765 -1.49943 0.519195 0.188202 -1.71875 0.514894 0.0642765 -1.71875 0.519195 0.188202 -1.49943 -0.543083 -0.5621 -1.49943 -0.547384 -0.438175 -1.81804 -0.547384 -0.438175 -1.81804 -0.543083 -0.5621 -1.71875 0.514894 -0.401303 -1.71875 0.519195 -0.525228 -1.49943 0.514894 -0.401303 -1.49943 0.519195 -0.525228 2.21822 -3.59126 0.428933 2.21822 -3.59779 0.305105 2.11889 -2.53515 0.249117 2.11889 -2.52862 0.372945 1.48359 -2.53515 0.249117 1.48359 -2.52862 0.372945 1.48359 -3.59779 0.305105 1.48359 -3.59126 0.428933 1.48359 -3.59779 -0.642131 1.48359 -2.53515 -0.586143 2.11889 -2.53515 -0.586143 2.21822 -3.59779 -0.642131 2.00637 -2.07253 0.199198 1.90706 -1.0101 0.153138 1.48775 -1.0101 0.153138 1.48775 -2.07253 0.199198 1.48775 -2.07253 -0.536224 1.48775 -1.0101 -0.490165 1.90706 -1.0101 -0.490165 -1.13892 -0.771934 -0.145321 -0.930664 -0.771944 -1.32638 -0.930664 -3.82194 -1.32638 -1.13904 -3.82194 -0.144613 -1.21396 -0.771934 -0.158553 -1.21408 -3.82194 -0.157845 -1.00571 -3.82194 -1.33961 -1.00571 -0.771944 -1.33961 -1.0822 -3.82194 -0.236133 -1.0822 -3.69194 -0.236133 -0.908552 -3.69194 -1.22094 -0.908552 -3.82194 -1.22094 -1.23679 -3.82194 -0.263391 -1.06314 -3.82194 -1.2482 -1.06314 -3.69194 -1.2482 -1.23679 -3.69194 -0.263391 -1.0822 -0.771944 -0.236133 -0.908552 -0.771944 -1.22094 -0.908552 -0.881944 -1.22094 -1.06484 -0.881944 -0.334614 -1.23679 -0.771944 -0.263391 -1.21942 -0.881944 -0.361872 -1.06314 -0.881944 -1.2482 -1.06314 -0.771944 -1.2482 -1.0822 -2.12194 -0.236133 -1.0822 -2.02194 -0.236133 -0.908552 -2.02194 -1.22094 -0.908552 -2.12194 -1.22094 -1.23679 -2.12194 -0.263391 -1.06314 -2.12194 -1.2482 -1.06314 -2.02194 -1.2482 -1.23679 -2.02194 -0.263391 -1.09957 -0.681944 -0.137652 -1.0822 -0.681944 -0.236133 -1.09957 -3.82194 -0.137652 -0.891187 -0.681944 -1.31942 -0.891187 -3.82194 -1.31942 -0.908552 -0.681944 -1.22094 -1.25415 -0.681944 -0.16491 -1.25415 -3.82194 -0.16491 -1.23679 -0.681944 -0.263391 -1.04577 -0.681944 -1.34668 -1.06314 -0.681944 -1.2482 -1.04577 -3.82194 -1.34668 1.13892 -0.771934 -0.145321 1.13904 -3.82194 -0.144613 0.930664 -3.82194 -1.32638 0.930664 -0.771944 -1.32638 1.21396 -0.771934 -0.158553 1.00571 -0.771944 -1.33961 1.00571 -3.82194 -1.33961 1.21408 -3.82194 -0.157845 1.0822 -3.82194 -0.236133 0.908552 -3.82194 -1.22094 0.908552 -3.69194 -1.22094 1.0822 -3.69194 -0.236133 1.23679 -3.82194 -0.263391 1.23679 -3.69194 -0.263391 1.06314 -3.69194 -1.2482 1.06314 -3.82194 -1.2482 1.0822 -0.771944 -0.236133 1.06484 -0.881944 -0.334614 0.908552 -0.881944 -1.22094 0.908552 -0.771944 -1.22094 1.23679 -0.771944 -0.263391 1.06314 -0.771944 -1.2482 1.06314 -0.881944 -1.2482 1.21942 -0.881944 -0.361872 1.0822 -2.12194 -0.236133 0.908552 -2.12194 -1.22094 0.908552 -2.02194 -1.22094 1.0822 -2.02194 -0.236133 1.23679 -2.12194 -0.263391 1.23679 -2.02194 -0.263391 1.06314 -2.02194 -1.2482 1.06314 -2.12194 -1.2482 1.09957 -0.681944 -0.137652 1.09957 -3.82194 -0.137652 1.0822 -0.681944 -0.236133 0.891187 -0.681944 -1.31942 0.908552 -0.681944 -1.22094 0.891187 -3.82194 -1.31942 1.25415 -0.681944 -0.16491 1.23679 -0.681944 -0.263391 1.25415 -3.82194 -0.16491 1.04577 -0.681944 -1.34668 1.04577 -3.82194 -1.34668 1.06314 -0.681944 -1.2482 1.25259 -2.29794 0.360791 1.25259 -3.82194 0.441087 2.47179 -3.82194 0.441087 0.268202 -0.264757 -0.308193 0.268202 -0.264757 -0.0288333 0.804606 -0.353202 -0.0288333 0.804606 -0.353202 -0.308193 -1.25259 -3.82194 0.441087 -1.25259 -2.29794 0.360791 -1.25259 -2.29794 -0.697817 -1.25259 -3.82194 -0.778113 -2.47179 -3.82194 -0.778113 -2.32934 -2.29794 -0.697817 -2.32934 -2.29794 0.360791 -2.47179 -3.82194 0.441087 -1.92918 0.750056 0.180189 -1.92918 0.750056 -0.517215 -2.25995 -2.29794 0.333087 -1.25675 -2.29794 0.333087 -1.25675 -2.29794 -0.670113 -2.25995 -2.29794 -0.670113 -1.25675 -0.773944 0.267017 -1.25675 -0.773944 -0.604043 -2.11749 -0.773944 -0.604043 -2.11749 -0.773944 0.267017 -2.07163 -0.773944 0.233087 -2.07163 -0.773944 -0.570113 2.32934 -2.29794 0.360791 2.00637 -2.07253 -0.536224 1.81804 -0.547384 0.101148 1.49943 -0.547384 0.101148 1.49943 0.514894 0.0642765 1.71875 0.514894 0.0642765 1.49943 -0.547384 -0.438175 1.81804 -0.547384 -0.438175 1.71875 0.514894 -0.401303 1.49943 0.514894 -0.401303 -0.804606 -0.353202 -0.0288333 -0.804606 -0.353202 -0.308193 -0.268202 -0.264757 -0.0288333 -0.268202 -0.264757 -0.308193 -0.995376 -2.02194 -0.728537 -1.14996 -2.02194 -0.755795 -0.92418 -1.92194 -1.13231 -1.07877 -1.92194 -1.15957 -1.0822 -1.92194 -0.236133 -1.23679 -1.92194 -0.263391 -0.908552 -1.87194 -1.22094 -1.06314 -1.87194 -1.2482 -1.06314 -1.92194 -1.2482 -0.908552 -1.92194 -1.22094 -1.23679 -0.921944 -0.263391 -1.0822 -0.921944 -0.236133 0.995376 -2.02194 -0.728537 1.14996 -2.02194 -0.755795 1.07877 -1.92194 -1.15957 0.92418 -1.92194 -1.13231 1.23679 -1.92194 -0.263391 1.0822 -1.92194 -0.236133 0.908552 -1.87194 -1.22094 1.06314 -1.87194 -1.2482 0.908552 -1.92194 -1.22094 1.06314 -1.92194 -1.2482 1.0822 -0.921944 -0.236133 1.23679 -0.921944 -0.263391 -0.804606 0.32084 -0.0288333 -0.268202 0.409285 -0.0288333 0.268202 0.409285 -0.0288333 0.804606 0.32084 -0.0288333 0.804606 0.32084 -0.308193 0.268202 0.409285 -0.308193 -0.268202 0.409285 -0.308193 -0.804606 0.32084 -0.308193</float_array>
                    <technique_common>
                        <accessor count="280" source="#ID10" stride="3">
                            <param name="X" type="float"/>
                            <param name="Y" type="float"/>
                            <param name="Z" type="float"/>
                        </accessor>
                    </technique_common>
                </source>
                <source id="ID11">
                    <float_array id="ID12" count="180">0 0 1 0 0 -1 -0.173625 0 -0.98475 0 -1 -0 0.173625 0 -0.98475 -0.128469 -0.672625 0.728688 0.173625 0.00021875 0.98475 0 1 -0 0.173625 0 0.98475 -0.129063 0.668938 -0.732 0 0.0525625 -0.998594 0 0.0433125 0.999 0 0.04325 0.999 0 0.0433125 -0.999 0 0.0346875 0.999375 0 0.0346875 -0.999375 0 0.998594 -0.0525625 -1 0 -0 0 -0.998594 0.0525625 0.995625 -0.0927813 0.004875 0 0.998594 0.0525625 0.995625 -0.0927813 -0.004875 0 -0.998594 -0.0525625 0 0.999 -0.0433125 0 -0.999 0.0433125 0.995625 -0.092875 0.004 0 0.999 0.0433125 0.995625 -0.092875 -0.004 0 -0.999 -0.0433125 0 0.999375 -0.0346875 0 -0.999375 0.0346875 0.995625 -0.0929375 0.00321875 0 0.999375 0.0346875 0.995625 -0.0929375 -0.00321875 0 -0.999375 -0.0346875 -0.995625 -0.0927813 0.004875 1 0 -0 -0.995625 -0.0927813 -0.004875 -0.995625 -0.092875 0.004 0.98475 0 0.173625 -0.98475 0 -0.173625 -0.98475 0 0.173625 0.98475 0 -0.173625 0 0.0525625 0.998594 0.128469 -0.672625 0.728688 -0.250469 -0.968094 -0 -0.0815938 -0.996625 -0 -0.33625 -0.94175 -0 -0.995625 0.0930625 -0 -0.128469 0.672625 -0.728688 0 0.04325 -0.999 0.995625 0.0930625 -0 -0.995625 -0.092875 -0.004 -0.995625 -0.0929375 0.00321875 0.129063 0.668938 -0.732 -0.173625 0 0.98475 -0.995625 -0.0929375 -0.00321875 0.250469 -0.968094 -0 0.33625 -0.94175 -0 0.0815938 -0.996625 -0</float_array>
                    <technique_common>
                        <accessor count="60" source="#ID12" stride="3">
                            <param name="X" type="float"/>
                            <param name="Y" type="float"/>
                            <param name="Z" type="float"/>
                        </accessor>
                    </technique_common>
                </source>
                <source id="ID13">
                    <float_array id="ID14" count="1392">0.0391769 0.714217 0.0391769 0.761169 0.0766663 0.76733 0.0766663 0.720378 0.114156 0.76733 0.114156 0.720378 0.114156 0.642252 0.114156 0.689205 0.151645 0.683044 0.151645 0.636091 0.184062 0.624555 0.184062 0.671507 0.883469 0.391555 0.878225 0.391555 0.878225 0.604012 0.883469 0.604012 0.890658 0.688839 0.879854 0.688839 0.879854 0.696502 0.890658 0.696502 0.777392 0.993262 0.788196 0.991364 0.77606 0.922764 0.765256 0.924663 0.77606 0.902323 0.765256 0.902323 0.765256 0.909289 0.77606 0.909289 0.749592 0.385287 0.749592 0.604012 0.760396 0.604012 0.760396 0.385287 0.713079 0.295188 0.723883 0.295188 0.723883 0.291705 0.713079 0.291705 0.723883 0.284739 0.713079 0.284739 0.43908 0.251804 0.428276 0.251804 0.41614 0.328428 0.426944 0.328428 0.859451 0.604012 0.864695 0.604012 0.864704 0.391555 0.859459 0.391555 0.0432211 0.307788 0.0540252 0.309687 0.0661615 0.241087 0.0553574 0.239189 0.607804 0.118397 0.618608 0.118397 0.618608 0.111432 0.607804 0.111432 0.362965 0.259881 0.37377 0.257982 0.367701 0.223683 0.356897 0.225582 0.676618 0.269365 0.687422 0.271264 0.688514 0.26509 0.67771 0.263191 0.699558 0.202664 0.688754 0.200765 0.881337 0.993262 0.892141 0.993262 0.892141 0.986296 0.881337 0.986296 0.369034 0.294181 0.379838 0.292282 0.700943 0.604012 0.711747 0.604012 0.711747 0.385287 0.700943 0.385287 0.251121 0.303648 0.238984 0.235048 0.22818 0.236947 0.240317 0.305547 0.381523 0.730713 0.365378 0.714645 0.320977 0.714645 0.306269 0.730713 0.314034 0.640623 0.296313 0.624555 0.365378 0.640623 0.381523 0.624555 0.510142 0.504921 0.492419 0.520997 0.485478 0.595003 0.500185 0.611079 0.456172 0.595003 0.440028 0.611079 0.456172 0.520997 0.440028 0.504921 0.560063 0.887104 0.543918 0.90318 0.543918 0.977186 0.560063 0.993262 0.514612 0.977186 0.499905 0.993262 0.507671 0.90318 0.489949 0.887104 0.523785 0.385287 0.506062 0.401368 0.499122 0.475364 0.513829 0.491445 0.483794 0.475364 0.467649 0.491445 0.483794 0.401368 0.467649 0.385287 0.629719 0.887104 0.613574 0.903185 0.613574 0.977181 0.629719 0.993262 0.598246 0.977181 0.583539 0.993262 0.591306 0.903185 0.573583 0.887104 0.256583 0.148837 0.256583 0.157463 0.307927 0.157463 0.307927 0.148837 0.524585 0.177384 0.51593 0.176929 0.512017 0.25095 0.520672 0.251405 0.773424 0.884809 0.773424 0.876184 0.729023 0.876184 0.729023 0.884809 0.722081 0.880084 0.722081 0.888709 0.81031 0.168509 0.81031 0.159883 0.758967 0.159883 0.758967 0.168509 0.657216 0.876184 0.657216 0.884809 0.664159 0.888709 0.664159 0.880084 0.70856 0.888709 0.70856 0.880084 0.805629 0.993262 0.814284 0.992808 0.810371 0.918787 0.801716 0.919241 0.488338 0.151711 0.488338 0.16034 0.524585 0.16034 0.524585 0.151711 0.549982 0.177398 0.541324 0.177024 0.538105 0.251031 0.546763 0.251405 0.712865 0.720667 0.712865 0.712037 0.683559 0.712037 0.683559 0.720667 0.676618 0.715245 0.676618 0.723875 0.745446 0.146407 0.745446 0.137778 0.7092 0.137778 0.7092 0.146407 0.676618 0.73735 0.676618 0.74598 0.683559 0.749188 0.683559 0.740559 0.712865 0.749188 0.712865 0.740559 0.831023 0.993262 0.839682 0.992888 0.836462 0.918881 0.827804 0.919255 0.502317 0.129603 0.502317 0.138235 0.524585 0.138235 0.524585 0.129603 0.427378 0.153386 0.418717 0.153086 0.41614 0.227082 0.424801 0.227382 0.616537 0.209398 0.616537 0.200765 0.601209 0.200765 0.601209 0.209398 0.594269 0.203334 0.594269 0.211966 0.474196 0.139611 0.474196 0.130978 0.451928 0.130978 0.451928 0.139611 0.594269 0.225442 0.594269 0.234074 0.601209 0.236642 0.601209 0.22801 0.616537 0.236642 0.616537 0.22801 0.00933719 0.225713 0.0179984 0.225414 0.0154214 0.151418 0.00676022 0.151717 0.704887 0.775226 0.704887 0.7666 0.697945 0.7627 0.697945 0.771326 0.653543 0.7627 0.653543 0.771326 0.489842 0.251405 0.498497 0.25095 0.494584 0.176929 0.485929 0.177384 0.191719 0.148837 0.191719 0.157463 0.243063 0.157463 0.243063 0.148837 0.805124 0.29779 0.796469 0.297336 0.792556 0.371357 0.801211 0.371811 0.588679 0.7666 0.588679 0.775226 0.633081 0.775226 0.633081 0.7666 0.640023 0.771326 0.640023 0.7627 0.838288 0.888709 0.838288 0.880084 0.786945 0.880084 0.786945 0.888709 0.574352 0.163549 0.574352 0.154919 0.567411 0.151711 0.567411 0.16034 0.538105 0.151711 0.538105 0.16034 0.566722 0.251405 0.57538 0.251031 0.572161 0.177024 0.563503 0.177398 0.758967 0.137778 0.758967 0.146407 0.795213 0.146407 0.795213 0.137778 0.464478 0.168153 0.45582 0.167779 0.452601 0.241786 0.461259 0.24216 0.321448 0.148833 0.321448 0.157463 0.350754 0.157463 0.350754 0.148833 0.295153 0.993262 0.377698 0.993262 0.377698 0.780805 0.295104 0.780805 0.281534 0.993262 0.281583 0.780805 0.198989 0.780805 0.198989 0.993262 0.722081 0.853653 0.722081 0.862708 0.790909 0.862708 0.790909 0.853653 0.463872 0.744189 0.395043 0.744189 0.395043 0.753244 0.463872 0.753244 0.594269 0.18729 0.663098 0.18729 0.663098 0.179628 0.601152 0.179628 0.342897 0.199042 0.336014 0.191379 0.274068 0.191379 0.274068 0.199042 0.191719 0.170938 0.191719 0.177904 0.260548 0.177904 0.260548 0.170938 0.745446 0.180324 0.676618 0.180324 0.676618 0.18729 0.745446 0.18729 0.839047 0.604012 0.84593 0.604012 0.84593 0.385287 0.839047 0.385287 0.84593 0.836213 0.84593 0.617488 0.839047 0.617488 0.839047 0.836213 0.84593 0.371811 0.84593 0.153086 0.839047 0.153086 0.839047 0.371811 0.818644 0.604012 0.825527 0.604012 0.825527 0.385287 0.818644 0.385287 0.0893048 0.993262 0.0893543 0.780805 0.00676023 0.780805 0.00676022 0.993262 0.102924 0.993262 0.185469 0.993262 0.185469 0.780805 0.102875 0.780805 0.260548 0.212517 0.191719 0.212517 0.191719 0.221573 0.260548 0.221573 0.109371 0.212517 0.109371 0.221573 0.178199 0.221573 0.178199 0.212517 0.260548 0.199042 0.253665 0.191379 0.191719 0.191379 0.191719 0.199042 0.109371 0.199042 0.178199 0.199042 0.178199 0.191379 0.116253 0.191379 0.178199 0.170938 0.109371 0.170938 0.109371 0.177904 0.178199 0.177904 0.523662 0.605469 0.523662 0.612434 0.59249 0.612434 0.59249 0.605469 0.402619 0.371811 0.402619 0.153086 0.395737 0.153086 0.395737 0.371811 0.729188 0.836213 0.736071 0.836213 0.736071 0.617488 0.729188 0.617488 0.859451 0.836213 0.866333 0.836213 0.866333 0.617488 0.859451 0.617488 0.805124 0.604012 0.805124 0.385287 0.798241 0.385287 0.798241 0.604012 0.197582 0.730713 0.213727 0.714645 0.213727 0.640623 0.197582 0.624555 0.26507 0.640623 0.282792 0.624555 0.0188965 0.239189 0.00676022 0.307788 0.0175643 0.309687 0.0297006 0.241087 0.687422 0.385287 0.676618 0.385287 0.676618 0.604012 0.687422 0.604012 0.761676 0.271264 0.77248 0.269365 0.771267 0.262505 0.760462 0.264404 0.760344 0.200765 0.74954 0.202664 0.304978 0.744189 0.304978 0.763648 0.342467 0.763648 0.342467 0.744189 0.374884 0.744189 0.374884 0.763648 0.320437 0.316877 0.327379 0.390898 0.37178 0.390898 0.37178 0.316877 0.395043 0.624555 0.400655 0.730713 0.474641 0.730713 0.480253 0.624555 0.220123 0.319022 0.220123 0.393043 0.264524 0.393043 0.271466 0.319022 0.105491 0.491445 0.115447 0.485852 0.115447 0.412112 0.105491 0.406519 0.70381 0.993262 0.715947 0.916639 0.705143 0.916639 0.693006 0.993262 0.643239 0.919255 0.65018 0.993262 0.679486 0.993262 0.679486 0.919255 0.189125 0.504921 0.193743 0.611079 0.254621 0.611079 0.259239 0.504921 0.626851 0.297805 0.626851 0.371811 0.656157 0.371811 0.663098 0.297805 0.588679 0.858582 0.598635 0.85398 0.598635 0.793304 0.588679 0.788702 0.557506 0.26488 0.564446 0.338876 0.579774 0.338876 0.579774 0.26488 0.729467 0.919266 0.729467 0.993262 0.744795 0.993262 0.751735 0.919266 0.601841 0.851616 0.611797 0.847932 0.611797 0.799352 0.601841 0.795667 0.141738 0.319022 0.0903945 0.319022 0.0903945 0.393043 0.134796 0.393043 0.0919703 0.504921 0.00676022 0.504921 0.0123721 0.611079 0.0863584 0.611079 0.206602 0.319022 0.155259 0.319022 0.162201 0.393043 0.206602 0.393043 0.0919703 0.491445 0.0919703 0.406519 0.0820143 0.412112 0.0820143 0.485852 0.715947 0.913156 0.705143 0.913156 0.70856 0.788702 0.672313 0.788702 0.672313 0.862708 0.701619 0.862708 0.175605 0.504921 0.105491 0.504921 0.110108 0.611079 0.170987 0.611079 0.712865 0.624555 0.676618 0.624555 0.683559 0.698562 0.712865 0.698562 0.076874 0.393043 0.076874 0.323162 0.066918 0.327765 0.066918 0.388441 0.508197 0.26488 0.485929 0.26488 0.485929 0.338876 0.501258 0.338876 0.543986 0.26488 0.521718 0.26488 0.528658 0.338876 0.543986 0.338876 0.0637125 0.386077 0.0637125 0.330128 0.0537564 0.333813 0.0537564 0.382393 0.391218 0.887104 0.40894 0.903172 0.460284 0.903172 0.476428 0.887104 0.460284 0.977194 0.476428 0.993262 0.415882 0.977194 0.401174 0.993262 0.391218 0.76747 0.407363 0.783539 0.458706 0.783539 0.476428 0.76747 0.451764 0.85756 0.466472 0.873628 0.407363 0.85756 0.391218 0.873628 0.272759 0.504921 0.290482 0.520997 0.326728 0.520997 0.342873 0.504921 0.326728 0.595003 0.342873 0.611079 0.297422 0.595003 0.282715 0.611079 0.356393 0.504921 0.372538 0.520997 0.408785 0.520997 0.426507 0.504921 0.401844 0.595003 0.416551 0.611079 0.372538 0.595003 0.356393 0.611079 0.606962 0.385287 0.624685 0.401368 0.646953 0.401368 0.663098 0.385287 0.646953 0.475364 0.663098 0.491445 0.631625 0.475364 0.616918 0.491445 0.606962 0.624555 0.623106 0.640636 0.645374 0.640636 0.663098 0.624555 0.638435 0.714632 0.653142 0.730713 0.623106 0.714632 0.606962 0.730713 0.258128 0.714645 0.272836 0.730713 0.357694 0.154254 0.357694 0.145625 0.866333 0.858318 0.866333 0.849689 0.830087 0.849689 0.830087 0.858318 0.588299 0.674678 0.588299 0.666046 0.581359 0.663478 0.581359 0.67211 0.566031 0.663478 0.566031 0.67211 0.151645 0.761169 0.151645 0.714217 0.184062 0.70268 0.184062 0.749632 0.0391769 0.683044 0.0391769 0.636091 0.00676022 0.624555 0.00676022 0.671507 0.0766663 0.689205 0.0766663 0.642252 0.337309 0.259881 0.343377 0.225582 0.332573 0.223683 0.326505 0.257982 0.736019 0.269365 0.734927 0.263191 0.724123 0.26509 0.725215 0.271264 0.723883 0.200765 0.713079 0.202664 0.331241 0.294181 0.320437 0.292282 0.78472 0.604012 0.78472 0.385287 0.773916 0.385287 0.773916 0.604012 0.0340958 0.225713 0.0427569 0.225414 0.04018 0.151418 0.0315188 0.151717 0.41614 0.130978 0.41614 0.139611 0.438408 0.139611 0.438408 0.130978 0.0675155 0.151717 0.0588543 0.151418 0.0562774 0.225414 0.0649385 0.225713 0.566031 0.64137 0.566031 0.650002 0.581359 0.650002 0.581359 0.64137 0.588299 0.647434 0.588299 0.638801 0.402619 0.139611 0.402619 0.130978 0.380351 0.130978 0.380351 0.139611 0.197582 0.763648 0.229999 0.763648 0.229999 0.744189 0.197582 0.744189 0.267488 0.763648 0.267488 0.744189 0.715947 0.90619 0.705143 0.90619 0.878225 0.165624 0.878225 0.37808 0.883469 0.37808 0.883469 0.165624 0.676618 0.284739 0.688754 0.361363 0.699558 0.361363 0.687422 0.284739 0.166063 0.235048 0.155259 0.236947 0.167395 0.305547 0.178199 0.303648 0.688754 0.371811 0.699558 0.371811 0.00676022 0.749632 0.00676022 0.70268 0.796805 0.271264 0.798018 0.264404 0.787214 0.262505 0.786001 0.269365 0.808941 0.202664 0.798137 0.200765 0.879854 0.667701 0.879854 0.675364 0.890658 0.675364 0.890658 0.667701 0.29478 0.294181 0.306916 0.225582 0.296112 0.223683 0.283976 0.292282 0.879854 0.626819 0.879854 0.633785 0.890658 0.633785 0.890658 0.626819 0.454129 0.491445 0.454129 0.480997 0.385301 0.404373 0.385301 0.411339 0.385301 0.414822 0.711032 0.159883 0.676618 0.159883 0.682813 0.166849 0.745446 0.166849 0.745446 0.159883 0.00676022 0.412112 0.00676022 0.485852 0.0771647 0.483922 0.00705086 0.483922 0.00705086 0.414042 0.0771647 0.414042 0.663098 0.504921 0.606962 0.504921 0.610659 0.611079 0.659401 0.611079 0.644792 0.569644 0.625267 0.569644 0.625267 0.522692 0.644792 0.522692 0.593441 0.385287 0.537306 0.385287 0.541003 0.491445 0.589744 0.491445 0.575136 0.45001 0.555611 0.45001 0.555611 0.403058 0.575136 0.403058 0.00676022 0.327765 0.00676022 0.388441 0.00757669 0.386077 0.00757669 0.330128 0.190701 0.485852 0.190701 0.412112 0.120296 0.483922 0.120296 0.414042 0.19041 0.414042 0.19041 0.483922 0.59249 0.591993 0.59249 0.581544 0.523662 0.504921 0.523662 0.511887 0.523662 0.51537 0.658793 0.85398 0.658793 0.793304 0.657977 0.795667 0.657977 0.851616 0.302952 0.491445 0.37178 0.414822 0.37178 0.411339 0.37178 0.404373 0.302952 0.480997 0.308482 0.170938 0.274068 0.170938 0.274068 0.177904 0.336702 0.177904 0.342897 0.170938 0.628683 0.159186 0.594269 0.159186 0.594269 0.166152 0.656903 0.166152 0.663098 0.159186 0.50633 0.775226 0.575159 0.698602 0.575159 0.69512 0.575159 0.688154 0.50633 0.764777 0.143785 0.150497 0.109371 0.150497 0.115565 0.157463 0.178199 0.157463 0.178199 0.150497</float_array>
                    <technique_common>
                        <accessor count="696" source="#ID14" stride="2">
                            <param name="S" type="float"/>
                            <param name="T" type="float"/>
                        </accessor>
                    </technique_common>
                </source>
                <vertices id="ID15">
                    <input semantic="POSITION" source="#ID9"/>
                </vertices>
                <polylist count="204" material="Material1">
                    <input offset="0" semantic="VERTEX" source="#ID15"/>
                    <input offset="1" semantic="NORMAL" source="#ID11"/>
                    <input offset="2" semantic="TEXCOORD" source="#ID13" set="0"/>
                    <vcount>4 4 4 4 4 4 4 4 4 4 4 4 4 4 4 4 4 4 4 4 4 4 4 4 4 4 4 4 4 4 4 4 4 4 4 4 4 4 4 4 4 4 4 4 4 4 4 4 4 4 4 4 4 4 4 4 4 4 4 4 4 4 4 4 4 4 4 4 4 4 4 4 4 4 4 4 4 4 4 4 4 4 4 4 4 4 4 4 4 4 4 4 4 4 4 4 4 4 4 4 4 4 4 4 4 4 4 4 4 4 4 4 4 4 4 4 4 4 4 4 4 4 4 4 4 4 4 4 4 4 4 4 4 4 4 4 4 4 4 4 4 4 4 4 4 4 4 4 4 4 4 4 4 4 4 4 4 4 4 4 4 4 4 4 4 4 4 4 4 4 4 4 4 4 4 4 4 4 4 4 4 4 4 4 4 4 4 4 4 4 4 4 4 4 4 4 5 5 5 5 5 5 5 5</vcount>
                    <p>246 0 3 273 0 2 272 0 1 244 0 0 211 0 5 274 0 4 273 0 2 246 0 3 245 1 9 279 1 8 278 1 7 247 1 6 4 1 11 279 1 8 245 1 9 7 1 10 166 2 15 168 2 14 169 2 13 165 2 12 182 2 19 184 2 18 185 2 17 181 2 16 188 3 23 194 3 22 191 3 21 187 3 20 189 2 27 193 2 26 194 2 25 188 2 24 162 4 31 160 4 30 154 4 29 155 4 28 257 4 35 256 4 34 255 4 33 254 4 32 145 4 37 149 4 36 256 4 34 257 4 35 259 5 41 258 5 40 149 5 39 145 5 38 164 6 45 170 6 44 167 6 43 163 6 42 190 7 49 192 7 48 193 7 47 189 7 46 187 8 53 191 8 52 192 8 51 190 8 50 189 3 57 193 3 56 261 3 55 260 3 54 263 9 61 262 9 60 193 9 59 189 9 58 265 7 63 264 7 62 262 7 60 263 7 61 190 8 67 192 8 66 264 8 65 265 8 64 260 3 54 261 3 55 192 3 69 190 3 68 196 8 73 203 8 72 201 8 71 195 8 70 149 7 77 150 7 76 144 7 75 145 7 74 19 10 81 18 10 80 17 10 79 16 10 78 21 10 83 20 10 82 18 10 80 19 10 81 23 10 85 22 10 84 20 10 82 21 10 83 27 11 89 26 12 88 25 12 87 24 11 86 29 12 91 28 12 90 26 12 88 27 12 89 31 12 93 30 12 92 28 11 90 29 11 91 24 11 86 25 11 87 30 11 92 31 11 93 35 13 97 34 13 96 33 13 95 32 13 94 37 13 99 36 13 98 34 13 96 35 13 97 39 13 101 38 13 100 36 13 98 37 13 99 32 13 94 33 13 95 38 13 100 39 13 101 43 14 105 42 14 104 41 14 103 40 14 102 11 14 107 44 14 106 42 14 104 43 14 105 8 14 109 45 14 108 44 14 106 11 14 107 40 14 102 41 14 103 45 14 108 8 14 109 10 15 113 47 15 112 46 15 111 9 15 110 49 15 115 48 15 114 47 15 112 10 15 113 51 15 117 50 15 116 48 15 114 49 15 115 9 15 110 46 15 111 50 15 116 51 15 117 55 16 121 54 16 120 53 16 119 52 16 118 57 17 125 56 17 124 54 17 123 55 17 122 59 18 129 58 18 128 56 18 127 57 18 126 52 19 131 53 19 130 58 19 128 59 19 129 63 20 135 62 20 134 61 20 133 60 20 132 65 21 139 64 21 138 62 21 137 63 21 136 67 22 141 66 22 140 64 22 138 65 22 139 60 17 145 61 17 144 66 17 143 67 17 142 71 23 149 70 23 148 69 23 147 68 23 146 73 17 153 72 17 152 70 17 151 71 17 150 75 24 157 74 24 156 72 24 155 73 24 154 68 25 159 69 25 158 74 25 156 75 25 157 79 26 163 78 26 162 77 26 161 76 26 160 81 27 167 80 27 166 78 27 165 79 27 164 83 28 169 82 28 168 80 28 166 81 28 167 76 17 173 77 17 172 82 17 171 83 17 170 87 29 177 86 29 176 85 29 175 84 29 174 89 17 181 88 17 180 86 17 179 87 17 178 91 30 185 90 30 184 88 30 183 89 30 182 84 31 187 85 31 186 90 31 184 91 31 185 95 32 191 94 32 190 93 32 189 92 32 188 97 33 195 96 33 194 94 33 193 95 33 192 99 34 197 98 34 196 96 34 194 97 34 195 92 17 201 93 17 200 98 17 199 99 17 198 103 35 205 102 35 204 101 35 203 100 35 202 105 18 207 104 18 206 102 18 204 103 18 205 107 36 211 106 36 210 104 36 209 105 36 208 100 16 215 101 16 214 106 16 213 107 16 212 17 36 219 109 36 218 108 36 217 22 36 216 18 22 223 110 22 222 109 22 221 17 22 220 20 37 225 111 37 224 110 37 222 18 37 223 22 20 229 108 20 228 111 20 227 20 20 226 26 38 233 113 38 232 112 38 231 25 38 230 28 24 235 114 24 234 113 24 232 26 24 233 30 36 239 115 36 238 114 36 237 28 36 236 25 23 243 112 23 242 115 23 241 30 23 240 34 36 247 117 36 246 116 36 245 33 36 244 36 28 251 118 28 250 117 28 249 34 28 248 122 39 255 121 39 254 120 39 253 119 39 252 126 40 259 125 40 258 124 40 257 123 40 256 130 39 263 129 39 262 128 39 261 127 39 260 134 40 267 133 40 266 132 40 265 131 40 264 138 39 271 137 39 270 136 39 269 135 39 268 142 40 275 141 40 274 140 40 273 139 40 272 146 39 279 145 39 278 144 39 277 143 39 276 150 40 283 149 40 282 148 40 281 147 40 280 153 39 287 127 39 286 152 39 285 151 39 284 156 39 291 130 39 290 155 39 289 154 39 288 159 40 295 131 40 294 158 40 293 157 40 292 162 40 299 132 40 298 161 40 297 160 40 296 166 41 303 165 41 302 164 41 301 163 41 300 170 42 307 169 42 306 168 42 305 167 42 304 174 41 311 173 41 310 172 41 309 171 41 308 178 42 315 177 42 314 176 42 313 175 42 312 182 41 319 181 41 318 180 41 317 179 41 316 186 42 323 185 42 322 184 42 321 183 42 320 190 41 327 189 41 326 188 41 325 187 41 324 194 42 331 193 42 330 192 42 329 191 42 328 197 41 335 171 41 334 196 41 333 195 41 332 200 41 339 172 41 338 199 41 337 198 41 336 203 42 343 175 42 342 202 42 341 201 42 340 206 42 347 178 42 346 205 42 345 204 42 344 208 43 351 107 43 350 105 43 349 207 43 348 209 43 353 100 43 352 107 43 350 208 43 351 16 10 78 17 10 79 22 10 84 23 10 85 176 7 357 177 7 356 173 7 355 174 7 354 198 2 361 204 2 360 205 2 359 200 2 358 180 44 365 186 44 364 183 44 363 179 44 362 181 3 367 185 3 366 186 3 364 180 3 365 213 46 371 212 46 370 211 45 369 210 45 368 15 47 373 212 45 370 213 47 371 14 45 372 54 43 377 56 43 376 58 43 375 53 43 374 217 36 381 216 36 380 215 36 379 214 36 378 62 10 385 64 10 384 66 10 383 61 10 382 221 48 389 220 48 388 219 48 387 218 48 386 183 49 393 267 49 392 266 49 391 179 49 390 70 12 397 72 12 396 74 12 395 69 12 394 226 36 401 229 36 400 228 36 399 225 36 398 78 50 405 80 50 404 82 50 403 77 50 402 224 48 409 231 48 408 230 48 407 227 48 406 86 14 413 88 14 412 90 14 411 85 14 410 94 15 417 96 15 416 98 15 415 93 15 414 232 48 421 222 48 420 223 48 419 233 48 418 102 43 425 104 43 424 106 43 423 101 43 422 207 17 429 16 17 428 23 17 427 208 17 426 109 10 433 110 10 432 111 10 431 108 10 430 19 51 437 234 51 436 209 51 435 21 51 434 267 2 392 269 2 439 268 2 438 266 2 391 113 12 443 114 12 442 115 12 441 112 12 440 29 17 447 35 17 446 32 17 445 31 17 444 117 50 451 118 50 450 235 50 449 116 50 448 37 51 455 27 51 454 24 51 453 39 51 452 239 14 459 238 14 458 237 14 457 236 14 456 243 15 463 242 15 462 241 15 461 240 15 460 49 51 467 43 51 466 40 51 465 51 51 464 214 43 471 55 43 470 52 43 469 221 43 468 215 43 473 57 43 472 55 43 470 214 43 471 220 43 475 59 43 474 57 43 472 215 43 473 221 43 468 52 43 469 59 43 474 220 43 475 218 10 479 63 10 478 60 10 477 217 10 476 219 10 481 65 10 480 63 10 478 218 10 479 216 10 483 67 10 482 65 10 480 219 10 481 217 10 476 60 10 477 67 10 482 216 10 483 225 11 487 71 11 486 68 11 485 224 11 484 228 11 489 73 11 488 71 12 486 225 12 487 231 12 491 75 12 490 73 12 488 228 12 489 224 12 484 68 12 485 75 11 490 231 11 491 227 13 495 79 13 494 76 13 493 226 13 492 230 13 497 81 13 496 79 13 494 227 13 495 229 13 499 83 13 498 81 13 496 230 13 497 226 13 492 76 13 493 83 13 498 229 13 499 1 14 503 87 14 502 84 14 501 232 14 500 2 14 505 89 14 504 87 14 502 1 14 503 222 14 507 91 14 506 89 14 504 2 14 505 232 14 500 84 14 501 91 14 506 222 14 507 233 15 511 95 15 510 92 15 509 0 15 508 223 15 513 97 15 512 95 15 510 233 15 511 3 15 515 99 15 514 97 15 512 223 15 513 0 15 508 92 15 509 99 15 514 3 15 515 234 43 517 103 43 516 100 43 352 209 43 353 207 43 348 105 43 349 103 43 516 234 43 517 38 52 519 235 52 518 118 52 250 36 52 251 33 26 523 116 26 522 235 26 521 38 26 520 42 53 527 239 53 526 236 53 525 41 53 524 44 30 529 238 30 528 239 30 526 42 30 527 212 0 531 275 0 530 274 0 4 211 0 5 12 0 533 275 0 530 212 0 531 15 0 532 13 1 537 14 1 536 213 1 535 276 1 534 210 1 539 277 1 538 276 1 534 213 1 535 247 1 6 278 1 7 277 1 538 210 1 539 249 3 543 149 3 542 145 3 541 248 3 540 149 54 547 251 54 546 250 54 545 145 54 544 251 7 546 253 7 549 252 7 548 250 7 545 150 3 551 249 3 543 248 3 540 144 3 550 157 55 555 158 55 554 153 55 553 151 55 552 45 36 559 237 36 558 238 36 557 44 36 556 41 29 563 236 29 562 237 29 561 45 29 560 47 36 567 243 36 566 240 36 565 46 36 564 48 34 571 242 34 570 243 34 569 47 34 568 50 56 573 241 56 572 242 56 570 48 56 571 46 32 577 240 32 576 241 32 575 50 32 574 7 57 581 245 58 580 244 58 579 6 57 578 247 59 583 246 57 582 244 57 579 245 59 580 210 46 368 211 59 369 246 59 582 247 46 583 269 2 439 193 2 585 189 2 584 268 2 438 125 4 589 126 4 588 120 4 587 121 4 586 193 44 593 271 44 592 270 44 591 189 44 590 129 7 597 133 7 596 134 7 595 128 7 594 271 8 592 183 8 599 179 8 598 270 8 591 6 0 601 244 0 0 272 0 1 5 0 600 139 5 605 140 5 604 138 5 603 135 5 602 140 3 604 141 3 607 137 3 606 138 3 603 141 4 611 142 4 610 136 4 609 137 4 608 147 3 615 148 3 614 146 3 613 143 3 612 148 4 619 149 4 618 145 4 617 146 4 616 255 40 624 256 40 623 149 40 622 258 40 621 139 40 620 150 40 629 253 40 628 251 40 627 149 40 626 249 40 625 266 41 666 268 41 665 189 41 664 270 41 663 179 41 662 259 39 675 145 39 674 257 39 673 254 39 672 135 39 671 193 42 680 262 42 679 264 42 678 192 42 677 261 42 676 145 39 685 250 39 684 252 39 683 144 39 682 248 39 681 271 42 690 193 42 689 269 42 688 267 42 687 183 42 686 190 41 695 265 41 694 263 41 693 189 41 692 260 41 691</p>
                </polylist>
                <polygons count="6" material="Material2">
                    <input offset="0" semantic="VERTEX" source="#ID15"/>
                    <input offset="1" semantic="NORMAL" source="#ID11"/>
                    <input offset="2" semantic="TEXCOORD" source="#ID13" set="0"/>
                    <ph>
                        <p>19 7 437 16 7 631 207 7 630 234 7 436</p>
                        <h>39 7 632 32 7 633 31 7 634 24 7 635</h>
                    </ph>
                    <ph>
                        <p>3 36 639 2 36 638 1 36 637 0 36 636</p>
                        <h>4 36 640 5 36 641 6 36 642 7 36 643</h>
                    </ph>
                    <ph>
                        <p>11 17 647 10 17 646 9 17 645 8 17 644</p>
                        <h>12 17 648 13 17 649 14 17 650 15 17 651</h>
                    </ph>
                    <ph>
                        <p>37 7 455 35 7 653 29 7 652 27 7 454</p>
                        <h>51 7 464 9 7 654 8 7 655 40 7 465</h>
                    </ph>
                    <ph>
                        <p>215 7 657 216 7 656 219 7 387 220 7 388</p>
                        <h>227 7 658 224 7 659 225 7 660 226 7 661</h>
                    </ph>
                    <ph>
                        <p>228 7 668 229 7 667 230 7 407 231 7 408</p>
                        <h>233 7 418 232 7 421 1 7 669 0 7 670</h>
                    </ph>
                </polygons>
            </mesh>
        </geometry>
    </library_geometries>
    <library_visual_scenes>
        <visual_scene id="ID6">
            <node id="ID7" name="gate">
                <translate sid="translate">0 3.82194 0.168513</translate>
                <rotate sid="rotateY">0 1 0 -0</rotate>
                <rotate sid="rotateX">1 0 0 0</rotate>
                <rotate sid="rotateZ">0 0 1 -0</rotate>
                <scale sid="scale">1 1 1</scale>
                <instance_geometry url="#ID8">
                    <bind_material>
                        <technique_common>
                            <instance_material symbol="Material1" target="#ID1">
                                <bind_vertex_input semantic="UVSET0" input_semantic="TEXCOORD" input_set="0"/>
                            </instance_material>
                            <instance_material symbol="Material2" target="#ID1">
                                <bind_vertex_input semantic="UVSET0" input_semantic="TEXCOORD" input_set="0"/>
                            </instance_material>
                        </technique_common>
                    </bind_material>
                </instance_geometry>
            </node>
        </visual_scene>
    </library_visual_scenes>
    <scene>
        <instance_visual_scene url="#ID6"/>
    </scene>
</COLLADA>
