<?xml version="1.0" encoding="utf-8"?>
<COLLADA xmlns="http://www.collada.org/2005/11/COLLADASchema" version="1.4.1">
  <asset><contributor><author></author><authoring_tool>FBX COLLADA exporter</authoring_tool><comments></comments></contributor><created>2018-03-05T11:28:56Z</created><keywords></keywords><modified>2018-03-05T11:28:56Z</modified><revision></revision><subject></subject><title></title><unit meter="1.000000" name="centimeter"></unit><up_axis>Z_UP</up_axis></asset>
  <library_images>
    <image id="Map #1-image" name="Map #1"><init_from>file://D:\terrain_source\gameplay_artwork\3D\Levels\bus_safari_tour\maps\animals_diff.dds</init_from></image>
  </library_images>
  <library_materials>
    <material id="animals" name="animals">
      <instance_effect url="#animals-fx"/>
    </material>
  </library_materials>
  <library_effects>
    <effect id="animals-fx" name="animals">
      <profile_COMMON>
        <technique sid="standard">
          <phong>
            <emission>
              <color sid="emission">0.000000  0.000000 0.000000 1.000000</color>
            </emission>
            <ambient>
              <color sid="ambient">0.588000  0.588000 0.588000 1.000000</color>
            </ambient>
            <diffuse>
              <texture texture="Map #1-image" texcoord="CHANNEL0">
                <extra>
                  <technique profile="MAYA">
                    <wrapU sid="wrapU0">TRUE</wrapU>
                    <wrapV sid="wrapV0">TRUE</wrapV>
                    <blend_mode>ADD</blend_mode>
                  </technique>
                </extra>
              </texture>
            </diffuse>
            <specular>
              <color sid="specular">0.000000  0.000000 0.000000 1.000000</color>
            </specular>
            <shininess>
              <float sid="shininess">2.000000</float>
            </shininess>
            <reflective>
              <color sid="reflective">0.000000  0.000000 0.000000 1.000000</color>
            </reflective>
            <reflectivity>
              <float sid="reflectivity">1.000000</float>
            </reflectivity>
            <transparent opaque="RGB_ZERO">
              <color sid="transparent">1.000000  1.000000 1.000000 1.000000</color>
            </transparent>
            <transparency>
              <float sid="transparency">0.000000</float>
            </transparency>
          </phong>
        </technique>
      </profile_COMMON>
    </effect>
  </library_effects>
  <library_geometries>
    <geometry id="gorilla_a40-lib" name="gorilla_a40Mesh">
      <mesh>
        <source id="gorilla_a40-POSITION">
          <float_array id="gorilla_a40-POSITION-array" count="90">
0.821163 0.021584 0.000000
0.940348 0.021584 0.244920
0.750486 0.021584 0.434956
0.711505 0.021584 0.732192
0.599432 0.021584 1.000192
0.433759 0.021584 1.471665
0.185250 0.021584 1.521574
0.053687 0.021584 1.977175
-0.267913 0.021584 1.921137
-0.374797 0.021584 1.705428
-0.423840 0.021584 1.477719
-0.604131 0.021584 1.463101
-0.891622 0.021584 0.990447
-0.940349 0.021584 0.098738
-0.808786 0.021584 0.000000
0.821164 -0.021584 0.000000
0.940349 -0.021584 0.244920
0.750487 -0.021584 0.434956
0.711505 -0.021584 0.732192
0.599432 -0.021584 1.000192
0.433759 -0.021584 1.471665
0.185250 -0.021584 1.521574
0.053687 -0.021584 1.977176
-0.267913 -0.021584 1.921137
-0.374797 -0.021584 1.705428
-0.423841 -0.021584 1.477720
-0.604131 -0.021584 1.463101
-0.891622 -0.021584 0.990447
-0.940350 -0.021584 0.098738
-0.808786 -0.021584 0.000000
</float_array>
          <technique_common>
            <accessor source="#gorilla_a40-POSITION-array" count="30" stride="3">
              <param name="X" type="float"/>
              <param name="Y" type="float"/>
              <param name="Z" type="float"/>
            </accessor>
          </technique_common>
        </source>
        <source id="gorilla_a40-Normal0">
          <float_array id="gorilla_a40-Normal0-array" count="342">
0.000000 1.000000 -0.000000
0.000000 1.000000 -0.000000
0.000000 1.000000 -0.000000
0.000000 1.000000 -0.000000
0.000000 1.000000 -0.000000
0.000000 1.000000 -0.000000
0.000000 1.000000 -0.000000
0.000000 1.000000 -0.000000
0.000000 1.000000 -0.000000
0.000000 1.000000 -0.000000
0.000000 1.000000 -0.000000
0.000000 1.000000 -0.000000
0.000000 1.000000 -0.000000
0.000000 1.000000 -0.000000
0.000000 1.000000 -0.000000
0.000000 1.000000 -0.000000
0.000000 1.000000 -0.000000
0.000000 1.000000 -0.000000
0.000000 1.000000 -0.000000
0.000000 1.000000 -0.000000
0.000000 1.000000 -0.000000
0.000000 1.000000 -0.000000
0.000000 1.000000 -0.000000
0.000000 1.000000 -0.000000
0.000000 1.000000 -0.000000
0.000000 1.000000 -0.000000
0.000000 1.000000 -0.000000
-0.000000 -1.000000 0.000000
-0.000000 -1.000000 0.000000
-0.000000 -1.000000 0.000000
-0.000000 -1.000000 0.000000
-0.000000 -1.000000 0.000000
-0.000000 -1.000000 0.000000
-0.000000 -1.000000 0.000000
-0.000000 -1.000000 0.000000
-0.000000 -1.000000 0.000000
-0.000000 -1.000000 0.000000
-0.000000 -1.000000 0.000000
-0.000000 -1.000000 0.000000
-0.000000 -1.000000 0.000000
-0.000000 -1.000000 0.000000
-0.000000 -1.000000 0.000000
-0.000000 -1.000000 0.000000
-0.000000 -1.000000 0.000000
-0.000000 -1.000000 0.000000
-0.000000 -1.000000 0.000000
-0.000000 -1.000000 0.000000
-0.000000 -1.000000 0.000000
-0.000000 -1.000000 0.000000
-0.000000 -1.000000 0.000000
-0.000000 -1.000000 0.000000
-0.000000 -1.000000 0.000000
-0.000000 -1.000000 0.000000
-0.000000 -1.000000 0.000000
0.707431 0.000002 0.706782
0.707431 0.000002 0.706782
0.707431 0.000002 0.706782
0.707431 0.000002 0.706782
0.899185 0.000010 -0.437569
0.899185 0.000010 -0.437569
0.899185 0.000010 -0.437569
0.899185 0.000010 -0.437569
0.000000 0.000000 -1.000000
0.000000 0.000000 -1.000000
0.000000 0.000000 -1.000000
0.000000 0.000000 -1.000000
-0.977583 0.000005 0.210552
-0.977583 0.000005 0.210552
-0.977583 0.000005 0.210552
-0.977583 0.000005 0.210552
0.960745 0.000004 0.277433
0.960745 0.000004 0.277433
0.960745 0.000004 0.277433
0.960745 0.000004 0.277433
-0.896035 0.000005 0.443983
-0.896035 0.000005 0.443983
-0.896035 0.000005 0.443983
-0.896035 0.000005 0.443983
-0.171661 0.000008 0.985156
-0.171661 0.000008 0.985156
-0.171661 0.000008 0.985156
-0.171661 0.000008 0.985156
0.943447 0.000005 0.331522
0.943447 0.000005 0.331522
0.943447 0.000005 0.331522
0.943447 0.000005 0.331522
-0.080817 0.000005 0.996729
-0.080817 0.000005 0.996729
-0.080817 0.000005 0.996729
-0.080817 0.000005 0.996729
0.196903 0.000005 0.980423
0.196903 0.000005 0.980423
0.196903 0.000005 0.980423
0.196903 0.000005 0.980423
-0.854369 0.000005 0.519668
-0.854369 0.000005 0.519668
-0.854368 0.000005 0.519668
-0.854369 0.000005 0.519668
-0.998510 0.000008 0.054563
-0.998510 0.000008 0.054563
-0.998510 0.000008 0.054563
-0.998510 0.000008 0.054563
0.922580 0.000006 0.385806
0.922580 0.000006 0.385806
0.922580 0.000006 0.385806
0.922580 0.000006 0.385806
0.991510 0.000007 0.130034
0.991509 0.000007 0.130034
0.991510 0.000007 0.130034
0.991510 0.000007 0.130034
-0.600253 0.000009 -0.799810
-0.600253 0.000009 -0.799810
-0.600253 0.000009 -0.799810
-0.600253 0.000009 -0.799810
</float_array>
          <technique_common>
            <accessor source="#gorilla_a40-Normal0-array" count="114" stride="3">
              <param name="X" type="float"/>
              <param name="Y" type="float"/>
              <param name="Z" type="float"/>
            </accessor>
          </technique_common>
        </source>
        <source id="gorilla_a40-UV0">
          <float_array id="gorilla_a40-UV0-array" count="124">
0.610756 0.066792
0.588536 0.112452
0.623932 0.147880
0.631199 0.203294
0.652093 0.253257
0.682979 0.341153
0.729309 0.350458
0.753836 0.435396
0.813792 0.424948
0.833718 0.384733
0.842861 0.342282
0.876473 0.339557
0.930070 0.251440
0.939154 0.085199
0.914627 0.066792
0.598697 0.543148
0.582799 0.575818
0.608125 0.601166
0.613324 0.640814
0.628273 0.676562
0.650372 0.739451
0.683520 0.746109
0.701069 0.806881
0.743967 0.799406
0.758224 0.770633
0.764766 0.740259
0.788815 0.738309
0.827163 0.675263
0.833662 0.556319
0.816113 0.543148
0.264190 0.002521
0.301230 0.002521
0.301230 0.008474
0.264190 0.008474
0.226631 0.002521
0.226631 0.008474
0.001876 0.002521
0.001876 0.008474
0.630090 0.002521
0.662210 0.002521
0.662210 0.008474
0.630090 0.008474
0.486485 0.002521
0.551877 0.002521
0.551877 0.008474
0.486485 0.008474
0.596893 0.002521
0.596893 0.008474
0.382622 0.002521
0.451532 0.002521
0.451532 0.008474
0.382622 0.008474
0.687151 0.002521
0.687151 0.008474
0.763434 0.002521
0.763434 0.008474
0.886574 0.002521
0.886574 0.008474
0.342567 0.002521
0.342567 0.008474
0.909255 0.002521
0.909255 0.008474
</float_array>
          <technique_common>
            <accessor source="#gorilla_a40-UV0-array" count="62" stride="2">
              <param name="S" type="float"/>
              <param name="T" type="float"/>
            </accessor>
          </technique_common>
        </source>
        <vertices id="gorilla_a40-VERTEX">
          <input semantic="POSITION" source="#gorilla_a40-POSITION"/>
        </vertices>
        <polylist count="29" material="animals"><input semantic="VERTEX" offset="0" source="#gorilla_a40-VERTEX"/><input semantic="NORMAL" offset="1" source="#gorilla_a40-Normal0"/><input semantic="TEXCOORD" offset="2" set="0" source="#gorilla_a40-UV0"/><vcount>4 4 3 3 5 4 4 4 4 3 3 5 4 4 4 4 4 4 4 4 4 4 4 4 4 4 4 4 4 </vcount><p> 2 0 2 1 1 1 0 2 0 14 3 14 6 4 6 10 5 10 9 6 9 7 7 7 9 8 9 8 9 8 7 10 7 12 11 12 5 12 5 4 13 4 11 14 11 10 15 10 6 16 6 5 17 5 12 18 12 3 19 3 13 20 13 12 21 12 4 22 4 3 23 3 2 24 2 14 25 14 13 26 13 15 27 15 16 28 16 17 29 17 29 30 29 24 31 24 25 32 25 21 33 21 22 34 22 22 35 22 23 36 23 24 37 24 19 38 19 20 39 20 27 40 27 26 41 26 27 42 27 20 43 20 21 44 21 25 45 25 27 46 27 28 47 28 18 48 18 19 49 19 29 50 29 17 51 17 18 52 18 28 53 28 1 54 30 2 55 31 17 56 32 16 57 33 0 58 34 1 59 30 16 60 33 15 61 35 14 62 36 0 63 34 15 64 35 29 65 37 9 66 38 10 67 39 25 68 40 24 69 41 6 70 42 7 71 43 22 72 44 21 73 45 8 74 46 9 75 38 24 76 41 23 77 47 7 78 43 8 79 46 23 80 47 22 81 44 4 82 48 5 83 49 20 84 50 19 85 51 10 86 39 11 87 52 26 88 53 25 89 40 5 90 49 6 91 42 21 92 45 20 93 50 11 94 52 12 95 54 27 96 55 26 97 53 12 98 54 13 99 56 28 100 57 27 101 55 3 102 58 4 103 48 19 104 51 18 105 59 2 106 31 3 107 58 18 108 59 17 109 32 13 110 56 14 111 60 29 112 61 28 113 57</p></polylist>
      </mesh>
    </geometry>
  </library_geometries>
  <library_visual_scenes>
    <visual_scene id="gorilla" name="gorilla">
      <node name="base00" id="base00" sid="base00"><matrix sid="matrix">1.000000 0.000000 0.000000 0.000000 0.000000 1.000000 0.000000 0.000000 0.000000 0.000000 1.000000 0.000000 0.000000 0.000000 0.000000 1.000000</matrix><extra><technique profile="FCOLLADA"><visibility>1.000000</visibility></technique></extra><node name="collision-1" id="collision-1" sid="collision-1"><matrix sid="matrix">1.000000 0.000000 0.000000 0.000000 0.000000 1.000000 0.000000 0.000000 0.000000 0.000000 1.000000 0.000000 0.000000 0.000000 0.000000 1.000000</matrix><extra><technique profile="FCOLLADA"><visibility>1.000000</visibility></technique></extra></node><node name="start01" id="start01" sid="start01"><matrix sid="matrix">1.000000 0.000000 0.000000 0.000000 0.000000 1.000000 0.000000 0.000000 0.000000 0.000000 1.000000 0.000000 0.000000 0.000000 0.000000 1.000000</matrix><extra><technique profile="FCOLLADA"><visibility>1.000000</visibility></technique></extra><node name="gorilla_a40" id="gorilla_a40" sid="gorilla_a40"><matrix sid="matrix">1.000000 0.000000 0.000000 0.000000 0.000000 1.000000 0.000000 0.000000 0.000000 0.000000 1.000000 0.000000 0.000000 0.000000 0.000000 1.000000</matrix><instance_geometry url="#gorilla_a40-lib"><bind_material><technique_common><instance_material symbol="animals" target="#animals"/></technique_common></bind_material></instance_geometry><extra><technique profile="FCOLLADA"><visibility>1.000000</visibility></technique></extra></node></node><node name="nulldetail25" id="nulldetail25" sid="nulldetail25"><matrix sid="matrix">1.000000 0.000000 0.000000 0.000000 0.000000 1.000000 0.000000 0.000000 0.000000 0.000000 1.000000 0.000000 0.000000 0.000000 0.000000 1.000000</matrix><extra><technique profile="FCOLLADA"><visibility>1.000000</visibility></technique></extra></node></node>
      <extra><technique profile="MAX3D"><frame_rate>30.000000</frame_rate></technique><technique profile="FCOLLADA"><start_time>0.000000</start_time><end_time>3.333333</end_time></technique></extra>
    </visual_scene>
  </library_visual_scenes>
  <scene>
    <instance_visual_scene url="#gorilla"></instance_visual_scene>
  </scene>
</COLLADA>
