<?xml version="1.0" encoding="utf-8"?>
<COLLADA xmlns="http://www.collada.org/2005/11/COLLADASchema" version="1.4.1">
  <asset>
    <contributor>
      <author>Blender User</author>
      <authoring_tool>Blender 2.76.0 commit date:2015-11-03, commit time:10:56, hash:f337fea</authoring_tool>
    </contributor>
    <created>2016-01-04T13:55:12</created>
    <modified>2016-01-04T13:55:12</modified>
    <unit name="meter" meter="1"/>
    <up_axis>Z_UP</up_axis>
  </asset>
  <library_images/>
  <library_effects>
    <effect id="container_01_a_containers_01_a-effect">
      <profile_COMMON>
        <technique sid="common">
          <phong>
            <emission>
              <color sid="emission">0 0 0 1</color>
            </emission>
            <ambient>
              <color sid="ambient">0 0 0 1</color>
            </ambient>
            <diffuse>
              <color sid="diffuse">0.64 0.64 0.64 1</color>
            </diffuse>
            <specular>
              <color sid="specular">0.5 0.5 0.5 1</color>
            </specular>
            <shininess>
              <float sid="shininess">50</float>
            </shininess>
            <index_of_refraction>
              <float sid="index_of_refraction">1</float>
            </index_of_refraction>
          </phong>
        </technique>
      </profile_COMMON>
    </effect>
  </library_effects>
  <library_materials>
    <material id="container_01_a_containers_01_a-material" name="container_01_a_containers_01_a">
      <instance_effect url="#container_01_a_containers_01_a-effect"/>
    </material>
  </library_materials>
  <library_geometries>
    <geometry id="Cube-mesh" name="Cube">
      <mesh>
        <source id="Cube-mesh-positions">
          <float_array id="Cube-mesh-positions-array" count="162">1.2 1 0 1.2 -1 0 -0.9000001 -0.9999998 0 -0.8999996 1 0 1.200001 0.9999995 5 1.199999 -1.000001 5 -0.9000003 -0.9999997 5 -0.8999999 1 5 0.3333334 1 0 -0.3333331 1 0 0.3333333 -1 0 -0.3333334 -0.9999999 0 0.3333336 0.9999997 5 -0.3333331 0.9999998 5 0.3333327 -1 5 -0.3333338 -1 5 0.3333336 0.9999997 10 -0.3333331 0.9999998 10 0.3333327 -1 10 -0.3333338 -1 10 0.1111112 1 0 -0.1111109 1 0 0.1111111 -1 0 -0.1111112 -0.9999999 0 0.1111114 0.9999997 5 -0.1111109 0.9999998 5 0.1111105 -1 5 -0.1111116 -1 5 0.1111114 0.9999997 10 -0.1111109 0.9999998 10 0.1111105 -1 10 -0.1111116 -1 10 0.1111114 0.9999997 12 -0.1111109 0.9999998 12 0.1111105 -1 12 -0.1111116 -1 12 1.2 0 -3 -0.8999999 2.98023e-7 -3 1.333333 -5.36442e-7 5 -1 1.78814e-7 5 0.3333331 -2.98023e-7 5 -0.3333334 0 5 0.3333334 0 -3 -0.3333333 1.19209e-7 -3 0.3333331 -2.98023e-7 10 -0.3333334 0 10 0.1111109 -1.78814e-7 10 -0.1111112 -1.19209e-7 10 0.1111111 0 -3 -0.111111 1.19209e-7 -3 0.1111109 -1.78814e-7 12 -0.1111112 -1.19209e-7 12 1.333333 -2.36967e-7 -0.0243535 -1 2.53589e-7 -0.01806926</float_array>
          <technique_common>
            <accessor source="#Cube-mesh-positions-array" count="54" stride="3">
              <param name="X" type="float"/>
              <param name="Y" type="float"/>
              <param name="Z" type="float"/>
            </accessor>
          </technique_common>
        </source>
        <source id="Cube-mesh-normals">
          <float_array id="Cube-mesh-normals-array" count="243">-1.33049e-7 -0.9486833 -0.3162279 0 0 1 0.9912279 -0.132164 0 -5.25923e-7 -1 0 -0.9950373 0.09950411 0 2.10369e-7 1 0 2.06324e-7 1 0 0 1 0 -4.12647e-7 -1 0 -2.68221e-7 -1 0 8.25295e-7 0 1 2.68221e-7 1 0 0 -0.9486834 -0.3162277 0 -0.9486833 -0.3162277 5.36442e-6 0 1 1 -4.76837e-7 0 -1 3.33786e-7 0 -5.36442e-7 -1 0 -2.68221e-7 -1 0 2.14577e-6 0 1 1 -4.17233e-7 0 0 -0.9486833 -0.3162277 2.68221e-7 1 0 -5.36442e-7 -1 0 -5.36442e-7 -1 0 0 1 0 5.36442e-7 1 1.3411e-7 -4.29154e-6 0 1 -1 3.72529e-7 0 -5.36442e-7 -1 0 -2.14577e-6 0 1 0 0.9486834 -0.3162278 0 0.9486834 -0.3162279 1 -4.02331e-7 0 2.14577e-6 0 1 1 -3.8147e-7 0 5.36442e-6 0 1 0 0.9486833 -0.3162277 0 0.9486834 -0.3162278 -1.10039e-6 0 1 -0.9950372 -0.09950351 0 0.991228 0.132163 0 7.15256e-7 0 1 1.99574e-7 0.9486833 -0.3162279 0.9901099 -0.1330953 -0.04436504 0.9901098 0.1330952 -0.04436504 -0.9944239 0.1000453 -0.03334832 -0.9944239 -0.100045 -0.03334832 -1.33049e-7 -0.9486834 -0.3162277 0.9912279 -0.1321642 0 0 -1 0 -0.9950373 0.09950393 0 3.15554e-7 1 0 2.06324e-7 1 0 2.68221e-7 1 0 0 -1 0 0 -1 0 -1.73987e-7 -0.9486834 -0.3162278 0 -0.9486834 -0.3162278 -8.58307e-6 0 1 1 -4.29153e-7 0 -1 2.86102e-7 0 -2.68221e-7 -1 0 0 -0.9486834 -0.3162279 -6.78551e-7 -0.9486834 -0.3162278 0 -1 0 -2.68221e-7 -1 0 2.68221e-7 1 0 2.68221e-7 1 0 -1 3.72529e-7 0 1.01783e-6 0.9486833 -0.3162279 0 0.9486834 -0.3162277 1 -4.17232e-7 0 -1 3.33786e-7 0 1 -4.76837e-7 0 -8.58307e-6 0 1 1.73987e-7 0.9486834 -0.3162278 -0.9950372 -0.09950357 0 0.9912279 0.1321641 0 -1.68295e-6 0 1 1.33049e-7 0.9486834 -0.3162277</float_array>
          <technique_common>
            <accessor source="#Cube-mesh-normals-array" count="81" stride="3">
              <param name="X" type="float"/>
              <param name="Y" type="float"/>
              <param name="Z" type="float"/>
            </accessor>
          </technique_common>
        </source>
        <source id="Cube-mesh-map-0">
          <float_array id="Cube-mesh-map-0-array" count="624">0.7902098 0.6944445 0.7902098 0.7416667 0.6853147 0.75 0.9300699 0.6666667 0.8601399 0.6666668 0.8706294 0.5833334 0.4755245 0.8333334 0.3706294 0.8333334 0.3706294 0.4166667 0.2447553 0.4166667 0.1853148 0.4166666 0.1853147 0 0.4755244 0 0.5804196 0 0.5804197 0.4166666 0.05944067 0.9999999 1.6881e-7 0.9999999 0 0.5833333 0.1853147 0.9999998 0.1293707 0.9999998 0.1293706 0.5833333 0.08275067 0.9999998 0.05944067 0.9999999 0.05944049 0.5833333 0.3706294 0.4166666 0.3146854 0.4166667 0.3146853 0 0.2680653 0.4166667 0.2447553 0.4166667 0.2447552 0 0.7902098 0.6666668 0.7902098 0.5833334 0.8461538 0.5833334 0.05944049 0.5833333 0.05944037 0.1666666 0.08275038 0.1666666 0.7902098 0.5944445 0.7902098 0.638889 0.6853147 0.638889 0.7902098 0.675926 0.7902098 0.6944445 0.6853147 0.6944445 0.9533799 0.6666667 0.9533799 0.5833334 0.9766899 0.5833334 1 0 1 0.4166667 0.8951049 0.4166666 0.7902097 0 0.7902098 0.4166667 0.6853147 0.4166667 0.3146854 0.4166667 0.3146855 0.8333334 0.2913755 0.8333334 0.2680653 0.4166667 0.2680655 0.8333334 0.2447555 0.8333333 0.2913753 0.4166667 0.2913755 0.8333334 0.2680655 0.8333334 0.9533799 0.6666667 0.9533799 0.7500001 0.9300699 0.7500001 0.9999999 0.5833334 0.7902098 0.5833334 0.7902098 0.5000001 0.7902098 0.638889 0.7902098 0.6574075 0.6853147 0.6574075 0.7902098 0.6574075 0.7902098 0.675926 0.6853147 0.675926 0.1060606 0.5833333 0.1060604 0.1666666 0.1293704 0.1666666 0.08275055 0.5833333 0.08275038 0.1666666 0.1060604 0.1666666 0.3146854 0.4166667 0.2913753 0.4166667 0.2913753 0 0.2913753 0.4166667 0.2680653 0.4166667 0.2680653 0 0.1293707 0.9999998 0.1060607 0.9999998 0.1060606 0.5833333 0.1060607 0.9999998 0.08275067 0.9999998 0.08275055 0.5833333 1 0.6666667 1 0.75 0.97669 0.75 0.7902097 0.5833333 0.5804196 0.5833333 0.5804196 0.5 0.2913755 0.8333334 0.2913755 1 0.2680655 1 0.08275038 0.1666666 0.08275032 0 0.1060603 0 0.7902097 0.5 0.5804196 0.5 0.5804196 0.4166667 1 0.5833334 1 0.6666667 0.97669 0.6666667 0.6853147 0.6574075 0.6853147 0.675926 0.5804197 0.675926 0.6853147 0.638889 0.6853147 0.6574075 0.5804197 0.6574075 0.9999999 0.5000001 0.7902098 0.5000001 0.7902098 0.4166668 0.9533799 0.5833334 0.9533799 0.6666667 0.9300699 0.6666668 0.6853147 0 0.6853147 0.4166667 0.5804197 0.4166666 0.8951048 0 0.8951049 0.4166666 0.7902098 0.4166666 0.9533799 0.75 0.9533799 0.6666667 0.9766899 0.6666668 0.6853147 0.675926 0.6853147 0.6944445 0.5804197 0.6944445 0.5804197 0.5944445 0.6853147 0.5833334 0.6853147 0.638889 0.8461539 0.7500001 0.7902098 0.7500001 0.7902098 0.6666668 0.3706294 0.4166667 0.3706294 0 0.4755244 0 0.5804196 0.4166667 0.5804196 0.8333334 0.4755245 0.8333334 0.8706294 0.75 0.8601399 0.6666668 0.9300699 0.6666667 0.5804197 0.6944445 0.6853147 0.6944445 0.6853147 0.75 0.4755245 0.4166667 0.4755245 0.5716483 0.3706294 0.4166667 0.4755245 0.4166667 0.5804196 0.4166667 0.4755245 0.5716483 0.4755246 0.4166667 0.4755246 0.2613578 0.5804197 0.4166666 0.4755246 0.4166667 0.3706294 0.4166667 0.4755246 0.2613578 0.6853147 0.6944445 0.7902098 0.6944445 0.6853147 0.75 0.9300699 0.5833334 0.9300699 0.6666667 0.8706294 0.5833334 0.4755245 0.5716483 0.4755245 0.8333334 0.3706294 0.4166667 0.2447552 0 0.2447553 0.4166667 0.1853147 0 0.4755246 0.2613578 0.4755244 0 0.5804197 0.4166666 0.05944049 0.5833333 0.05944067 0.9999999 0 0.5833333 0.1853146 0.5833333 0.1853147 0.9999998 0.1293706 0.5833333 0.08275055 0.5833333 0.08275067 0.9999998 0.05944049 0.5833333 0.3706294 0 0.3706294 0.4166666 0.3146853 0 0.2680653 0 0.2680653 0.4166667 0.2447552 0 0.8601399 0.6666668 0.7902098 0.6666668 0.8461538 0.5833334 0.08275055 0.5833333 0.05944049 0.5833333 0.08275038 0.1666666 0.6853147 0.5833334 0.7902098 0.5944445 0.6853147 0.638889 0.6853147 0.675926 0.7902098 0.675926 0.6853147 0.6944445 0.9766899 0.6666668 0.9533799 0.6666667 0.9766899 0.5833334 0.8951048 0 1 0 0.8951049 0.4166666 0.6853147 0 0.7902097 0 0.6853147 0.4166667 0.2913753 0.4166667 0.3146854 0.4166667 0.2913755 0.8333334 0.2447553 0.4166667 0.2680653 0.4166667 0.2447555 0.8333333 0.2680653 0.4166667 0.2913753 0.4166667 0.2680655 0.8333334 0.9300699 0.6666668 0.9533799 0.6666667 0.9300699 0.7500001 0.9999999 0.5000001 0.9999999 0.5833334 0.7902098 0.5000001 0.6853147 0.638889 0.7902098 0.638889 0.6853147 0.6574075 0.6853147 0.6574075 0.7902098 0.6574075 0.6853147 0.675926 0.1293706 0.5833333 0.1060606 0.5833333 0.1293704 0.1666666 0.1060606 0.5833333 0.08275055 0.5833333 0.1060604 0.1666666 0.3146853 0 0.3146854 0.4166667 0.2913753 0 0.2913753 0 0.2913753 0.4166667 0.2680653 0 0.1293706 0.5833333 0.1293707 0.9999998 0.1060606 0.5833333 0.1060606 0.5833333 0.1060607 0.9999998 0.08275055 0.5833333 0.97669 0.6666667 1 0.6666667 0.97669 0.75 0.7902097 0.5 0.7902097 0.5833333 0.5804196 0.5 0.2680655 0.8333334 0.2913755 0.8333334 0.2680655 1 0.1060604 0.1666666 0.08275038 0.1666666 0.1060603 0 0.7902097 0.4166667 0.7902097 0.5 0.5804196 0.4166667 0.97669 0.5833334 1 0.5833334 0.97669 0.6666667 0.5804197 0.6574075 0.6853147 0.6574075 0.5804197 0.675926 0.5804197 0.638889 0.6853147 0.638889 0.5804197 0.6574075 0.9999999 0.4166667 0.9999999 0.5000001 0.7902098 0.4166668 0.9300699 0.5833334 0.9533799 0.5833334 0.9300699 0.6666668 0.5804196 0 0.6853147 0 0.5804197 0.4166666 0.7902098 0 0.8951048 0 0.7902098 0.4166666 0.97669 0.75 0.9533799 0.75 0.9766899 0.6666668 0.5804197 0.675926 0.6853147 0.675926 0.5804197 0.6944445 0.5804197 0.638889 0.5804197 0.5944445 0.6853147 0.638889 0.8601399 0.6666668 0.8461539 0.7500001 0.7902098 0.6666668 0.4755246 0.2613578 0.3706294 0.4166667 0.4755244 0 0.4755245 0.5716483 0.5804196 0.4166667 0.4755245 0.8333334 0.9300699 0.75 0.8706294 0.75 0.9300699 0.6666667 0.5804197 0.7416667 0.5804197 0.6944445 0.6853147 0.75</float_array>
          <technique_common>
            <accessor source="#Cube-mesh-map-0-array" count="312" stride="2">
              <param name="S" type="float"/>
              <param name="T" type="float"/>
            </accessor>
          </technique_common>
        </source>
        <vertices id="Cube-mesh-vertices">
          <input semantic="POSITION" source="#Cube-mesh-positions"/>
        </vertices>
        <polylist material="container_01_a_containers_01_a-material" count="104">
          <input semantic="VERTEX" source="#Cube-mesh-vertices" offset="0"/>
          <input semantic="NORMAL" source="#Cube-mesh-normals" offset="1"/>
          <input semantic="TEXCOORD" source="#Cube-mesh-map-0" offset="2" set="0"/>
          <vcount>3 3 3 3 3 3 3 3 3 3 3 3 3 3 3 3 3 3 3 3 3 3 3 3 3 3 3 3 3 3 3 3 3 3 3 3 3 3 3 3 3 3 3 3 3 3 3 3 3 3 3 3 3 3 3 3 3 3 3 3 3 3 3 3 3 3 3 3 3 3 3 3 3 3 3 3 3 3 3 3 3 3 3 3 3 3 3 3 3 3 3 3 3 3 3 3 3 3 3 3 3 3 3 3 </vcount>
          <p>11 0 0 2 0 1 37 0 2 41 1 3 39 1 4 6 1 5 38 2 6 5 2 7 1 2 8 15 3 9 6 3 10 2 3 11 39 4 12 7 4 13 3 4 14 9 5 15 3 5 16 7 5 17 0 6 18 8 6 19 12 6 20 21 7 21 9 7 22 13 7 23 5 8 24 14 8 25 10 8 26 27 9 27 15 9 28 11 9 29 40 10 30 14 10 31 5 10 32 13 11 33 17 11 34 29 11 35 1 12 36 10 12 37 42 12 38 23 13 39 11 13 40 43 13 41 45 14 42 19 14 43 31 14 44 12 15 45 16 15 46 44 15 47 15 16 48 19 16 49 45 16 50 14 17 51 18 17 52 30 17 53 27 18 54 31 18 55 19 18 56 26 17 57 30 17 58 31 17 59 46 19 60 30 19 61 18 19 62 28 20 63 32 20 64 50 20 65 10 21 66 22 21 67 48 21 68 22 21 69 23 21 70 49 21 71 24 22 72 28 22 73 16 22 74 25 22 75 29 22 76 28 22 77 14 23 78 26 23 79 22 23 80 26 24 81 27 24 82 23 24 83 8 25 84 20 25 85 24 25 86 20 26 87 21 26 88 25 26 89 51 27 90 35 27 91 34 27 92 31 28 93 35 28 94 51 28 95 30 29 96 34 29 97 35 29 98 29 22 99 33 22 100 32 22 101 47 28 102 51 28 103 33 28 104 33 30 105 51 30 106 50 30 107 48 31 108 49 31 109 21 31 110 42 32 111 48 32 112 20 32 113 46 33 114 50 33 115 34 33 116 28 34 117 46 34 118 44 34 119 41 16 120 45 16 121 17 16 122 40 35 123 44 35 124 18 35 125 17 36 126 45 36 127 47 36 128 49 37 129 43 37 130 9 37 131 0 38 132 36 38 133 42 38 134 4 39 135 12 39 136 40 39 137 2 40 138 6 40 139 39 40 140 0 41 141 4 41 142 38 41 143 7 42 144 39 42 145 41 42 146 9 43 147 43 43 148 37 43 149 36 44 150 52 44 151 1 44 152 36 45 153 0 45 154 52 45 155 37 46 156 53 46 157 3 46 158 37 47 159 2 47 160 53 47 161 43 48 162 11 48 163 37 48 164 15 1 165 41 1 166 6 1 167 52 49 168 38 49 169 1 49 170 11 50 171 15 50 172 2 50 173 53 51 174 39 51 175 3 51 176 13 52 177 9 52 178 7 52 179 4 53 180 0 53 181 12 53 182 25 54 183 21 54 184 13 54 185 1 55 186 5 55 187 10 55 188 23 56 189 27 56 190 11 56 191 38 1 192 40 1 193 5 1 194 25 22 195 13 22 196 29 22 197 36 57 198 1 57 199 42 57 200 49 58 201 23 58 202 43 58 203 47 59 204 45 59 205 31 59 206 40 60 207 12 60 208 44 60 209 41 61 210 15 61 211 45 61 212 26 17 213 14 17 214 30 17 215 15 62 216 27 62 217 19 62 218 27 29 219 26 29 220 31 29 221 44 1 222 46 1 223 18 1 224 46 33 225 28 33 226 50 33 227 42 63 228 10 63 229 48 63 230 48 64 231 22 64 232 49 64 233 12 11 234 24 11 235 16 11 236 24 22 237 25 22 238 28 22 239 10 65 240 14 65 241 22 65 242 22 66 243 26 66 244 23 66 245 12 67 246 8 67 247 24 67 248 24 68 249 20 68 250 25 68 251 50 1 252 51 1 253 34 1 254 47 69 255 31 69 256 51 69 257 31 29 258 30 29 259 35 29 260 28 22 261 29 22 262 32 22 263 29 69 264 47 69 265 33 69 266 32 1 267 33 1 268 50 1 269 20 70 270 48 70 271 21 70 272 8 71 273 42 71 274 20 71 275 30 72 276 46 72 277 34 72 278 16 1 279 28 1 280 44 1 281 13 73 282 41 73 283 17 73 284 14 74 285 40 74 286 18 74 287 29 75 288 17 75 289 47 75 290 21 32 291 49 32 292 9 32 293 8 76 294 0 76 295 42 76 296 38 1 297 4 1 298 40 1 299 53 77 300 2 77 301 39 77 302 52 78 303 0 78 304 38 78 305 13 79 306 7 79 307 41 79 308 3 80 309 9 80 310 37 80 311</p>
        </polylist>
      </mesh>
    </geometry>
  </library_geometries>
  <library_controllers/>
  <library_visual_scenes>
    <visual_scene id="Scene" name="Scene">
      <node id="Cube" name="Cube" type="NODE">
        <matrix sid="transform">29.99999 0 0 0 0 4.999998 0 0 0 0 1 0 0 0 0 1</matrix>
        <instance_geometry url="#Cube-mesh" name="Cube">
          <bind_material>
            <technique_common>
              <instance_material symbol="container_01_a_containers_01_a-material" target="#container_01_a_containers_01_a-material"/>
            </technique_common>
          </bind_material>
        </instance_geometry>
      </node>
    </visual_scene>
  </library_visual_scenes>
  <scene>
    <instance_visual_scene url="#Scene"/>
  </scene>
</COLLADA>