<?xml version="1.0" encoding="utf-8"?>
<COLLADA xmlns="http://www.collada.org/2005/11/COLLADASchema" version="1.4.1">
  <asset><contributor><author></author><authoring_tool>FBX COLLADA exporter</authoring_tool><comments></comments></contributor><created>2018-03-05T11:28:05Z</created><keywords></keywords><modified>2018-03-05T11:28:05Z</modified><revision></revision><subject></subject><title></title><unit meter="1.000000" name="centimeter"></unit><up_axis>Z_UP</up_axis></asset>
  <library_images>
    <image id="Map #1-image" name="Map #1"><init_from>file://D:\terrain_source\gameplay_artwork\3D\Levels\bus_safari_tour\maps\animals_diff.dds</init_from></image>
  </library_images>
  <library_materials>
    <material id="animals" name="animals">
      <instance_effect url="#animals-fx"/>
    </material>
  </library_materials>
  <library_effects>
    <effect id="animals-fx" name="animals">
      <profile_COMMON>
        <technique sid="standard">
          <phong>
            <emission>
              <color sid="emission">0.000000  0.000000 0.000000 1.000000</color>
            </emission>
            <ambient>
              <color sid="ambient">0.588000  0.588000 0.588000 1.000000</color>
            </ambient>
            <diffuse>
              <texture texture="Map #1-image" texcoord="CHANNEL0">
                <extra>
                  <technique profile="MAYA">
                    <wrapU sid="wrapU0">TRUE</wrapU>
                    <wrapV sid="wrapV0">TRUE</wrapV>
                    <blend_mode>ADD</blend_mode>
                  </technique>
                </extra>
              </texture>
            </diffuse>
            <specular>
              <color sid="specular">0.000000  0.000000 0.000000 1.000000</color>
            </specular>
            <shininess>
              <float sid="shininess">2.000000</float>
            </shininess>
            <reflective>
              <color sid="reflective">0.000000  0.000000 0.000000 1.000000</color>
            </reflective>
            <reflectivity>
              <float sid="reflectivity">1.000000</float>
            </reflectivity>
            <transparent opaque="RGB_ZERO">
              <color sid="transparent">1.000000  1.000000 1.000000 1.000000</color>
            </transparent>
            <transparency>
              <float sid="transparency">0.000000</float>
            </transparency>
          </phong>
        </technique>
      </profile_COMMON>
    </effect>
  </library_effects>
  <library_geometries>
    <geometry id="tiger_a30-lib" name="tiger_a30Mesh">
      <mesh>
        <source id="tiger_a30-POSITION">
          <float_array id="tiger_a30-POSITION-array" count="96">
0.634881 -0.021584 0.103385
0.521158 -0.021584 0.268686
0.484018 -0.021584 0.558500
0.507424 -0.021584 0.916291
0.599935 -0.021584 1.085426
0.487456 -0.021584 1.218879
0.390891 -0.021584 1.375439
-0.021719 -0.021584 1.370672
-0.080437 -0.021584 1.236276
0.530172 -0.021584 0.003914
-0.604484 -0.021584 0.000000
-0.634881 -0.021584 0.173586
-0.356987 -0.021584 0.261780
-0.147910 -0.021584 0.536220
-0.100341 -0.021584 0.889538
-0.194168 -0.021584 1.087176
0.634881 0.021584 0.103385
0.521158 0.021584 0.268686
0.484018 0.021584 0.558500
0.507424 0.021584 0.916291
0.599935 0.021584 1.085426
0.487456 0.021584 1.218879
0.390891 0.021584 1.375439
-0.021719 0.021584 1.370672
-0.080437 0.021584 1.236276
0.530172 0.021584 0.003914
-0.604484 0.021584 0.000000
-0.634881 0.021584 0.173586
-0.356987 0.021584 0.261780
-0.147910 0.021584 0.536220
-0.100341 0.021584 0.889538
-0.194168 0.021584 1.087176
</float_array>
          <technique_common>
            <accessor source="#tiger_a30-POSITION-array" count="32" stride="3">
              <param name="X" type="float"/>
              <param name="Y" type="float"/>
              <param name="Z" type="float"/>
            </accessor>
          </technique_common>
        </source>
        <source id="tiger_a30-Normal0">
          <float_array id="tiger_a30-Normal0-array" count="360">
0.000000 -1.000000 0.000000
0.000000 -1.000000 0.000000
0.000000 -1.000000 0.000000
0.000000 -1.000000 0.000000
0.000000 -1.000000 0.000000
0.000000 -1.000000 0.000000
0.000000 -1.000000 0.000000
0.000000 -1.000000 0.000000
0.000000 -1.000000 0.000000
0.000000 -1.000000 0.000000
0.000000 -1.000000 0.000000
0.000000 -1.000000 0.000000
0.000000 -1.000000 0.000000
0.000000 -1.000000 0.000000
0.000000 -1.000000 0.000000
0.000000 -1.000000 0.000000
0.000000 -1.000000 0.000000
0.000000 -1.000000 0.000000
0.000000 -1.000000 0.000000
0.000000 -1.000000 0.000000
0.000000 -1.000000 0.000000
0.000000 -1.000000 0.000000
0.000000 -1.000000 0.000000
0.000000 -1.000000 0.000000
0.000000 -1.000000 0.000000
0.000000 -1.000000 0.000000
0.000000 -1.000000 0.000000
0.000000 -1.000000 0.000000
-0.000000 1.000000 -0.000000
-0.000000 1.000000 -0.000000
-0.000000 1.000000 -0.000000
-0.000000 1.000000 -0.000000
-0.000000 1.000000 -0.000000
-0.000000 1.000000 -0.000000
-0.000000 1.000000 -0.000000
-0.000000 1.000000 -0.000000
-0.000000 1.000000 -0.000000
-0.000000 1.000000 -0.000000
-0.000000 1.000000 -0.000000
-0.000000 1.000000 -0.000000
-0.000000 1.000000 -0.000000
-0.000000 1.000000 -0.000000
-0.000000 1.000000 -0.000000
-0.000000 1.000000 -0.000000
-0.000000 1.000000 -0.000000
-0.000000 1.000000 -0.000000
-0.000000 1.000000 -0.000000
-0.000000 1.000000 -0.000000
-0.000000 1.000000 -0.000000
-0.000000 1.000000 -0.000000
-0.000000 1.000000 -0.000000
-0.000000 1.000000 -0.000000
-0.000000 1.000000 -0.000000
-0.000000 1.000000 -0.000000
-0.000000 1.000000 -0.000000
-0.000000 1.000000 -0.000000
-0.575764 0.000000 0.817616
-0.923982 0.000000 0.382435
-0.923983 0.000000 0.382435
-0.575764 0.000000 0.817616
0.999518 0.000000 0.031061
0.934112 0.000000 0.356981
0.934111 0.000000 0.356981
0.999518 0.000000 0.031061
-0.861910 -0.000001 0.507062
-0.916358 -0.000001 0.400361
-0.916358 -0.000001 0.400361
-0.861910 -0.000001 0.507062
0.851124 0.000000 0.524965
0.810086 0.000000 0.586312
0.810086 0.000000 0.586312
0.851124 0.000000 0.524965
-0.011553 -0.000000 0.999933
-0.011553 -0.000000 0.999933
-0.011553 -0.000000 0.999933
-0.011553 -0.000000 0.999933
-0.988057 0.000000 -0.154087
-0.903368 0.000000 -0.428866
-0.903368 0.000000 -0.428866
-0.988057 0.000000 -0.154087
0.877338 0.000000 -0.479873
0.960245 0.000000 -0.279159
0.960245 0.000000 -0.279159
0.877338 0.000000 -0.479873
0.960245 0.000000 -0.279159
0.999518 0.000000 0.031061
0.999518 0.000000 0.031061
0.960245 0.000000 -0.279159
-0.923982 0.000000 0.382435
-0.988057 0.000000 -0.154087
-0.988057 0.000000 -0.154087
-0.923983 0.000000 0.382435
-0.302496 0.000000 0.953151
-0.575764 0.000000 0.817616
-0.575764 0.000000 0.817616
-0.302496 0.000000 0.953151
-0.985011 -0.000000 -0.172489
-0.985011 -0.000000 -0.172489
-0.985011 -0.000000 -0.172489
-0.985011 -0.000000 -0.172489
0.372407 -0.000001 -0.928070
0.003449 -0.000001 -0.999994
0.003449 -0.000001 -0.999994
0.372407 -0.000001 -0.928070
0.810086 0.000000 0.586312
0.764634 0.000000 0.644464
0.764634 0.000000 0.644464
0.810086 0.000000 0.586312
-0.795093 -0.000001 0.606487
-0.861910 -0.000001 0.507062
-0.861910 -0.000001 0.507062
-0.795093 -0.000001 0.606487
0.688742 -0.000000 -0.725007
0.372407 -0.000001 -0.928070
0.372407 -0.000001 -0.928070
0.688742 -0.000000 -0.725007
0.934112 0.000000 0.356981
0.823859 0.000000 0.566795
0.823859 0.000000 0.566795
0.934111 0.000000 0.356981
</float_array>
          <technique_common>
            <accessor source="#tiger_a30-Normal0-array" count="120" stride="3">
              <param name="X" type="float"/>
              <param name="Y" type="float"/>
              <param name="Z" type="float"/>
            </accessor>
          </technique_common>
        </source>
        <source id="tiger_a30-UV0">
          <float_array id="tiger_a30-UV0-array" count="132">
0.063730 0.002521
0.109349 0.002521
0.109349 0.008229
0.063730 0.008229
0.404461 0.002521
0.443094 0.002521
0.443094 0.008229
0.404461 0.008229
0.210213 0.002521
0.229605 0.002521
0.229605 0.008229
0.210213 0.008229
0.284166 0.002521
0.308488 0.002521
0.308488 0.008229
0.284166 0.008229
0.681424 0.615738
0.653084 0.579990
0.769192 0.578663
0.765022 0.617070
0.700238 0.725732
0.692132 0.708114
0.767163 0.704364
0.754797 0.725308
0.781692 0.686433
0.676716 0.688694
0.688615 0.662326
0.769029 0.664310
0.769709 0.543637
0.616121 0.569039
0.619697 0.546014
0.783805 0.556520
0.054330 0.755031
0.216619 0.754997
0.177594 0.805417
0.060783 0.808641
0.059213 0.930673
0.164134 0.934693
0.153092 0.959446
0.076836 0.959742
0.168303 0.870643
0.185362 0.907300
0.038616 0.905851
0.055952 0.874727
0.268098 0.739091
0.053038 0.706089
0.262726 0.706970
0.033548 0.724323
0.156489 0.002521
0.185418 0.002521
0.185418 0.008229
0.156489 0.008229
0.331564 0.002521
0.357052 0.002521
0.357052 0.008229
0.331564 0.008229
0.025178 0.002521
0.025178 0.008229
0.001876 0.002521
0.001876 0.008229
0.488719 0.002521
0.488719 0.008229
0.469623 0.002521
0.469623 0.008229
0.638753 0.002521
0.638753 0.008229
</float_array>
          <technique_common>
            <accessor source="#tiger_a30-UV0-array" count="66" stride="2">
              <param name="S" type="float"/>
              <param name="T" type="float"/>
            </accessor>
          </technique_common>
        </source>
        <vertices id="tiger_a30-VERTEX">
          <input semantic="POSITION" source="#tiger_a30-POSITION"/>
        </vertices>
        <polylist count="30" material="animals"><input semantic="VERTEX" offset="0" source="#tiger_a30-VERTEX"/><input semantic="NORMAL" offset="1" source="#tiger_a30-Normal0"/><input semantic="TEXCOORD" offset="2" set="0" source="#tiger_a30-UV0"/><vcount>4 4 4 4 4 4 4 4 4 4 4 4 4 4 4 4 4 4 4 4 4 4 4 4 4 4 4 4 4 4 </vcount><p> 13 0 16 12 1 17 1 2 18 2 3 19 7 4 20 8 5 21 5 6 22 6 7 23 4 8 24 15 9 25 14 10 26 3 11 27 13 12 16 2 13 19 3 14 27 14 15 26 9 16 28 12 17 17 11 18 29 10 19 30 4 20 24 5 21 22 8 22 21 15 23 25 9 24 28 0 25 31 1 26 18 12 27 17 17 28 32 28 29 33 29 30 34 18 31 35 21 32 36 24 33 37 23 34 38 22 35 39 30 36 40 31 37 41 20 38 42 19 39 43 19 40 43 18 41 35 29 42 34 30 43 40 27 44 44 28 45 33 25 46 45 26 47 46 24 48 37 21 49 36 20 50 42 31 51 41 17 52 32 16 53 47 25 54 45 28 55 33 12 56 0 13 57 1 29 58 2 28 59 3 2 60 4 1 61 5 17 62 6 18 63 7 8 64 8 7 65 9 23 66 10 24 67 11 6 68 12 5 69 13 21 70 14 22 71 15 7 72 9 6 73 12 22 74 15 23 75 10 14 76 48 15 77 49 31 78 50 30 79 51 4 80 52 3 81 53 19 82 54 20 83 55 3 84 53 2 85 4 18 86 7 19 87 54 13 88 1 14 89 48 30 90 51 29 91 2 11 92 56 12 93 0 28 94 3 27 95 57 10 96 58 11 97 56 27 98 57 26 99 59 9 100 60 10 101 64 26 102 65 25 103 61 5 104 13 4 105 52 20 106 55 21 107 14 15 108 49 8 109 8 24 110 11 31 111 50 0 112 62 9 113 60 25 114 61 16 115 63 1 116 5 0 117 62 16 118 63 17 119 6</p></polylist>
      </mesh>
    </geometry>
  </library_geometries>
  <library_visual_scenes>
    <visual_scene id="tiger" name="tiger">
      <node name="base00" id="base00" sid="base00"><matrix sid="matrix">1.000000 0.000000 0.000000 0.000000 0.000000 1.000000 0.000000 0.000000 0.000000 0.000000 1.000000 0.000000 0.000000 0.000000 0.000000 1.000000</matrix><extra><technique profile="FCOLLADA"><visibility>1.000000</visibility></technique></extra><node name="collision-1" id="collision-1" sid="collision-1"><matrix sid="matrix">1.000000 0.000000 0.000000 0.000000 0.000000 1.000000 0.000000 0.000000 0.000000 0.000000 1.000000 0.000000 0.000000 0.000000 0.000000 1.000000</matrix><extra><technique profile="FCOLLADA"><visibility>1.000000</visibility></technique></extra></node><node name="start01" id="start01" sid="start01"><matrix sid="matrix">1.000000 0.000000 0.000000 0.000000 0.000000 1.000000 0.000000 0.000000 0.000000 0.000000 1.000000 0.000000 0.000000 0.000000 0.000000 1.000000</matrix><extra><technique profile="FCOLLADA"><visibility>1.000000</visibility></technique></extra><node name="tiger_a30" id="tiger_a30" sid="tiger_a30"><matrix sid="matrix">1.000000 0.000000 0.000000 0.000001 0.000000 1.000000 0.000000 -0.000000 0.000000 0.000000 1.000000 0.000000 0.000000 0.000000 0.000000 1.000000</matrix><instance_geometry url="#tiger_a30-lib"><bind_material><technique_common><instance_material symbol="animals" target="#animals"/></technique_common></bind_material></instance_geometry><extra><technique profile="FCOLLADA"><visibility>1.000000</visibility></technique></extra></node></node><node name="nulldetail25" id="nulldetail25" sid="nulldetail25"><matrix sid="matrix">1.000000 0.000000 0.000000 0.000000 0.000000 1.000000 0.000000 0.000000 0.000000 0.000000 1.000000 0.000000 0.000000 0.000000 0.000000 1.000000</matrix><extra><technique profile="FCOLLADA"><visibility>1.000000</visibility></technique></extra></node></node>
      <extra><technique profile="MAX3D"><frame_rate>30.000000</frame_rate></technique><technique profile="FCOLLADA"><start_time>0.000000</start_time><end_time>3.333333</end_time></technique></extra>
    </visual_scene>
  </library_visual_scenes>
  <scene>
    <instance_visual_scene url="#tiger"></instance_visual_scene>
  </scene>
</COLLADA>
