<?xml version="1.0" encoding="utf-8"?>
<COLLADA xmlns="http://www.collada.org/2005/11/COLLADASchema" version="1.4.1">
  <asset>
    <contributor>
      <author>Blender User</author>
      <authoring_tool>Blender 2.75.0 commit date:2015-06-19, commit time:14:59, hash:c85a58a</authoring_tool>
    </contributor>
    <created>2015-07-07T14:54:57</created>
    <modified>2015-07-07T14:54:57</modified>
    <unit name="meter" meter="1"/>
    <up_axis>Z_UP</up_axis>
  </asset>
  <library_images/>
  <library_effects>
    <effect id="vegetation_palm_bark_01-effect">
      <profile_COMMON>
        <technique sid="common">
          <lambert>
            <emission>
              <color sid="emission">0 0 0 1</color>
            </emission>
            <ambient>
              <color sid="ambient">0 0 0 1</color>
            </ambient>
            <diffuse>
              <color sid="diffuse">0.64 0.64 0.64 1</color>
            </diffuse>
            <index_of_refraction>
              <float sid="index_of_refraction">1</float>
            </index_of_refraction>
          </lambert>
        </technique>
        <extra>
          <technique profile="GOOGLEEARTH">
            <double_sided>1</double_sided>
          </technique>
        </extra>
      </profile_COMMON>
      <extra><technique profile="MAX3D"><double_sided>1</double_sided></technique></extra>
    </effect>
    <effect id="vegetation_palm_01-effect">
      <profile_COMMON>
        <technique sid="common">
          <lambert>
            <emission>
              <color sid="emission">0 0 0 1</color>
            </emission>
            <ambient>
              <color sid="ambient">0 0 0 1</color>
            </ambient>
            <diffuse>
              <color sid="diffuse">0.64 0.64 0.64 1</color>
            </diffuse>
            <transparency>
              <float sid="transparency">0</float>
            </transparency>
            <index_of_refraction>
              <float sid="index_of_refraction">1</float>
            </index_of_refraction>
          </lambert>
        </technique>
        <extra>
          <technique profile="GOOGLEEARTH">
            <double_sided>1</double_sided>
          </technique>
        </extra>
      </profile_COMMON>
      <extra><technique profile="MAX3D"><double_sided>1</double_sided></technique></extra>
    </effect>
    <effect id="ColorEffectR27G177B88-material-effect">
      <profile_COMMON>
        <technique sid="common">
          <phong>
            <emission>
              <color sid="emission">0 0 0 1</color>
            </emission>
            <ambient>
              <color sid="ambient">0 0 0 1</color>
            </ambient>
            <diffuse>
              <color sid="diffuse">0.08561849 0.5550975 0.2773633 1</color>
            </diffuse>
            <specular>
              <color sid="specular">0.5 0.5 0.5 1</color>
            </specular>
            <shininess>
              <float sid="shininess">50</float>
            </shininess>
            <index_of_refraction>
              <float sid="index_of_refraction">1</float>
            </index_of_refraction>
          </phong>
        </technique>
        <extra>
          <technique profile="GOOGLEEARTH">
            <double_sided>1</double_sided>
          </technique>
        </extra>
      </profile_COMMON>
      <extra><technique profile="MAX3D"><double_sided>1</double_sided></technique></extra>
    </effect>
  </library_effects>
  <library_materials>
    <material id="vegetation_palm_bark_01-material" name="vegetation_palm_bark_01">
      <instance_effect url="#vegetation_palm_bark_01-effect"/>
    </material>
    <material id="vegetation_palm_01-material" name="vegetation_palm_01">
      <instance_effect url="#vegetation_palm_01-effect"/>
    </material>
    <material id="ColorEffectR27G177B88-material-material" name="ColorEffectR27G177B88-material">
      <instance_effect url="#ColorEffectR27G177B88-material-effect"/>
    </material>
  </library_materials>
  <library_geometries>
    <geometry id="tree_oak_bush_a200_001-mesh" name="tree_oak_bush_a200.001">
      <mesh>
        <source id="tree_oak_bush_a200_001-mesh-positions">
          <float_array id="tree_oak_bush_a200_001-mesh-positions-array" count="147">0.5566068 -0.5438734 0.953198 0.228056 -0.11378 1.230501 -0.0882222 -0.766796 1.031162 -0.1004068 -0.225685 1.232216 0.3166224 -0.9069328 0.4902642 -0.01088774 0.006117463 1.100533 0.4711223 -0.3857421 1.858063 0.1416515 -1.016032 1.961302 -0.3309381 -0.4701007 1.887929 -0.6495034 -0.4687259 1.50781 -0.727309 0.3392304 1.528165 0.004157304 0.004089891 1.09971 -1.217481 -0.1213454 1.35503 0.3676213 -0.7079825 1.443596 -0.4429392 -0.665097 1.463951 -0.003018856 0.008573889 1.035495 -0.06015592 -1.218157 1.290816 0.4712139 0.6236755 0.9710319 0.08475655 0.2447603 1.248335 0.7716906 0.01112943 1.048996 0.2361786 -0.06746065 1.25005 0.8610133 0.430127 0.5080982 -0.003469288 -0.006565511 1.100081 0.2705942 0.4807366 1.904546 0.900439 0.181351 2.078148 0.3921918 -0.3165172 1.934701 0.6768448 -0.2039516 1.656002 0.2390938 -0.825816 1.371538 -0.003454506 0.009969234 1.100301 0.9317495 -0.7763302 1.383937 -0.543487 -0.5609215 0.9886291 -0.1160944 -0.2288649 1.265932 -0.7716746 0.08206319 1.066593 -0.2306814 0.09867197 1.267647 -0.9084964 -0.3239138 0.5256955 0.005026638 0.007498145 1.100077 -0.5295057 -0.1563594 1.904542 -0.7791188 0.494816 2.078145 -0.06772017 0.5048167 1.934697 -0.4043297 0.7113517 1.480462 0.4073482 0.7062249 1.500817 -7.52219e-4 0.01281577 1.072362 -7.52218e-4 1.240877 1.327682 -0.06095224 0.03572201 -0.09345144 0.05244863 -0.05593878 -0.09345144 0.08976024 0.05177056 -0.09345144 -0.01767456 0.01057231 1.133937 0.01449221 -0.01542776 1.133937 0.02088886 0.0201143 1.133937</float_array>
          <technique_common>
            <accessor source="#tree_oak_bush_a200_001-mesh-positions-array" count="49" stride="3">
              <param name="X" type="float"/>
              <param name="Y" type="float"/>
              <param name="Z" type="float"/>
            </accessor>
          </technique_common>
        </source>
        <source id="tree_oak_bush_a200_001-mesh-normals">
          <float_array id="tree_oak_bush_a200_001-mesh-normals-array" count="147">0.2899053 -0.5696475 0.7690622 0.3389209 -0.8175914 0.4654859 0.2810538 -0.615364 0.7364347 0.195475 -0.3866773 0.9012603 0.157083 -0.4475968 0.8803307 -0.03250283 0.5938711 0.8039035 -0.0726962 0.8662201 0.4943463 -0.03317457 0.5987905 0.8002184 0.02090543 0.1509162 0.9883255 0.1603173 -0.00939989 0.9870209 -0.2888671 -0.0518831 0.9559624 0.1583009 -0.009613394 0.9873442 0.514739 0.02795565 0.8568911 0.03308278 0.1571434 0.9870216 0.008453845 -0.2933825 0.9559578 0.03299075 0.1551269 0.9873436 0.04864811 0.5131863 0.8568974 0.5296975 0.3577198 0.7690625 0.7697404 0.4368302 0.4654883 0.5761656 0.3545681 0.7364202 0.3597297 0.2414983 0.9012621 0.424893 0.2108899 0.880336 -0.682291 -0.07654255 0.7270629 -0.9136808 -0.124701 0.3868296 -0.6867029 -0.07739555 0.7228065 -0.2676492 -0.004364132 0.9635066 -0.358354 -0.1678239 0.9183776 0.01406919 -0.4241213 0.9054962 -0.3567724 -0.1691083 0.9187578 -0.6164773 0.07544213 0.7837501 -0.5672656 -0.2945435 0.7690604 -0.8147971 -0.3455975 0.4654762 -0.6130425 -0.2860885 0.7364323 -0.3850616 -0.1986194 0.9012647 -0.4462864 -0.1607461 0.8803347 0.5468704 -0.4151197 0.7270547 0.7476302 -0.5398246 0.3868315 0.5506306 -0.4175356 0.7228209 0.1968164 -0.1814044 0.9635123 -0.02572762 -0.1585167 0.9870211 -0.02209591 0.2926799 0.9559552 -0.02572739 -0.1564704 0.9873476 -0.02472078 -0.514895 0.8568968 -0.957401 0.2867534 0.03399777 0.2862083 -0.9571408 0.04434424 0.3393968 -0.9397272 0.04150521 -0.9770184 0.2096074 0.03872913 0.6807979 0.7300869 0.05905514 0.786015 0.6152921 0.05996966</float_array>
          <technique_common>
            <accessor source="#tree_oak_bush_a200_001-mesh-normals-array" count="49" stride="3">
              <param name="X" type="float"/>
              <param name="Y" type="float"/>
              <param name="Z" type="float"/>
            </accessor>
          </technique_common>
        </source>
        <source id="tree_oak_bush_a200_001-mesh-map-0">
          <float_array id="tree_oak_bush_a200_001-mesh-map-0-array" count="174">0.3821886 0.6395155 0.2111163 1.018821 0.0259028 0.60935 0.3146033 0.2489683 0.3821886 0.6395155 0.0259028 0.60935 0.1057749 0.2512139 0.3146033 0.2489683 0.0259028 0.60935 0.02124625 0.5917446 0.2050805 0.005488038 0.377532 0.6232389 0.2064597 1.019255 0.02124625 0.5917446 0.377532 0.6232389 0.3821886 0.624606 0.2077563 1.01843 0.0259028 0.5934174 0.2079371 0.004168987 0.3821886 0.624606 0.0259028 0.5934174 0.3821886 0.624606 0.2077563 1.01843 0.0259028 0.5934174 0.2079371 0.004168987 0.3821886 0.624606 0.0259028 0.5934174 0.3821886 0.6395155 0.2111163 1.018821 0.0259028 0.60935 0.3146033 0.2489683 0.3821886 0.6395155 0.0259028 0.60935 0.1057749 0.2512139 0.3146033 0.2489683 0.0259028 0.60935 0.02124625 0.5917446 0.2050805 0.005488038 0.377532 0.6232389 0.2064597 1.019255 0.02124625 0.5917446 0.377532 0.6232389 0.3821886 0.624606 0.2077563 1.01843 0.0259028 0.5934174 0.2079371 0.004168987 0.3821886 0.624606 0.0259028 0.5934174 0.3821886 0.6395155 0.2111163 1.018821 0.0259028 0.60935 0.3146033 0.2489683 0.3821886 0.6395155 0.0259028 0.60935 0.1057749 0.2512139 0.3146033 0.2489683 0.0259028 0.60935 0.02124625 0.5917446 0.2050805 0.005488038 0.377532 0.6232389 0.2064597 1.019255 0.02124625 0.5917446 0.377532 0.6232389 0.3821886 0.624606 0.2077563 1.01843 0.0259028 0.5934174 0.2079371 0.004168987 0.3821886 0.624606 0.0259028 0.5934174 0.2782914 -1.354805 0.380668 -1.355135 0.3713168 1.845014 0.6875044 -1.342747 0.4725416 1.850188 0.4219729 1.846745 0.4830271 -1.353198 0.5853181 -1.348996 0.4219729 1.846745 0.3206315 1.844826 0.2782914 -1.354805 0.3713168 1.845014 0.5853181 -1.348996 0.6875044 -1.342747 0.4219729 1.846745 0.3713168 1.845014 0.4830271 -1.353198 0.4219729 1.846745</float_array>
          <technique_common>
            <accessor source="#tree_oak_bush_a200_001-mesh-map-0-array" count="87" stride="2">
              <param name="S" type="float"/>
              <param name="T" type="float"/>
            </accessor>
          </technique_common>
        </source>
        <source id="tree_oak_bush_a200_001-mesh-colors-Col" name="Col">
          <float_array id="tree_oak_bush_a200_001-mesh-colors-Col-array" count="261">0.8784314 0.5019608 1 1 1 1 1 1 1 0.06666666 0.3411765 0 0.8784314 0.5019608 1 1 1 1 0.05882352 0.3529412 0 0.06666666 0.3411765 0 1 1 1 1 1 1 0 0.2156863 0 0.8784314 0.5019608 1 1 1 1 1 1 1 0.8784314 0.5019608 1 0.8784314 0.5019608 1 1 1 1 1 1 1 0 0.2156863 0 0.8784314 0.5019608 1 1 1 1 0.8784314 0.5019608 1 1 1 1 1 1 1 0 0.2156863 0 0.8784314 0.5019608 1 1 1 1 0.8784314 0.5019608 1 1 1 1 1 1 1 0.06666666 0.3411765 0 0.8784314 0.5019608 1 1 1 1 0.05882352 0.3529412 0 0.06666666 0.3411765 0 1 1 1 1 1 1 0 0.2156863 0 0.8784314 0.5019608 1 1 1 1 1 1 1 0.8784314 0.5019608 1 0.8784314 0.5019608 1 1 1 1 1 1 1 0 0.2156863 0 0.8784314 0.5019608 1 1 1 1 0.8784314 0.5019608 1 1 1 1 1 1 1 0.06666666 0.3411765 0 0.8784314 0.5019608 1 1 1 1 0.05882352 0.3529412 0 0.06666666 0.3411765 0 1 1 1 1 1 1 0 0.2156863 0 0.8784314 0.5019608 1 1 1 1 1 1 1 0.8784314 0.5019608 1 0.8784314 0.5019608 1 1 1 1 1 1 1 0 0.2156863 0 0.8784314 0.5019608 1 1 1 1 0 0 0 0 0 0 0 0 0 0 0 0 0 0 0 0 0 0 0 0 0 0 0 0 0 0 0 0 0 0 0 0 0 0 0 0 0 0 0 0 0 0 0 0 0 0 0 0 0 0 0 0 0 0</float_array>
          <technique_common>
            <accessor source="#tree_oak_bush_a200_001-mesh-colors-Col-array" count="87" stride="3">
              <param name="R" type="float"/>
              <param name="G" type="float"/>
              <param name="B" type="float"/>
            </accessor>
          </technique_common>
        </source>
        <vertices id="tree_oak_bush_a200_001-mesh-vertices">
          <input semantic="POSITION" source="#tree_oak_bush_a200_001-mesh-positions"/>
        </vertices>
        <polylist material="vegetation_palm_bark_01-material" count="6">
          <input semantic="VERTEX" source="#tree_oak_bush_a200_001-mesh-vertices" offset="0"/>
          <input semantic="NORMAL" source="#tree_oak_bush_a200_001-mesh-normals" offset="1"/>
          <input semantic="TEXCOORD" source="#tree_oak_bush_a200_001-mesh-map-0" offset="2" set="0"/>
          <input semantic="COLOR" source="#tree_oak_bush_a200_001-mesh-colors-Col" offset="3" set="0"/>
          <vcount>3 3 3 3 3 3 </vcount>
          <p>43 43 69 69 44 44 70 70 47 45 71 71 43 43 72 72 46 46 73 73 48 47 74 74 44 44 75 75 45 48 76 76 48 47 77 77 46 46 78 78 43 43 79 79 47 45 80 80 45 48 81 81 43 43 82 82 48 47 83 83 47 45 84 84 44 44 85 85 48 47 86 86</p>
        </polylist>
        <polylist material="vegetation_palm_01-material" count="23">
          <input semantic="VERTEX" source="#tree_oak_bush_a200_001-mesh-vertices" offset="0"/>
          <input semantic="NORMAL" source="#tree_oak_bush_a200_001-mesh-normals" offset="1"/>
          <input semantic="TEXCOORD" source="#tree_oak_bush_a200_001-mesh-map-0" offset="2" set="0"/>
          <input semantic="COLOR" source="#tree_oak_bush_a200_001-mesh-colors-Col" offset="3" set="0"/>
          <vcount>3 3 3 3 3 3 3 3 3 3 3 3 3 3 3 3 3 3 3 3 3 3 3 </vcount>
          <p>2 0 0 0 4 1 1 1 0 2 2 2 3 3 3 3 2 0 4 4 0 2 5 5 1 4 6 6 3 3 7 7 0 2 8 8 6 5 9 9 5 6 10 10 8 7 11 11 7 8 12 12 6 5 13 13 8 7 14 14 10 9 15 15 12 10 16 16 9 11 17 17 11 12 18 18 10 9 19 19 9 11 20 20 14 13 21 21 16 14 22 22 13 15 23 23 15 16 24 24 14 13 25 25 13 15 26 26 19 17 27 27 21 18 28 28 17 19 29 29 20 20 30 30 19 17 31 31 17 19 32 32 18 21 33 33 20 20 34 34 17 19 35 35 23 22 36 36 22 23 37 37 25 24 38 38 24 25 39 39 23 22 40 40 25 24 41 41 27 26 42 42 29 27 43 43 26 28 44 44 28 29 45 45 27 26 46 46 26 28 47 47 32 30 48 48 34 31 49 49 30 32 50 50 33 33 51 51 32 30 52 52 30 32 53 53 31 34 54 54 33 33 55 55 30 32 56 56 36 35 57 57 35 36 58 58 38 37 59 59 37 38 60 60 36 35 61 61 38 37 62 62 40 39 63 63 42 40 64 64 39 41 65 65 41 42 66 66 40 39 67 67 39 41 68 68</p>
        </polylist>
      </mesh>
      <extra><technique profile="MAYA"><double_sided>1</double_sided></technique></extra>
    </geometry>
    <geometry id="tree_oak_bush_a200-mesh" name="tree_oak_bush_a200">
      <mesh>
        <source id="tree_oak_bush_a200-mesh-positions">
          <float_array id="tree_oak_bush_a200-mesh-positions-array" count="780">0.03449815 0.06135958 -0.09345144 -0.06851261 0.001886308 -0.09345144 -0.02936291 -0.04925107 -0.09345144 0.0298466 -0.04897177 -0.09345144 0.05920958 0.002444803 -0.09345144 0.02936291 0.05358219 -0.09345144 -0.002179384 0.02527123 1.133937 -0.01691454 -0.01726549 1.133937 0.02037101 -0.01378726 1.133937 0.0198158 0.02327162 1.133937 -4.96985e-4 0.4548034 1.426924 0.004458427 0.8965446 1.405347 -4.96985e-4 0.1936999 1.358299 -0.4194902 0.4983583 1.469579 -0.399352 0.9414374 1.481982 -0.4484103 0.7104809 1.505699 -0.4352635 0.4983583 1.469579 -0.375821 0.9373884 1.481982 -0.4877145 0.7145299 1.505699 -0.1473838 0.1947897 1.357998 -4.96985e-4 0.6929743 1.426924 0.3678994 0.4668765 1.456032 0.3297684 0.9293774 1.485289 0.4294568 0.7126288 1.492152 0.382645 0.4679993 1.477077 0.3474624 0.9323871 1.485289 0.390804 0.7084963 1.513197 0.1430306 0.1925989 1.357998 -7.5245e-4 0.01281577 1.072362 -4.96985e-4 0.4548034 1.426924 0.004458427 0.8965446 1.405347 -4.96985e-4 0.1936999 1.358299 -4.96985e-4 0.05115532 1.238614 -4.96985e-4 0.6929743 1.426924 -7.5245e-4 1.240877 1.327682 -0.414923 -0.2774269 1.737539 0.00502479 0.007495939 1.100084 -0.7422534 -0.01793169 2.073548 -0.5339824 -0.1717274 1.907764 -0.4237602 -0.290563 1.737247 -0.7260791 -2.61809e-4 2.07205 -0.5589942 -0.2025334 1.90897 -0.1324271 -0.08775365 1.375567 -0.3415079 0.2234809 1.857979 -0.1938403 0.13349 1.695484 -0.5032566 0.3413565 1.976568 -0.7791207 0.4948138 2.078151 -0.03248536 0.02400034 1.446592 -0.6259918 0.4095227 2.012223 0.06279653 0.3822486 1.740299 -0.3255972 0.567116 2.09863 -0.08754533 0.4943768 1.926375 0.07834154 0.3891077 1.759591 -0.3179066 0.5832843 2.100395 -0.09803628 0.4542636 1.942168 0.03501021 0.1578538 1.379953 -0.3415079 0.2234809 1.85798 -0.1938403 0.13349 1.695485 -0.5032565 0.3413564 1.976568 -0.6259918 0.4095226 2.012223 -0.3911388 -0.4915423 1.147813 -0.7242386 -0.5633428 0.8420706 -0.5557243 -0.5197808 1.00556 -0.3851996 -0.508064 1.147813 -0.7178508 -0.2551588 0.8318142 -0.7296563 -0.5374578 0.8438062 -0.5443671 -0.5621874 1.003824 -0.121469 -0.2135027 1.266016 -0.5599368 -0.1983912 0.9885695 -0.3980122 -0.140182 1.14209 -0.1877848 -0.06460869 1.198881 -0.06970202 -0.02215993 1.158526 0.00582987 0.004992544 1.025116 -0.5921346 0.1499858 1.163907 -0.9116467 -0.02927428 0.862771 -0.7769829 0.10295 1.040145 -0.7178508 -0.2551588 0.8318142 -0.608504 0.1615425 1.181571 -0.920868 -0.01166057 0.861481 -0.7674037 0.06067472 1.06093 -0.2253073 0.08330971 1.26757 -0.5599368 -0.1983912 0.9885695 -0.3980123 -0.140182 1.14209 -0.9084967 -0.3239138 0.5256991 -0.1877848 -0.06460869 1.198881 0.2682989 -0.3476416 1.445749 0.6300168 -0.6021239 1.440802 0.07299298 -0.1764003 1.372153 0.5144221 -0.06547677 1.643431 0.8608413 -0.3419442 1.664359 0.6931955 -0.176975 1.695827 0.5227504 -0.05344629 1.649322 0.845126 -0.3575377 1.655416 0.7172391 -0.1493511 1.71066 0.1515101 -0.06491583 1.426773 0.4618694 -0.4861076 1.454862 0.07642608 -0.6438889 1.335607 0.4652451 -0.8919801 1.394661 0.2347588 -0.8439469 1.355498 0.06436938 -0.6617509 1.349648 0.4583486 -0.9072254 1.388168 0.2466257 -0.8180258 1.389281 -0.003610908 -0.2851453 1.318229 -0.003454744 0.009969234 1.100305 0.2682989 -0.3476416 1.445749 0.6300168 -0.6021239 1.440802 0.07299298 -0.1764003 1.372153 -0.01337873 -0.05961865 1.255768 0.4618694 -0.4861076 1.454862 0.9317493 -0.7763302 1.38394 0.1041252 0.4893812 1.737539 -0.003469824 -0.006562769 1.100084 0.5201194 0.5272215 2.073548 0.2632368 0.4949522 1.907764 0.101465 0.5049882 1.737247 0.5205932 0.5032713 2.07205 0.2601027 0.5345095 1.90897 0.03037273 0.1572059 1.375567 0.3964217 0.07602757 1.857979 0.2274278 0.03935152 1.695484 0.5948431 0.1022229 1.976568 0.9004386 0.1813536 2.078151 0.03507477 0.007355332 1.446592 0.7307311 0.1375079 2.012223 0.2131496 -0.3177753 1.740299 0.6218932 -0.1837815 2.09863 0.3993473 -0.2952849 1.926375 0.2066234 -0.3334629 1.759591 0.6274748 -0.2007933 2.100395 0.3792796 -0.2590026 1.942168 0.07851326 -0.1361211 1.379953 0.3964216 0.07602757 1.85798 0.2274277 0.03935152 1.695485 0.5948431 0.1022229 1.976568 0.730731 0.1375079 2.012223 0.3278349 0.5372694 1.130215 0.6504926 0.646826 0.8244735 0.4880918 0.5842111 0.9879627 0.3200386 0.5530002 1.130215 0.6795182 0.3399455 0.8142169 0.6588456 0.621734 0.826209 0.4719426 0.625034 0.9862272 0.09185832 0.2301164 1.248419 0.5291631 0.2654289 0.9709724 0.3749893 0.1890199 1.124493 0.1748248 0.08981758 1.181284 0.06239432 0.03409665 1.140929 -0.00952208 -0.001545369 1.007518 0.6011322 -0.07695055 1.14631 0.8979588 0.1377961 0.8451738 0.7793606 -0.009010136 1.022548 0.6795182 0.3399455 0.8142169 0.6187198 -0.08655214 1.163974 0.9091406 0.1213572 0.8438838 0.7649927 0.03188633 1.043332 0.2290763 -0.05281674 1.249973 0.5291631 0.2654289 0.9709724 0.3749893 0.1890199 1.124493 0.8610131 0.430127 0.5081019 0.1748248 0.08981758 1.181284 -0.02383834 -0.4329231 1.390065 -0.04934096 -0.8739556 1.368488 -0.01169013 -0.1721023 1.32144 0.3926748 -0.4959251 1.43272 0.3519436 -0.9375875 1.445123 0.4116942 -0.7091636 1.46884 0.4084309 -0.496659 1.43272 0.3286264 -0.9324482 1.445123 0.4507675 -0.7150369 1.46884 0.1349869 -0.1800251 1.321139 -0.0349195 -0.6708363 1.390065 -0.3923975 -0.4278432 1.419173 -0.3758262 -0.8916174 1.44843 -0.4653223 -0.6704653 1.455293 -0.4071795 -0.4282787 1.440218 -0.3936412 -0.8938005 1.44843 -0.426519 -0.6681357 1.476338 -0.1550111 -0.1643248 1.321139 -0.003019094 0.008573889 1.035503 -0.02383834 -0.4329231 1.390065 -0.04934096 -0.8739556 1.368488 -0.01169013 -0.1721023 1.32144 -0.005058109 -0.0297122 1.201755 -0.0349195 -0.6708363 1.390065 -0.06015616 -1.218157 1.290823 -0.4355448 -0.04080098 1.454276 -0.875482 -0.08099132 1.432699 -0.175807 -0.0141316 1.385651 -0.4360756 -0.4620516 1.496931 -0.8788943 -0.4872753 1.509334 -0.644135 -0.5124868 1.533051 -0.4344645 -0.4777424 1.496931 -0.8772701 -0.4634538 1.509334 -0.6441482 -0.5519991 1.533051 -0.161888 -0.1603615 1.38535 -0.6724702 -0.06512796 1.454276 -0.4851833 0.3244355 1.483384 -0.9413705 0.2392635 1.512641 -0.7359377 0.3605696 1.519504 -0.4878064 0.3389893 1.504429 -0.9461717 0.2565577 1.512641 -0.7278789 0.322541 1.540549 -0.1893718 0.1287577 1.38535 0.004157066 0.004089891 1.099714 -0.4355448 -0.04080098 1.454276 -0.875482 -0.08099132 1.432699 -0.175807 -0.0141316 1.385651 -0.03400796 4.28001e-4 1.265966 -0.6724702 -0.06512796 1.454276 -1.217481 -0.1213454 1.355034 0.4863769 -0.2012184 1.711789 -0.01088523 0.006117761 1.100536 0.5066474 -0.6556172 1.995507 0.4857363 -0.379539 1.861873 0.5020961 -0.199325 1.711533 0.4826886 -0.6547128 1.994393 0.5254142 -0.3785501 1.862731 0.1541788 -0.06841015 1.367099 0.05992221 -0.4847647 1.804213 0.03010463 -0.2960115 1.66353 0.07722997 -0.69695 1.898013 0.141654 -1.016031 1.961305 0.005140781 -0.07404422 1.439748 0.1058621 -0.8377072 1.916708 -0.3252477 -0.2693538 1.716121 -0.2083188 -0.724021 2.021133 -0.3102051 -0.4772654 1.878437 -0.3403463 -0.2643952 1.736329 -0.2255743 -0.7289165 2.022531 -0.2727482 -0.4610571 1.895838 -0.1411724 -0.1020227 1.371025 0.05992227 -0.4847647 1.804213 0.03010463 -0.2960114 1.66353 0.07722997 -0.69695 1.898014 0.1058622 -0.8377071 1.916708 0.4884755 -0.3909628 1.112378 0.5575498 -0.7246385 0.8066359 0.5153672 -0.5557737 0.970125 0.5050451 -0.3851589 1.112378 0.2494284 -0.7157312 0.7963793 0.5316214 -0.7298446 0.8083713 0.5578652 -0.5447637 0.9683896 0.2126501 -0.1190286 1.230581 0.1939539 -0.5573582 0.9531347 0.1370707 -0.3949631 1.106655 0.06321883 -0.1841247 1.163447 0.02173703 -0.0656988 1.123091 -0.004796922 0.01005262 0.9896808 -0.1546747 -0.5867063 1.128472 0.02196687 -0.9076734 0.8273361 -0.109152 -0.771933 1.00471 0.2494284 -0.7157312 0.7963793 -0.1663649 -0.6029807 1.146136 0.004278302 -0.9167504 0.8260461 -0.06679975 -0.7626999 1.025495 -0.0850014 -0.2204364 1.232136 0.1939539 -0.5573582 0.9531347 0.1370707 -0.3949631 1.106655 0.3166223 -0.9069328 0.4902642 0.06321883 -0.1841247 1.163447</float_array>
          <technique_common>
            <accessor source="#tree_oak_bush_a200-mesh-positions-array" count="260" stride="3">
              <param name="X" type="float"/>
              <param name="Y" type="float"/>
              <param name="Z" type="float"/>
            </accessor>
          </technique_common>
        </source>
        <source id="tree_oak_bush_a200-mesh-normals">
          <float_array id="tree_oak_bush_a200-mesh-normals-array" count="780">0.5024995 -0.8641527 0.02710109 0.7430487 -0.6679717 0.04113972 -0.7818404 -0.6199056 0.06665384 -0.9811468 0.191444 0.02645969 -0.439897 -0.8976169 0.02783304 0.9997217 0.004150629 0.02322518 0.7241325 0.6896151 0.007965505 -0.5383054 0.8414263 0.04721385 0.7327301 0.6791998 0.0423603 0.9993289 -0.03598242 0.006866872 0.1718837 0.04223847 0.9842114 0.1605927 0.02435439 0.9867203 0.1559222 0.01471018 0.9876598 0.06467002 -0.289657 0.9549433 -0.04669463 -0.4486657 0.892479 0.07156693 -0.1511604 0.9859151 0.1474058 -0.1016886 0.9838348 -0.005218744 -0.4604401 0.8876755 0.04495465 -0.4528427 0.8904564 -0.06607347 -0.2873359 0.9555482 -0.08783262 -0.1440785 0.9856607 -0.001648008 -0.458797 0.8885396 -0.005707025 -0.9744088 0.224711 0.001403868 -0.9220098 0.3871642 -0.2426558 0.2099395 0.9471238 -0.004913449 0.2199481 0.9754992 -0.2455281 0.1571441 0.9565677 -0.1821094 -0.09192454 0.978972 -0.2079845 -0.1383715 0.9682953 -0.1841226 9.76616e-4 0.9829029 -0.1758491 0.002624571 0.9844138 0.2053061 0.218277 0.9540464 0.2064286 0.155798 0.9659785 0.2706149 -0.2356398 0.9334033 0.3588441 0.03619569 0.9326956 0.3619287 0.03518873 0.9315415 0.5519734 -0.167124 0.8169425 0.5592037 -0.1888529 0.8072334 0.6000379 -0.1850684 0.77827 0.8106496 -0.3971456 0.4302589 0.690284 -0.6359293 0.3451115 0.7050612 -0.3788079 0.5994943 0.6760737 -0.2791643 0.681903 0.6841194 -0.3000347 0.6648007 0.4315783 -0.03573846 0.9013673 0.7417826 -0.5135253 0.4313356 0.8202409 -0.5602456 0.1154551 0.8409648 -0.42651 0.3329677 0.606382 -0.6951313 0.3861264 0.5451317 -0.6115412 0.5734534 0.09238189 -0.5195299 0.8494436 0.03204488 -0.4968796 0.8672276 0.04129236 -0.5093952 0.8595414 0.4113697 -0.6296743 0.6590033 0.319501 -0.5983205 0.7348005 0.3064761 -0.5555146 0.7729656 -0.6731718 0.03348004 0.7387279 -0.6891268 0.005401909 0.7246208 -0.763767 0.02774167 0.6448957 -0.4089569 -3.05192e-5 0.9125537 -0.1295544 0.2067376 0.9697811 -0.5224239 0.04757905 0.8513575 -0.6688188 0.01858592 0.7431931 -0.1120361 0.3665359 0.9236339 0.7046026 0.2496796 0.6642253 -0.6240024 -0.5835641 0.5196866 -0.7821188 -0.2890486 0.5520336 -0.5588744 -0.5536251 0.6173805 -0.3951658 -0.4749436 0.7863031 -0.3155397 -0.4811377 0.8178884 -0.4727754 -0.4844948 0.7360354 -0.4934626 -0.4935236 0.7161907 0.04321491 -0.2667972 0.9627834 -0.3073264 -0.2741218 0.9112672 -0.3712034 -0.3916816 0.8418989 0.1537233 -0.3838047 0.9105291 -0.8518294 0.03503632 0.5226463 0.8092204 0.2818156 0.5155022 -0.2988104 -0.4345279 0.8496457 -0.3080342 -0.4162261 0.8554945 -0.3136189 -0.407314 0.857752 -0.5047804 -0.1514646 0.8498561 -0.5598159 0.04358154 0.8274703 -0.4034969 -0.2460473 0.8812781 -0.4028279 -0.3320225 0.8529307 -0.5900917 0.02017325 0.8070842 -0.6111106 -0.02328592 0.7912026 -0.4340101 -0.05325555 0.8993326 -0.3135243 -0.128486 0.9408475 -0.5908491 0.01623612 0.8066188 -0.8442574 0.5072014 0.1731364 -0.8454627 0.4252492 0.3230417 0.06546264 -0.2052994 0.9765075 -0.05890113 -0.4004976 0.9144028 0.0217297 -0.1751195 0.9843074 -0.2196792 -0.08499675 0.9718625 -0.241128 -0.03524905 0.9698531 -0.1440498 -0.1386175 0.9798137 -0.1474366 -0.1463074 0.9781905 -0.1659648 -0.5538061 0.8159378 -0.2202605 -0.5217339 0.8241839 -0.3584792 -0.01599204 0.9334008 -0.2348757 -0.2736961 0.9326971 -0.2378063 -0.275101 0.9315404 -0.5149772 -0.2596554 0.8169318 -0.535209 -0.2488812 0.8072234 -0.5621371 -0.279802 0.7782755 -0.8609183 -0.2714689 0.4302608 -0.9384331 -0.01556473 0.3451104 -0.7718051 -0.2119572 0.5994926 -0.6821054 -0.2641136 0.6818917 -0.7023147 -0.2545326 0.6648061 -0.337181 -0.2717469 0.9013671 -0.8913115 -0.1397166 0.4313271 -0.9803447 -0.1599828 0.1154549 -0.903119 -0.271131 0.3329626 -0.9185172 0.08514958 0.3861032 -0.8165056 0.06686711 0.5734522 -0.4251963 0.3124881 0.8494465 -0.3658927 0.3376931 0.8672289 -0.3812157 0.340381 0.8595437 -0.7321579 0.1722204 0.6590031 -0.6439884 0.2129028 0.7348139 -0.605051 0.1908695 0.7729698 0.6725808 0.04397803 0.7387158 0.6851923 0.07370448 0.7246235 0.7619063 0.06006133 0.6448965 0.4062423 0.04696917 0.9125574 0.1524435 -0.1905009 0.9697785 0.5244368 0.01266533 0.8513553 0.6665325 0.05826056 0.743196 0.1533597 -0.3512471 0.9236375 -0.6712967 -0.3289036 0.6642162 0.552887 0.6513422 0.5196821 0.7437779 0.3769093 0.5520272 0.4916385 0.6141132 0.6173788 0.3380359 0.5171559 0.7863089 0.2582267 0.5141645 0.8178961 0.4140545 0.5355515 0.7360324 0.4335539 0.5469017 0.7161911 -0.07355123 0.2600539 0.9627888 0.2738471 0.3075706 0.9112673 0.3237795 0.4316958 0.841906 -0.1967545 0.3636311 0.9105274 0.850229 0.06293016 0.522638 -0.77153 -0.3728248 0.5155029 -0.173654 -0.03421193 0.9842123 -0.1615688 -0.01684659 0.9867177 -0.1564112 -0.007416129 0.9876643 -0.0511192 0.2923714 0.9549376 0.06750887 0.4460102 0.8924783 -0.06445628 0.1543044 0.9859187 -0.1424924 0.1084638 0.9838352 0.02664291 0.4597056 0.8876716 -0.02383553 0.4544327 0.8904622 0.07937973 0.2839483 0.9555482 0.09442478 0.1398366 0.9856621 0.0229811 0.4582186 0.8885425 0.05105769 0.9730874 0.2247089 0.04147583 0.9210754 0.3871691 0.2326453 -0.2209871 0.9471225 -0.005279719 -0.2199187 0.975504 0.2379297 -0.1684064 0.9565714 0.1861988 0.08334845 0.9789705 0.2142097 0.1285441 0.9682927 0.1838784 -0.009552478 0.9829027 0.1755437 -0.01080358 0.9844124 -0.2152552 -0.2084798 0.9540448 -0.2134479 -0.146032 0.9659786 -0.05957335 0.1666651 0.9842123 -0.04062122 0.1572661 0.9867205 -0.03054964 0.1536028 0.9876604 0.281539 0.09390735 0.9549437 0.4510792 -6.10391e-4 0.8924837 0.1430426 0.08664345 0.9859168 0.08612394 0.157019 0.9838332 0.4585762 0.04181081 0.8876711 0.4458594 0.09097862 0.8904675 0.2925849 -0.0363785 0.9555474 0.1523182 -0.07263422 0.9856589 0.4565689 0.04519909 0.8885392 0.9698985 0.09381586 0.2247124 0.9170415 0.09558618 0.3871668 -0.1840595 -0.2628288 0.9471237 -0.2182709 -0.02734488 0.975505 -0.1312342 -0.260271 0.9565755 0.110053 -0.1717633 0.9789717 0.1588805 -0.1927563 0.9682986 0.01779276 -0.1832384 0.9829075 0.01532036 -0.175208 0.9844123 -0.2381134 0.1819574 0.9540407 -0.1760924 0.189429 0.9659752 0.01364213 0.245162 0.9693862 -0.2500718 0.1355649 0.9586899 -0.2513291 0.1386507 0.9579195 -0.2229436 0.4263853 0.8766367 -0.2112841 0.447075 0.8691853 -0.2410987 0.4787793 0.8441811 -0.2214472 0.8160526 0.5338721 0.0370503 0.8902758 0.4539122 -0.1646202 0.7045647 0.6902817 -0.2203491 0.6084322 0.7624019 -0.2099437 0.6300142 0.7476669 -0.2432078 0.2406136 0.9396569 -0.08829158 0.8394871 0.5361584 -0.107702 0.966388 0.2334407 -0.2200757 0.8694683 0.4422572 0.1371235 0.8606158 0.4904463 0.1158199 0.7380735 0.6647056 0.3441383 0.3049207 0.8880271 0.3664457 0.2427508 0.8982147 0.3698293 0.2587401 0.8923452 0.2176942 0.6389828 0.7377738 0.2546526 0.5405263 0.8018625 0.2310917 0.4984403 0.835556 -0.03897303 -0.6728876 0.7387175 -0.01101744 -0.689063 0.7246178 -0.03399783 -0.7635177 0.6448914 -0.003265559 -0.4089293 0.9125603 -0.2077755 -0.1278759 0.969782 -0.05185228 -0.5220022 0.8513666 -0.02404892 -0.6686397 0.7431975 -0.3674495 -0.1090446 0.9236288 -0.2439067 0.7066338 0.6642125 0.5784552 -0.6287503 0.5196757 0.2826651 -0.7844552 0.552024 0.5490201 -0.5633949 0.6173843 0.4717049 -0.3990386 0.7862969 0.4785457 -0.3194475 0.817892 0.4806125 -0.4767366 0.7360257 0.4894641 -0.4974906 0.7161899 0.2671337 0.04101765 0.9627861 0.2715898 -0.3095555 0.9112708 0.3886327 -0.3743801 0.8419052 0.3850549 0.1505794 0.9105266 -0.04199445 -0.8515173 0.522642 -0.27519 0.8115008 0.5154968 0.1659629 -0.1435009 0.9756352 -0.1482306 -0.0368669 0.9882655 0.4365832 -0.6267509 0.6454289 0.3770607 -0.5429308 0.7503675 -0.6479142 0.05932855 0.7593994 -0.6566503 0.03122109 0.7535487 -0.4904716 -0.4779893 0.7286727 -0.4445705 -0.3195646 0.8368009 -0.1951093 -0.1454851 0.9699312 -0.7483958 0.1527494 0.6454234 -0.6474864 0.1330924 0.7503651 0.6504278 0.01538169 0.7594124 0.6558914 0.04431408 0.7535534 0.4323648 0.5311247 0.7286751 -0.1590963 0.1510698 0.9756363 0.149787 0.02993905 0.988265 0.1257696 0.1797581 0.9756379 0.05182123 -0.1436834 0.9882661 0.1988918 0.6576828 0.7265641 0.1753318 0.5461076 0.8191614 -0.06463927 -0.6473998 0.7594046 -0.03659236 -0.6563745 0.7535474 0.473965 -0.4943519 0.7286792</float_array>
          <technique_common>
            <accessor source="#tree_oak_bush_a200-mesh-normals-array" count="260" stride="3">
              <param name="X" type="float"/>
              <param name="Y" type="float"/>
              <param name="Z" type="float"/>
            </accessor>
          </technique_common>
        </source>
        <source id="tree_oak_bush_a200-mesh-map-0">
          <float_array id="tree_oak_bush_a200-mesh-map-0-array" count="1140">0.380668 -1.355135 0.3713168 1.845014 0.3206315 1.844826 0.1759418 -1.352426 0.2782914 -1.354805 0.3206315 1.844826 0.380668 -1.355135 0.4830271 -1.353198 0.3713168 1.845014 0.6875044 -1.342747 0.4725416 1.850188 0.4219729 1.846745 0.4830271 -1.353198 0.5853181 -1.348996 0.4219729 1.846745 0.07366991 -1.347781 0.1759418 -1.352426 0.2699689 1.846353 0.05566447 0.7739725 0.0259028 0.5934174 0.2083508 0.587185 1.00046e-4 0.4368796 0.1057749 0.2231346 0.2102898 0.4151679 1.00046e-4 0.4368796 0.2102898 0.4151679 0.2083508 0.587185 0.1057749 0.2231346 0.2082299 0.226628 0.2102898 0.4151679 0.3146033 0.2208127 0.4048391 0.4194656 0.2102898 0.4151679 0.2082299 0.226628 0.3146033 0.2208127 0.2102898 0.4151679 0.2079371 0.004168987 0.3146033 0.2208127 0.207888 0.1237731 0.3547557 0.7830379 0.2077563 1.007444 0.2081592 0.728695 0.3146033 0.2208127 0.2082299 0.226628 0.207888 0.1237731 0.4048391 0.4194656 0.3821886 0.624606 0.2083508 0.587185 0.3547557 0.7830379 0.2081592 0.728695 0.2083508 0.587185 0.1057749 0.2231346 0.2079371 0.004168987 0.207888 0.1237731 0.2077563 1.007444 0.05566447 0.7739725 0.2081592 0.728695 0.2082299 0.226628 0.1057749 0.2231346 0.207888 0.1237731 0.2064597 1.007536 0.05100786 0.7740701 0.2062383 0.8565885 0.05100786 0.7740701 0.02124625 0.5917446 0.2058702 0.5859856 -0.004556536 0.4336718 0.1011183 0.2178308 0.2056332 0.4117472 0.02124625 0.5917446 -0.004556536 0.4336718 0.2056332 0.4117472 0.05100786 0.7740701 0.2060626 0.7274132 0.2062383 0.8565885 0.1011183 0.2178308 0.2053733 0.220732 0.2056332 0.4117472 0.1011183 0.2178308 0.2050805 0.005488038 0.2053733 0.220732 0.3099468 0.2154862 0.4001826 0.4160869 0.2056332 0.4117472 0.2060626 0.7274132 0.3500991 0.7832245 0.2062425 0.859583 0.377532 0.6232389 0.2058702 0.5859856 0.2056332 0.4117472 0.3500991 0.7832245 0.2060626 0.7274132 0.2058702 0.5859856 0.2053733 0.220732 0.3099468 0.2154862 0.2056332 0.4117472 0.2050805 0.005488038 0.3099468 0.2154862 0.2053733 0.220732 0.3500991 0.7832245 0.2064597 1.007536 0.2062425 0.859583 0.0259028 0.60935 0.2105268 0.6038341 0.2107192 0.7392941 1.00045e-4 0.4579473 0.1057749 0.2512139 0.2102898 0.4369478 1.00045e-4 0.4579473 0.2102898 0.4369478 0.2105268 0.6038341 0.1057749 0.2512139 0.2100299 0.2539928 0.2102898 0.4369478 0.2100299 0.2539928 0.1057749 0.2512139 0.2099031 0.1647489 0.3547557 0.7927502 0.2062335 1.00759 0.2107192 0.7392941 0.4048391 0.4411044 0.3821886 0.6395155 0.2105268 0.6038341 0.3547557 0.7927502 0.2107192 0.7392941 0.2105268 0.6038341 0.3146033 0.2489683 0.4048391 0.4411044 0.2102898 0.4369478 0.2100299 0.2539928 0.3146033 0.2489683 0.2102898 0.4369478 0.2062335 1.00759 0.05566447 0.7839822 0.2107192 0.7392941 0.1057749 0.2512139 0.2097371 0.04783117 0.2099031 0.1647489 0.3146033 0.2489683 0.2100299 0.2539928 0.2099031 0.1647348 0.2097371 0.04783117 0.3146033 0.2489683 0.2099031 0.1647348 0.05566447 0.7739725 0.0259028 0.5934174 0.2083508 0.587185 1.00046e-4 0.4368796 0.1057749 0.2231346 0.2102898 0.4151679 1.00046e-4 0.4368796 0.2102898 0.4151679 0.2083508 0.587185 0.1057749 0.2231346 0.2082299 0.226628 0.2102898 0.4151679 0.3146033 0.2208127 0.4048391 0.4194656 0.2102898 0.4151679 0.2082299 0.226628 0.3146033 0.2208127 0.2102898 0.4151679 0.2079371 0.004168987 0.3146033 0.2208127 0.207888 0.1237731 0.3547557 0.7830379 0.2077563 1.007444 0.2081592 0.728695 0.3146033 0.2208127 0.2082299 0.226628 0.207888 0.1237731 0.4048391 0.4194656 0.3821886 0.624606 0.2083508 0.587185 0.3547557 0.7830379 0.2081592 0.728695 0.2083508 0.587185 0.1057749 0.2231346 0.2079371 0.004168987 0.207888 0.1237731 0.2077563 1.007444 0.05566447 0.7739725 0.2081592 0.728695 0.2082299 0.226628 0.1057749 0.2231346 0.207888 0.1237731 0.2064597 1.007536 0.05100786 0.7740701 0.2062383 0.8565885 0.05100786 0.7740701 0.02124625 0.5917446 0.2058702 0.5859856 -0.004556536 0.4336718 0.1011183 0.2178308 0.2056332 0.4117472 0.02124625 0.5917446 -0.004556536 0.4336718 0.2056332 0.4117472 0.05100786 0.7740701 0.2060626 0.7274132 0.2062383 0.8565885 0.1011183 0.2178308 0.2053733 0.220732 0.2056332 0.4117472 0.1011183 0.2178308 0.2050805 0.005488038 0.2053733 0.220732 0.3099468 0.2154862 0.4001826 0.4160869 0.2056332 0.4117472 0.2060626 0.7274132 0.3500991 0.7832245 0.2062425 0.859583 0.377532 0.6232389 0.2058702 0.5859856 0.2056332 0.4117472 0.3500991 0.7832245 0.2060626 0.7274132 0.2058702 0.5859856 0.2053733 0.220732 0.3099468 0.2154862 0.2056332 0.4117472 0.2050805 0.005488038 0.3099468 0.2154862 0.2053733 0.220732 0.3500991 0.7832245 0.2064597 1.007536 0.2062425 0.859583 0.0259028 0.60935 0.2105268 0.6038341 0.2107192 0.7392941 1.00045e-4 0.4579473 0.1057749 0.2512139 0.2102898 0.4369478 1.00045e-4 0.4579473 0.2102898 0.4369478 0.2105268 0.6038341 0.1057749 0.2512139 0.2100299 0.2539928 0.2102898 0.4369478 0.2100299 0.2539928 0.1057749 0.2512139 0.2099031 0.1647489 0.3547557 0.7927502 0.2062335 1.00759 0.2107192 0.7392941 0.4048391 0.4411044 0.3821886 0.6395155 0.2105268 0.6038341 0.3547557 0.7927502 0.2107192 0.7392941 0.2105268 0.6038341 0.3146033 0.2489683 0.4048391 0.4411044 0.2102898 0.4369478 0.2100299 0.2539928 0.3146033 0.2489683 0.2102898 0.4369478 0.2062335 1.00759 0.05566447 0.7839822 0.2107192 0.7392941 0.1057749 0.2512139 0.2097371 0.04783117 0.2099031 0.1647489 0.3146033 0.2489683 0.2100299 0.2539928 0.2099031 0.1647348 0.2097371 0.04783117 0.3146033 0.2489683 0.2099031 0.1647348 0.05566447 0.7739725 0.0259028 0.5934174 0.2083508 0.587185 1.00046e-4 0.4368796 0.1057749 0.2231346 0.2102898 0.4151679 1.00046e-4 0.4368796 0.2102898 0.4151679 0.2083508 0.587185 0.1057749 0.2231346 0.2082299 0.226628 0.2102898 0.4151679 0.3146033 0.2208127 0.4048391 0.4194656 0.2102898 0.4151679 0.2082299 0.226628 0.3146033 0.2208127 0.2102898 0.4151679 0.2079371 0.004168987 0.3146033 0.2208127 0.207888 0.1237731 0.3547557 0.7830379 0.2077563 1.007444 0.2081592 0.728695 0.3146033 0.2208127 0.2082299 0.226628 0.207888 0.1237731 0.4048391 0.4194656 0.3821886 0.624606 0.2083508 0.587185 0.3547557 0.7830379 0.2081592 0.728695 0.2083508 0.587185 0.1057749 0.2231346 0.2079371 0.004168987 0.207888 0.1237731 0.2077563 1.007444 0.05566447 0.7739725 0.2081592 0.728695 0.2082299 0.226628 0.1057749 0.2231346 0.207888 0.1237731 0.05566447 0.7739725 0.0259028 0.5934174 0.2083508 0.587185 1.00046e-4 0.4368796 0.1057749 0.2231346 0.2102898 0.4151679 1.00046e-4 0.4368796 0.2102898 0.4151679 0.2083508 0.587185 0.1057749 0.2231346 0.2082299 0.226628 0.2102898 0.4151679 0.3146033 0.2208127 0.4048391 0.4194656 0.2102898 0.4151679 0.2082299 0.226628 0.3146033 0.2208127 0.2102898 0.4151679 0.2079371 0.004168987 0.3146033 0.2208127 0.207888 0.1237731 0.3547557 0.7830379 0.2077563 1.007444 0.2081592 0.728695 0.3146033 0.2208127 0.2082299 0.226628 0.207888 0.1237731 0.4048391 0.4194656 0.3821886 0.624606 0.2083508 0.587185 0.3547557 0.7830379 0.2081592 0.728695 0.2083508 0.587185 0.1057749 0.2231346 0.2079371 0.004168987 0.207888 0.1237731 0.2077563 1.007444 0.05566447 0.7739725 0.2081592 0.728695 0.2082299 0.226628 0.1057749 0.2231346 0.207888 0.1237731 0.2064597 1.007536 0.05100786 0.7740701 0.2062383 0.8565885 0.05100786 0.7740701 0.02124625 0.5917446 0.2058702 0.5859856 -0.004556536 0.4336718 0.1011183 0.2178308 0.2056332 0.4117472 0.02124625 0.5917446 -0.004556536 0.4336718 0.2056332 0.4117472 0.05100786 0.7740701 0.2060626 0.7274132 0.2062383 0.8565885 0.1011183 0.2178308 0.2053733 0.220732 0.2056332 0.4117472 0.1011183 0.2178308 0.2050805 0.005488038 0.2053733 0.220732 0.3099468 0.2154862 0.4001826 0.4160869 0.2056332 0.4117472 0.2060626 0.7274132 0.3500991 0.7832245 0.2062425 0.859583 0.377532 0.6232389 0.2058702 0.5859856 0.2056332 0.4117472 0.3500991 0.7832245 0.2060626 0.7274132 0.2058702 0.5859856 0.2053733 0.220732 0.3099468 0.2154862 0.2056332 0.4117472 0.2050805 0.005488038 0.3099468 0.2154862 0.2053733 0.220732 0.3500991 0.7832245 0.2064597 1.007536 0.2062425 0.859583 0.0259028 0.60935 0.2105268 0.6038341 0.2107192 0.7392941 1.00045e-4 0.4579473 0.1057749 0.2512139 0.2102898 0.4369478 1.00045e-4 0.4579473 0.2102898 0.4369478 0.2105268 0.6038341 0.1057749 0.2512139 0.2100299 0.2539928 0.2102898 0.4369478 0.2100299 0.2539928 0.1057749 0.2512139 0.2099031 0.1647489 0.3547557 0.7927502 0.2062335 1.00759 0.2107192 0.7392941 0.4048391 0.4411044 0.3821886 0.6395155 0.2105268 0.6038341 0.3547557 0.7927502 0.2107192 0.7392941 0.2105268 0.6038341 0.3146033 0.2489683 0.4048391 0.4411044 0.2102898 0.4369478 0.2100299 0.2539928 0.3146033 0.2489683 0.2102898 0.4369478 0.2062335 1.00759 0.05566447 0.7839822 0.2107192 0.7392941 0.1057749 0.2512139 0.2097371 0.04783117 0.2099031 0.1647489 0.3146033 0.2489683 0.2100299 0.2539928 0.2099031 0.1647348 0.2097371 0.04783117 0.3146033 0.2489683 0.2099031 0.1647348 0.2782914 -1.354805 0.380668 -1.355135 0.3206315 1.844826 0.2699689 1.846353 0.1759418 -1.352426 0.3206315 1.844826 0.5853181 -1.348996 0.6875044 -1.342747 0.4219729 1.846745 0.3713168 1.845014 0.4830271 -1.353198 0.4219729 1.846745 0.2081592 0.728695 0.05566447 0.7739725 0.2083508 0.587185 0.0259028 0.5934174 1.00046e-4 0.4368796 0.2083508 0.587185 0.2102898 0.4151679 0.4048391 0.4194656 0.2083508 0.587185 0.3821886 0.624606 0.3547557 0.7830379 0.2083508 0.587185 0.2060626 0.7274132 0.05100786 0.7740701 0.2058702 0.5859856 0.2058702 0.5859856 0.02124625 0.5917446 0.2056332 0.4117472 0.4001826 0.4160869 0.377532 0.6232389 0.2056332 0.4117472 0.377532 0.6232389 0.3500991 0.7832245 0.2058702 0.5859856 0.05566447 0.7839822 0.0259028 0.60935 0.2107192 0.7392941 0.0259028 0.60935 1.00045e-4 0.4579473 0.2105268 0.6038341 0.2102898 0.4369478 0.4048391 0.4411044 0.2105268 0.6038341 0.3821886 0.6395155 0.3547557 0.7927502 0.2105268 0.6038341 0.2081592 0.728695 0.05566447 0.7739725 0.2083508 0.587185 0.0259028 0.5934174 1.00046e-4 0.4368796 0.2083508 0.587185 0.2102898 0.4151679 0.4048391 0.4194656 0.2083508 0.587185 0.3821886 0.624606 0.3547557 0.7830379 0.2083508 0.587185 0.2060626 0.7274132 0.05100786 0.7740701 0.2058702 0.5859856 0.2058702 0.5859856 0.02124625 0.5917446 0.2056332 0.4117472 0.4001826 0.4160869 0.377532 0.6232389 0.2056332 0.4117472 0.377532 0.6232389 0.3500991 0.7832245 0.2058702 0.5859856 0.05566447 0.7839822 0.0259028 0.60935 0.2107192 0.7392941 0.0259028 0.60935 1.00045e-4 0.4579473 0.2105268 0.6038341 0.2102898 0.4369478 0.4048391 0.4411044 0.2105268 0.6038341 0.3821886 0.6395155 0.3547557 0.7927502 0.2105268 0.6038341 0.2081592 0.728695 0.05566447 0.7739725 0.2083508 0.587185 0.0259028 0.5934174 1.00046e-4 0.4368796 0.2083508 0.587185 0.2102898 0.4151679 0.4048391 0.4194656 0.2083508 0.587185 0.3821886 0.624606 0.3547557 0.7830379 0.2083508 0.587185 0.2081592 0.728695 0.05566447 0.7739725 0.2083508 0.587185 0.0259028 0.5934174 1.00046e-4 0.4368796 0.2083508 0.587185 0.2102898 0.4151679 0.4048391 0.4194656 0.2083508 0.587185 0.3821886 0.624606 0.3547557 0.7830379 0.2083508 0.587185 0.2060626 0.7274132 0.05100786 0.7740701 0.2058702 0.5859856 0.2058702 0.5859856 0.02124625 0.5917446 0.2056332 0.4117472 0.4001826 0.4160869 0.377532 0.6232389 0.2056332 0.4117472 0.377532 0.6232389 0.3500991 0.7832245 0.2058702 0.5859856 0.05566447 0.7839822 0.0259028 0.60935 0.2107192 0.7392941 0.0259028 0.60935 1.00045e-4 0.4579473 0.2105268 0.6038341 0.2102898 0.4369478 0.4048391 0.4411044 0.2105268 0.6038341 0.3821886 0.6395155 0.3547557 0.7927502 0.2105268 0.6038341</float_array>
          <technique_common>
            <accessor source="#tree_oak_bush_a200-mesh-map-0-array" count="570" stride="2">
              <param name="S" type="float"/>
              <param name="T" type="float"/>
            </accessor>
          </technique_common>
        </source>
        <source id="tree_oak_bush_a200-mesh-colors-Col" name="Col">
          <float_array id="tree_oak_bush_a200-mesh-colors-Col-array" count="1710">0 0 0 0 0 0 0 0 0 0 0 0 0 0 0 0 0 0 0 0 0 0 0 0 0 0 0 0 0 0 0 0 0 0 0 0 0 0 0 0 0 0 0 0 0 0 0 0 0 0 0 0 0 0 1 1 1 1 1 1 1 0.9215686 0 0.8941177 0.9843137 1 0.05882352 0.3529412 0 0.8588235 0.5647059 0 0.8941177 0.9843137 1 0.8588235 0.5647059 0 1 0.9215686 0 0.05882352 0.3529412 0 0.06274509 0.3686274 0 0.8588235 0.5647059 0 0.06666666 0.3411765 0 0.3098039 0.3882353 1 0.8588235 0.5647059 0 0.06274509 0.3686274 0 0.06666666 0.3411765 0 0.8588235 0.5647059 0 0 0.2156863 0 0.06666666 0.3411765 0 0.03137254 0.254902 0 1 0.6588236 1 1 1 1 1 0.9215686 0 0.06666666 0.3411765 0 0.06274509 0.3686274 0 0.03137254 0.254902 0 0.3098039 0.3882353 1 0.8784314 0.5019608 1 1 0.9215686 0 1 0.6588236 1 1 0.9215686 0 1 0.9215686 0 0.05882352 0.3529412 0 0 0.2156863 0 0.03137254 0.254902 0 1 1 1 1 1 1 1 0.9215686 0 0.06274509 0.3686274 0 0.05882352 0.3529412 0 0.03137254 0.254902 0 1 1 1 1 1 1 1 0.9215686 0 1 1 1 1 1 1 1 0.9254902 0 0.8941177 0.9843137 1 0.05882352 0.3529412 0 0.8588235 0.5647059 0 1 1 1 0.8941177 0.9843137 1 0.8588235 0.5647059 0 1 1 1 1 0.9215686 0 1 0.9215686 0 0.05882352 0.3529412 0 0.06274509 0.3686274 0 0.8588235 0.5647059 0 0.05882352 0.3529412 0 0 0.2156863 0 0.06274509 0.3686274 0 0.06666666 0.3411765 0 0.3098039 0.3882353 1 0.8588235 0.5647059 0 1 0.9215686 0 1 0.6588236 1 1 0.9215686 0 0.8784314 0.5019608 1 1 0.9254902 0 0.8588235 0.5647059 0 1 0.6588236 1 1 0.9215686 0 1 0.9254902 0 0.06274509 0.3686274 0 0.06666666 0.3411765 0 0.8588235 0.5647059 0 0 0.2156863 0 0.06666666 0.3411765 0 0.06274509 0.3686274 0 1 0.6588236 1 1 1 1 1 0.9215686 0 1 1 1 1 0.9254902 0 1 0.9215686 0 0.8941177 0.9843137 1 0.05882352 0.3529412 0 0.8588235 0.5647059 0 0.8941177 0.9843137 1 0.8588235 0.5647059 0 1 0.9254902 0 0.05882352 0.3529412 0 0.06274509 0.3686274 0 0.8588235 0.5647059 0 0.06274509 0.3686274 0 0.05882352 0.3529412 0 0.03529411 0.3019608 0 1 0.6588236 1 1 1 1 1 0.9215686 0 0.3098039 0.3882353 1 0.8784314 0.5019608 1 1 0.9254902 0 1 0.6588236 1 1 0.9215686 0 1 0.9254902 0 0.06666666 0.3411765 0 0.3098039 0.3882353 1 0.8588235 0.5647059 0 0.06274509 0.3686274 0 0.06666666 0.3411765 0 0.8588235 0.5647059 0 1 1 1 1 1 1 1 0.9215686 0 0.05882352 0.3529412 0 0 0.2156863 0 0.03529411 0.3019608 0 0.06666666 0.3411765 0 0.06274509 0.3686274 0 0.03529411 0.3019608 0 0 0.2156863 0 0.06666666 0.3411765 0 0.03529411 0.3019608 0 1 1 1 1 1 1 1 0.9215686 0 0.8941177 0.9843137 1 0.05882352 0.3529412 0 0.8588235 0.5647059 0 0.8941177 0.9843137 1 0.8588235 0.5647059 0 1 0.9215686 0 0.05882352 0.3529412 0 0.06274509 0.3686274 0 0.8588235 0.5647059 0 0.06666666 0.3411765 0 0.3098039 0.3882353 1 0.8588235 0.5647059 0 0.06274509 0.3686274 0 0.06666666 0.3411765 0 0.8588235 0.5647059 0 0 0.2156863 0 0.06666666 0.3411765 0 0.03137254 0.254902 0 1 0.6588236 1 1 1 1 1 0.9215686 0 0.06666666 0.3411765 0 0.06274509 0.3686274 0 0.03137254 0.254902 0 0.3098039 0.3882353 1 0.8784314 0.5019608 1 1 0.9215686 0 1 0.6588236 1 1 0.9215686 0 1 0.9215686 0 0.05882352 0.3529412 0 0 0.2156863 0 0.03137254 0.254902 0 1 1 1 1 1 1 1 0.9215686 0 0.06274509 0.3686274 0 0.05882352 0.3529412 0 0.03137254 0.254902 0 1 1 1 1 1 1 1 0.9215686 0 1 1 1 1 1 1 1 0.9254902 0 0.8941177 0.9843137 1 0.05882352 0.3529412 0 0.8588235 0.5647059 0 1 1 1 0.8941177 0.9843137 1 0.8588235 0.5647059 0 1 1 1 1 0.9215686 0 1 0.9215686 0 0.05882352 0.3529412 0 0.06274509 0.3686274 0 0.8588235 0.5647059 0 0.05882352 0.3529412 0 0 0.2156863 0 0.06274509 0.3686274 0 0.06666666 0.3411765 0 0.3098039 0.3882353 1 0.8588235 0.5647059 0 1 0.9215686 0 1 0.6588236 1 1 0.9215686 0 0.8784314 0.5019608 1 1 0.9254902 0 0.8588235 0.5647059 0 1 0.6588236 1 1 0.9215686 0 1 0.9254902 0 0.06274509 0.3686274 0 0.06666666 0.3411765 0 0.8588235 0.5647059 0 0 0.2156863 0 0.06666666 0.3411765 0 0.06274509 0.3686274 0 1 0.6588236 1 1 1 1 1 0.9215686 0 1 1 1 1 0.9254902 0 1 0.9215686 0 0.8941177 0.9843137 1 0.05882352 0.3529412 0 0.8588235 0.5647059 0 0.8941177 0.9843137 1 0.8588235 0.5647059 0 1 0.9254902 0 0.05882352 0.3529412 0 0.06274509 0.3686274 0 0.8588235 0.5647059 0 0.06274509 0.3686274 0 0.05882352 0.3529412 0 0.03529411 0.3019608 0 1 0.6588236 1 1 1 1 1 0.9215686 0 0.3098039 0.3882353 1 0.8784314 0.5019608 1 1 0.9254902 0 1 0.6588236 1 1 0.9215686 0 1 0.9254902 0 0.06666666 0.3411765 0 0.3098039 0.3882353 1 0.8588235 0.5647059 0 0.06274509 0.3686274 0 0.06666666 0.3411765 0 0.8588235 0.5647059 0 1 1 1 1 1 1 1 0.9215686 0 0.05882352 0.3529412 0 0 0.2156863 0 0.03529411 0.3019608 0 0.06666666 0.3411765 0 0.06274509 0.3686274 0 0.03529411 0.3019608 0 0 0.2156863 0 0.06666666 0.3411765 0 0.03529411 0.3019608 0 1 1 1 1 1 1 1 0.9215686 0 0.8941177 0.9843137 1 0.05882352 0.3529412 0 0.8588235 0.5647059 0 0.8941177 0.9843137 1 0.8588235 0.5647059 0 1 0.9215686 0 0.05882352 0.3529412 0 0.06274509 0.3686274 0 0.8588235 0.5647059 0 0.06666666 0.3411765 0 0.3098039 0.3882353 1 0.8588235 0.5647059 0 0.06274509 0.3686274 0 0.06666666 0.3411765 0 0.8588235 0.5647059 0 0 0.2156863 0 0.06666666 0.3411765 0 0.03137254 0.254902 0 1 0.6588236 1 1 1 1 1 0.9215686 0 0.06666666 0.3411765 0 0.06274509 0.3686274 0 0.03137254 0.254902 0 0.3098039 0.3882353 1 0.8784314 0.5019608 1 1 0.9215686 0 1 0.6588236 1 1 0.9215686 0 1 0.9215686 0 0.05882352 0.3529412 0 0 0.2156863 0 0.03137254 0.254902 0 1 1 1 1 1 1 1 0.9215686 0 0.06274509 0.3686274 0 0.05882352 0.3529412 0 0.03137254 0.254902 0 1 1 1 1 1 1 1 0.9215686 0 0.8941177 0.9843137 1 0.05882352 0.3529412 0 0.8588235 0.5647059 0 0.8941177 0.9843137 1 0.8588235 0.5647059 0 1 0.9215686 0 0.05882352 0.3529412 0 0.06274509 0.3686274 0 0.8588235 0.5647059 0 0.06666666 0.3411765 0 0.3098039 0.3882353 1 0.8588235 0.5647059 0 0.06274509 0.3686274 0 0.06666666 0.3411765 0 0.8588235 0.5647059 0 0 0.2156863 0 0.06666666 0.3411765 0 0.03137254 0.254902 0 1 0.6588236 1 1 1 1 1 0.9215686 0 0.06666666 0.3411765 0 0.06274509 0.3686274 0 0.03137254 0.254902 0 0.3098039 0.3882353 1 0.8784314 0.5019608 1 1 0.9215686 0 1 0.6588236 1 1 0.9215686 0 1 0.9215686 0 0.05882352 0.3529412 0 0 0.2156863 0 0.03137254 0.254902 0 1 1 1 1 1 1 1 0.9215686 0 0.06274509 0.3686274 0 0.05882352 0.3529412 0 0.03137254 0.254902 0 1 1 1 1 1 1 1 0.9215686 0 1 1 1 1 1 1 1 0.9254902 0 0.8941177 0.9843137 1 0.05882352 0.3529412 0 0.8588235 0.5647059 0 1 1 1 0.8941177 0.9843137 1 0.8588235 0.5647059 0 1 1 1 1 0.9215686 0 1 0.9215686 0 0.05882352 0.3529412 0 0.06274509 0.3686274 0 0.8588235 0.5647059 0 0.05882352 0.3529412 0 0 0.2156863 0 0.06274509 0.3686274 0 0.06666666 0.3411765 0 0.3098039 0.3882353 1 0.8588235 0.5647059 0 1 0.9215686 0 1 0.6588236 1 1 0.9215686 0 0.8784314 0.5019608 1 1 0.9254902 0 0.8588235 0.5647059 0 1 0.6588236 1 1 0.9215686 0 1 0.9254902 0 0.06274509 0.3686274 0 0.06666666 0.3411765 0 0.8588235 0.5647059 0 0 0.2156863 0 0.06666666 0.3411765 0 0.06274509 0.3686274 0 1 0.6588236 1 1 1 1 1 0.9215686 0 1 1 1 1 0.9254902 0 1 0.9215686 0 0.8941177 0.9843137 1 0.05882352 0.3529412 0 0.8588235 0.5647059 0 0.8941177 0.9843137 1 0.8588235 0.5647059 0 1 0.9254902 0 0.05882352 0.3529412 0 0.06274509 0.3686274 0 0.8588235 0.5647059 0 0.06274509 0.3686274 0 0.05882352 0.3529412 0 0.03529411 0.3019608 0 1 0.6588236 1 1 1 1 1 0.9215686 0 0.3098039 0.3882353 1 0.8784314 0.5019608 1 1 0.9254902 0 1 0.6588236 1 1 0.9215686 0 1 0.9254902 0 0.06666666 0.3411765 0 0.3098039 0.3882353 1 0.8588235 0.5647059 0 0.06274509 0.3686274 0 0.06666666 0.3411765 0 0.8588235 0.5647059 0 1 1 1 1 1 1 1 0.9215686 0 0.05882352 0.3529412 0 0 0.2156863 0 0.03529411 0.3019608 0 0.06666666 0.3411765 0 0.06274509 0.3686274 0 0.03529411 0.3019608 0 0 0.2156863 0 0.06666666 0.3411765 0 0.03529411 0.3019608 0 0 0 0 0 0 0 0 0 0 0 0 0 0 0 0 0 0 0 0 0 0 0 0 0 0 0 0 0 0 0 0 0 0 0 0 0 1 0.9215686 0 1 1 1 1 0.9215686 0 1 1 1 0.8941177 0.9843137 1 1 0.9215686 0 0.8588235 0.5647059 0 0.3098039 0.3882353 1 1 0.9215686 0 0.8784314 0.5019608 1 1 0.6588236 1 1 0.9215686 0 1 0.9215686 0 1 1 1 1 0.9254902 0 1 0.9254902 0 1 1 1 0.8588235 0.5647059 0 0.3098039 0.3882353 1 0.8784314 0.5019608 1 0.8588235 0.5647059 0 0.8784314 0.5019608 1 1 0.6588236 1 1 0.9254902 0 1 1 1 1 1 1 1 0.9215686 0 1 1 1 0.8941177 0.9843137 1 1 0.9254902 0 0.8588235 0.5647059 0 0.3098039 0.3882353 1 1 0.9254902 0 0.8784314 0.5019608 1 1 0.6588236 1 1 0.9254902 0 1 0.9215686 0 1 1 1 1 0.9215686 0 1 1 1 0.8941177 0.9843137 1 1 0.9215686 0 0.8588235 0.5647059 0 0.3098039 0.3882353 1 1 0.9215686 0 0.8784314 0.5019608 1 1 0.6588236 1 1 0.9215686 0 1 0.9215686 0 1 1 1 1 0.9254902 0 1 0.9254902 0 1 1 1 0.8588235 0.5647059 0 0.3098039 0.3882353 1 0.8784314 0.5019608 1 0.8588235 0.5647059 0 0.8784314 0.5019608 1 1 0.6588236 1 1 0.9254902 0 1 1 1 1 1 1 1 0.9215686 0 1 1 1 0.8941177 0.9843137 1 1 0.9254902 0 0.8588235 0.5647059 0 0.3098039 0.3882353 1 1 0.9254902 0 0.8784314 0.5019608 1 1 0.6588236 1 1 0.9254902 0 1 0.9215686 0 1 1 1 1 0.9215686 0 1 1 1 0.8941177 0.9843137 1 1 0.9215686 0 0.8588235 0.5647059 0 0.3098039 0.3882353 1 1 0.9215686 0 0.8784314 0.5019608 1 1 0.6588236 1 1 0.9215686 0 1 0.9215686 0 1 1 1 1 0.9215686 0 1 1 1 0.8941177 0.9843137 1 1 0.9215686 0 0.8588235 0.5647059 0 0.3098039 0.3882353 1 1 0.9215686 0 0.8784314 0.5019608 1 1 0.6588236 1 1 0.9215686 0 1 0.9215686 0 1 1 1 1 0.9254902 0 1 0.9254902 0 1 1 1 0.8588235 0.5647059 0 0.3098039 0.3882353 1 0.8784314 0.5019608 1 0.8588235 0.5647059 0 0.8784314 0.5019608 1 1 0.6588236 1 1 0.9254902 0 1 1 1 1 1 1 1 0.9215686 0 1 1 1 0.8941177 0.9843137 1 1 0.9254902 0 0.8588235 0.5647059 0 0.3098039 0.3882353 1 1 0.9254902 0 0.8784314 0.5019608 1 1 0.6588236 1 1 0.9254902 0</float_array>
          <technique_common>
            <accessor source="#tree_oak_bush_a200-mesh-colors-Col-array" count="570" stride="3">
              <param name="R" type="float"/>
              <param name="G" type="float"/>
              <param name="B" type="float"/>
            </accessor>
          </technique_common>
        </source>
        <vertices id="tree_oak_bush_a200-mesh-vertices">
          <input semantic="POSITION" source="#tree_oak_bush_a200-mesh-positions"/>
        </vertices>
        <polylist material="vegetation_palm_bark_01-material" count="10">
          <input semantic="VERTEX" source="#tree_oak_bush_a200-mesh-vertices" offset="0"/>
          <input semantic="NORMAL" source="#tree_oak_bush_a200-mesh-normals" offset="1"/>
          <input semantic="TEXCOORD" source="#tree_oak_bush_a200-mesh-map-0" offset="2" set="0"/>
          <input semantic="COLOR" source="#tree_oak_bush_a200-mesh-colors-Col" offset="3" set="0"/>
          <vcount>3 3 3 3 3 3 3 3 3 3 </vcount>
          <p>3 0 0 0 8 1 1 1 7 2 2 2 1 3 3 3 2 4 4 4 7 2 5 5 3 0 6 6 4 5 7 7 8 1 8 8 0 6 9 9 6 7 10 10 9 8 11 11 4 5 12 12 5 9 13 13 9 8 14 14 0 6 15 15 1 3 16 16 6 7 17 17 2 4 438 438 3 0 439 439 7 2 440 440 6 7 441 441 1 3 442 442 7 2 443 443 5 9 444 444 0 6 445 445 9 8 446 446 8 1 447 447 4 5 448 448 9 8 449 449</p>
        </polylist>
        <polylist material="vegetation_palm_01-material" count="180">
          <input semantic="VERTEX" source="#tree_oak_bush_a200-mesh-vertices" offset="0"/>
          <input semantic="NORMAL" source="#tree_oak_bush_a200-mesh-normals" offset="1"/>
          <input semantic="TEXCOORD" source="#tree_oak_bush_a200-mesh-map-0" offset="2" set="0"/>
          <input semantic="COLOR" source="#tree_oak_bush_a200-mesh-colors-Col" offset="3" set="0"/>
          <vcount>3 3 3 3 3 3 3 3 3 3 3 3 3 3 3 3 3 3 3 3 3 3 3 3 3 3 3 3 3 3 3 3 3 3 3 3 3 3 3 3 3 3 3 3 3 3 3 3 3 3 3 3 3 3 3 3 3 3 3 3 3 3 3 3 3 3 3 3 3 3 3 3 3 3 3 3 3 3 3 3 3 3 3 3 3 3 3 3 3 3 3 3 3 3 3 3 3 3 3 3 3 3 3 3 3 3 3 3 3 3 3 3 3 3 3 3 3 3 3 3 3 3 3 3 3 3 3 3 3 3 3 3 3 3 3 3 3 3 3 3 3 3 3 3 3 3 3 3 3 3 3 3 3 3 3 3 3 3 3 3 3 3 3 3 3 3 3 3 3 3 3 3 3 3 3 3 3 3 3 3 </vcount>
          <p>17 10 18 18 18 11 19 19 20 12 20 20 16 13 21 21 19 14 22 22 10 15 23 23 13 16 24 24 10 15 25 25 20 12 26 26 19 14 27 27 12 17 28 28 10 15 29 29 27 18 30 30 21 19 31 31 29 20 32 32 31 21 33 33 27 18 34 34 29 20 35 35 28 22 36 36 27 18 37 37 32 23 38 38 25 24 39 39 34 25 40 40 30 26 41 41 27 18 42 42 31 21 43 43 32 23 44 44 24 27 45 45 26 28 46 46 33 29 47 47 22 30 48 48 30 26 49 49 33 29 50 50 19 14 51 51 28 22 52 52 32 23 53 53 34 25 54 54 14 31 55 55 11 32 56 56 12 17 57 57 19 14 58 58 32 23 59 59 46 33 60 60 37 34 61 61 48 35 62 62 40 36 63 63 41 37 64 64 43 38 65 65 39 39 66 66 42 40 67 67 44 41 68 68 38 42 69 69 35 43 70 70 44 41 71 71 37 34 72 72 45 44 73 73 48 35 74 74 42 40 75 75 47 45 76 76 44 41 77 77 42 40 78 78 36 46 79 79 47 45 80 80 55 47 81 81 49 48 82 82 57 49 83 83 58 50 84 84 53 51 85 85 59 52 86 86 54 53 87 87 56 54 88 88 57 49 89 89 50 55 90 90 58 50 91 91 56 54 92 92 47 45 93 93 55 47 94 94 57 49 95 95 36 46 96 96 55 47 97 97 47 45 98 98 53 51 99 99 46 33 100 100 59 52 101 101 66 56 102 102 68 57 103 103 64 58 104 104 63 59 105 105 67 60 106 106 69 61 107 107 60 62 108 108 69 61 109 109 68 57 110 110 67 60 111 111 70 63 112 112 69 61 113 113 70 63 114 114 67 60 115 115 71 64 116 116 78 65 117 117 83 66 118 118 76 67 119 119 77 68 120 120 79 69 121 121 81 70 122 122 74 71 123 123 76 67 124 124 81 70 125 125 80 72 126 126 73 73 127 127 82 74 128 128 84 75 129 129 80 72 130 130 82 74 131 131 83 66 132 132 61 76 133 133 64 58 134 134 67 60 135 135 72 77 136 136 71 64 137 137 80 72 138 138 84 75 139 139 71 64 140 140 72 77 141 141 80 72 142 142 71 64 143 143 92 78 144 144 93 79 145 145 95 80 146 146 91 81 147 147 94 82 148 148 85 83 149 149 88 84 150 150 85 83 151 151 95 80 152 152 94 82 153 153 87 85 154 154 85 83 155 155 102 86 156 156 96 87 157 157 104 88 158 158 106 89 159 159 102 86 160 160 104 88 161 161 103 90 162 162 102 86 163 163 107 91 164 164 100 92 165 165 109 93 166 166 105 94 167 167 102 86 168 168 106 89 169 169 107 91 170 170 99 95 171 171 101 96 172 172 108 97 173 173 97 98 174 174 105 94 175 175 108 97 176 176 94 82 177 177 103 90 178 178 107 91 179 179 109 93 180 180 89 99 181 181 86 100 182 182 87 85 183 183 94 82 184 184 107 91 185 185 121 101 186 186 112 102 187 187 123 103 188 188 115 104 189 189 116 105 190 190 118 106 191 191 114 107 192 192 117 108 193 193 119 109 194 194 113 110 195 195 110 111 196 196 119 109 197 197 112 102 198 198 120 112 199 199 123 103 200 200 117 108 201 201 122 113 202 202 119 109 203 203 117 108 204 204 111 114 205 205 122 113 206 206 130 115 207 207 124 116 208 208 132 117 209 209 133 118 210 210 128 119 211 211 134 120 212 212 129 121 213 213 131 122 214 214 132 117 215 215 125 123 216 216 133 118 217 217 131 122 218 218 122 113 219 219 130 115 220 220 132 117 221 221 111 114 222 222 130 115 223 223 122 113 224 224 128 119 225 225 121 101 226 226 134 120 227 227 141 124 228 228 143 125 229 229 139 126 230 230 138 127 231 231 142 128 232 232 144 129 233 233 135 130 234 234 144 129 235 235 143 125 236 236 142 128 237 237 145 131 238 238 144 129 239 239 145 131 240 240 142 128 241 241 146 132 242 242 153 133 243 243 158 134 244 244 151 135 245 245 152 136 246 246 154 137 247 247 156 138 248 248 149 139 249 249 151 135 250 250 156 138 251 251 155 140 252 252 148 141 253 253 157 142 254 254 159 143 255 255 155 140 256 256 157 142 257 257 158 134 258 258 136 144 259 259 139 126 260 260 142 128 261 261 147 145 262 262 146 132 263 263 155 140 264 264 159 143 265 265 146 132 266 266 147 145 267 267 155 140 268 268 146 132 269 269 167 146 270 270 168 147 271 271 170 148 272 272 166 149 273 273 169 150 274 274 160 151 275 275 163 152 276 276 160 151 277 277 170 148 278 278 169 150 279 279 162 153 280 280 160 151 281 281 177 154 282 282 171 155 283 283 179 156 284 284 181 157 285 285 177 154 286 286 179 156 287 287 178 158 288 288 177 154 289 289 182 159 290 290 175 160 291 291 184 161 292 292 180 162 293 293 177 154 294 294 181 157 295 295 182 159 296 296 174 163 297 297 176 164 298 298 183 165 299 299 172 166 300 300 180 162 301 301 183 165 302 302 169 150 303 303 178 158 304 304 182 159 305 305 184 161 306 306 164 167 307 307 161 168 308 308 162 153 309 309 169 150 310 310 182 159 311 311 192 169 312 312 193 170 313 313 195 171 314 314 191 172 315 315 194 173 316 316 185 174 317 317 188 175 318 318 185 174 319 319 195 171 320 320 194 173 321 321 187 176 322 322 185 174 323 323 202 177 324 324 196 178 325 325 204 179 326 326 206 180 327 327 202 177 328 328 204 179 329 329 203 181 330 330 202 177 331 331 207 182 332 332 200 183 333 333 209 184 334 334 205 185 335 335 202 177 336 336 206 180 337 337 207 182 338 338 199 186 339 339 201 187 340 340 208 188 341 341 197 189 342 342 205 185 343 343 208 188 344 344 194 173 345 345 203 181 346 346 207 182 347 347 209 184 348 348 189 190 349 349 186 191 350 350 187 176 351 351 194 173 352 352 207 182 353 353 221 192 354 354 212 193 355 355 223 194 356 356 215 195 357 357 216 196 358 358 218 197 359 359 214 198 360 360 217 199 361 361 219 200 362 362 213 201 363 363 210 202 364 364 219 200 365 365 212 193 366 366 220 203 367 367 223 194 368 368 217 199 369 369 222 204 370 370 219 200 371 371 217 199 372 372 211 205 373 373 222 204 374 374 230 206 375 375 224 207 376 376 232 208 377 377 233 209 378 378 228 210 379 379 234 211 380 380 229 212 381 381 231 213 382 382 232 208 383 383 225 214 384 384 233 209 385 385 231 213 386 386 222 204 387 387 230 206 388 388 232 208 389 389 211 205 390 390 230 206 391 391 222 204 392 392 228 210 393 393 221 192 394 394 234 211 395 395 241 215 396 396 243 216 397 397 239 217 398 398 238 218 399 399 242 219 400 400 244 220 401 401 235 221 402 402 244 220 403 403 243 216 404 404 242 219 405 405 245 222 406 406 244 220 407 407 245 222 408 408 242 219 409 409 246 223 410 410 253 224 411 411 258 225 412 412 251 226 413 413 252 227 414 414 254 228 415 415 256 229 416 416 249 230 417 417 251 226 418 418 256 229 419 419 255 231 420 420 248 232 421 421 257 233 422 422 259 234 423 423 255 231 424 424 257 233 425 425 258 225 426 426 236 235 427 427 239 217 428 428 242 219 429 429 247 236 430 430 246 223 431 431 255 231 432 432 259 234 433 433 246 223 434 434 247 236 435 435 255 231 436 436 246 223 437 437 11 32 450 450 17 10 451 451 20 12 452 452 15 237 453 453 13 16 454 454 20 12 455 455 29 20 456 456 24 27 457 457 33 29 458 458 23 238 459 459 22 30 460 460 33 29 461 461 45 44 462 462 40 36 463 463 43 38 464 464 43 38 465 465 38 42 466 466 44 41 467 467 52 239 468 468 54 53 469 469 57 49 470 470 51 240 471 471 50 55 472 472 56 54 473 473 65 241 474 474 66 56 475 475 64 58 476 476 62 242 477 477 60 62 478 478 68 57 479 479 82 74 480 480 77 68 481 481 81 70 482 482 75 243 483 483 74 71 484 484 81 70 485 485 86 100 486 486 92 78 487 487 95 80 488 488 90 244 489 489 88 84 490 490 95 80 491 491 104 88 492 492 99 95 493 493 108 97 494 494 98 245 495 495 97 98 496 496 108 97 497 497 120 112 498 498 115 104 499 499 118 106 500 500 118 106 501 501 113 110 502 502 119 109 503 503 127 246 504 504 129 121 505 505 132 117 506 506 126 247 507 507 125 123 508 508 131 122 509 509 140 248 510 510 141 124 511 511 139 126 512 512 137 249 513 513 135 130 514 514 143 125 515 515 157 142 516 516 152 136 517 517 156 138 518 518 150 250 519 519 149 139 520 520 156 138 521 521 161 168 522 522 167 146 523 523 170 148 524 524 165 251 525 525 163 152 526 526 170 148 527 527 179 156 528 528 174 163 529 529 183 165 530 530 173 252 531 531 172 166 532 532 183 165 533 533 186 191 534 534 192 169 535 535 195 171 536 536 190 253 537 537 188 175 538 538 195 171 539 539 204 179 540 540 199 186 541 541 208 188 542 542 198 254 543 543 197 189 544 544 208 188 545 545 220 203 546 546 215 195 547 547 218 197 548 548 218 197 549 549 213 201 550 550 219 200 551 551 227 255 552 552 229 212 553 553 232 208 554 554 226 256 555 555 225 214 556 556 231 213 557 557 240 257 558 558 241 215 559 559 239 217 560 560 237 258 561 561 235 221 562 562 243 216 563 563 257 233 564 564 252 227 565 565 256 229 566 566 250 259 567 567 249 230 568 568 256 229 569 569</p>
        </polylist>
      </mesh>
      <extra><technique profile="MAYA"><double_sided>1</double_sided></technique></extra>
    </geometry>
    <geometry id="Colmesh-1-mesh" name="Colmesh-1">
      <mesh>
        <source id="Colmesh-1-mesh-positions">
          <float_array id="Colmesh-1-mesh-positions-array" count="30">0 0.2653704 -0.3271845 -0.2948275 0.05116558 -0.3271845 -0.1822134 -0.2954249 -0.3271845 0.1822134 -0.2954249 -0.3271845 0.2948275 0.05116564 -0.3271845 0 0.31 1.279451 -0.2948275 0.09579527 1.279451 -0.1822134 -0.2507953 1.279451 0.1822134 -0.2507953 1.279451 0.2948275 0.09579527 1.279451</float_array>
          <technique_common>
            <accessor source="#Colmesh-1-mesh-positions-array" count="10" stride="3">
              <param name="X" type="float"/>
              <param name="Y" type="float"/>
              <param name="Z" type="float"/>
            </accessor>
          </technique_common>
        </source>
        <source id="Colmesh-1-mesh-normals">
          <float_array id="Colmesh-1-mesh-normals-array" count="45">-0.587637 0.8088128 -0.02246743 0.5876368 0.8088129 -0.02246743 -0.9510215 -0.3090056 0.008583605 1.58637e-7 -0.9996144 0.02776753 0.9510216 -0.3090054 0.008583605 -4.71903e-7 0 1 0 0 -1 -1.45826e-7 0 -1 0 0 1 0 0 1 -0.587637 0.8088127 -0.02246743 0.5876369 0.8088129 -0.02246743 -0.9510216 -0.3090055 0.008583605 1.65363e-7 -0.9996144 0.02776759 0.9510216 -0.3090055 0.008583605</float_array>
          <technique_common>
            <accessor source="#Colmesh-1-mesh-normals-array" count="15" stride="3">
              <param name="X" type="float"/>
              <param name="Y" type="float"/>
              <param name="Z" type="float"/>
            </accessor>
          </technique_common>
        </source>
        <vertices id="Colmesh-1-mesh-vertices">
          <input semantic="POSITION" source="#Colmesh-1-mesh-positions"/>
        </vertices>
        <polylist material="ColorEffectR27G177B88-material-material" count="16">
          <input semantic="VERTEX" source="#Colmesh-1-mesh-vertices" offset="0"/>
          <input semantic="NORMAL" source="#Colmesh-1-mesh-normals" offset="1"/>
          <vcount>3 3 3 3 3 3 3 3 3 3 3 3 3 3 3 3 </vcount>
          <p>0 0 1 0 6 0 0 1 5 1 9 1 1 2 2 2 7 2 3 3 8 3 7 3 4 4 9 4 8 4 7 5 8 5 9 5 3 6 2 6 4 6 2 6 1 6 0 6 4 7 2 7 0 7 6 8 7 8 9 8 5 9 6 9 9 9 5 10 0 10 6 10 4 11 0 11 9 11 6 12 1 12 7 12 2 13 3 13 7 13 3 14 4 14 8 14</p>
        </polylist>
      </mesh>
      <extra><technique profile="MAYA"><double_sided>1</double_sided></technique></extra>
    </geometry>
  </library_geometries>
  <library_controllers/>
  <library_visual_scenes>
    <visual_scene id="Scene" name="Scene">
      <node id="base00" name="base00" type="NODE">
        <matrix sid="transform">1 0 0 0 0 1 0 0 0 0 1 0 0 0 0 1</matrix>
        <node id="bb__autobillboard25" name="bb__autobillboard25" type="NODE">
          <matrix sid="transform">1 0 0 0 0 1 0 0 0 0 1 0 0 0 0 1</matrix>
        </node>
        <node id="collision-1" name="collision-1" type="NODE">
          <matrix sid="transform">1 0 0 0 0 1 0 0 0 0 1 0 0 0 0 1</matrix>
        </node>
        <node id="detail350" name="detail350" type="NODE">
          <matrix sid="transform">1 0 0 0 0 1 0 0 0 0 1 0 0 0 0 1</matrix>
        </node>
        <node id="detail900" name="detail900" type="NODE">
          <matrix sid="transform">1 0 0 0 0 1 0 0 0 0 1 0 0 0 0 1</matrix>
        </node>
        <node id="start01" name="start01" type="NODE">
          <matrix sid="transform">1 0 0 0 0 1 0 0 0 0 1 0 0 0 0 1</matrix>
          <node id="tree_oak_bush_a60" name="tree_oak_bush_a60" type="NODE">
            <matrix sid="transform">1 0 0 0 0 1 0 0 0 0 1 0 0 0 0 1</matrix>
            <instance_geometry url="#tree_oak_bush_a200_001-mesh" name="tree_oak_bush_a60">
              <bind_material>
                <technique_common>
                  <instance_material symbol="vegetation_palm_bark_01-material" target="#vegetation_palm_bark_01-material"/>
                  <instance_material symbol="vegetation_palm_01-material" target="#vegetation_palm_01-material"/>
                </technique_common>
              </bind_material>
            </instance_geometry>
          </node>
          <node id="tree_oak_bush_a200" name="tree_oak_bush_a200" type="NODE">
            <matrix sid="transform">1 0 0 0 0 1 0 0 0 0 1 0 0 0 0 1</matrix>
            <instance_geometry url="#tree_oak_bush_a200-mesh" name="tree_oak_bush_a200">
              <bind_material>
                <technique_common>
                  <instance_material symbol="vegetation_palm_bark_01-material" target="#vegetation_palm_bark_01-material"/>
                  <instance_material symbol="vegetation_palm_01-material" target="#vegetation_palm_01-material"/>
                </technique_common>
              </bind_material>
            </instance_geometry>
          </node>
          <node id="Colmesh-1" name="Colmesh-1" type="NODE">
            <matrix sid="transform">1 0 0 0 0 1 0 0 0 0 1 0 0 0 0 1</matrix>
            <instance_geometry url="#Colmesh-1-mesh" name="Colmesh-1">
              <bind_material>
                <technique_common>
                  <instance_material symbol="ColorEffectR27G177B88-material-material" target="#ColorEffectR27G177B88-material-material"/>
                </technique_common>
              </bind_material>
            </instance_geometry>
          </node>
        </node>
      </node>
    </visual_scene>
  </library_visual_scenes>
  <scene>
    <instance_visual_scene url="#Scene"/>
  </scene>
</COLLADA>